M48
; DRILL file {KiCad (5.1.2)-1} date 11/15/19 20:43:05
; FORMAT={-:-/ absolute / metric / decimal}
; #@! TF.CreationDate,2019-11-15T20:43:05-03:00
; #@! TF.GenerationSoftware,Kicad,Pcbnew,(5.1.2)-1
; #@! TF.FileFunction,Plated,1,2,PTH
FMAT,2
METRIC
T1C0.300
T2C0.500
T3C0.550
T4C1.000
%
G90
G05
T1
X41.0Y-67.2
X41.0Y-108.2
X41.9Y-70.1
X41.9Y-111.1
X44.8Y-60.9
X44.8Y-101.9
X45.25Y-60.45
X45.25Y-101.45
X48.5Y-66.7
X48.5Y-107.7
X49.0Y-58.0
X49.0Y-99.0
X50.0Y-69.9
X50.0Y-70.5
X50.0Y-110.9
X50.0Y-111.5
X53.0Y-76.0
X53.0Y-117.0
X53.6Y-76.0
X53.6Y-117.0
X53.75Y-58.75
X53.75Y-99.75
X54.5Y-65.6
X54.5Y-66.5
X54.5Y-106.6
X54.5Y-107.5
X55.4Y-65.6
X55.4Y-66.5
X55.4Y-106.6
X55.4Y-107.5
X56.5Y-58.0
X56.5Y-99.0
X57.3Y-70.9
X57.3Y-111.9
X59.075Y-69.3
X59.075Y-110.3
X60.1Y-67.0
X60.1Y-108.0
X60.6Y-75.175
X60.6Y-116.175
X61.087Y-74.688
X61.087Y-115.688
X62.8Y-60.32
X62.8Y-101.32
X62.85Y-57.2
X62.85Y-98.2
X63.48Y-60.32
X63.48Y-101.32
X65.9Y-62.4
X65.9Y-103.4
X66.2Y-75.2
X66.2Y-116.2
X67.2Y-74.8
X67.2Y-115.8
X73.5Y-55.7
X73.5Y-56.5
X73.5Y-96.7
X73.5Y-97.5
X74.0Y-76.45
X74.0Y-117.45
X74.3Y-61.0
X74.3Y-102.0
X74.4Y-55.7
X74.4Y-56.5
X74.4Y-96.7
X74.4Y-97.5
X74.9Y-65.7
X74.9Y-106.7
X75.0Y-67.1
X75.0Y-108.1
X75.154Y-85.154
X75.154Y-126.154
X75.6Y-76.3
X75.6Y-117.3
X75.746Y-85.154
X75.746Y-126.154
X75.8Y-62.5
X75.8Y-103.5
X77.224Y-60.976
X77.224Y-101.976
X77.4Y-73.5
X77.4Y-114.5
X78.7Y-59.627
X78.7Y-100.627
X78.8Y-68.7
X78.8Y-109.7
X79.299Y-65.901
X79.299Y-106.901
X79.5Y-60.8
X79.5Y-101.8
X79.9Y-65.0
X79.9Y-106.0
X80.0Y-72.1
X80.0Y-73.6
X80.0Y-113.1
X80.0Y-114.6
X80.4Y-64.5
X80.4Y-105.5
X81.5Y-72.1
X81.5Y-73.6
X81.5Y-113.1
X81.5Y-114.6
X82.1Y-59.5
X82.1Y-100.5
X82.6Y-66.8
X82.6Y-67.4
X82.6Y-107.8
X82.6Y-108.4
X83.0Y-72.054
X83.0Y-73.6
X83.0Y-113.054
X83.0Y-114.6
X83.4Y-66.8
X83.4Y-67.4
X83.4Y-107.8
X83.4Y-108.4
X83.401Y-62.499
X83.401Y-103.499
X84.5Y-60.9
X84.5Y-72.054
X84.5Y-73.55
X84.5Y-101.9
X84.5Y-113.054
X84.5Y-114.55
X86.2Y-68.4
X86.2Y-109.4
X86.6Y-51.3
X86.6Y-92.3
X86.792Y-56.434
X86.792Y-97.434
X86.8Y-54.6
X86.8Y-95.6
X87.4Y-54.6
X87.4Y-95.6
X87.7Y-80.921
X87.7Y-121.921
X88.379Y-80.921
X88.379Y-121.921
X88.4Y-58.4
X88.4Y-99.4
X89.243Y-80.125
X89.243Y-121.125
X90.3Y-84.5
X90.3Y-125.5
X91.498Y-82.775
X91.498Y-123.775
X91.5Y-54.7
X91.5Y-95.7
X92.15Y-80.3
X92.15Y-121.3
X92.3Y-75.9
X92.3Y-76.85
X92.3Y-116.9
X92.3Y-117.85
X92.837Y-76.375
X92.837Y-117.375
X92.9Y-67.9
X92.9Y-68.5
X92.9Y-108.9
X92.9Y-109.5
X93.843Y-76.743
X93.843Y-117.743
X93.9Y-54.1
X93.9Y-95.1
X94.25Y-63.2
X94.25Y-104.2
X95.0Y-53.2
X95.0Y-94.2
X95.35Y-66.8
X95.35Y-107.8
X95.4Y-82.5
X95.4Y-123.5
X95.7Y-53.2
X95.7Y-94.2
X96.0Y-62.4
X96.0Y-62.4
X96.0Y-103.4
X96.0Y-103.4
X96.2Y-82.5
X96.2Y-123.5
X96.7Y-62.4
X96.7Y-103.4
X97.0Y-72.8
X97.0Y-113.8
X97.7Y-72.8
X97.7Y-113.8
X100.6Y-61.7
X100.6Y-102.7
X100.8Y-60.1
X100.8Y-101.1
X102.146Y-85.154
X102.146Y-126.154
X102.754Y-85.154
X102.754Y-126.154
X103.4Y-73.4
X103.4Y-114.4
X103.5Y-72.25
X103.5Y-113.25
X103.7Y-81.7
X103.7Y-122.7
X104.0Y-73.4
X104.0Y-114.4
X104.1Y-72.25
X104.1Y-113.25
X105.3Y-67.7
X105.3Y-108.7
X105.55Y-70.85
X105.55Y-111.85
X105.9Y-53.7
X105.9Y-94.7
X106.6Y-53.7
X106.6Y-94.7
X107.179Y-72.25
X107.179Y-113.25
X107.3Y-73.0
X107.3Y-114.0
X107.75Y-72.25
X107.75Y-113.25
X108.637Y-71.126
X108.637Y-112.126
X109.0Y-62.5
X109.0Y-103.5
X109.194Y-67.508
X109.194Y-108.508
X109.6Y-67.0
X109.6Y-71.5
X109.6Y-108.0
X109.6Y-112.5
X109.607Y-68.009
X109.607Y-109.009
X109.805Y-70.495
X109.805Y-111.495
X110.3Y-68.7
X110.3Y-71.0
X110.3Y-109.7
X110.3Y-112.0
X110.313Y-70.025
X110.313Y-111.025
X112.634Y-66.527
X112.634Y-107.527
X112.8Y-67.2
X112.8Y-67.9
X112.8Y-108.2
X112.8Y-108.9
X113.0Y-84.0
X113.0Y-125.0
X113.05Y-66.0
X113.05Y-107.0
X113.2Y-65.0
X113.2Y-106.0
X114.1Y-70.0
X114.1Y-111.0
X114.3Y-74.2
X114.3Y-115.2
X114.5Y-84.0
X114.5Y-125.0
X114.613Y-69.063
X114.613Y-110.063
X114.774Y-80.437
X114.774Y-121.437
X114.973Y-61.2
X114.973Y-102.2
X115.011Y-77.461
X115.011Y-118.461
X115.025Y-67.95
X115.025Y-74.175
X115.025Y-108.95
X115.025Y-115.175
X115.5Y-63.6
X115.5Y-104.6
X115.869Y-77.469
X115.869Y-118.469
X116.0Y-67.0
X116.0Y-108.0
X116.6Y-66.0
X116.6Y-107.0
X117.0Y-74.6
X117.0Y-81.8
X117.0Y-115.6
X117.0Y-122.8
X117.4Y-79.149
X117.4Y-120.149
X117.5Y-78.12
X117.5Y-78.12
X117.5Y-119.12
X117.5Y-119.12
X118.0Y-77.5
X118.0Y-118.5
X118.4Y-62.7
X118.4Y-103.7
X119.0Y-72.975
X119.0Y-113.975
X119.35Y-81.75
X119.35Y-122.75
X119.628Y-72.169
X119.628Y-113.169
X120.103Y-71.2
X120.103Y-112.2
X120.6Y-70.0
X120.6Y-111.0
X120.7Y-84.5
X120.7Y-125.5
X121.111Y-62.275
X121.111Y-103.275
X121.2Y-77.9
X121.2Y-118.9
X121.45Y-66.5
X121.45Y-107.5
X121.7Y-72.0
X121.7Y-113.0
X122.0Y-61.7
X122.0Y-102.7
X122.2Y-72.5
X122.2Y-113.5
X122.7Y-71.9
X122.7Y-112.9
X122.736Y-80.836
X122.736Y-121.836
X123.25Y-63.85
X123.25Y-72.5
X123.25Y-104.85
X123.25Y-113.5
X123.5Y-58.8
X123.5Y-99.8
X123.687Y-61.961
X123.687Y-102.961
X123.7Y-84.3
X123.7Y-125.3
X123.75Y-77.2
X123.75Y-118.2
X123.9Y-63.0
X123.9Y-104.0
X124.1Y-69.475
X124.1Y-110.475
X124.3Y-70.9
X124.3Y-71.6
X124.3Y-111.9
X124.3Y-112.6
X124.4Y-62.5
X124.4Y-103.5
X124.5Y-80.8
X124.5Y-121.8
X124.8Y-58.8
X124.8Y-99.8
X125.0Y-70.9
X125.0Y-71.6
X125.0Y-111.9
X125.0Y-112.6
X125.1Y-68.5
X125.1Y-109.5
X125.5Y-58.8
X125.5Y-99.8
X125.575Y-66.0
X125.575Y-107.0
X126.0Y-82.5
X126.0Y-123.5
X126.197Y-66.527
X126.197Y-107.527
X126.3Y-59.6
X126.3Y-100.6
X126.9Y-81.0
X126.9Y-122.0
X127.5Y-82.5
X127.5Y-123.5
X127.75Y-80.564
X127.75Y-121.564
X128.383Y-65.475
X128.383Y-106.475
X128.467Y-64.507
X128.467Y-105.507
X128.65Y-73.5
X128.65Y-114.5
X128.7Y-71.5
X128.7Y-112.5
X128.8Y-75.2
X128.8Y-116.2
X128.864Y-65.022
X128.864Y-106.022
X129.1Y-62.425
X129.1Y-103.425
X129.4Y-61.2
X129.4Y-72.2
X129.4Y-102.2
X129.4Y-113.2
X129.875Y-67.0
X129.875Y-68.0
X129.875Y-108.0
X129.875Y-109.0
X129.9Y-74.01
X129.9Y-115.01
X130.3Y-67.5
X130.3Y-108.5
X131.325Y-69.547
X131.325Y-110.547
X131.625Y-82.2
X131.625Y-123.2
X131.775Y-69.074
X131.775Y-110.074
X132.3Y-69.75
X132.3Y-110.75
X132.33Y-67.224
X132.33Y-108.224
X132.775Y-66.75
X132.775Y-67.75
X132.775Y-107.75
X132.775Y-108.75
X133.3Y-82.7
X133.3Y-123.7
X133.4Y-60.0
X133.4Y-101.0
X133.9Y-82.2
X133.9Y-123.2
X134.1Y-60.0
X134.1Y-101.0
X135.0Y-57.6
X135.0Y-98.6
X135.5Y-73.4
X135.5Y-74.2
X135.5Y-114.4
X135.5Y-115.2
X135.61Y-57.825
X135.61Y-98.825
X136.0Y-83.7
X136.0Y-124.7
X136.1Y-82.7
X136.1Y-123.7
X137.3Y-61.2
X137.3Y-102.2
X138.35Y-61.95
X138.35Y-102.95
X142.6Y-61.5
X142.6Y-102.5
X144.5Y-72.499
X144.5Y-113.499
X145.1Y-85.1
X145.1Y-126.1
X157.5Y-67.2
X157.5Y-108.2
X158.4Y-70.1
X158.4Y-111.1
X161.3Y-60.9
X161.3Y-101.9
X161.75Y-60.45
X161.75Y-101.45
X165.0Y-66.7
X165.0Y-107.7
X165.5Y-58.0
X165.5Y-99.0
X166.5Y-69.9
X166.5Y-70.5
X166.5Y-110.9
X166.5Y-111.5
X169.5Y-76.0
X169.5Y-117.0
X170.1Y-76.0
X170.1Y-117.0
X170.25Y-58.75
X170.25Y-99.75
X171.0Y-65.6
X171.0Y-66.5
X171.0Y-106.6
X171.0Y-107.5
X171.9Y-65.6
X171.9Y-66.5
X171.9Y-106.6
X171.9Y-107.5
X173.0Y-58.0
X173.0Y-99.0
X173.8Y-70.9
X173.8Y-111.9
X175.575Y-69.3
X175.575Y-110.3
X176.6Y-67.0
X176.6Y-108.0
X177.1Y-75.175
X177.1Y-116.175
X177.588Y-74.688
X177.588Y-115.688
X179.3Y-60.32
X179.3Y-101.32
X179.35Y-57.2
X179.35Y-98.2
X179.98Y-60.32
X179.98Y-101.32
X182.4Y-62.4
X182.4Y-103.4
X182.7Y-75.2
X182.7Y-116.2
X183.7Y-74.8
X183.7Y-115.8
X190.0Y-55.7
X190.0Y-56.5
X190.0Y-96.7
X190.0Y-97.5
X190.5Y-76.45
X190.5Y-117.45
X190.8Y-61.0
X190.8Y-102.0
X190.9Y-55.7
X190.9Y-56.5
X190.9Y-96.7
X190.9Y-97.5
X191.4Y-65.7
X191.4Y-106.7
X191.5Y-67.1
X191.5Y-108.1
X191.654Y-85.154
X191.654Y-126.154
X192.1Y-76.3
X192.1Y-117.3
X192.246Y-85.154
X192.246Y-126.154
X192.3Y-62.5
X192.3Y-103.5
X193.724Y-60.976
X193.724Y-101.976
X193.9Y-73.5
X193.9Y-114.5
X195.2Y-59.627
X195.2Y-100.627
X195.3Y-68.7
X195.3Y-109.7
X195.799Y-65.901
X195.799Y-106.901
X196.0Y-60.8
X196.0Y-101.8
X196.4Y-65.0
X196.4Y-106.0
X196.5Y-72.1
X196.5Y-73.6
X196.5Y-113.1
X196.5Y-114.6
X196.9Y-64.5
X196.9Y-105.5
X198.0Y-72.1
X198.0Y-73.6
X198.0Y-113.1
X198.0Y-114.6
X198.6Y-59.5
X198.6Y-100.5
X199.1Y-66.8
X199.1Y-67.4
X199.1Y-107.8
X199.1Y-108.4
X199.5Y-72.054
X199.5Y-73.6
X199.5Y-113.054
X199.5Y-114.6
X199.9Y-66.8
X199.9Y-67.4
X199.9Y-107.8
X199.9Y-108.4
X199.901Y-62.499
X199.901Y-103.499
X201.0Y-60.9
X201.0Y-72.054
X201.0Y-73.55
X201.0Y-101.9
X201.0Y-113.054
X201.0Y-114.55
X202.7Y-68.4
X202.7Y-109.4
X203.1Y-51.3
X203.1Y-92.3
X203.292Y-56.434
X203.292Y-97.434
X203.3Y-54.6
X203.3Y-95.6
X203.9Y-54.6
X203.9Y-95.6
X204.2Y-80.921
X204.2Y-121.921
X204.879Y-80.921
X204.879Y-121.921
X204.9Y-58.4
X204.9Y-99.4
X205.743Y-80.125
X205.743Y-121.125
X206.8Y-84.5
X206.8Y-125.5
X207.998Y-82.775
X207.998Y-123.775
X208.0Y-54.7
X208.0Y-95.7
X208.65Y-80.3
X208.65Y-121.3
X208.8Y-75.9
X208.8Y-76.85
X208.8Y-116.9
X208.8Y-117.85
X209.337Y-76.375
X209.337Y-117.375
X209.4Y-67.9
X209.4Y-68.5
X209.4Y-108.9
X209.4Y-109.5
X210.343Y-76.743
X210.343Y-117.743
X210.4Y-54.1
X210.4Y-95.1
X210.75Y-63.2
X210.75Y-104.2
X211.5Y-53.2
X211.5Y-94.2
X211.85Y-66.8
X211.85Y-107.8
X211.9Y-82.5
X211.9Y-123.5
X212.2Y-53.2
X212.2Y-94.2
X212.5Y-62.4
X212.5Y-62.4
X212.5Y-103.4
X212.5Y-103.4
X212.7Y-82.5
X212.7Y-123.5
X213.2Y-62.4
X213.2Y-103.4
X213.5Y-72.8
X213.5Y-113.8
X214.2Y-72.8
X214.2Y-113.8
X217.1Y-61.7
X217.1Y-102.7
X217.3Y-60.1
X217.3Y-101.1
X218.646Y-85.154
X218.646Y-126.154
X219.254Y-85.154
X219.254Y-126.154
X219.9Y-73.4
X219.9Y-114.4
X220.0Y-72.25
X220.0Y-113.25
X220.2Y-81.7
X220.2Y-122.7
X220.5Y-73.4
X220.5Y-114.4
X220.6Y-72.25
X220.6Y-113.25
X221.8Y-67.7
X221.8Y-108.7
X222.05Y-70.85
X222.05Y-111.85
X222.4Y-53.7
X222.4Y-94.7
X223.1Y-53.7
X223.1Y-94.7
X223.679Y-72.25
X223.679Y-113.25
X223.8Y-73.0
X223.8Y-114.0
X224.25Y-72.25
X224.25Y-113.25
X225.137Y-71.126
X225.137Y-112.126
X225.5Y-62.5
X225.5Y-103.5
X225.694Y-67.508
X225.694Y-108.508
X226.1Y-67.0
X226.1Y-71.5
X226.1Y-108.0
X226.1Y-112.5
X226.107Y-68.009
X226.107Y-109.009
X226.305Y-70.495
X226.305Y-111.495
X226.8Y-68.7
X226.8Y-71.0
X226.8Y-109.7
X226.8Y-112.0
X226.813Y-70.025
X226.813Y-111.025
X229.134Y-66.527
X229.134Y-107.527
X229.3Y-67.2
X229.3Y-67.9
X229.3Y-108.2
X229.3Y-108.9
X229.5Y-84.0
X229.5Y-125.0
X229.55Y-66.0
X229.55Y-107.0
X229.7Y-65.0
X229.7Y-106.0
X230.6Y-70.0
X230.6Y-111.0
X230.8Y-74.2
X230.8Y-115.2
X231.0Y-84.0
X231.0Y-125.0
X231.113Y-69.063
X231.113Y-110.063
X231.274Y-80.437
X231.274Y-121.437
X231.473Y-61.2
X231.473Y-102.2
X231.511Y-77.461
X231.511Y-118.461
X231.525Y-67.95
X231.525Y-74.175
X231.525Y-108.95
X231.525Y-115.175
X232.0Y-63.6
X232.0Y-104.6
X232.369Y-77.469
X232.369Y-118.469
X232.5Y-67.0
X232.5Y-108.0
X233.1Y-66.0
X233.1Y-107.0
X233.5Y-74.6
X233.5Y-81.8
X233.5Y-115.6
X233.5Y-122.8
X233.9Y-79.149
X233.9Y-120.149
X234.0Y-78.12
X234.0Y-78.12
X234.0Y-119.12
X234.0Y-119.12
X234.5Y-77.5
X234.5Y-118.5
X234.9Y-62.7
X234.9Y-103.7
X235.5Y-72.975
X235.5Y-113.975
X235.85Y-81.75
X235.85Y-122.75
X236.128Y-72.169
X236.128Y-113.169
X236.603Y-71.2
X236.603Y-112.2
X237.1Y-70.0
X237.1Y-111.0
X237.2Y-84.5
X237.2Y-125.5
X237.611Y-62.275
X237.611Y-103.275
X237.7Y-77.9
X237.7Y-118.9
X237.95Y-66.5
X237.95Y-107.5
X238.2Y-72.0
X238.2Y-113.0
X238.5Y-61.7
X238.5Y-102.7
X238.7Y-72.5
X238.7Y-113.5
X239.2Y-71.9
X239.2Y-112.9
X239.236Y-80.836
X239.236Y-121.836
X239.75Y-63.85
X239.75Y-72.5
X239.75Y-104.85
X239.75Y-113.5
X240.0Y-58.8
X240.0Y-99.8
X240.187Y-61.961
X240.187Y-102.961
X240.2Y-84.3
X240.2Y-125.3
X240.25Y-77.2
X240.25Y-118.2
X240.4Y-63.0
X240.4Y-104.0
X240.6Y-69.475
X240.6Y-110.475
X240.8Y-70.9
X240.8Y-71.6
X240.8Y-111.9
X240.8Y-112.6
X240.9Y-62.5
X240.9Y-103.5
X241.0Y-80.8
X241.0Y-121.8
X241.3Y-58.8
X241.3Y-99.8
X241.5Y-70.9
X241.5Y-71.6
X241.5Y-111.9
X241.5Y-112.6
X241.6Y-68.5
X241.6Y-109.5
X242.0Y-58.8
X242.0Y-99.8
X242.075Y-66.0
X242.075Y-107.0
X242.5Y-82.5
X242.5Y-123.5
X242.697Y-66.527
X242.697Y-107.527
X242.8Y-59.6
X242.8Y-100.6
X243.4Y-81.0
X243.4Y-122.0
X244.0Y-82.5
X244.0Y-123.5
X244.25Y-80.564
X244.25Y-121.564
X244.883Y-65.475
X244.883Y-106.475
X244.967Y-64.507
X244.967Y-105.507
X245.15Y-73.5
X245.15Y-114.5
X245.2Y-71.5
X245.2Y-112.5
X245.3Y-75.2
X245.3Y-116.2
X245.364Y-65.022
X245.364Y-106.022
X245.6Y-62.425
X245.6Y-103.425
X245.9Y-61.2
X245.9Y-72.2
X245.9Y-102.2
X245.9Y-113.2
X246.375Y-67.0
X246.375Y-68.0
X246.375Y-108.0
X246.375Y-109.0
X246.4Y-74.01
X246.4Y-115.01
X246.8Y-67.5
X246.8Y-108.5
X247.825Y-69.547
X247.825Y-110.547
X248.125Y-82.2
X248.125Y-123.2
X248.275Y-69.074
X248.275Y-110.074
X248.8Y-69.75
X248.8Y-110.75
X248.83Y-67.224
X248.83Y-108.224
X249.275Y-66.75
X249.275Y-67.75
X249.275Y-107.75
X249.275Y-108.75
X249.8Y-82.7
X249.8Y-123.7
X249.9Y-60.0
X249.9Y-101.0
X250.4Y-82.2
X250.4Y-123.2
X250.6Y-60.0
X250.6Y-101.0
X251.5Y-57.6
X251.5Y-98.6
X252.0Y-73.4
X252.0Y-74.2
X252.0Y-114.4
X252.0Y-115.2
X252.11Y-57.825
X252.11Y-98.825
X252.5Y-83.7
X252.5Y-124.7
X252.6Y-82.7
X252.6Y-123.7
X253.8Y-61.2
X253.8Y-102.2
X254.85Y-61.95
X254.85Y-102.95
X259.1Y-61.5
X259.1Y-102.5
X261.0Y-72.499
X261.0Y-113.499
X261.6Y-85.1
X261.6Y-126.1
T4
X215.5Y-74.25
X218.04Y-74.25
X78.0Y-97.0
X80.54Y-97.0
X83.08Y-97.0
X85.62Y-97.0
X88.16Y-97.0
X90.7Y-97.0
X93.24Y-97.0
X95.78Y-97.0
X98.32Y-97.0
X100.86Y-97.0
X103.4Y-97.0
X105.94Y-97.0
X108.48Y-97.0
X111.02Y-97.0
X113.56Y-97.0
X116.1Y-97.0
X118.64Y-97.0
X121.18Y-97.0
X123.72Y-97.0
X126.26Y-97.0
X128.8Y-97.0
X131.34Y-97.0
X133.88Y-97.0
X136.42Y-97.0
X138.96Y-97.0
X141.5Y-97.0
X144.04Y-97.0
X78.0Y-79.5
X80.54Y-79.5
X83.08Y-79.5
X85.62Y-79.5
X88.16Y-79.5
X90.7Y-79.5
X93.24Y-79.5
X95.78Y-79.5
X98.32Y-79.5
X100.86Y-79.5
X103.4Y-79.5
X105.94Y-79.5
X108.48Y-79.5
X111.02Y-79.5
X113.56Y-79.5
X116.1Y-79.5
X118.64Y-79.5
X121.18Y-79.5
X123.72Y-79.5
X126.26Y-79.5
X128.8Y-79.5
X131.34Y-79.5
X133.88Y-79.5
X136.42Y-79.5
X138.96Y-79.5
X141.5Y-79.5
X144.04Y-79.5
X63.0Y-53.0
X65.54Y-53.0
X253.0Y-117.23
X255.54Y-104.53
X255.54Y-107.07
X255.54Y-109.61
X255.54Y-112.15
X255.54Y-114.69
X255.54Y-117.23
X258.08Y-104.53
X258.08Y-107.07
X258.08Y-109.61
X258.08Y-112.15
X258.08Y-114.69
X258.08Y-117.23
X260.62Y-104.53
X260.62Y-107.07
X260.62Y-109.61
X260.62Y-112.15
X260.62Y-114.69
X260.62Y-117.23
X78.0Y-120.5
X80.54Y-120.5
X83.08Y-120.5
X85.62Y-120.5
X88.16Y-120.5
X90.7Y-120.5
X93.24Y-120.5
X95.78Y-120.5
X98.32Y-120.5
X100.86Y-120.5
X103.4Y-120.5
X105.94Y-120.5
X108.48Y-120.5
X111.02Y-120.5
X113.56Y-120.5
X116.1Y-120.5
X118.64Y-120.5
X121.18Y-120.5
X123.72Y-120.5
X126.26Y-120.5
X128.8Y-120.5
X131.34Y-120.5
X133.88Y-120.5
X136.42Y-120.5
X138.96Y-120.5
X141.5Y-120.5
X144.04Y-120.5
X194.5Y-97.0
X197.04Y-97.0
X199.58Y-97.0
X202.12Y-97.0
X204.66Y-97.0
X207.2Y-97.0
X209.74Y-97.0
X212.28Y-97.0
X214.82Y-97.0
X217.36Y-97.0
X219.9Y-97.0
X222.44Y-97.0
X224.98Y-97.0
X227.52Y-97.0
X230.06Y-97.0
X232.6Y-97.0
X235.14Y-97.0
X237.68Y-97.0
X240.22Y-97.0
X242.76Y-97.0
X245.3Y-97.0
X247.84Y-97.0
X250.38Y-97.0
X252.92Y-97.0
X255.46Y-97.0
X258.0Y-97.0
X260.54Y-97.0
X179.5Y-53.0
X182.04Y-53.0
X63.0Y-94.0
X65.54Y-94.0
X136.5Y-76.23
X139.04Y-63.53
X139.04Y-66.07
X139.04Y-68.61
X139.04Y-71.15
X139.04Y-73.69
X139.04Y-76.23
X141.58Y-63.53
X141.58Y-66.07
X141.58Y-68.61
X141.58Y-71.15
X141.58Y-73.69
X141.58Y-76.23
X144.12Y-63.53
X144.12Y-66.07
X144.12Y-68.61
X144.12Y-71.15
X144.12Y-73.69
X144.12Y-76.23
X78.0Y-56.0
X80.54Y-56.0
X83.08Y-56.0
X85.62Y-56.0
X88.16Y-56.0
X90.7Y-56.0
X93.24Y-56.0
X95.78Y-56.0
X98.32Y-56.0
X100.86Y-56.0
X103.4Y-56.0
X105.94Y-56.0
X108.48Y-56.0
X111.02Y-56.0
X113.56Y-56.0
X116.1Y-56.0
X118.64Y-56.0
X121.18Y-56.0
X123.72Y-56.0
X126.26Y-56.0
X128.8Y-56.0
X131.34Y-56.0
X133.88Y-56.0
X136.42Y-56.0
X138.96Y-56.0
X141.5Y-56.0
X144.04Y-56.0
X253.0Y-76.23
X255.54Y-63.53
X255.54Y-66.07
X255.54Y-68.61
X255.54Y-71.15
X255.54Y-73.69
X255.54Y-76.23
X258.08Y-63.53
X258.08Y-66.07
X258.08Y-68.61
X258.08Y-71.15
X258.08Y-73.69
X258.08Y-76.23
X260.62Y-63.53
X260.62Y-66.07
X260.62Y-68.61
X260.62Y-71.15
X260.62Y-73.69
X260.62Y-76.23
X194.5Y-120.5
X197.04Y-120.5
X199.58Y-120.5
X202.12Y-120.5
X204.66Y-120.5
X207.2Y-120.5
X209.74Y-120.5
X212.28Y-120.5
X214.82Y-120.5
X217.36Y-120.5
X219.9Y-120.5
X222.44Y-120.5
X224.98Y-120.5
X227.52Y-120.5
X230.06Y-120.5
X232.6Y-120.5
X235.14Y-120.5
X237.68Y-120.5
X240.22Y-120.5
X242.76Y-120.5
X245.3Y-120.5
X247.84Y-120.5
X250.38Y-120.5
X252.92Y-120.5
X255.46Y-120.5
X258.0Y-120.5
X260.54Y-120.5
X215.5Y-115.25
X218.04Y-115.25
X99.0Y-115.25
X101.54Y-115.25
X194.5Y-79.5
X197.04Y-79.5
X199.58Y-79.5
X202.12Y-79.5
X204.66Y-79.5
X207.2Y-79.5
X209.74Y-79.5
X212.28Y-79.5
X214.82Y-79.5
X217.36Y-79.5
X219.9Y-79.5
X222.44Y-79.5
X224.98Y-79.5
X227.52Y-79.5
X230.06Y-79.5
X232.6Y-79.5
X235.14Y-79.5
X237.68Y-79.5
X240.22Y-79.5
X242.76Y-79.5
X245.3Y-79.5
X247.84Y-79.5
X250.38Y-79.5
X252.92Y-79.5
X255.46Y-79.5
X258.0Y-79.5
X260.54Y-79.5
X194.5Y-56.0
X197.04Y-56.0
X199.58Y-56.0
X202.12Y-56.0
X204.66Y-56.0
X207.2Y-56.0
X209.74Y-56.0
X212.28Y-56.0
X214.82Y-56.0
X217.36Y-56.0
X219.9Y-56.0
X222.44Y-56.0
X224.98Y-56.0
X227.52Y-56.0
X230.06Y-56.0
X232.6Y-56.0
X235.14Y-56.0
X237.68Y-56.0
X240.22Y-56.0
X242.76Y-56.0
X245.3Y-56.0
X247.84Y-56.0
X250.38Y-56.0
X252.92Y-56.0
X255.46Y-56.0
X258.0Y-56.0
X260.54Y-56.0
X136.5Y-117.23
X139.04Y-104.53
X139.04Y-107.07
X139.04Y-109.61
X139.04Y-112.15
X139.04Y-114.69
X139.04Y-117.23
X141.58Y-104.53
X141.58Y-107.07
X141.58Y-109.61
X141.58Y-112.15
X141.58Y-114.69
X141.58Y-117.23
X144.12Y-104.53
X144.12Y-107.07
X144.12Y-109.61
X144.12Y-112.15
X144.12Y-114.69
X144.12Y-117.23
X179.5Y-94.0
X182.04Y-94.0
X99.0Y-74.25
X101.54Y-74.25
T2
G00X152.825Y-65.0
M15
G01X153.475Y-65.0
M16
G05
G00X152.825Y-72.0
M15
G01X153.475Y-72.0
M16
G05
G00X36.325Y-65.0
M15
G01X36.975Y-65.0
M16
G05
G00X36.325Y-72.0
M15
G01X36.975Y-72.0
M16
G05
G00X152.825Y-106.0
M15
G01X153.475Y-106.0
M16
G05
G00X152.825Y-113.0
M15
G01X153.475Y-113.0
M16
G05
G00X36.325Y-106.0
M15
G01X36.975Y-106.0
M16
G05
G00X36.325Y-113.0
M15
G01X36.975Y-113.0
M16
G05
T3
G00X39.35Y-106.85
M15
G01X39.35Y-107.15
M16
G05
G00X39.35Y-111.85
M15
G01X39.35Y-112.15
M16
G05
G00X155.85Y-65.85
M15
G01X155.85Y-66.15
M16
G05
G00X155.85Y-70.85
M15
G01X155.85Y-71.15
M16
G05
G00X39.35Y-65.85
M15
G01X39.35Y-66.15
M16
G05
G00X39.35Y-70.85
M15
G01X39.35Y-71.15
M16
G05
G00X155.85Y-106.85
M15
G01X155.85Y-107.15
M16
G05
G00X155.85Y-111.85
M15
G01X155.85Y-112.15
M16
G05
T0
M30
