G04 #@! TF.GenerationSoftware,KiCad,Pcbnew,(5.1.2)-1*
G04 #@! TF.CreationDate,2019-11-15T20:45:12-03:00*
G04 #@! TF.ProjectId,TP3-panel,5450332d-7061-46e6-956c-2e6b69636164,v1.0*
G04 #@! TF.SameCoordinates,Original*
G04 #@! TF.FileFunction,Paste,Top*
G04 #@! TF.FilePolarity,Positive*
%FSLAX46Y46*%
G04 Gerber Fmt 4.6, Leading zero omitted, Abs format (unit mm)*
G04 Created by KiCad (PCBNEW (5.1.2)-1) date 2019-11-15 20:45:12*
%MOMM*%
%LPD*%
G04 APERTURE LIST*
%ADD10C,0.100000*%
%ADD11R,0.900000X0.500000*%
%ADD12R,0.600000X0.450000*%
%ADD13R,0.450000X0.600000*%
%ADD14R,1.400000X1.000000*%
%ADD15R,1.400000X1.200000*%
%ADD16R,0.500000X0.500000*%
%ADD17R,2.400000X0.740000*%
%ADD18R,0.600000X0.400000*%
%ADD19R,0.800000X0.800000*%
%ADD20R,0.500000X0.900000*%
%ADD21R,0.900000X1.000000*%
%ADD22R,0.750000X0.800000*%
%ADD23R,0.800000X0.900000*%
%ADD24R,1.200000X0.600000*%
%ADD25R,1.200000X1.400000*%
%ADD26R,0.800000X0.750000*%
%ADD27R,1.250000X1.000000*%
%ADD28R,0.900000X0.800000*%
%ADD29R,4.500000X2.000000*%
%ADD30R,1.000000X1.250000*%
%ADD31R,0.650000X0.400000*%
%ADD32R,1.500000X1.000000*%
%ADD33R,2.590800X2.590800*%
%ADD34R,0.203200X0.609600*%
%ADD35R,0.609600X0.203200*%
%ADD36R,1.981200X0.558800*%
%ADD37R,1.117600X0.482600*%
%ADD38R,1.500000X0.400000*%
%ADD39R,1.500000X0.280000*%
%ADD40R,0.400000X1.500000*%
%ADD41R,0.280000X1.500000*%
%ADD42R,3.000000X0.650000*%
%ADD43R,0.310000X0.990000*%
%ADD44R,0.990000X0.310000*%
%ADD45R,4.700000X4.700000*%
%ADD46R,1.350000X0.400000*%
G04 APERTURE END LIST*
D10*
G36*
X173505000Y-107345333D02*
G01*
X173505000Y-109005000D01*
X171845333Y-109005000D01*
X171845333Y-107345333D01*
X173505000Y-107345333D01*
G37*
G36*
X171155000Y-104992420D02*
G01*
X171155000Y-106655000D01*
X169492420Y-106655000D01*
X169492420Y-104992420D01*
X171155000Y-104992420D01*
G37*
G36*
X173505000Y-104991290D02*
G01*
X173505000Y-106655000D01*
X171845638Y-106655000D01*
X171845638Y-104991290D01*
X173505000Y-104991290D01*
G37*
G36*
X171155000Y-107345158D02*
G01*
X171155000Y-109005000D01*
X169494080Y-109005000D01*
X169494080Y-107345158D01*
X171155000Y-107345158D01*
G37*
G36*
X57005000Y-107345333D02*
G01*
X57005000Y-109005000D01*
X55345333Y-109005000D01*
X55345333Y-107345333D01*
X57005000Y-107345333D01*
G37*
G36*
X54655000Y-104992420D02*
G01*
X54655000Y-106655000D01*
X52992420Y-106655000D01*
X52992420Y-104992420D01*
X54655000Y-104992420D01*
G37*
G36*
X57005000Y-104991290D02*
G01*
X57005000Y-106655000D01*
X55345638Y-106655000D01*
X55345638Y-104991290D01*
X57005000Y-104991290D01*
G37*
G36*
X54655000Y-107345158D02*
G01*
X54655000Y-109005000D01*
X52994080Y-109005000D01*
X52994080Y-107345158D01*
X54655000Y-107345158D01*
G37*
G36*
X173505000Y-66345333D02*
G01*
X173505000Y-68005000D01*
X171845333Y-68005000D01*
X171845333Y-66345333D01*
X173505000Y-66345333D01*
G37*
G36*
X171155000Y-63992420D02*
G01*
X171155000Y-65655000D01*
X169492420Y-65655000D01*
X169492420Y-63992420D01*
X171155000Y-63992420D01*
G37*
G36*
X173505000Y-63991290D02*
G01*
X173505000Y-65655000D01*
X171845638Y-65655000D01*
X171845638Y-63991290D01*
X173505000Y-63991290D01*
G37*
G36*
X171155000Y-66345158D02*
G01*
X171155000Y-68005000D01*
X169494080Y-68005000D01*
X169494080Y-66345158D01*
X171155000Y-66345158D01*
G37*
G36*
X54655000Y-66345158D02*
G01*
X54655000Y-68005000D01*
X52994080Y-68005000D01*
X52994080Y-66345158D01*
X54655000Y-66345158D01*
G37*
G36*
X57005000Y-63991290D02*
G01*
X57005000Y-65655000D01*
X55345638Y-65655000D01*
X55345638Y-63991290D01*
X57005000Y-63991290D01*
G37*
G36*
X54655000Y-63992420D02*
G01*
X54655000Y-65655000D01*
X52992420Y-65655000D01*
X52992420Y-63992420D01*
X54655000Y-63992420D01*
G37*
G36*
X57005000Y-66345333D02*
G01*
X57005000Y-68005000D01*
X55345333Y-68005000D01*
X55345333Y-66345333D01*
X57005000Y-66345333D01*
G37*
D11*
X189000000Y-108750000D03*
X189000000Y-107250000D03*
X72500000Y-108750000D03*
X72500000Y-107250000D03*
X189000000Y-67750000D03*
X189000000Y-66250000D03*
D12*
X219550000Y-124000000D03*
X217450000Y-124000000D03*
X103050000Y-124000000D03*
X100950000Y-124000000D03*
X219550000Y-83000000D03*
X217450000Y-83000000D03*
D13*
X189500000Y-123450000D03*
X189500000Y-125550000D03*
X73000000Y-123450000D03*
X73000000Y-125550000D03*
X189500000Y-82450000D03*
X189500000Y-84550000D03*
D14*
X160400000Y-112450000D03*
X160400000Y-110550000D03*
X162600000Y-110550000D03*
D15*
X162600000Y-112270000D03*
D14*
X43900000Y-112450000D03*
X43900000Y-110550000D03*
X46100000Y-110550000D03*
D15*
X46100000Y-112270000D03*
D14*
X160400000Y-71450000D03*
X160400000Y-69550000D03*
X162600000Y-69550000D03*
D15*
X162600000Y-71270000D03*
D16*
X192400000Y-123000000D03*
X194600000Y-123000000D03*
X75900000Y-123000000D03*
X78100000Y-123000000D03*
X192400000Y-82000000D03*
X194600000Y-82000000D03*
X192400000Y-125000000D03*
X194600000Y-125000000D03*
X75900000Y-125000000D03*
X78100000Y-125000000D03*
X192400000Y-84000000D03*
X194600000Y-84000000D03*
D17*
X218450000Y-111040000D03*
X214550000Y-111040000D03*
X218450000Y-109770000D03*
X214550000Y-109770000D03*
X218450000Y-108500000D03*
X214550000Y-108500000D03*
X218450000Y-107230000D03*
X214550000Y-107230000D03*
X218450000Y-105960000D03*
X214550000Y-105960000D03*
X101950000Y-111040000D03*
X98050000Y-111040000D03*
X101950000Y-109770000D03*
X98050000Y-109770000D03*
X101950000Y-108500000D03*
X98050000Y-108500000D03*
X101950000Y-107230000D03*
X98050000Y-107230000D03*
X101950000Y-105960000D03*
X98050000Y-105960000D03*
X218450000Y-70040000D03*
X214550000Y-70040000D03*
X218450000Y-68770000D03*
X214550000Y-68770000D03*
X218450000Y-67500000D03*
X214550000Y-67500000D03*
X218450000Y-66230000D03*
X214550000Y-66230000D03*
X218450000Y-64960000D03*
X214550000Y-64960000D03*
D18*
X168000000Y-100950000D03*
X168000000Y-100050000D03*
X51500000Y-100950000D03*
X51500000Y-100050000D03*
X168000000Y-59950000D03*
X168000000Y-59050000D03*
D19*
X214500000Y-122700000D03*
X214500000Y-124300000D03*
X98000000Y-122700000D03*
X98000000Y-124300000D03*
X214500000Y-81700000D03*
X214500000Y-83300000D03*
D20*
X218250000Y-118000000D03*
X216750000Y-118000000D03*
X101750000Y-118000000D03*
X100250000Y-118000000D03*
X218250000Y-77000000D03*
X216750000Y-77000000D03*
D21*
X251550000Y-124800000D03*
X251550000Y-123200000D03*
X247450000Y-124800000D03*
X247450000Y-123200000D03*
X135050000Y-124800000D03*
X135050000Y-123200000D03*
X130950000Y-124800000D03*
X130950000Y-123200000D03*
X251550000Y-83800000D03*
X251550000Y-82200000D03*
X247450000Y-83800000D03*
X247450000Y-82200000D03*
D19*
X223800000Y-125500000D03*
X222200000Y-125500000D03*
X107300000Y-125500000D03*
X105700000Y-125500000D03*
X223800000Y-84500000D03*
X222200000Y-84500000D03*
X176000000Y-114300000D03*
X176000000Y-112700000D03*
X59500000Y-114300000D03*
X59500000Y-112700000D03*
X176000000Y-73300000D03*
X176000000Y-71700000D03*
X163000000Y-104800000D03*
X163000000Y-103200000D03*
X46500000Y-104800000D03*
X46500000Y-103200000D03*
X163000000Y-63800000D03*
X163000000Y-62200000D03*
D22*
X225000000Y-113250000D03*
X225000000Y-114750000D03*
X108500000Y-113250000D03*
X108500000Y-114750000D03*
X225000000Y-72250000D03*
X225000000Y-73750000D03*
D23*
X166000000Y-112500000D03*
X166950000Y-114500000D03*
X165050000Y-114500000D03*
X49500000Y-112500000D03*
X50450000Y-114500000D03*
X48550000Y-114500000D03*
X166000000Y-71500000D03*
X166950000Y-73500000D03*
X165050000Y-73500000D03*
D24*
X228350000Y-122550000D03*
X234650000Y-122550000D03*
X234650000Y-123450000D03*
X228350000Y-123450000D03*
X111850000Y-122550000D03*
X118150000Y-122550000D03*
X118150000Y-123450000D03*
X111850000Y-123450000D03*
X228350000Y-81550000D03*
X234650000Y-81550000D03*
X234650000Y-82450000D03*
X228350000Y-82450000D03*
D25*
X208350000Y-106400000D03*
X208350000Y-108600000D03*
X206650000Y-108600000D03*
X206650000Y-106400000D03*
X91850000Y-106400000D03*
X91850000Y-108600000D03*
X90150000Y-108600000D03*
X90150000Y-106400000D03*
X208350000Y-65400000D03*
X208350000Y-67600000D03*
X206650000Y-67600000D03*
X206650000Y-65400000D03*
D26*
X194250000Y-110500000D03*
X192750000Y-110500000D03*
X77750000Y-110500000D03*
X76250000Y-110500000D03*
X194250000Y-69500000D03*
X192750000Y-69500000D03*
X248750000Y-101000000D03*
X247250000Y-101000000D03*
X132250000Y-101000000D03*
X130750000Y-101000000D03*
X248750000Y-60000000D03*
X247250000Y-60000000D03*
D22*
X241000000Y-124250000D03*
X241000000Y-122750000D03*
X124500000Y-124250000D03*
X124500000Y-122750000D03*
X241000000Y-83250000D03*
X241000000Y-81750000D03*
X202500000Y-116750000D03*
X202500000Y-115250000D03*
X86000000Y-116750000D03*
X86000000Y-115250000D03*
X202500000Y-75750000D03*
X202500000Y-74250000D03*
X248000000Y-112750000D03*
X248000000Y-114250000D03*
X131500000Y-112750000D03*
X131500000Y-114250000D03*
X248000000Y-71750000D03*
X248000000Y-73250000D03*
D19*
X208500000Y-112800000D03*
X208500000Y-111200000D03*
X92000000Y-112800000D03*
X92000000Y-111200000D03*
X208500000Y-71800000D03*
X208500000Y-70200000D03*
D21*
X261050000Y-124800000D03*
X261050000Y-123200000D03*
X256950000Y-124800000D03*
X256950000Y-123200000D03*
X144550000Y-124800000D03*
X144550000Y-123200000D03*
X140450000Y-124800000D03*
X140450000Y-123200000D03*
X261050000Y-83800000D03*
X261050000Y-82200000D03*
X256950000Y-83800000D03*
X256950000Y-82200000D03*
D27*
X206000000Y-100500000D03*
X206000000Y-102500000D03*
X89500000Y-100500000D03*
X89500000Y-102500000D03*
X206000000Y-59500000D03*
X206000000Y-61500000D03*
D26*
X248250000Y-107000000D03*
X246750000Y-107000000D03*
X131750000Y-107000000D03*
X130250000Y-107000000D03*
X248250000Y-66000000D03*
X246750000Y-66000000D03*
X224250000Y-118000000D03*
X222750000Y-118000000D03*
X107750000Y-118000000D03*
X106250000Y-118000000D03*
X224250000Y-77000000D03*
X222750000Y-77000000D03*
D22*
X195000000Y-116750000D03*
X195000000Y-115250000D03*
X78500000Y-116750000D03*
X78500000Y-115250000D03*
X195000000Y-75750000D03*
X195000000Y-74250000D03*
X198000000Y-112250000D03*
X198000000Y-113750000D03*
X81500000Y-112250000D03*
X81500000Y-113750000D03*
X198000000Y-71250000D03*
X198000000Y-72750000D03*
D28*
X251000000Y-110500000D03*
X253000000Y-109550000D03*
X253000000Y-111450000D03*
X134500000Y-110500000D03*
X136500000Y-109550000D03*
X136500000Y-111450000D03*
X251000000Y-69500000D03*
X253000000Y-68550000D03*
X253000000Y-70450000D03*
D29*
X164250000Y-94600000D03*
X172750000Y-94600000D03*
X47750000Y-94600000D03*
X56250000Y-94600000D03*
X164250000Y-53600000D03*
X172750000Y-53600000D03*
D30*
X189000000Y-110500000D03*
X191000000Y-110500000D03*
X72500000Y-110500000D03*
X74500000Y-110500000D03*
X189000000Y-69500000D03*
X191000000Y-69500000D03*
D20*
X162750000Y-115500000D03*
X161250000Y-115500000D03*
X46250000Y-115500000D03*
X44750000Y-115500000D03*
X162750000Y-74500000D03*
X161250000Y-74500000D03*
D19*
X208500000Y-115800000D03*
X208500000Y-114200000D03*
X92000000Y-115800000D03*
X92000000Y-114200000D03*
X208500000Y-74800000D03*
X208500000Y-73200000D03*
D22*
X249500000Y-112750000D03*
X249500000Y-114250000D03*
X133000000Y-112750000D03*
X133000000Y-114250000D03*
X249500000Y-71750000D03*
X249500000Y-73250000D03*
D26*
X233250000Y-125000000D03*
X234750000Y-125000000D03*
X116750000Y-125000000D03*
X118250000Y-125000000D03*
X233250000Y-84000000D03*
X234750000Y-84000000D03*
X224750000Y-99500000D03*
X223250000Y-99500000D03*
X108250000Y-99500000D03*
X106750000Y-99500000D03*
X224750000Y-58500000D03*
X223250000Y-58500000D03*
D18*
X180500000Y-107050000D03*
X180500000Y-107950000D03*
X64000000Y-107050000D03*
X64000000Y-107950000D03*
X180500000Y-66050000D03*
X180500000Y-66950000D03*
D19*
X166800000Y-98000000D03*
X165200000Y-98000000D03*
X50300000Y-98000000D03*
X48700000Y-98000000D03*
X166800000Y-57000000D03*
X165200000Y-57000000D03*
D15*
X250600000Y-117850000D03*
X248400000Y-117850000D03*
X248400000Y-116150000D03*
X250600000Y-116150000D03*
X134100000Y-117850000D03*
X131900000Y-117850000D03*
X131900000Y-116150000D03*
X134100000Y-116150000D03*
X250600000Y-76850000D03*
X248400000Y-76850000D03*
X248400000Y-75150000D03*
X250600000Y-75150000D03*
D22*
X250500000Y-103250000D03*
X250500000Y-104750000D03*
X134000000Y-103250000D03*
X134000000Y-104750000D03*
X250500000Y-62250000D03*
X250500000Y-63750000D03*
X250500000Y-106250000D03*
X250500000Y-107750000D03*
X134000000Y-106250000D03*
X134000000Y-107750000D03*
X250500000Y-65250000D03*
X250500000Y-66750000D03*
X236500000Y-124250000D03*
X236500000Y-122750000D03*
X120000000Y-124250000D03*
X120000000Y-122750000D03*
X236500000Y-83250000D03*
X236500000Y-81750000D03*
X204250000Y-113750000D03*
X204250000Y-112250000D03*
X87750000Y-113750000D03*
X87750000Y-112250000D03*
X204250000Y-72750000D03*
X204250000Y-71250000D03*
D31*
X201450000Y-93350000D03*
X201450000Y-94650000D03*
X199550000Y-94000000D03*
X199550000Y-94650000D03*
X199550000Y-93350000D03*
X84950000Y-93350000D03*
X84950000Y-94650000D03*
X83050000Y-94000000D03*
X83050000Y-94650000D03*
X83050000Y-93350000D03*
X201450000Y-52350000D03*
X201450000Y-53650000D03*
X199550000Y-53000000D03*
X199550000Y-53650000D03*
X199550000Y-52350000D03*
D26*
X227250000Y-125000000D03*
X228750000Y-125000000D03*
X110750000Y-125000000D03*
X112250000Y-125000000D03*
X227250000Y-84000000D03*
X228750000Y-84000000D03*
X197750000Y-102250000D03*
X199250000Y-102250000D03*
X81250000Y-102250000D03*
X82750000Y-102250000D03*
X197750000Y-61250000D03*
X199250000Y-61250000D03*
X224750000Y-106500000D03*
X223250000Y-106500000D03*
X108250000Y-106500000D03*
X106750000Y-106500000D03*
X224750000Y-65500000D03*
X223250000Y-65500000D03*
D22*
X204000000Y-102750000D03*
X204000000Y-101250000D03*
X87500000Y-102750000D03*
X87500000Y-101250000D03*
X204000000Y-61750000D03*
X204000000Y-60250000D03*
D30*
X199500000Y-100500000D03*
X197500000Y-100500000D03*
X83000000Y-100500000D03*
X81000000Y-100500000D03*
X199500000Y-59500000D03*
X197500000Y-59500000D03*
D22*
X246500000Y-116250000D03*
X246500000Y-117750000D03*
X130000000Y-116250000D03*
X130000000Y-117750000D03*
X246500000Y-75250000D03*
X246500000Y-76750000D03*
D26*
X219750000Y-118000000D03*
X221250000Y-118000000D03*
X103250000Y-118000000D03*
X104750000Y-118000000D03*
X219750000Y-77000000D03*
X221250000Y-77000000D03*
D22*
X196500000Y-112250000D03*
X196500000Y-113750000D03*
X80000000Y-112250000D03*
X80000000Y-113750000D03*
X196500000Y-71250000D03*
X196500000Y-72750000D03*
D26*
X165750000Y-107000000D03*
X164250000Y-107000000D03*
X49250000Y-107000000D03*
X47750000Y-107000000D03*
X165750000Y-66000000D03*
X164250000Y-66000000D03*
X217750000Y-99500000D03*
X219250000Y-99500000D03*
X101250000Y-99500000D03*
X102750000Y-99500000D03*
X217750000Y-58500000D03*
X219250000Y-58500000D03*
D22*
X171000000Y-101250000D03*
X171000000Y-99750000D03*
X54500000Y-101250000D03*
X54500000Y-99750000D03*
X171000000Y-60250000D03*
X171000000Y-58750000D03*
X205000000Y-106250000D03*
X205000000Y-104750000D03*
X88500000Y-106250000D03*
X88500000Y-104750000D03*
X205000000Y-65250000D03*
X205000000Y-63750000D03*
X174500000Y-101250000D03*
X174500000Y-99750000D03*
X58000000Y-101250000D03*
X58000000Y-99750000D03*
X174500000Y-60250000D03*
X174500000Y-58750000D03*
X198500000Y-124250000D03*
X198500000Y-122750000D03*
X82000000Y-124250000D03*
X82000000Y-122750000D03*
X198500000Y-83250000D03*
X198500000Y-81750000D03*
X205000000Y-107750000D03*
X205000000Y-109250000D03*
X88500000Y-107750000D03*
X88500000Y-109250000D03*
X205000000Y-66750000D03*
X205000000Y-68250000D03*
X169500000Y-101250000D03*
X169500000Y-99750000D03*
X53000000Y-101250000D03*
X53000000Y-99750000D03*
X169500000Y-60250000D03*
X169500000Y-58750000D03*
X198000000Y-94750000D03*
X198000000Y-93250000D03*
X81500000Y-94750000D03*
X81500000Y-93250000D03*
X198000000Y-53750000D03*
X198000000Y-52250000D03*
X179000000Y-108250000D03*
X179000000Y-106750000D03*
X62500000Y-108250000D03*
X62500000Y-106750000D03*
X179000000Y-67250000D03*
X179000000Y-65750000D03*
D26*
X168250000Y-98000000D03*
X169750000Y-98000000D03*
X51750000Y-98000000D03*
X53250000Y-98000000D03*
X168250000Y-57000000D03*
X169750000Y-57000000D03*
X165750000Y-108500000D03*
X164250000Y-108500000D03*
X49250000Y-108500000D03*
X47750000Y-108500000D03*
X165750000Y-67500000D03*
X164250000Y-67500000D03*
D30*
X155000000Y-115500000D03*
X157000000Y-115500000D03*
X38500000Y-115500000D03*
X40500000Y-115500000D03*
X155000000Y-74500000D03*
X157000000Y-74500000D03*
D27*
X196500000Y-123000000D03*
X196500000Y-125000000D03*
X80000000Y-123000000D03*
X80000000Y-125000000D03*
X196500000Y-82000000D03*
X196500000Y-84000000D03*
D22*
X201000000Y-112250000D03*
X201000000Y-113750000D03*
X84500000Y-112250000D03*
X84500000Y-113750000D03*
X201000000Y-71250000D03*
X201000000Y-72750000D03*
X177500000Y-108250000D03*
X177500000Y-106750000D03*
X61000000Y-108250000D03*
X61000000Y-106750000D03*
X177500000Y-67250000D03*
X177500000Y-65750000D03*
X199500000Y-112250000D03*
X199500000Y-113750000D03*
X83000000Y-112250000D03*
X83000000Y-113750000D03*
X199500000Y-71250000D03*
X199500000Y-72750000D03*
D26*
X171250000Y-98000000D03*
X172750000Y-98000000D03*
X54750000Y-98000000D03*
X56250000Y-98000000D03*
X171250000Y-57000000D03*
X172750000Y-57000000D03*
D22*
X206000000Y-124250000D03*
X206000000Y-122750000D03*
X89500000Y-124250000D03*
X89500000Y-122750000D03*
X206000000Y-83250000D03*
X206000000Y-81750000D03*
D27*
X208000000Y-123000000D03*
X208000000Y-125000000D03*
X91500000Y-123000000D03*
X91500000Y-125000000D03*
X208000000Y-82000000D03*
X208000000Y-84000000D03*
D20*
X223250000Y-108000000D03*
X224750000Y-108000000D03*
X106750000Y-108000000D03*
X108250000Y-108000000D03*
X223250000Y-67000000D03*
X224750000Y-67000000D03*
D11*
X249500000Y-92750000D03*
X249500000Y-94250000D03*
X133000000Y-92750000D03*
X133000000Y-94250000D03*
X249500000Y-51750000D03*
X249500000Y-53250000D03*
X248000000Y-94250000D03*
X248000000Y-92750000D03*
X131500000Y-94250000D03*
X131500000Y-92750000D03*
X248000000Y-53250000D03*
X248000000Y-51750000D03*
D20*
X253250000Y-113000000D03*
X251750000Y-113000000D03*
X136750000Y-113000000D03*
X135250000Y-113000000D03*
X253250000Y-72000000D03*
X251750000Y-72000000D03*
D11*
X257500000Y-94250000D03*
X257500000Y-92750000D03*
X141000000Y-94250000D03*
X141000000Y-92750000D03*
X257500000Y-53250000D03*
X257500000Y-51750000D03*
X259000000Y-94250000D03*
X259000000Y-92750000D03*
X142500000Y-94250000D03*
X142500000Y-92750000D03*
X259000000Y-53250000D03*
X259000000Y-51750000D03*
D20*
X253250000Y-107500000D03*
X251750000Y-107500000D03*
X136750000Y-107500000D03*
X135250000Y-107500000D03*
X253250000Y-66500000D03*
X251750000Y-66500000D03*
D11*
X242500000Y-122750000D03*
X242500000Y-124250000D03*
X126000000Y-122750000D03*
X126000000Y-124250000D03*
X242500000Y-81750000D03*
X242500000Y-83250000D03*
X244000000Y-122750000D03*
X244000000Y-124250000D03*
X127500000Y-122750000D03*
X127500000Y-124250000D03*
X244000000Y-81750000D03*
X244000000Y-83250000D03*
D20*
X223250000Y-103500000D03*
X224750000Y-103500000D03*
X106750000Y-103500000D03*
X108250000Y-103500000D03*
X223250000Y-62500000D03*
X224750000Y-62500000D03*
X215750000Y-112750000D03*
X217250000Y-112750000D03*
X99250000Y-112750000D03*
X100750000Y-112750000D03*
X215750000Y-71750000D03*
X217250000Y-71750000D03*
X253250000Y-105500000D03*
X251750000Y-105500000D03*
X136750000Y-105500000D03*
X135250000Y-105500000D03*
X253250000Y-64500000D03*
X251750000Y-64500000D03*
X253250000Y-104000000D03*
X251750000Y-104000000D03*
X136750000Y-104000000D03*
X135250000Y-104000000D03*
X253250000Y-63000000D03*
X251750000Y-63000000D03*
X223250000Y-105000000D03*
X224750000Y-105000000D03*
X106750000Y-105000000D03*
X108250000Y-105000000D03*
X223250000Y-64000000D03*
X224750000Y-64000000D03*
X223250000Y-102000000D03*
X224750000Y-102000000D03*
X106750000Y-102000000D03*
X108250000Y-102000000D03*
X223250000Y-61000000D03*
X224750000Y-61000000D03*
X223250000Y-111000000D03*
X224750000Y-111000000D03*
X106750000Y-111000000D03*
X108250000Y-111000000D03*
X223250000Y-70000000D03*
X224750000Y-70000000D03*
D11*
X239500000Y-122750000D03*
X239500000Y-124250000D03*
X123000000Y-122750000D03*
X123000000Y-124250000D03*
X239500000Y-81750000D03*
X239500000Y-83250000D03*
D20*
X223750000Y-123000000D03*
X225250000Y-123000000D03*
X107250000Y-123000000D03*
X108750000Y-123000000D03*
X223750000Y-82000000D03*
X225250000Y-82000000D03*
X221250000Y-123000000D03*
X222750000Y-123000000D03*
X104750000Y-123000000D03*
X106250000Y-123000000D03*
X221250000Y-82000000D03*
X222750000Y-82000000D03*
X231750000Y-125000000D03*
X230250000Y-125000000D03*
X115250000Y-125000000D03*
X113750000Y-125000000D03*
X231750000Y-84000000D03*
X230250000Y-84000000D03*
D11*
X246000000Y-122750000D03*
X246000000Y-124250000D03*
X129500000Y-122750000D03*
X129500000Y-124250000D03*
X246000000Y-81750000D03*
X246000000Y-83250000D03*
X201000000Y-115250000D03*
X201000000Y-116750000D03*
X84500000Y-115250000D03*
X84500000Y-116750000D03*
X201000000Y-74250000D03*
X201000000Y-75750000D03*
X201000000Y-101250000D03*
X201000000Y-102750000D03*
X84500000Y-101250000D03*
X84500000Y-102750000D03*
X201000000Y-60250000D03*
X201000000Y-61750000D03*
X193000000Y-102750000D03*
X193000000Y-101250000D03*
X76500000Y-102750000D03*
X76500000Y-101250000D03*
X193000000Y-61750000D03*
X193000000Y-60250000D03*
X202500000Y-112250000D03*
X202500000Y-113750000D03*
X86000000Y-112250000D03*
X86000000Y-113750000D03*
X202500000Y-71250000D03*
X202500000Y-72750000D03*
D20*
X161250000Y-114000000D03*
X162750000Y-114000000D03*
X44750000Y-114000000D03*
X46250000Y-114000000D03*
X161250000Y-73000000D03*
X162750000Y-73000000D03*
X217750000Y-103500000D03*
X219250000Y-103500000D03*
X101250000Y-103500000D03*
X102750000Y-103500000D03*
X217750000Y-62500000D03*
X219250000Y-62500000D03*
X177250000Y-110000000D03*
X178750000Y-110000000D03*
X60750000Y-110000000D03*
X62250000Y-110000000D03*
X177250000Y-69000000D03*
X178750000Y-69000000D03*
X192750000Y-107500000D03*
X194250000Y-107500000D03*
X76250000Y-107500000D03*
X77750000Y-107500000D03*
X192750000Y-66500000D03*
X194250000Y-66500000D03*
D11*
X210000000Y-122750000D03*
X210000000Y-124250000D03*
X93500000Y-122750000D03*
X93500000Y-124250000D03*
X210000000Y-81750000D03*
X210000000Y-83250000D03*
X170000000Y-112750000D03*
X170000000Y-114250000D03*
X53500000Y-112750000D03*
X53500000Y-114250000D03*
X170000000Y-71750000D03*
X170000000Y-73250000D03*
X196500000Y-115250000D03*
X196500000Y-116750000D03*
X80000000Y-115250000D03*
X80000000Y-116750000D03*
X196500000Y-74250000D03*
X196500000Y-75750000D03*
X204500000Y-93250000D03*
X204500000Y-94750000D03*
X88000000Y-93250000D03*
X88000000Y-94750000D03*
X204500000Y-52250000D03*
X204500000Y-53750000D03*
X196000000Y-101250000D03*
X196000000Y-102750000D03*
X79500000Y-101250000D03*
X79500000Y-102750000D03*
X196000000Y-60250000D03*
X196000000Y-61750000D03*
X191500000Y-101250000D03*
X191500000Y-102750000D03*
X75000000Y-101250000D03*
X75000000Y-102750000D03*
X191500000Y-60250000D03*
X191500000Y-61750000D03*
D20*
X192750000Y-109000000D03*
X194250000Y-109000000D03*
X76250000Y-109000000D03*
X77750000Y-109000000D03*
X192750000Y-68000000D03*
X194250000Y-68000000D03*
X192750000Y-106000000D03*
X194250000Y-106000000D03*
X76250000Y-106000000D03*
X77750000Y-106000000D03*
X192750000Y-65000000D03*
X194250000Y-65000000D03*
X164250000Y-103000000D03*
X165750000Y-103000000D03*
X47750000Y-103000000D03*
X49250000Y-103000000D03*
X164250000Y-62000000D03*
X165750000Y-62000000D03*
D11*
X171500000Y-112750000D03*
X171500000Y-114250000D03*
X55000000Y-112750000D03*
X55000000Y-114250000D03*
X171500000Y-71750000D03*
X171500000Y-73250000D03*
X190000000Y-102750000D03*
X190000000Y-101250000D03*
X73500000Y-102750000D03*
X73500000Y-101250000D03*
X190000000Y-61750000D03*
X190000000Y-60250000D03*
D20*
X192750000Y-104500000D03*
X194250000Y-104500000D03*
X76250000Y-104500000D03*
X77750000Y-104500000D03*
X192750000Y-63500000D03*
X194250000Y-63500000D03*
D11*
X176000000Y-99750000D03*
X176000000Y-101250000D03*
X59500000Y-99750000D03*
X59500000Y-101250000D03*
X176000000Y-58750000D03*
X176000000Y-60250000D03*
X165000000Y-101250000D03*
X165000000Y-99750000D03*
X48500000Y-101250000D03*
X48500000Y-99750000D03*
X165000000Y-60250000D03*
X165000000Y-58750000D03*
D20*
X177250000Y-105000000D03*
X178750000Y-105000000D03*
X60750000Y-105000000D03*
X62250000Y-105000000D03*
X177250000Y-64000000D03*
X178750000Y-64000000D03*
D11*
X207500000Y-93250000D03*
X207500000Y-94750000D03*
X91000000Y-93250000D03*
X91000000Y-94750000D03*
X207500000Y-52250000D03*
X207500000Y-53750000D03*
X168500000Y-114250000D03*
X168500000Y-112750000D03*
X52000000Y-114250000D03*
X52000000Y-112750000D03*
X168500000Y-73250000D03*
X168500000Y-71750000D03*
D20*
X161250000Y-108500000D03*
X162750000Y-108500000D03*
X44750000Y-108500000D03*
X46250000Y-108500000D03*
X161250000Y-67500000D03*
X162750000Y-67500000D03*
X205750000Y-111500000D03*
X207250000Y-111500000D03*
X89250000Y-111500000D03*
X90750000Y-111500000D03*
X205750000Y-70500000D03*
X207250000Y-70500000D03*
D11*
X202500000Y-101250000D03*
X202500000Y-102750000D03*
X86000000Y-101250000D03*
X86000000Y-102750000D03*
X202500000Y-60250000D03*
X202500000Y-61750000D03*
X198000000Y-115250000D03*
X198000000Y-116750000D03*
X81500000Y-115250000D03*
X81500000Y-116750000D03*
X198000000Y-74250000D03*
X198000000Y-75750000D03*
D20*
X223250000Y-109500000D03*
X224750000Y-109500000D03*
X106750000Y-109500000D03*
X108250000Y-109500000D03*
X223250000Y-68500000D03*
X224750000Y-68500000D03*
D11*
X194500000Y-101250000D03*
X194500000Y-102750000D03*
X78000000Y-101250000D03*
X78000000Y-102750000D03*
X194500000Y-60250000D03*
X194500000Y-61750000D03*
D20*
X205750000Y-114500000D03*
X207250000Y-114500000D03*
X89250000Y-114500000D03*
X90750000Y-114500000D03*
X205750000Y-73500000D03*
X207250000Y-73500000D03*
D11*
X173000000Y-101250000D03*
X173000000Y-99750000D03*
X56500000Y-101250000D03*
X56500000Y-99750000D03*
X173000000Y-60250000D03*
X173000000Y-58750000D03*
D20*
X217750000Y-102000000D03*
X219250000Y-102000000D03*
X101250000Y-102000000D03*
X102750000Y-102000000D03*
X217750000Y-61000000D03*
X219250000Y-61000000D03*
D11*
X180000000Y-113250000D03*
X180000000Y-111750000D03*
X63500000Y-113250000D03*
X63500000Y-111750000D03*
X180000000Y-72250000D03*
X180000000Y-70750000D03*
X255000000Y-122750000D03*
X255000000Y-124250000D03*
X138500000Y-122750000D03*
X138500000Y-124250000D03*
X255000000Y-81750000D03*
X255000000Y-83250000D03*
X199500000Y-115250000D03*
X199500000Y-116750000D03*
X83000000Y-115250000D03*
X83000000Y-116750000D03*
X199500000Y-74250000D03*
X199500000Y-75750000D03*
X173000000Y-112750000D03*
X173000000Y-114250000D03*
X56500000Y-112750000D03*
X56500000Y-114250000D03*
X173000000Y-71750000D03*
X173000000Y-73250000D03*
X203500000Y-106250000D03*
X203500000Y-107750000D03*
X87000000Y-106250000D03*
X87000000Y-107750000D03*
X203500000Y-65250000D03*
X203500000Y-66750000D03*
D20*
X166750000Y-117000000D03*
X165250000Y-117000000D03*
X50250000Y-117000000D03*
X48750000Y-117000000D03*
X166750000Y-76000000D03*
X165250000Y-76000000D03*
X161250000Y-107000000D03*
X162750000Y-107000000D03*
X44750000Y-107000000D03*
X46250000Y-107000000D03*
X161250000Y-66000000D03*
X162750000Y-66000000D03*
D11*
X174500000Y-112750000D03*
X174500000Y-114250000D03*
X58000000Y-112750000D03*
X58000000Y-114250000D03*
X174500000Y-71750000D03*
X174500000Y-73250000D03*
X213000000Y-124250000D03*
X213000000Y-122750000D03*
X96500000Y-124250000D03*
X96500000Y-122750000D03*
X213000000Y-83250000D03*
X213000000Y-81750000D03*
X221500000Y-114750000D03*
X221500000Y-113250000D03*
X105000000Y-114750000D03*
X105000000Y-113250000D03*
X221500000Y-73750000D03*
X221500000Y-72250000D03*
X166500000Y-101250000D03*
X166500000Y-99750000D03*
X50000000Y-101250000D03*
X50000000Y-99750000D03*
X166500000Y-60250000D03*
X166500000Y-58750000D03*
D20*
X165750000Y-104500000D03*
X164250000Y-104500000D03*
X49250000Y-104500000D03*
X47750000Y-104500000D03*
X165750000Y-63500000D03*
X164250000Y-63500000D03*
D11*
X211500000Y-122750000D03*
X211500000Y-124250000D03*
X95000000Y-122750000D03*
X95000000Y-124250000D03*
X211500000Y-81750000D03*
X211500000Y-83250000D03*
D20*
X177250000Y-103500000D03*
X178750000Y-103500000D03*
X60750000Y-103500000D03*
X62250000Y-103500000D03*
X177250000Y-62500000D03*
X178750000Y-62500000D03*
D32*
X255250000Y-94450000D03*
X255250000Y-93050000D03*
X251750000Y-94450000D03*
X251750000Y-93050000D03*
X138750000Y-94450000D03*
X138750000Y-93050000D03*
X135250000Y-94450000D03*
X135250000Y-93050000D03*
X255250000Y-53450000D03*
X255250000Y-52050000D03*
X251750000Y-53450000D03*
X251750000Y-52050000D03*
D20*
X205750000Y-113000000D03*
X207250000Y-113000000D03*
X89250000Y-113000000D03*
X90750000Y-113000000D03*
X205750000Y-72000000D03*
X207250000Y-72000000D03*
D11*
X238000000Y-124250000D03*
X238000000Y-122750000D03*
X121500000Y-124250000D03*
X121500000Y-122750000D03*
X238000000Y-83250000D03*
X238000000Y-81750000D03*
D33*
X199500000Y-107500000D03*
D34*
X200750000Y-109506600D03*
X200250001Y-109506600D03*
X199750000Y-109506600D03*
X199250000Y-109506600D03*
X198749999Y-109506600D03*
X198250000Y-109506600D03*
D35*
X197493400Y-108750000D03*
X197493400Y-108250001D03*
X197493400Y-107750000D03*
X197493400Y-107250000D03*
X197493400Y-106749999D03*
X197493400Y-106250000D03*
D34*
X198250000Y-105493400D03*
X198749999Y-105493400D03*
X199250000Y-105493400D03*
X199750000Y-105493400D03*
X200250001Y-105493400D03*
X200750000Y-105493400D03*
D35*
X201506600Y-106250000D03*
X201506600Y-106749999D03*
X201506600Y-107250000D03*
X201506600Y-107750000D03*
X201506600Y-108250001D03*
X201506600Y-108750000D03*
D33*
X83000000Y-107500000D03*
D34*
X84250000Y-109506600D03*
X83750001Y-109506600D03*
X83250000Y-109506600D03*
X82750000Y-109506600D03*
X82249999Y-109506600D03*
X81750000Y-109506600D03*
D35*
X80993400Y-108750000D03*
X80993400Y-108250001D03*
X80993400Y-107750000D03*
X80993400Y-107250000D03*
X80993400Y-106749999D03*
X80993400Y-106250000D03*
D34*
X81750000Y-105493400D03*
X82249999Y-105493400D03*
X82750000Y-105493400D03*
X83250000Y-105493400D03*
X83750001Y-105493400D03*
X84250000Y-105493400D03*
D35*
X85006600Y-106250000D03*
X85006600Y-106749999D03*
X85006600Y-107250000D03*
X85006600Y-107750000D03*
X85006600Y-108250001D03*
X85006600Y-108750000D03*
D33*
X199500000Y-66500000D03*
D34*
X200750000Y-68506600D03*
X200250001Y-68506600D03*
X199750000Y-68506600D03*
X199250000Y-68506600D03*
X198749999Y-68506600D03*
X198250000Y-68506600D03*
D35*
X197493400Y-67750000D03*
X197493400Y-67250001D03*
X197493400Y-66750000D03*
X197493400Y-66250000D03*
X197493400Y-65749999D03*
X197493400Y-65250000D03*
D34*
X198250000Y-64493400D03*
X198749999Y-64493400D03*
X199250000Y-64493400D03*
X199750000Y-64493400D03*
X200250001Y-64493400D03*
X200750000Y-64493400D03*
D35*
X201506600Y-65250000D03*
X201506600Y-65749999D03*
X201506600Y-66250000D03*
X201506600Y-66750000D03*
X201506600Y-67250001D03*
X201506600Y-67750000D03*
D36*
X210637800Y-99595000D03*
X210637800Y-100865000D03*
X210637800Y-102135000D03*
X210637800Y-103405000D03*
X215362200Y-103405000D03*
X215362200Y-102135000D03*
X215362200Y-100865000D03*
X215362200Y-99595000D03*
X94137800Y-99595000D03*
X94137800Y-100865000D03*
X94137800Y-102135000D03*
X94137800Y-103405000D03*
X98862200Y-103405000D03*
X98862200Y-102135000D03*
X98862200Y-100865000D03*
X98862200Y-99595000D03*
X210637800Y-58595000D03*
X210637800Y-59865000D03*
X210637800Y-61135000D03*
X210637800Y-62405000D03*
X215362200Y-62405000D03*
X215362200Y-61135000D03*
X215362200Y-59865000D03*
X215362200Y-58595000D03*
D37*
X204193800Y-123049999D03*
X204193800Y-124950001D03*
X201806200Y-124950001D03*
X201806200Y-124000000D03*
X201806200Y-123049999D03*
X87693800Y-123049999D03*
X87693800Y-124950001D03*
X85306200Y-124950001D03*
X85306200Y-124000000D03*
X85306200Y-123049999D03*
X204193800Y-82049999D03*
X204193800Y-83950001D03*
X201806200Y-83950001D03*
X201806200Y-83000000D03*
X201806200Y-82049999D03*
D11*
X253500000Y-122750000D03*
X253500000Y-124250000D03*
X137000000Y-122750000D03*
X137000000Y-124250000D03*
X253500000Y-81750000D03*
X253500000Y-83250000D03*
D38*
X228100000Y-115060000D03*
D39*
X228100000Y-114500000D03*
X228100000Y-114000000D03*
X228100000Y-113500000D03*
X228100000Y-113000000D03*
X228100000Y-112500000D03*
X228100000Y-112000000D03*
X228100000Y-111500000D03*
X228100000Y-111000000D03*
X228100000Y-110500000D03*
X228100000Y-110000000D03*
X228100000Y-109500000D03*
X228100000Y-109000000D03*
X228100000Y-108500000D03*
X228100000Y-108000000D03*
X228100000Y-107500000D03*
X228100000Y-107000000D03*
X228100000Y-106500000D03*
X228100000Y-106000000D03*
X228100000Y-105500000D03*
X228100000Y-105000000D03*
X228100000Y-104500000D03*
X228100000Y-104000000D03*
X228100000Y-103500000D03*
D38*
X228100000Y-102940000D03*
D40*
X229940000Y-101100000D03*
D41*
X230500000Y-101100000D03*
X231000000Y-101100000D03*
X231500000Y-101100000D03*
X232000000Y-101100000D03*
X232500000Y-101100000D03*
X233000000Y-101100000D03*
X233500000Y-101100000D03*
X234000000Y-101100000D03*
X234500000Y-101100000D03*
X235000000Y-101100000D03*
X235500000Y-101100000D03*
X236000000Y-101100000D03*
X236500000Y-101100000D03*
X237000000Y-101100000D03*
X237500000Y-101100000D03*
X238000000Y-101100000D03*
X238500000Y-101100000D03*
X239000000Y-101100000D03*
X239500000Y-101100000D03*
X240000000Y-101100000D03*
X240500000Y-101100000D03*
X241000000Y-101100000D03*
X241500000Y-101100000D03*
D40*
X242060000Y-101100000D03*
D38*
X243900000Y-102940000D03*
D39*
X243900000Y-103500000D03*
X243900000Y-104000000D03*
X243900000Y-104500000D03*
X243900000Y-105000000D03*
X243900000Y-105500000D03*
X243900000Y-106000000D03*
X243900000Y-106500000D03*
X243900000Y-107000000D03*
X243900000Y-107500000D03*
X243900000Y-108000000D03*
X243900000Y-108500000D03*
X243900000Y-109000000D03*
X243900000Y-109500000D03*
X243900000Y-110000000D03*
X243900000Y-110500000D03*
X243900000Y-111000000D03*
X243900000Y-111500000D03*
X243900000Y-112000000D03*
X243900000Y-112500000D03*
X243900000Y-113000000D03*
X243900000Y-113500000D03*
X243900000Y-114000000D03*
X243900000Y-114500000D03*
D38*
X243900000Y-115060000D03*
D40*
X242060000Y-116900000D03*
D41*
X241500000Y-116900000D03*
X241000000Y-116900000D03*
X240500000Y-116900000D03*
X240000000Y-116900000D03*
X239500000Y-116900000D03*
X239000000Y-116900000D03*
X238500000Y-116900000D03*
X238000000Y-116900000D03*
X237500000Y-116900000D03*
X237000000Y-116900000D03*
X236500000Y-116900000D03*
X236000000Y-116900000D03*
X235500000Y-116900000D03*
X235000000Y-116900000D03*
X234500000Y-116900000D03*
X234000000Y-116900000D03*
X233500000Y-116900000D03*
X233000000Y-116900000D03*
X232500000Y-116900000D03*
X232000000Y-116900000D03*
X231500000Y-116900000D03*
X231000000Y-116900000D03*
X230500000Y-116900000D03*
D40*
X229940000Y-116900000D03*
D38*
X111600000Y-115060000D03*
D39*
X111600000Y-114500000D03*
X111600000Y-114000000D03*
X111600000Y-113500000D03*
X111600000Y-113000000D03*
X111600000Y-112500000D03*
X111600000Y-112000000D03*
X111600000Y-111500000D03*
X111600000Y-111000000D03*
X111600000Y-110500000D03*
X111600000Y-110000000D03*
X111600000Y-109500000D03*
X111600000Y-109000000D03*
X111600000Y-108500000D03*
X111600000Y-108000000D03*
X111600000Y-107500000D03*
X111600000Y-107000000D03*
X111600000Y-106500000D03*
X111600000Y-106000000D03*
X111600000Y-105500000D03*
X111600000Y-105000000D03*
X111600000Y-104500000D03*
X111600000Y-104000000D03*
X111600000Y-103500000D03*
D38*
X111600000Y-102940000D03*
D40*
X113440000Y-101100000D03*
D41*
X114000000Y-101100000D03*
X114500000Y-101100000D03*
X115000000Y-101100000D03*
X115500000Y-101100000D03*
X116000000Y-101100000D03*
X116500000Y-101100000D03*
X117000000Y-101100000D03*
X117500000Y-101100000D03*
X118000000Y-101100000D03*
X118500000Y-101100000D03*
X119000000Y-101100000D03*
X119500000Y-101100000D03*
X120000000Y-101100000D03*
X120500000Y-101100000D03*
X121000000Y-101100000D03*
X121500000Y-101100000D03*
X122000000Y-101100000D03*
X122500000Y-101100000D03*
X123000000Y-101100000D03*
X123500000Y-101100000D03*
X124000000Y-101100000D03*
X124500000Y-101100000D03*
X125000000Y-101100000D03*
D40*
X125560000Y-101100000D03*
D38*
X127400000Y-102940000D03*
D39*
X127400000Y-103500000D03*
X127400000Y-104000000D03*
X127400000Y-104500000D03*
X127400000Y-105000000D03*
X127400000Y-105500000D03*
X127400000Y-106000000D03*
X127400000Y-106500000D03*
X127400000Y-107000000D03*
X127400000Y-107500000D03*
X127400000Y-108000000D03*
X127400000Y-108500000D03*
X127400000Y-109000000D03*
X127400000Y-109500000D03*
X127400000Y-110000000D03*
X127400000Y-110500000D03*
X127400000Y-111000000D03*
X127400000Y-111500000D03*
X127400000Y-112000000D03*
X127400000Y-112500000D03*
X127400000Y-113000000D03*
X127400000Y-113500000D03*
X127400000Y-114000000D03*
X127400000Y-114500000D03*
D38*
X127400000Y-115060000D03*
D40*
X125560000Y-116900000D03*
D41*
X125000000Y-116900000D03*
X124500000Y-116900000D03*
X124000000Y-116900000D03*
X123500000Y-116900000D03*
X123000000Y-116900000D03*
X122500000Y-116900000D03*
X122000000Y-116900000D03*
X121500000Y-116900000D03*
X121000000Y-116900000D03*
X120500000Y-116900000D03*
X120000000Y-116900000D03*
X119500000Y-116900000D03*
X119000000Y-116900000D03*
X118500000Y-116900000D03*
X118000000Y-116900000D03*
X117500000Y-116900000D03*
X117000000Y-116900000D03*
X116500000Y-116900000D03*
X116000000Y-116900000D03*
X115500000Y-116900000D03*
X115000000Y-116900000D03*
X114500000Y-116900000D03*
X114000000Y-116900000D03*
D40*
X113440000Y-116900000D03*
D38*
X228100000Y-74060000D03*
D39*
X228100000Y-73500000D03*
X228100000Y-73000000D03*
X228100000Y-72500000D03*
X228100000Y-72000000D03*
X228100000Y-71500000D03*
X228100000Y-71000000D03*
X228100000Y-70500000D03*
X228100000Y-70000000D03*
X228100000Y-69500000D03*
X228100000Y-69000000D03*
X228100000Y-68500000D03*
X228100000Y-68000000D03*
X228100000Y-67500000D03*
X228100000Y-67000000D03*
X228100000Y-66500000D03*
X228100000Y-66000000D03*
X228100000Y-65500000D03*
X228100000Y-65000000D03*
X228100000Y-64500000D03*
X228100000Y-64000000D03*
X228100000Y-63500000D03*
X228100000Y-63000000D03*
X228100000Y-62500000D03*
D38*
X228100000Y-61940000D03*
D40*
X229940000Y-60100000D03*
D41*
X230500000Y-60100000D03*
X231000000Y-60100000D03*
X231500000Y-60100000D03*
X232000000Y-60100000D03*
X232500000Y-60100000D03*
X233000000Y-60100000D03*
X233500000Y-60100000D03*
X234000000Y-60100000D03*
X234500000Y-60100000D03*
X235000000Y-60100000D03*
X235500000Y-60100000D03*
X236000000Y-60100000D03*
X236500000Y-60100000D03*
X237000000Y-60100000D03*
X237500000Y-60100000D03*
X238000000Y-60100000D03*
X238500000Y-60100000D03*
X239000000Y-60100000D03*
X239500000Y-60100000D03*
X240000000Y-60100000D03*
X240500000Y-60100000D03*
X241000000Y-60100000D03*
X241500000Y-60100000D03*
D40*
X242060000Y-60100000D03*
D38*
X243900000Y-61940000D03*
D39*
X243900000Y-62500000D03*
X243900000Y-63000000D03*
X243900000Y-63500000D03*
X243900000Y-64000000D03*
X243900000Y-64500000D03*
X243900000Y-65000000D03*
X243900000Y-65500000D03*
X243900000Y-66000000D03*
X243900000Y-66500000D03*
X243900000Y-67000000D03*
X243900000Y-67500000D03*
X243900000Y-68000000D03*
X243900000Y-68500000D03*
X243900000Y-69000000D03*
X243900000Y-69500000D03*
X243900000Y-70000000D03*
X243900000Y-70500000D03*
X243900000Y-71000000D03*
X243900000Y-71500000D03*
X243900000Y-72000000D03*
X243900000Y-72500000D03*
X243900000Y-73000000D03*
X243900000Y-73500000D03*
D38*
X243900000Y-74060000D03*
D40*
X242060000Y-75900000D03*
D41*
X241500000Y-75900000D03*
X241000000Y-75900000D03*
X240500000Y-75900000D03*
X240000000Y-75900000D03*
X239500000Y-75900000D03*
X239000000Y-75900000D03*
X238500000Y-75900000D03*
X238000000Y-75900000D03*
X237500000Y-75900000D03*
X237000000Y-75900000D03*
X236500000Y-75900000D03*
X236000000Y-75900000D03*
X235500000Y-75900000D03*
X235000000Y-75900000D03*
X234500000Y-75900000D03*
X234000000Y-75900000D03*
X233500000Y-75900000D03*
X233000000Y-75900000D03*
X232500000Y-75900000D03*
X232000000Y-75900000D03*
X231500000Y-75900000D03*
X231000000Y-75900000D03*
X230500000Y-75900000D03*
D40*
X229940000Y-75900000D03*
D42*
X182500000Y-98365000D03*
X179500000Y-99635000D03*
X66000000Y-98365000D03*
X63000000Y-99635000D03*
X182500000Y-57365000D03*
X179500000Y-58635000D03*
D43*
X173775000Y-103730000D03*
X173125000Y-103730000D03*
X172475000Y-103730000D03*
X171825000Y-103730000D03*
X171175000Y-103730000D03*
X170525000Y-103730000D03*
X169875000Y-103730000D03*
X169225000Y-103730000D03*
D44*
X168230000Y-104725000D03*
X168230000Y-105375000D03*
X168230000Y-106025000D03*
X168230000Y-106675000D03*
X168230000Y-107325000D03*
X168230000Y-107975000D03*
X168230000Y-108625000D03*
X168230000Y-109275000D03*
D43*
X169225000Y-110270000D03*
X169875000Y-110270000D03*
X170525000Y-110270000D03*
X171175000Y-110270000D03*
X171825000Y-110270000D03*
X172475000Y-110270000D03*
X173125000Y-110270000D03*
X173775000Y-110270000D03*
D44*
X174770000Y-109275000D03*
X174770000Y-108625000D03*
X174770000Y-107975000D03*
X174770000Y-107325000D03*
X174770000Y-106675000D03*
X174770000Y-106025000D03*
X174770000Y-105375000D03*
X174770000Y-104725000D03*
D45*
X171500000Y-107000000D03*
D43*
X57275000Y-103730000D03*
X56625000Y-103730000D03*
X55975000Y-103730000D03*
X55325000Y-103730000D03*
X54675000Y-103730000D03*
X54025000Y-103730000D03*
X53375000Y-103730000D03*
X52725000Y-103730000D03*
D44*
X51730000Y-104725000D03*
X51730000Y-105375000D03*
X51730000Y-106025000D03*
X51730000Y-106675000D03*
X51730000Y-107325000D03*
X51730000Y-107975000D03*
X51730000Y-108625000D03*
X51730000Y-109275000D03*
D43*
X52725000Y-110270000D03*
X53375000Y-110270000D03*
X54025000Y-110270000D03*
X54675000Y-110270000D03*
X55325000Y-110270000D03*
X55975000Y-110270000D03*
X56625000Y-110270000D03*
X57275000Y-110270000D03*
D44*
X58270000Y-109275000D03*
X58270000Y-108625000D03*
X58270000Y-107975000D03*
X58270000Y-107325000D03*
X58270000Y-106675000D03*
X58270000Y-106025000D03*
X58270000Y-105375000D03*
X58270000Y-104725000D03*
D45*
X55000000Y-107000000D03*
D43*
X173775000Y-62730000D03*
X173125000Y-62730000D03*
X172475000Y-62730000D03*
X171825000Y-62730000D03*
X171175000Y-62730000D03*
X170525000Y-62730000D03*
X169875000Y-62730000D03*
X169225000Y-62730000D03*
D44*
X168230000Y-63725000D03*
X168230000Y-64375000D03*
X168230000Y-65025000D03*
X168230000Y-65675000D03*
X168230000Y-66325000D03*
X168230000Y-66975000D03*
X168230000Y-67625000D03*
X168230000Y-68275000D03*
D43*
X169225000Y-69270000D03*
X169875000Y-69270000D03*
X170525000Y-69270000D03*
X171175000Y-69270000D03*
X171825000Y-69270000D03*
X172475000Y-69270000D03*
X173125000Y-69270000D03*
X173775000Y-69270000D03*
D44*
X174770000Y-68275000D03*
X174770000Y-67625000D03*
X174770000Y-66975000D03*
X174770000Y-66325000D03*
X174770000Y-65675000D03*
X174770000Y-65025000D03*
X174770000Y-64375000D03*
X174770000Y-63725000D03*
D45*
X171500000Y-66000000D03*
D46*
X155850000Y-108200000D03*
X155850000Y-108850000D03*
X155850000Y-109500000D03*
X155850000Y-110150000D03*
X155850000Y-110800000D03*
X39350000Y-108200000D03*
X39350000Y-108850000D03*
X39350000Y-109500000D03*
X39350000Y-110150000D03*
X39350000Y-110800000D03*
X155850000Y-67200000D03*
X155850000Y-67850000D03*
X155850000Y-68500000D03*
X155850000Y-69150000D03*
X155850000Y-69800000D03*
D42*
X63000000Y-58635000D03*
X66000000Y-57365000D03*
D46*
X39350000Y-69800000D03*
X39350000Y-69150000D03*
X39350000Y-68500000D03*
X39350000Y-67850000D03*
X39350000Y-67200000D03*
D40*
X113440000Y-75900000D03*
D41*
X114000000Y-75900000D03*
X114500000Y-75900000D03*
X115000000Y-75900000D03*
X115500000Y-75900000D03*
X116000000Y-75900000D03*
X116500000Y-75900000D03*
X117000000Y-75900000D03*
X117500000Y-75900000D03*
X118000000Y-75900000D03*
X118500000Y-75900000D03*
X119000000Y-75900000D03*
X119500000Y-75900000D03*
X120000000Y-75900000D03*
X120500000Y-75900000D03*
X121000000Y-75900000D03*
X121500000Y-75900000D03*
X122000000Y-75900000D03*
X122500000Y-75900000D03*
X123000000Y-75900000D03*
X123500000Y-75900000D03*
X124000000Y-75900000D03*
X124500000Y-75900000D03*
X125000000Y-75900000D03*
D40*
X125560000Y-75900000D03*
D38*
X127400000Y-74060000D03*
D39*
X127400000Y-73500000D03*
X127400000Y-73000000D03*
X127400000Y-72500000D03*
X127400000Y-72000000D03*
X127400000Y-71500000D03*
X127400000Y-71000000D03*
X127400000Y-70500000D03*
X127400000Y-70000000D03*
X127400000Y-69500000D03*
X127400000Y-69000000D03*
X127400000Y-68500000D03*
X127400000Y-68000000D03*
X127400000Y-67500000D03*
X127400000Y-67000000D03*
X127400000Y-66500000D03*
X127400000Y-66000000D03*
X127400000Y-65500000D03*
X127400000Y-65000000D03*
X127400000Y-64500000D03*
X127400000Y-64000000D03*
X127400000Y-63500000D03*
X127400000Y-63000000D03*
X127400000Y-62500000D03*
D38*
X127400000Y-61940000D03*
D40*
X125560000Y-60100000D03*
D41*
X125000000Y-60100000D03*
X124500000Y-60100000D03*
X124000000Y-60100000D03*
X123500000Y-60100000D03*
X123000000Y-60100000D03*
X122500000Y-60100000D03*
X122000000Y-60100000D03*
X121500000Y-60100000D03*
X121000000Y-60100000D03*
X120500000Y-60100000D03*
X120000000Y-60100000D03*
X119500000Y-60100000D03*
X119000000Y-60100000D03*
X118500000Y-60100000D03*
X118000000Y-60100000D03*
X117500000Y-60100000D03*
X117000000Y-60100000D03*
X116500000Y-60100000D03*
X116000000Y-60100000D03*
X115500000Y-60100000D03*
X115000000Y-60100000D03*
X114500000Y-60100000D03*
X114000000Y-60100000D03*
D40*
X113440000Y-60100000D03*
D38*
X111600000Y-61940000D03*
D39*
X111600000Y-62500000D03*
X111600000Y-63000000D03*
X111600000Y-63500000D03*
X111600000Y-64000000D03*
X111600000Y-64500000D03*
X111600000Y-65000000D03*
X111600000Y-65500000D03*
X111600000Y-66000000D03*
X111600000Y-66500000D03*
X111600000Y-67000000D03*
X111600000Y-67500000D03*
X111600000Y-68000000D03*
X111600000Y-68500000D03*
X111600000Y-69000000D03*
X111600000Y-69500000D03*
X111600000Y-70000000D03*
X111600000Y-70500000D03*
X111600000Y-71000000D03*
X111600000Y-71500000D03*
X111600000Y-72000000D03*
X111600000Y-72500000D03*
X111600000Y-73000000D03*
X111600000Y-73500000D03*
D38*
X111600000Y-74060000D03*
D11*
X137000000Y-83250000D03*
X137000000Y-81750000D03*
D45*
X55000000Y-66000000D03*
D44*
X58270000Y-63725000D03*
X58270000Y-64375000D03*
X58270000Y-65025000D03*
X58270000Y-65675000D03*
X58270000Y-66325000D03*
X58270000Y-66975000D03*
X58270000Y-67625000D03*
X58270000Y-68275000D03*
D43*
X57275000Y-69270000D03*
X56625000Y-69270000D03*
X55975000Y-69270000D03*
X55325000Y-69270000D03*
X54675000Y-69270000D03*
X54025000Y-69270000D03*
X53375000Y-69270000D03*
X52725000Y-69270000D03*
D44*
X51730000Y-68275000D03*
X51730000Y-67625000D03*
X51730000Y-66975000D03*
X51730000Y-66325000D03*
X51730000Y-65675000D03*
X51730000Y-65025000D03*
X51730000Y-64375000D03*
X51730000Y-63725000D03*
D43*
X52725000Y-62730000D03*
X53375000Y-62730000D03*
X54025000Y-62730000D03*
X54675000Y-62730000D03*
X55325000Y-62730000D03*
X55975000Y-62730000D03*
X56625000Y-62730000D03*
X57275000Y-62730000D03*
D11*
X105000000Y-72250000D03*
X105000000Y-73750000D03*
D35*
X85006600Y-67750000D03*
X85006600Y-67250001D03*
X85006600Y-66750000D03*
X85006600Y-66250000D03*
X85006600Y-65749999D03*
X85006600Y-65250000D03*
D34*
X84250000Y-64493400D03*
X83750001Y-64493400D03*
X83250000Y-64493400D03*
X82750000Y-64493400D03*
X82249999Y-64493400D03*
X81750000Y-64493400D03*
D35*
X80993400Y-65250000D03*
X80993400Y-65749999D03*
X80993400Y-66250000D03*
X80993400Y-66750000D03*
X80993400Y-67250001D03*
X80993400Y-67750000D03*
D34*
X81750000Y-68506600D03*
X82249999Y-68506600D03*
X82750000Y-68506600D03*
X83250000Y-68506600D03*
X83750001Y-68506600D03*
X84250000Y-68506600D03*
D33*
X83000000Y-66500000D03*
D37*
X85306200Y-82049999D03*
X85306200Y-83000000D03*
X85306200Y-83950001D03*
X87693800Y-83950001D03*
X87693800Y-82049999D03*
D36*
X98862200Y-58595000D03*
X98862200Y-59865000D03*
X98862200Y-61135000D03*
X98862200Y-62405000D03*
X94137800Y-62405000D03*
X94137800Y-61135000D03*
X94137800Y-59865000D03*
X94137800Y-58595000D03*
D11*
X121500000Y-81750000D03*
X121500000Y-83250000D03*
D20*
X90750000Y-72000000D03*
X89250000Y-72000000D03*
D32*
X135250000Y-52050000D03*
X135250000Y-53450000D03*
X138750000Y-52050000D03*
X138750000Y-53450000D03*
D20*
X62250000Y-62500000D03*
X60750000Y-62500000D03*
D11*
X96500000Y-81750000D03*
X96500000Y-83250000D03*
X95000000Y-83250000D03*
X95000000Y-81750000D03*
D20*
X47750000Y-63500000D03*
X49250000Y-63500000D03*
D11*
X50000000Y-58750000D03*
X50000000Y-60250000D03*
X58000000Y-73250000D03*
X58000000Y-71750000D03*
X63500000Y-70750000D03*
X63500000Y-72250000D03*
D20*
X62250000Y-64000000D03*
X60750000Y-64000000D03*
X62250000Y-69000000D03*
X60750000Y-69000000D03*
D11*
X56500000Y-73250000D03*
X56500000Y-71750000D03*
D20*
X46250000Y-67500000D03*
X44750000Y-67500000D03*
D11*
X55000000Y-73250000D03*
X55000000Y-71750000D03*
D20*
X46250000Y-66000000D03*
X44750000Y-66000000D03*
D11*
X53500000Y-73250000D03*
X53500000Y-71750000D03*
D20*
X49250000Y-62000000D03*
X47750000Y-62000000D03*
D11*
X48500000Y-58750000D03*
X48500000Y-60250000D03*
X56500000Y-58750000D03*
X56500000Y-60250000D03*
D20*
X46250000Y-73000000D03*
X44750000Y-73000000D03*
D11*
X52000000Y-71750000D03*
X52000000Y-73250000D03*
X59500000Y-60250000D03*
X59500000Y-58750000D03*
D20*
X48750000Y-76000000D03*
X50250000Y-76000000D03*
D11*
X93500000Y-83250000D03*
X93500000Y-81750000D03*
D20*
X102750000Y-62500000D03*
X101250000Y-62500000D03*
X102750000Y-61000000D03*
X101250000Y-61000000D03*
X90750000Y-73500000D03*
X89250000Y-73500000D03*
X90750000Y-70500000D03*
X89250000Y-70500000D03*
D11*
X87000000Y-66750000D03*
X87000000Y-65250000D03*
X86000000Y-72750000D03*
X86000000Y-71250000D03*
X75000000Y-61750000D03*
X75000000Y-60250000D03*
D20*
X77750000Y-63500000D03*
X76250000Y-63500000D03*
D11*
X73500000Y-60250000D03*
X73500000Y-61750000D03*
X79500000Y-61750000D03*
X79500000Y-60250000D03*
X78000000Y-61750000D03*
X78000000Y-60250000D03*
X86000000Y-61750000D03*
X86000000Y-60250000D03*
X91000000Y-53750000D03*
X91000000Y-52250000D03*
D20*
X77750000Y-65000000D03*
X76250000Y-65000000D03*
X77750000Y-68000000D03*
X76250000Y-68000000D03*
X77750000Y-66500000D03*
X76250000Y-66500000D03*
D11*
X84500000Y-61750000D03*
X84500000Y-60250000D03*
X88000000Y-53750000D03*
X88000000Y-52250000D03*
X76500000Y-60250000D03*
X76500000Y-61750000D03*
X80000000Y-75750000D03*
X80000000Y-74250000D03*
X81500000Y-75750000D03*
X81500000Y-74250000D03*
X83000000Y-75750000D03*
X83000000Y-74250000D03*
X84500000Y-75750000D03*
X84500000Y-74250000D03*
X138500000Y-83250000D03*
X138500000Y-81750000D03*
X129500000Y-83250000D03*
X129500000Y-81750000D03*
D20*
X113750000Y-84000000D03*
X115250000Y-84000000D03*
X106250000Y-82000000D03*
X104750000Y-82000000D03*
X108750000Y-82000000D03*
X107250000Y-82000000D03*
D11*
X123000000Y-83250000D03*
X123000000Y-81750000D03*
D20*
X108250000Y-70000000D03*
X106750000Y-70000000D03*
X108250000Y-68500000D03*
X106750000Y-68500000D03*
X108250000Y-62500000D03*
X106750000Y-62500000D03*
X108250000Y-61000000D03*
X106750000Y-61000000D03*
X108250000Y-67000000D03*
X106750000Y-67000000D03*
X108250000Y-64000000D03*
X106750000Y-64000000D03*
X100750000Y-71750000D03*
X99250000Y-71750000D03*
X135250000Y-63000000D03*
X136750000Y-63000000D03*
X135250000Y-64500000D03*
X136750000Y-64500000D03*
D11*
X127500000Y-83250000D03*
X127500000Y-81750000D03*
X126000000Y-83250000D03*
X126000000Y-81750000D03*
D20*
X135250000Y-66500000D03*
X136750000Y-66500000D03*
D11*
X142500000Y-51750000D03*
X142500000Y-53250000D03*
X141000000Y-51750000D03*
X141000000Y-53250000D03*
D20*
X135250000Y-72000000D03*
X136750000Y-72000000D03*
D11*
X131500000Y-51750000D03*
X131500000Y-53250000D03*
X133000000Y-53250000D03*
X133000000Y-51750000D03*
D27*
X91500000Y-84000000D03*
X91500000Y-82000000D03*
D22*
X89500000Y-81750000D03*
X89500000Y-83250000D03*
X82000000Y-81750000D03*
X82000000Y-83250000D03*
D27*
X80000000Y-84000000D03*
X80000000Y-82000000D03*
D22*
X61000000Y-65750000D03*
X61000000Y-67250000D03*
X62500000Y-65750000D03*
X62500000Y-67250000D03*
X54500000Y-58750000D03*
X54500000Y-60250000D03*
X53000000Y-58750000D03*
X53000000Y-60250000D03*
D30*
X40500000Y-74500000D03*
X38500000Y-74500000D03*
D26*
X47750000Y-67500000D03*
X49250000Y-67500000D03*
X47750000Y-66000000D03*
X49250000Y-66000000D03*
X53250000Y-57000000D03*
X51750000Y-57000000D03*
X56250000Y-57000000D03*
X54750000Y-57000000D03*
D22*
X58000000Y-58750000D03*
X58000000Y-60250000D03*
D26*
X102750000Y-58500000D03*
X101250000Y-58500000D03*
D22*
X81500000Y-52250000D03*
X81500000Y-53750000D03*
X88500000Y-68250000D03*
X88500000Y-66750000D03*
X88500000Y-63750000D03*
X88500000Y-65250000D03*
X83000000Y-72750000D03*
X83000000Y-71250000D03*
X84500000Y-72750000D03*
X84500000Y-71250000D03*
X80000000Y-72750000D03*
X80000000Y-71250000D03*
X81500000Y-72750000D03*
X81500000Y-71250000D03*
X78500000Y-74250000D03*
X78500000Y-75750000D03*
X86000000Y-74250000D03*
X86000000Y-75750000D03*
X87500000Y-60250000D03*
X87500000Y-61750000D03*
D27*
X89500000Y-61500000D03*
X89500000Y-59500000D03*
D26*
X82750000Y-61250000D03*
X81250000Y-61250000D03*
D30*
X81000000Y-59500000D03*
X83000000Y-59500000D03*
D22*
X87750000Y-71250000D03*
X87750000Y-72750000D03*
D26*
X76250000Y-69500000D03*
X77750000Y-69500000D03*
D30*
X74500000Y-69500000D03*
X72500000Y-69500000D03*
D26*
X118250000Y-84000000D03*
X116750000Y-84000000D03*
D22*
X120000000Y-81750000D03*
X120000000Y-83250000D03*
D26*
X112250000Y-84000000D03*
X110750000Y-84000000D03*
D22*
X130000000Y-76750000D03*
X130000000Y-75250000D03*
X133000000Y-73250000D03*
X133000000Y-71750000D03*
D26*
X104750000Y-77000000D03*
X103250000Y-77000000D03*
X106250000Y-77000000D03*
X107750000Y-77000000D03*
D22*
X124500000Y-81750000D03*
X124500000Y-83250000D03*
D26*
X106750000Y-65500000D03*
X108250000Y-65500000D03*
D22*
X131500000Y-73250000D03*
X131500000Y-71750000D03*
D26*
X130750000Y-60000000D03*
X132250000Y-60000000D03*
X106750000Y-58500000D03*
X108250000Y-58500000D03*
X130250000Y-66000000D03*
X131750000Y-66000000D03*
D22*
X108500000Y-73750000D03*
X108500000Y-72250000D03*
X134000000Y-66750000D03*
X134000000Y-65250000D03*
X134000000Y-63750000D03*
X134000000Y-62250000D03*
D29*
X56250000Y-53600000D03*
X47750000Y-53600000D03*
D25*
X90150000Y-65400000D03*
X90150000Y-67600000D03*
X91850000Y-67600000D03*
X91850000Y-65400000D03*
D24*
X111850000Y-82450000D03*
X118150000Y-82450000D03*
X118150000Y-81550000D03*
X111850000Y-81550000D03*
D15*
X134100000Y-75150000D03*
X131900000Y-75150000D03*
X131900000Y-76850000D03*
X134100000Y-76850000D03*
D31*
X83050000Y-52350000D03*
X83050000Y-53650000D03*
X83050000Y-53000000D03*
X84950000Y-53650000D03*
X84950000Y-52350000D03*
D21*
X140450000Y-82200000D03*
X140450000Y-83800000D03*
X144550000Y-82200000D03*
X144550000Y-83800000D03*
X130950000Y-82200000D03*
X130950000Y-83800000D03*
X135050000Y-82200000D03*
X135050000Y-83800000D03*
D23*
X48550000Y-73500000D03*
X50450000Y-73500000D03*
X49500000Y-71500000D03*
D28*
X136500000Y-70450000D03*
X136500000Y-68550000D03*
X134500000Y-69500000D03*
D19*
X98000000Y-83300000D03*
X98000000Y-81700000D03*
X46500000Y-62200000D03*
X46500000Y-63800000D03*
X48700000Y-57000000D03*
X50300000Y-57000000D03*
X59500000Y-71700000D03*
X59500000Y-73300000D03*
X92000000Y-70200000D03*
X92000000Y-71800000D03*
X92000000Y-73200000D03*
X92000000Y-74800000D03*
X105700000Y-84500000D03*
X107300000Y-84500000D03*
D20*
X44750000Y-74500000D03*
X46250000Y-74500000D03*
D18*
X64000000Y-66950000D03*
X64000000Y-66050000D03*
X51500000Y-59050000D03*
X51500000Y-59950000D03*
D11*
X72500000Y-66250000D03*
X72500000Y-67750000D03*
D20*
X100250000Y-77000000D03*
X101750000Y-77000000D03*
D17*
X98050000Y-64960000D03*
X101950000Y-64960000D03*
X98050000Y-66230000D03*
X101950000Y-66230000D03*
X98050000Y-67500000D03*
X101950000Y-67500000D03*
X98050000Y-68770000D03*
X101950000Y-68770000D03*
X98050000Y-70040000D03*
X101950000Y-70040000D03*
D16*
X78100000Y-82000000D03*
X75900000Y-82000000D03*
X78100000Y-84000000D03*
X75900000Y-84000000D03*
D15*
X46100000Y-71270000D03*
D14*
X46100000Y-69550000D03*
X43900000Y-69550000D03*
X43900000Y-71450000D03*
D13*
X73000000Y-84550000D03*
X73000000Y-82450000D03*
D12*
X100950000Y-83000000D03*
X103050000Y-83000000D03*
M02*
