G04 #@! TF.GenerationSoftware,KiCad,Pcbnew,(5.1.2)-1*
G04 #@! TF.CreationDate,2019-11-21T17:45:34-03:00*
G04 #@! TF.ProjectId,M_dulo Stick LPC1769,4df36475-6c6f-4205-9374-69636b204c50,v1.0*
G04 #@! TF.SameCoordinates,Original*
G04 #@! TF.FileFunction,Soldermask,Top*
G04 #@! TF.FilePolarity,Negative*
%FSLAX46Y46*%
G04 Gerber Fmt 4.6, Leading zero omitted, Abs format (unit mm)*
G04 Created by KiCad (PCBNEW (5.1.2)-1) date 2019-11-21 17:45:34*
%MOMM*%
%LPD*%
G04 APERTURE LIST*
%ADD10C,0.100000*%
G04 APERTURE END LIST*
D10*
G36*
X193160721Y-122470174D02*
G01*
X193260995Y-122511709D01*
X193260996Y-122511710D01*
X193351242Y-122572010D01*
X193427990Y-122648758D01*
X193427991Y-122648760D01*
X193488291Y-122739005D01*
X193529826Y-122839279D01*
X193551000Y-122945730D01*
X193551000Y-123054270D01*
X193529826Y-123160721D01*
X193488291Y-123260995D01*
X193488290Y-123260996D01*
X193427990Y-123351242D01*
X193351242Y-123427990D01*
X193316805Y-123451000D01*
X193260995Y-123488291D01*
X193160721Y-123529826D01*
X193054270Y-123551000D01*
X192945730Y-123551000D01*
X192839279Y-123529826D01*
X192739005Y-123488291D01*
X192683195Y-123451000D01*
X192648758Y-123427990D01*
X192572010Y-123351242D01*
X192511710Y-123260996D01*
X192511709Y-123260995D01*
X192470174Y-123160721D01*
X192449000Y-123054270D01*
X192449000Y-122945730D01*
X192470174Y-122839279D01*
X192511709Y-122739005D01*
X192572009Y-122648760D01*
X192572010Y-122648758D01*
X192648758Y-122572010D01*
X192739004Y-122511710D01*
X192739005Y-122511709D01*
X192839279Y-122470174D01*
X192945730Y-122449000D01*
X193054270Y-122449000D01*
X193160721Y-122470174D01*
X193160721Y-122470174D01*
G37*
G36*
X120645843Y-122519214D02*
G01*
X120736837Y-122556905D01*
X120736839Y-122556906D01*
X120818731Y-122611625D01*
X120888375Y-122681269D01*
X120941647Y-122760995D01*
X120943095Y-122763163D01*
X120980786Y-122854157D01*
X121000000Y-122950753D01*
X121000000Y-123049247D01*
X120980786Y-123145843D01*
X120980785Y-123145845D01*
X120943094Y-123236839D01*
X120888375Y-123318731D01*
X120818731Y-123388375D01*
X120736839Y-123443094D01*
X120736838Y-123443095D01*
X120736837Y-123443095D01*
X120645843Y-123480786D01*
X120549247Y-123500000D01*
X120450753Y-123500000D01*
X120354157Y-123480786D01*
X120263163Y-123443095D01*
X120263162Y-123443095D01*
X120263161Y-123443094D01*
X120181269Y-123388375D01*
X120111625Y-123318731D01*
X120056906Y-123236839D01*
X120019215Y-123145845D01*
X120019214Y-123145843D01*
X120000000Y-123049247D01*
X120000000Y-122950753D01*
X120019214Y-122854157D01*
X120056905Y-122763163D01*
X120058354Y-122760995D01*
X120111625Y-122681269D01*
X120181269Y-122611625D01*
X120263161Y-122556906D01*
X120263163Y-122556905D01*
X120354157Y-122519214D01*
X120450753Y-122500000D01*
X120549247Y-122500000D01*
X120645843Y-122519214D01*
X120645843Y-122519214D01*
G37*
G36*
X191751000Y-123451000D02*
G01*
X190849000Y-123451000D01*
X190849000Y-122549000D01*
X191751000Y-122549000D01*
X191751000Y-123451000D01*
X191751000Y-123451000D01*
G37*
G36*
X190151000Y-123451000D02*
G01*
X189249000Y-123451000D01*
X189249000Y-122549000D01*
X190151000Y-122549000D01*
X190151000Y-123451000D01*
X190151000Y-123451000D01*
G37*
G36*
X157276000Y-123401000D02*
G01*
X156724000Y-123401000D01*
X156724000Y-122699000D01*
X157276000Y-122699000D01*
X157276000Y-123401000D01*
X157276000Y-123401000D01*
G37*
G36*
X164676000Y-123051000D02*
G01*
X163324000Y-123051000D01*
X163324000Y-121949000D01*
X164676000Y-121949000D01*
X164676000Y-123051000D01*
X164676000Y-123051000D01*
G37*
G36*
X176176000Y-123051000D02*
G01*
X174824000Y-123051000D01*
X174824000Y-121949000D01*
X176176000Y-121949000D01*
X176176000Y-123051000D01*
X176176000Y-123051000D01*
G37*
G36*
X167660721Y-121970174D02*
G01*
X167760995Y-122011709D01*
X167760996Y-122011710D01*
X167851242Y-122072010D01*
X167927990Y-122148758D01*
X167927991Y-122148760D01*
X167988291Y-122239005D01*
X168029826Y-122339279D01*
X168051000Y-122445730D01*
X168051000Y-122554270D01*
X168029826Y-122660721D01*
X167988291Y-122760995D01*
X167986842Y-122763163D01*
X167927990Y-122851242D01*
X167851242Y-122927990D01*
X167817173Y-122950754D01*
X167760995Y-122988291D01*
X167660721Y-123029826D01*
X167554270Y-123051000D01*
X167445730Y-123051000D01*
X167339279Y-123029826D01*
X167239005Y-122988291D01*
X167182827Y-122950754D01*
X167148758Y-122927990D01*
X167072010Y-122851242D01*
X167013158Y-122763163D01*
X167011709Y-122760995D01*
X166970174Y-122660721D01*
X166949000Y-122554270D01*
X166949000Y-122445730D01*
X166970174Y-122339279D01*
X167011709Y-122239005D01*
X167072009Y-122148760D01*
X167072010Y-122148758D01*
X167148758Y-122072010D01*
X167239004Y-122011710D01*
X167239005Y-122011709D01*
X167339279Y-121970174D01*
X167445730Y-121949000D01*
X167554270Y-121949000D01*
X167660721Y-121970174D01*
X167660721Y-121970174D01*
G37*
G36*
X198051000Y-123001000D02*
G01*
X197449000Y-123001000D01*
X197449000Y-121999000D01*
X198051000Y-121999000D01*
X198051000Y-123001000D01*
X198051000Y-123001000D01*
G37*
G36*
X199551000Y-123001000D02*
G01*
X198949000Y-123001000D01*
X198949000Y-121999000D01*
X199551000Y-121999000D01*
X199551000Y-123001000D01*
X199551000Y-123001000D01*
G37*
G36*
X196701000Y-122926000D02*
G01*
X195799000Y-122926000D01*
X195799000Y-122074000D01*
X196701000Y-122074000D01*
X196701000Y-122926000D01*
X196701000Y-122926000D01*
G37*
G36*
X195201000Y-122926000D02*
G01*
X194299000Y-122926000D01*
X194299000Y-122074000D01*
X195201000Y-122074000D01*
X195201000Y-122926000D01*
X195201000Y-122926000D01*
G37*
G36*
X201201000Y-122926000D02*
G01*
X200299000Y-122926000D01*
X200299000Y-122074000D01*
X201201000Y-122074000D01*
X201201000Y-122926000D01*
X201201000Y-122926000D01*
G37*
G36*
X202701000Y-122926000D02*
G01*
X201799000Y-122926000D01*
X201799000Y-122074000D01*
X202701000Y-122074000D01*
X202701000Y-122926000D01*
X202701000Y-122926000D01*
G37*
G36*
X219551000Y-122851000D02*
G01*
X218549000Y-122851000D01*
X218549000Y-121749000D01*
X219551000Y-121749000D01*
X219551000Y-122851000D01*
X219551000Y-122851000D01*
G37*
G36*
X215451000Y-122851000D02*
G01*
X214449000Y-122851000D01*
X214449000Y-121749000D01*
X215451000Y-121749000D01*
X215451000Y-122851000D01*
X215451000Y-122851000D01*
G37*
G36*
X229051000Y-122851000D02*
G01*
X228049000Y-122851000D01*
X228049000Y-121749000D01*
X229051000Y-121749000D01*
X229051000Y-122851000D01*
X229051000Y-122851000D01*
G37*
G36*
X224951000Y-122851000D02*
G01*
X223949000Y-122851000D01*
X223949000Y-121749000D01*
X224951000Y-121749000D01*
X224951000Y-122851000D01*
X224951000Y-122851000D01*
G37*
G36*
X162401000Y-122801000D02*
G01*
X161799000Y-122801000D01*
X161799000Y-122199000D01*
X162401000Y-122199000D01*
X162401000Y-122801000D01*
X162401000Y-122801000D01*
G37*
G36*
X160201000Y-122801000D02*
G01*
X159599000Y-122801000D01*
X159599000Y-122199000D01*
X160201000Y-122199000D01*
X160201000Y-122801000D01*
X160201000Y-122801000D01*
G37*
G36*
X172303600Y-122742301D02*
G01*
X171084000Y-122742301D01*
X171084000Y-122157701D01*
X172303600Y-122157701D01*
X172303600Y-122742301D01*
X172303600Y-122742301D01*
G37*
G36*
X169916000Y-122742301D02*
G01*
X168696400Y-122742301D01*
X168696400Y-122157701D01*
X169916000Y-122157701D01*
X169916000Y-122742301D01*
X169916000Y-122742301D01*
G37*
G36*
X182451000Y-122251000D02*
G01*
X181549000Y-122251000D01*
X181549000Y-121349000D01*
X182451000Y-121349000D01*
X182451000Y-122251000D01*
X182451000Y-122251000D01*
G37*
G36*
X173926000Y-122201000D02*
G01*
X173074000Y-122201000D01*
X173074000Y-121299000D01*
X173926000Y-121299000D01*
X173926000Y-122201000D01*
X173926000Y-122201000D01*
G37*
G36*
X208926000Y-122201000D02*
G01*
X208074000Y-122201000D01*
X208074000Y-121299000D01*
X208926000Y-121299000D01*
X208926000Y-122201000D01*
X208926000Y-122201000D01*
G37*
G36*
X204426000Y-122201000D02*
G01*
X203574000Y-122201000D01*
X203574000Y-121299000D01*
X204426000Y-121299000D01*
X204426000Y-122201000D01*
X204426000Y-122201000D01*
G37*
G36*
X166426000Y-122201000D02*
G01*
X165574000Y-122201000D01*
X165574000Y-121299000D01*
X166426000Y-121299000D01*
X166426000Y-122201000D01*
X166426000Y-122201000D01*
G37*
G36*
X214001000Y-122051000D02*
G01*
X212999000Y-122051000D01*
X212999000Y-121449000D01*
X214001000Y-121449000D01*
X214001000Y-122051000D01*
X214001000Y-122051000D01*
G37*
G36*
X210501000Y-122051000D02*
G01*
X209499000Y-122051000D01*
X209499000Y-121449000D01*
X210501000Y-121449000D01*
X210501000Y-122051000D01*
X210501000Y-122051000D01*
G37*
G36*
X212001000Y-122051000D02*
G01*
X210999000Y-122051000D01*
X210999000Y-121449000D01*
X212001000Y-121449000D01*
X212001000Y-122051000D01*
X212001000Y-122051000D01*
G37*
G36*
X206001000Y-122051000D02*
G01*
X204999000Y-122051000D01*
X204999000Y-121449000D01*
X206001000Y-121449000D01*
X206001000Y-122051000D01*
X206001000Y-122051000D01*
G37*
G36*
X181001000Y-122051000D02*
G01*
X179999000Y-122051000D01*
X179999000Y-121449000D01*
X181001000Y-121449000D01*
X181001000Y-122051000D01*
X181001000Y-122051000D01*
G37*
G36*
X178001000Y-122051000D02*
G01*
X176999000Y-122051000D01*
X176999000Y-121449000D01*
X178001000Y-121449000D01*
X178001000Y-122051000D01*
X178001000Y-122051000D01*
G37*
G36*
X223001000Y-122051000D02*
G01*
X221999000Y-122051000D01*
X221999000Y-121449000D01*
X223001000Y-121449000D01*
X223001000Y-122051000D01*
X223001000Y-122051000D01*
G37*
G36*
X221501000Y-122051000D02*
G01*
X220499000Y-122051000D01*
X220499000Y-121449000D01*
X221501000Y-121449000D01*
X221501000Y-122051000D01*
X221501000Y-122051000D01*
G37*
G36*
X207501000Y-122051000D02*
G01*
X206499000Y-122051000D01*
X206499000Y-121449000D01*
X207501000Y-121449000D01*
X207501000Y-122051000D01*
X207501000Y-122051000D01*
G37*
G36*
X179501000Y-122051000D02*
G01*
X178499000Y-122051000D01*
X178499000Y-121449000D01*
X179501000Y-121449000D01*
X179501000Y-122051000D01*
X179501000Y-122051000D01*
G37*
G36*
X169916000Y-121792300D02*
G01*
X168696400Y-121792300D01*
X168696400Y-121207700D01*
X169916000Y-121207700D01*
X169916000Y-121792300D01*
X169916000Y-121792300D01*
G37*
G36*
X185301000Y-121776000D02*
G01*
X184599000Y-121776000D01*
X184599000Y-121224000D01*
X185301000Y-121224000D01*
X185301000Y-121776000D01*
X185301000Y-121776000D01*
G37*
G36*
X187401000Y-121776000D02*
G01*
X186699000Y-121776000D01*
X186699000Y-121224000D01*
X187401000Y-121224000D01*
X187401000Y-121776000D01*
X187401000Y-121776000D01*
G37*
G36*
X157276000Y-121301000D02*
G01*
X156724000Y-121301000D01*
X156724000Y-120599000D01*
X157276000Y-120599000D01*
X157276000Y-121301000D01*
X157276000Y-121301000D01*
G37*
G36*
X202801000Y-121301000D02*
G01*
X201499000Y-121301000D01*
X201499000Y-119699000D01*
X202801000Y-119699000D01*
X202801000Y-121301000D01*
X202801000Y-121301000D01*
G37*
G36*
X196501000Y-121301000D02*
G01*
X195199000Y-121301000D01*
X195199000Y-119699000D01*
X196501000Y-119699000D01*
X196501000Y-121301000D01*
X196501000Y-121301000D01*
G37*
G36*
X224951000Y-121251000D02*
G01*
X223949000Y-121251000D01*
X223949000Y-120149000D01*
X224951000Y-120149000D01*
X224951000Y-121251000D01*
X224951000Y-121251000D01*
G37*
G36*
X219551000Y-121251000D02*
G01*
X218549000Y-121251000D01*
X218549000Y-120149000D01*
X219551000Y-120149000D01*
X219551000Y-121251000D01*
X219551000Y-121251000D01*
G37*
G36*
X229051000Y-121251000D02*
G01*
X228049000Y-121251000D01*
X228049000Y-120149000D01*
X229051000Y-120149000D01*
X229051000Y-121251000D01*
X229051000Y-121251000D01*
G37*
G36*
X215451000Y-121251000D02*
G01*
X214449000Y-121251000D01*
X214449000Y-120149000D01*
X215451000Y-120149000D01*
X215451000Y-121251000D01*
X215451000Y-121251000D01*
G37*
G36*
X176176000Y-121051000D02*
G01*
X174824000Y-121051000D01*
X174824000Y-119949000D01*
X176176000Y-119949000D01*
X176176000Y-121051000D01*
X176176000Y-121051000D01*
G37*
G36*
X164676000Y-121051000D02*
G01*
X163324000Y-121051000D01*
X163324000Y-119949000D01*
X164676000Y-119949000D01*
X164676000Y-121051000D01*
X164676000Y-121051000D01*
G37*
G36*
X189051000Y-121001000D02*
G01*
X188449000Y-121001000D01*
X188449000Y-119999000D01*
X189051000Y-119999000D01*
X189051000Y-121001000D01*
X189051000Y-121001000D01*
G37*
G36*
X193051000Y-121001000D02*
G01*
X192449000Y-121001000D01*
X192449000Y-119999000D01*
X193051000Y-119999000D01*
X193051000Y-121001000D01*
X193051000Y-121001000D01*
G37*
G36*
X191551000Y-121001000D02*
G01*
X190949000Y-121001000D01*
X190949000Y-119999000D01*
X191551000Y-119999000D01*
X191551000Y-121001000D01*
X191551000Y-121001000D01*
G37*
G36*
X190551000Y-121001000D02*
G01*
X189949000Y-121001000D01*
X189949000Y-119999000D01*
X190551000Y-119999000D01*
X190551000Y-121001000D01*
X190551000Y-121001000D01*
G37*
G36*
X172303600Y-120842299D02*
G01*
X171084000Y-120842299D01*
X171084000Y-120257699D01*
X172303600Y-120257699D01*
X172303600Y-120842299D01*
X172303600Y-120842299D01*
G37*
G36*
X169916000Y-120842299D02*
G01*
X168696400Y-120842299D01*
X168696400Y-120257699D01*
X169916000Y-120257699D01*
X169916000Y-120842299D01*
X169916000Y-120842299D01*
G37*
G36*
X162401000Y-120801000D02*
G01*
X161799000Y-120801000D01*
X161799000Y-120199000D01*
X162401000Y-120199000D01*
X162401000Y-120801000D01*
X162401000Y-120801000D01*
G37*
G36*
X160201000Y-120801000D02*
G01*
X159599000Y-120801000D01*
X159599000Y-120199000D01*
X160201000Y-120199000D01*
X160201000Y-120801000D01*
X160201000Y-120801000D01*
G37*
G36*
X208926000Y-120701000D02*
G01*
X208074000Y-120701000D01*
X208074000Y-119799000D01*
X208926000Y-119799000D01*
X208926000Y-120701000D01*
X208926000Y-120701000D01*
G37*
G36*
X166426000Y-120701000D02*
G01*
X165574000Y-120701000D01*
X165574000Y-119799000D01*
X166426000Y-119799000D01*
X166426000Y-120701000D01*
X166426000Y-120701000D01*
G37*
G36*
X204426000Y-120701000D02*
G01*
X203574000Y-120701000D01*
X203574000Y-119799000D01*
X204426000Y-119799000D01*
X204426000Y-120701000D01*
X204426000Y-120701000D01*
G37*
G36*
X173926000Y-120701000D02*
G01*
X173074000Y-120701000D01*
X173074000Y-119799000D01*
X173926000Y-119799000D01*
X173926000Y-120701000D01*
X173926000Y-120701000D01*
G37*
G36*
X182451000Y-120651000D02*
G01*
X181549000Y-120651000D01*
X181549000Y-119749000D01*
X182451000Y-119749000D01*
X182451000Y-120651000D01*
X182451000Y-120651000D01*
G37*
G36*
X210501000Y-120551000D02*
G01*
X209499000Y-120551000D01*
X209499000Y-119949000D01*
X210501000Y-119949000D01*
X210501000Y-120551000D01*
X210501000Y-120551000D01*
G37*
G36*
X214001000Y-120551000D02*
G01*
X212999000Y-120551000D01*
X212999000Y-119949000D01*
X214001000Y-119949000D01*
X214001000Y-120551000D01*
X214001000Y-120551000D01*
G37*
G36*
X212001000Y-120551000D02*
G01*
X210999000Y-120551000D01*
X210999000Y-119949000D01*
X212001000Y-119949000D01*
X212001000Y-120551000D01*
X212001000Y-120551000D01*
G37*
G36*
X223001000Y-120551000D02*
G01*
X221999000Y-120551000D01*
X221999000Y-119949000D01*
X223001000Y-119949000D01*
X223001000Y-120551000D01*
X223001000Y-120551000D01*
G37*
G36*
X207501000Y-120551000D02*
G01*
X206499000Y-120551000D01*
X206499000Y-119949000D01*
X207501000Y-119949000D01*
X207501000Y-120551000D01*
X207501000Y-120551000D01*
G37*
G36*
X178001000Y-120551000D02*
G01*
X176999000Y-120551000D01*
X176999000Y-119949000D01*
X178001000Y-119949000D01*
X178001000Y-120551000D01*
X178001000Y-120551000D01*
G37*
G36*
X206001000Y-120551000D02*
G01*
X204999000Y-120551000D01*
X204999000Y-119949000D01*
X206001000Y-119949000D01*
X206001000Y-120551000D01*
X206001000Y-120551000D01*
G37*
G36*
X221501000Y-120551000D02*
G01*
X220499000Y-120551000D01*
X220499000Y-119949000D01*
X221501000Y-119949000D01*
X221501000Y-120551000D01*
X221501000Y-120551000D01*
G37*
G36*
X181001000Y-120551000D02*
G01*
X179999000Y-120551000D01*
X179999000Y-119949000D01*
X181001000Y-119949000D01*
X181001000Y-120551000D01*
X181001000Y-120551000D01*
G37*
G36*
X179501000Y-120551000D02*
G01*
X178499000Y-120551000D01*
X178499000Y-119949000D01*
X179501000Y-119949000D01*
X179501000Y-120551000D01*
X179501000Y-120551000D01*
G37*
G36*
X162901000Y-118901000D02*
G01*
X161099000Y-118901000D01*
X161099000Y-117099000D01*
X162901000Y-117099000D01*
X162901000Y-118901000D01*
X162901000Y-118901000D01*
G37*
G36*
X212910443Y-117105519D02*
G01*
X212976627Y-117112037D01*
X213146466Y-117163557D01*
X213302991Y-117247222D01*
X213338729Y-117276552D01*
X213440186Y-117359814D01*
X213523448Y-117461271D01*
X213552778Y-117497009D01*
X213636443Y-117653534D01*
X213687963Y-117823373D01*
X213705359Y-118000000D01*
X213687963Y-118176627D01*
X213636443Y-118346466D01*
X213552778Y-118502991D01*
X213523448Y-118538729D01*
X213440186Y-118640186D01*
X213338729Y-118723448D01*
X213302991Y-118752778D01*
X213146466Y-118836443D01*
X212976627Y-118887963D01*
X212910442Y-118894482D01*
X212844260Y-118901000D01*
X212755740Y-118901000D01*
X212689558Y-118894482D01*
X212623373Y-118887963D01*
X212453534Y-118836443D01*
X212297009Y-118752778D01*
X212261271Y-118723448D01*
X212159814Y-118640186D01*
X212076552Y-118538729D01*
X212047222Y-118502991D01*
X211963557Y-118346466D01*
X211912037Y-118176627D01*
X211894641Y-118000000D01*
X211912037Y-117823373D01*
X211963557Y-117653534D01*
X212047222Y-117497009D01*
X212076552Y-117461271D01*
X212159814Y-117359814D01*
X212261271Y-117276552D01*
X212297009Y-117247222D01*
X212453534Y-117163557D01*
X212623373Y-117112037D01*
X212689557Y-117105519D01*
X212755740Y-117099000D01*
X212844260Y-117099000D01*
X212910443Y-117105519D01*
X212910443Y-117105519D01*
G37*
G36*
X169730443Y-117105519D02*
G01*
X169796627Y-117112037D01*
X169966466Y-117163557D01*
X170122991Y-117247222D01*
X170158729Y-117276552D01*
X170260186Y-117359814D01*
X170343448Y-117461271D01*
X170372778Y-117497009D01*
X170456443Y-117653534D01*
X170507963Y-117823373D01*
X170525359Y-118000000D01*
X170507963Y-118176627D01*
X170456443Y-118346466D01*
X170372778Y-118502991D01*
X170343448Y-118538729D01*
X170260186Y-118640186D01*
X170158729Y-118723448D01*
X170122991Y-118752778D01*
X169966466Y-118836443D01*
X169796627Y-118887963D01*
X169730442Y-118894482D01*
X169664260Y-118901000D01*
X169575740Y-118901000D01*
X169509558Y-118894482D01*
X169443373Y-118887963D01*
X169273534Y-118836443D01*
X169117009Y-118752778D01*
X169081271Y-118723448D01*
X168979814Y-118640186D01*
X168896552Y-118538729D01*
X168867222Y-118502991D01*
X168783557Y-118346466D01*
X168732037Y-118176627D01*
X168714641Y-118000000D01*
X168732037Y-117823373D01*
X168783557Y-117653534D01*
X168867222Y-117497009D01*
X168896552Y-117461271D01*
X168979814Y-117359814D01*
X169081271Y-117276552D01*
X169117009Y-117247222D01*
X169273534Y-117163557D01*
X169443373Y-117112037D01*
X169509557Y-117105519D01*
X169575740Y-117099000D01*
X169664260Y-117099000D01*
X169730443Y-117105519D01*
X169730443Y-117105519D01*
G37*
G36*
X225610443Y-117105519D02*
G01*
X225676627Y-117112037D01*
X225846466Y-117163557D01*
X226002991Y-117247222D01*
X226038729Y-117276552D01*
X226140186Y-117359814D01*
X226223448Y-117461271D01*
X226252778Y-117497009D01*
X226336443Y-117653534D01*
X226387963Y-117823373D01*
X226405359Y-118000000D01*
X226387963Y-118176627D01*
X226336443Y-118346466D01*
X226252778Y-118502991D01*
X226223448Y-118538729D01*
X226140186Y-118640186D01*
X226038729Y-118723448D01*
X226002991Y-118752778D01*
X225846466Y-118836443D01*
X225676627Y-118887963D01*
X225610442Y-118894482D01*
X225544260Y-118901000D01*
X225455740Y-118901000D01*
X225389558Y-118894482D01*
X225323373Y-118887963D01*
X225153534Y-118836443D01*
X224997009Y-118752778D01*
X224961271Y-118723448D01*
X224859814Y-118640186D01*
X224776552Y-118538729D01*
X224747222Y-118502991D01*
X224663557Y-118346466D01*
X224612037Y-118176627D01*
X224594641Y-118000000D01*
X224612037Y-117823373D01*
X224663557Y-117653534D01*
X224747222Y-117497009D01*
X224776552Y-117461271D01*
X224859814Y-117359814D01*
X224961271Y-117276552D01*
X224997009Y-117247222D01*
X225153534Y-117163557D01*
X225323373Y-117112037D01*
X225389557Y-117105519D01*
X225455740Y-117099000D01*
X225544260Y-117099000D01*
X225610443Y-117105519D01*
X225610443Y-117105519D01*
G37*
G36*
X172270443Y-117105519D02*
G01*
X172336627Y-117112037D01*
X172506466Y-117163557D01*
X172662991Y-117247222D01*
X172698729Y-117276552D01*
X172800186Y-117359814D01*
X172883448Y-117461271D01*
X172912778Y-117497009D01*
X172996443Y-117653534D01*
X173047963Y-117823373D01*
X173065359Y-118000000D01*
X173047963Y-118176627D01*
X172996443Y-118346466D01*
X172912778Y-118502991D01*
X172883448Y-118538729D01*
X172800186Y-118640186D01*
X172698729Y-118723448D01*
X172662991Y-118752778D01*
X172506466Y-118836443D01*
X172336627Y-118887963D01*
X172270442Y-118894482D01*
X172204260Y-118901000D01*
X172115740Y-118901000D01*
X172049558Y-118894482D01*
X171983373Y-118887963D01*
X171813534Y-118836443D01*
X171657009Y-118752778D01*
X171621271Y-118723448D01*
X171519814Y-118640186D01*
X171436552Y-118538729D01*
X171407222Y-118502991D01*
X171323557Y-118346466D01*
X171272037Y-118176627D01*
X171254641Y-118000000D01*
X171272037Y-117823373D01*
X171323557Y-117653534D01*
X171407222Y-117497009D01*
X171436552Y-117461271D01*
X171519814Y-117359814D01*
X171621271Y-117276552D01*
X171657009Y-117247222D01*
X171813534Y-117163557D01*
X171983373Y-117112037D01*
X172049557Y-117105519D01*
X172115740Y-117099000D01*
X172204260Y-117099000D01*
X172270443Y-117105519D01*
X172270443Y-117105519D01*
G37*
G36*
X228150443Y-117105519D02*
G01*
X228216627Y-117112037D01*
X228386466Y-117163557D01*
X228542991Y-117247222D01*
X228578729Y-117276552D01*
X228680186Y-117359814D01*
X228763448Y-117461271D01*
X228792778Y-117497009D01*
X228876443Y-117653534D01*
X228927963Y-117823373D01*
X228945359Y-118000000D01*
X228927963Y-118176627D01*
X228876443Y-118346466D01*
X228792778Y-118502991D01*
X228763448Y-118538729D01*
X228680186Y-118640186D01*
X228578729Y-118723448D01*
X228542991Y-118752778D01*
X228386466Y-118836443D01*
X228216627Y-118887963D01*
X228150442Y-118894482D01*
X228084260Y-118901000D01*
X227995740Y-118901000D01*
X227929558Y-118894482D01*
X227863373Y-118887963D01*
X227693534Y-118836443D01*
X227537009Y-118752778D01*
X227501271Y-118723448D01*
X227399814Y-118640186D01*
X227316552Y-118538729D01*
X227287222Y-118502991D01*
X227203557Y-118346466D01*
X227152037Y-118176627D01*
X227134641Y-118000000D01*
X227152037Y-117823373D01*
X227203557Y-117653534D01*
X227287222Y-117497009D01*
X227316552Y-117461271D01*
X227399814Y-117359814D01*
X227501271Y-117276552D01*
X227537009Y-117247222D01*
X227693534Y-117163557D01*
X227863373Y-117112037D01*
X227929557Y-117105519D01*
X227995740Y-117099000D01*
X228084260Y-117099000D01*
X228150443Y-117105519D01*
X228150443Y-117105519D01*
G37*
G36*
X223070443Y-117105519D02*
G01*
X223136627Y-117112037D01*
X223306466Y-117163557D01*
X223462991Y-117247222D01*
X223498729Y-117276552D01*
X223600186Y-117359814D01*
X223683448Y-117461271D01*
X223712778Y-117497009D01*
X223796443Y-117653534D01*
X223847963Y-117823373D01*
X223865359Y-118000000D01*
X223847963Y-118176627D01*
X223796443Y-118346466D01*
X223712778Y-118502991D01*
X223683448Y-118538729D01*
X223600186Y-118640186D01*
X223498729Y-118723448D01*
X223462991Y-118752778D01*
X223306466Y-118836443D01*
X223136627Y-118887963D01*
X223070442Y-118894482D01*
X223004260Y-118901000D01*
X222915740Y-118901000D01*
X222849558Y-118894482D01*
X222783373Y-118887963D01*
X222613534Y-118836443D01*
X222457009Y-118752778D01*
X222421271Y-118723448D01*
X222319814Y-118640186D01*
X222236552Y-118538729D01*
X222207222Y-118502991D01*
X222123557Y-118346466D01*
X222072037Y-118176627D01*
X222054641Y-118000000D01*
X222072037Y-117823373D01*
X222123557Y-117653534D01*
X222207222Y-117497009D01*
X222236552Y-117461271D01*
X222319814Y-117359814D01*
X222421271Y-117276552D01*
X222457009Y-117247222D01*
X222613534Y-117163557D01*
X222783373Y-117112037D01*
X222849557Y-117105519D01*
X222915740Y-117099000D01*
X223004260Y-117099000D01*
X223070443Y-117105519D01*
X223070443Y-117105519D01*
G37*
G36*
X220530443Y-117105519D02*
G01*
X220596627Y-117112037D01*
X220766466Y-117163557D01*
X220922991Y-117247222D01*
X220958729Y-117276552D01*
X221060186Y-117359814D01*
X221143448Y-117461271D01*
X221172778Y-117497009D01*
X221256443Y-117653534D01*
X221307963Y-117823373D01*
X221325359Y-118000000D01*
X221307963Y-118176627D01*
X221256443Y-118346466D01*
X221172778Y-118502991D01*
X221143448Y-118538729D01*
X221060186Y-118640186D01*
X220958729Y-118723448D01*
X220922991Y-118752778D01*
X220766466Y-118836443D01*
X220596627Y-118887963D01*
X220530442Y-118894482D01*
X220464260Y-118901000D01*
X220375740Y-118901000D01*
X220309558Y-118894482D01*
X220243373Y-118887963D01*
X220073534Y-118836443D01*
X219917009Y-118752778D01*
X219881271Y-118723448D01*
X219779814Y-118640186D01*
X219696552Y-118538729D01*
X219667222Y-118502991D01*
X219583557Y-118346466D01*
X219532037Y-118176627D01*
X219514641Y-118000000D01*
X219532037Y-117823373D01*
X219583557Y-117653534D01*
X219667222Y-117497009D01*
X219696552Y-117461271D01*
X219779814Y-117359814D01*
X219881271Y-117276552D01*
X219917009Y-117247222D01*
X220073534Y-117163557D01*
X220243373Y-117112037D01*
X220309557Y-117105519D01*
X220375740Y-117099000D01*
X220464260Y-117099000D01*
X220530443Y-117105519D01*
X220530443Y-117105519D01*
G37*
G36*
X217990443Y-117105519D02*
G01*
X218056627Y-117112037D01*
X218226466Y-117163557D01*
X218382991Y-117247222D01*
X218418729Y-117276552D01*
X218520186Y-117359814D01*
X218603448Y-117461271D01*
X218632778Y-117497009D01*
X218716443Y-117653534D01*
X218767963Y-117823373D01*
X218785359Y-118000000D01*
X218767963Y-118176627D01*
X218716443Y-118346466D01*
X218632778Y-118502991D01*
X218603448Y-118538729D01*
X218520186Y-118640186D01*
X218418729Y-118723448D01*
X218382991Y-118752778D01*
X218226466Y-118836443D01*
X218056627Y-118887963D01*
X217990442Y-118894482D01*
X217924260Y-118901000D01*
X217835740Y-118901000D01*
X217769558Y-118894482D01*
X217703373Y-118887963D01*
X217533534Y-118836443D01*
X217377009Y-118752778D01*
X217341271Y-118723448D01*
X217239814Y-118640186D01*
X217156552Y-118538729D01*
X217127222Y-118502991D01*
X217043557Y-118346466D01*
X216992037Y-118176627D01*
X216974641Y-118000000D01*
X216992037Y-117823373D01*
X217043557Y-117653534D01*
X217127222Y-117497009D01*
X217156552Y-117461271D01*
X217239814Y-117359814D01*
X217341271Y-117276552D01*
X217377009Y-117247222D01*
X217533534Y-117163557D01*
X217703373Y-117112037D01*
X217769557Y-117105519D01*
X217835740Y-117099000D01*
X217924260Y-117099000D01*
X217990443Y-117105519D01*
X217990443Y-117105519D01*
G37*
G36*
X215450443Y-117105519D02*
G01*
X215516627Y-117112037D01*
X215686466Y-117163557D01*
X215842991Y-117247222D01*
X215878729Y-117276552D01*
X215980186Y-117359814D01*
X216063448Y-117461271D01*
X216092778Y-117497009D01*
X216176443Y-117653534D01*
X216227963Y-117823373D01*
X216245359Y-118000000D01*
X216227963Y-118176627D01*
X216176443Y-118346466D01*
X216092778Y-118502991D01*
X216063448Y-118538729D01*
X215980186Y-118640186D01*
X215878729Y-118723448D01*
X215842991Y-118752778D01*
X215686466Y-118836443D01*
X215516627Y-118887963D01*
X215450442Y-118894482D01*
X215384260Y-118901000D01*
X215295740Y-118901000D01*
X215229558Y-118894482D01*
X215163373Y-118887963D01*
X214993534Y-118836443D01*
X214837009Y-118752778D01*
X214801271Y-118723448D01*
X214699814Y-118640186D01*
X214616552Y-118538729D01*
X214587222Y-118502991D01*
X214503557Y-118346466D01*
X214452037Y-118176627D01*
X214434641Y-118000000D01*
X214452037Y-117823373D01*
X214503557Y-117653534D01*
X214587222Y-117497009D01*
X214616552Y-117461271D01*
X214699814Y-117359814D01*
X214801271Y-117276552D01*
X214837009Y-117247222D01*
X214993534Y-117163557D01*
X215163373Y-117112037D01*
X215229557Y-117105519D01*
X215295740Y-117099000D01*
X215384260Y-117099000D01*
X215450443Y-117105519D01*
X215450443Y-117105519D01*
G37*
G36*
X205290443Y-117105519D02*
G01*
X205356627Y-117112037D01*
X205526466Y-117163557D01*
X205682991Y-117247222D01*
X205718729Y-117276552D01*
X205820186Y-117359814D01*
X205903448Y-117461271D01*
X205932778Y-117497009D01*
X206016443Y-117653534D01*
X206067963Y-117823373D01*
X206085359Y-118000000D01*
X206067963Y-118176627D01*
X206016443Y-118346466D01*
X205932778Y-118502991D01*
X205903448Y-118538729D01*
X205820186Y-118640186D01*
X205718729Y-118723448D01*
X205682991Y-118752778D01*
X205526466Y-118836443D01*
X205356627Y-118887963D01*
X205290442Y-118894482D01*
X205224260Y-118901000D01*
X205135740Y-118901000D01*
X205069558Y-118894482D01*
X205003373Y-118887963D01*
X204833534Y-118836443D01*
X204677009Y-118752778D01*
X204641271Y-118723448D01*
X204539814Y-118640186D01*
X204456552Y-118538729D01*
X204427222Y-118502991D01*
X204343557Y-118346466D01*
X204292037Y-118176627D01*
X204274641Y-118000000D01*
X204292037Y-117823373D01*
X204343557Y-117653534D01*
X204427222Y-117497009D01*
X204456552Y-117461271D01*
X204539814Y-117359814D01*
X204641271Y-117276552D01*
X204677009Y-117247222D01*
X204833534Y-117163557D01*
X205003373Y-117112037D01*
X205069557Y-117105519D01*
X205135740Y-117099000D01*
X205224260Y-117099000D01*
X205290443Y-117105519D01*
X205290443Y-117105519D01*
G37*
G36*
X210370443Y-117105519D02*
G01*
X210436627Y-117112037D01*
X210606466Y-117163557D01*
X210762991Y-117247222D01*
X210798729Y-117276552D01*
X210900186Y-117359814D01*
X210983448Y-117461271D01*
X211012778Y-117497009D01*
X211096443Y-117653534D01*
X211147963Y-117823373D01*
X211165359Y-118000000D01*
X211147963Y-118176627D01*
X211096443Y-118346466D01*
X211012778Y-118502991D01*
X210983448Y-118538729D01*
X210900186Y-118640186D01*
X210798729Y-118723448D01*
X210762991Y-118752778D01*
X210606466Y-118836443D01*
X210436627Y-118887963D01*
X210370442Y-118894482D01*
X210304260Y-118901000D01*
X210215740Y-118901000D01*
X210149558Y-118894482D01*
X210083373Y-118887963D01*
X209913534Y-118836443D01*
X209757009Y-118752778D01*
X209721271Y-118723448D01*
X209619814Y-118640186D01*
X209536552Y-118538729D01*
X209507222Y-118502991D01*
X209423557Y-118346466D01*
X209372037Y-118176627D01*
X209354641Y-118000000D01*
X209372037Y-117823373D01*
X209423557Y-117653534D01*
X209507222Y-117497009D01*
X209536552Y-117461271D01*
X209619814Y-117359814D01*
X209721271Y-117276552D01*
X209757009Y-117247222D01*
X209913534Y-117163557D01*
X210083373Y-117112037D01*
X210149557Y-117105519D01*
X210215740Y-117099000D01*
X210304260Y-117099000D01*
X210370443Y-117105519D01*
X210370443Y-117105519D01*
G37*
G36*
X207830443Y-117105519D02*
G01*
X207896627Y-117112037D01*
X208066466Y-117163557D01*
X208222991Y-117247222D01*
X208258729Y-117276552D01*
X208360186Y-117359814D01*
X208443448Y-117461271D01*
X208472778Y-117497009D01*
X208556443Y-117653534D01*
X208607963Y-117823373D01*
X208625359Y-118000000D01*
X208607963Y-118176627D01*
X208556443Y-118346466D01*
X208472778Y-118502991D01*
X208443448Y-118538729D01*
X208360186Y-118640186D01*
X208258729Y-118723448D01*
X208222991Y-118752778D01*
X208066466Y-118836443D01*
X207896627Y-118887963D01*
X207830442Y-118894482D01*
X207764260Y-118901000D01*
X207675740Y-118901000D01*
X207609558Y-118894482D01*
X207543373Y-118887963D01*
X207373534Y-118836443D01*
X207217009Y-118752778D01*
X207181271Y-118723448D01*
X207079814Y-118640186D01*
X206996552Y-118538729D01*
X206967222Y-118502991D01*
X206883557Y-118346466D01*
X206832037Y-118176627D01*
X206814641Y-118000000D01*
X206832037Y-117823373D01*
X206883557Y-117653534D01*
X206967222Y-117497009D01*
X206996552Y-117461271D01*
X207079814Y-117359814D01*
X207181271Y-117276552D01*
X207217009Y-117247222D01*
X207373534Y-117163557D01*
X207543373Y-117112037D01*
X207609557Y-117105519D01*
X207675740Y-117099000D01*
X207764260Y-117099000D01*
X207830443Y-117105519D01*
X207830443Y-117105519D01*
G37*
G36*
X177350443Y-117105519D02*
G01*
X177416627Y-117112037D01*
X177586466Y-117163557D01*
X177742991Y-117247222D01*
X177778729Y-117276552D01*
X177880186Y-117359814D01*
X177963448Y-117461271D01*
X177992778Y-117497009D01*
X178076443Y-117653534D01*
X178127963Y-117823373D01*
X178145359Y-118000000D01*
X178127963Y-118176627D01*
X178076443Y-118346466D01*
X177992778Y-118502991D01*
X177963448Y-118538729D01*
X177880186Y-118640186D01*
X177778729Y-118723448D01*
X177742991Y-118752778D01*
X177586466Y-118836443D01*
X177416627Y-118887963D01*
X177350442Y-118894482D01*
X177284260Y-118901000D01*
X177195740Y-118901000D01*
X177129558Y-118894482D01*
X177063373Y-118887963D01*
X176893534Y-118836443D01*
X176737009Y-118752778D01*
X176701271Y-118723448D01*
X176599814Y-118640186D01*
X176516552Y-118538729D01*
X176487222Y-118502991D01*
X176403557Y-118346466D01*
X176352037Y-118176627D01*
X176334641Y-118000000D01*
X176352037Y-117823373D01*
X176403557Y-117653534D01*
X176487222Y-117497009D01*
X176516552Y-117461271D01*
X176599814Y-117359814D01*
X176701271Y-117276552D01*
X176737009Y-117247222D01*
X176893534Y-117163557D01*
X177063373Y-117112037D01*
X177129557Y-117105519D01*
X177195740Y-117099000D01*
X177284260Y-117099000D01*
X177350443Y-117105519D01*
X177350443Y-117105519D01*
G37*
G36*
X164650443Y-117105519D02*
G01*
X164716627Y-117112037D01*
X164886466Y-117163557D01*
X165042991Y-117247222D01*
X165078729Y-117276552D01*
X165180186Y-117359814D01*
X165263448Y-117461271D01*
X165292778Y-117497009D01*
X165376443Y-117653534D01*
X165427963Y-117823373D01*
X165445359Y-118000000D01*
X165427963Y-118176627D01*
X165376443Y-118346466D01*
X165292778Y-118502991D01*
X165263448Y-118538729D01*
X165180186Y-118640186D01*
X165078729Y-118723448D01*
X165042991Y-118752778D01*
X164886466Y-118836443D01*
X164716627Y-118887963D01*
X164650442Y-118894482D01*
X164584260Y-118901000D01*
X164495740Y-118901000D01*
X164429558Y-118894482D01*
X164363373Y-118887963D01*
X164193534Y-118836443D01*
X164037009Y-118752778D01*
X164001271Y-118723448D01*
X163899814Y-118640186D01*
X163816552Y-118538729D01*
X163787222Y-118502991D01*
X163703557Y-118346466D01*
X163652037Y-118176627D01*
X163634641Y-118000000D01*
X163652037Y-117823373D01*
X163703557Y-117653534D01*
X163787222Y-117497009D01*
X163816552Y-117461271D01*
X163899814Y-117359814D01*
X164001271Y-117276552D01*
X164037009Y-117247222D01*
X164193534Y-117163557D01*
X164363373Y-117112037D01*
X164429557Y-117105519D01*
X164495740Y-117099000D01*
X164584260Y-117099000D01*
X164650443Y-117105519D01*
X164650443Y-117105519D01*
G37*
G36*
X182430443Y-117105519D02*
G01*
X182496627Y-117112037D01*
X182666466Y-117163557D01*
X182822991Y-117247222D01*
X182858729Y-117276552D01*
X182960186Y-117359814D01*
X183043448Y-117461271D01*
X183072778Y-117497009D01*
X183156443Y-117653534D01*
X183207963Y-117823373D01*
X183225359Y-118000000D01*
X183207963Y-118176627D01*
X183156443Y-118346466D01*
X183072778Y-118502991D01*
X183043448Y-118538729D01*
X182960186Y-118640186D01*
X182858729Y-118723448D01*
X182822991Y-118752778D01*
X182666466Y-118836443D01*
X182496627Y-118887963D01*
X182430442Y-118894482D01*
X182364260Y-118901000D01*
X182275740Y-118901000D01*
X182209558Y-118894482D01*
X182143373Y-118887963D01*
X181973534Y-118836443D01*
X181817009Y-118752778D01*
X181781271Y-118723448D01*
X181679814Y-118640186D01*
X181596552Y-118538729D01*
X181567222Y-118502991D01*
X181483557Y-118346466D01*
X181432037Y-118176627D01*
X181414641Y-118000000D01*
X181432037Y-117823373D01*
X181483557Y-117653534D01*
X181567222Y-117497009D01*
X181596552Y-117461271D01*
X181679814Y-117359814D01*
X181781271Y-117276552D01*
X181817009Y-117247222D01*
X181973534Y-117163557D01*
X182143373Y-117112037D01*
X182209557Y-117105519D01*
X182275740Y-117099000D01*
X182364260Y-117099000D01*
X182430443Y-117105519D01*
X182430443Y-117105519D01*
G37*
G36*
X202750443Y-117105519D02*
G01*
X202816627Y-117112037D01*
X202986466Y-117163557D01*
X203142991Y-117247222D01*
X203178729Y-117276552D01*
X203280186Y-117359814D01*
X203363448Y-117461271D01*
X203392778Y-117497009D01*
X203476443Y-117653534D01*
X203527963Y-117823373D01*
X203545359Y-118000000D01*
X203527963Y-118176627D01*
X203476443Y-118346466D01*
X203392778Y-118502991D01*
X203363448Y-118538729D01*
X203280186Y-118640186D01*
X203178729Y-118723448D01*
X203142991Y-118752778D01*
X202986466Y-118836443D01*
X202816627Y-118887963D01*
X202750442Y-118894482D01*
X202684260Y-118901000D01*
X202595740Y-118901000D01*
X202529558Y-118894482D01*
X202463373Y-118887963D01*
X202293534Y-118836443D01*
X202137009Y-118752778D01*
X202101271Y-118723448D01*
X201999814Y-118640186D01*
X201916552Y-118538729D01*
X201887222Y-118502991D01*
X201803557Y-118346466D01*
X201752037Y-118176627D01*
X201734641Y-118000000D01*
X201752037Y-117823373D01*
X201803557Y-117653534D01*
X201887222Y-117497009D01*
X201916552Y-117461271D01*
X201999814Y-117359814D01*
X202101271Y-117276552D01*
X202137009Y-117247222D01*
X202293534Y-117163557D01*
X202463373Y-117112037D01*
X202529557Y-117105519D01*
X202595740Y-117099000D01*
X202684260Y-117099000D01*
X202750443Y-117105519D01*
X202750443Y-117105519D01*
G37*
G36*
X200210443Y-117105519D02*
G01*
X200276627Y-117112037D01*
X200446466Y-117163557D01*
X200602991Y-117247222D01*
X200638729Y-117276552D01*
X200740186Y-117359814D01*
X200823448Y-117461271D01*
X200852778Y-117497009D01*
X200936443Y-117653534D01*
X200987963Y-117823373D01*
X201005359Y-118000000D01*
X200987963Y-118176627D01*
X200936443Y-118346466D01*
X200852778Y-118502991D01*
X200823448Y-118538729D01*
X200740186Y-118640186D01*
X200638729Y-118723448D01*
X200602991Y-118752778D01*
X200446466Y-118836443D01*
X200276627Y-118887963D01*
X200210442Y-118894482D01*
X200144260Y-118901000D01*
X200055740Y-118901000D01*
X199989558Y-118894482D01*
X199923373Y-118887963D01*
X199753534Y-118836443D01*
X199597009Y-118752778D01*
X199561271Y-118723448D01*
X199459814Y-118640186D01*
X199376552Y-118538729D01*
X199347222Y-118502991D01*
X199263557Y-118346466D01*
X199212037Y-118176627D01*
X199194641Y-118000000D01*
X199212037Y-117823373D01*
X199263557Y-117653534D01*
X199347222Y-117497009D01*
X199376552Y-117461271D01*
X199459814Y-117359814D01*
X199561271Y-117276552D01*
X199597009Y-117247222D01*
X199753534Y-117163557D01*
X199923373Y-117112037D01*
X199989557Y-117105519D01*
X200055740Y-117099000D01*
X200144260Y-117099000D01*
X200210443Y-117105519D01*
X200210443Y-117105519D01*
G37*
G36*
X197670443Y-117105519D02*
G01*
X197736627Y-117112037D01*
X197906466Y-117163557D01*
X198062991Y-117247222D01*
X198098729Y-117276552D01*
X198200186Y-117359814D01*
X198283448Y-117461271D01*
X198312778Y-117497009D01*
X198396443Y-117653534D01*
X198447963Y-117823373D01*
X198465359Y-118000000D01*
X198447963Y-118176627D01*
X198396443Y-118346466D01*
X198312778Y-118502991D01*
X198283448Y-118538729D01*
X198200186Y-118640186D01*
X198098729Y-118723448D01*
X198062991Y-118752778D01*
X197906466Y-118836443D01*
X197736627Y-118887963D01*
X197670442Y-118894482D01*
X197604260Y-118901000D01*
X197515740Y-118901000D01*
X197449558Y-118894482D01*
X197383373Y-118887963D01*
X197213534Y-118836443D01*
X197057009Y-118752778D01*
X197021271Y-118723448D01*
X196919814Y-118640186D01*
X196836552Y-118538729D01*
X196807222Y-118502991D01*
X196723557Y-118346466D01*
X196672037Y-118176627D01*
X196654641Y-118000000D01*
X196672037Y-117823373D01*
X196723557Y-117653534D01*
X196807222Y-117497009D01*
X196836552Y-117461271D01*
X196919814Y-117359814D01*
X197021271Y-117276552D01*
X197057009Y-117247222D01*
X197213534Y-117163557D01*
X197383373Y-117112037D01*
X197449557Y-117105519D01*
X197515740Y-117099000D01*
X197604260Y-117099000D01*
X197670443Y-117105519D01*
X197670443Y-117105519D01*
G37*
G36*
X195130443Y-117105519D02*
G01*
X195196627Y-117112037D01*
X195366466Y-117163557D01*
X195522991Y-117247222D01*
X195558729Y-117276552D01*
X195660186Y-117359814D01*
X195743448Y-117461271D01*
X195772778Y-117497009D01*
X195856443Y-117653534D01*
X195907963Y-117823373D01*
X195925359Y-118000000D01*
X195907963Y-118176627D01*
X195856443Y-118346466D01*
X195772778Y-118502991D01*
X195743448Y-118538729D01*
X195660186Y-118640186D01*
X195558729Y-118723448D01*
X195522991Y-118752778D01*
X195366466Y-118836443D01*
X195196627Y-118887963D01*
X195130442Y-118894482D01*
X195064260Y-118901000D01*
X194975740Y-118901000D01*
X194909558Y-118894482D01*
X194843373Y-118887963D01*
X194673534Y-118836443D01*
X194517009Y-118752778D01*
X194481271Y-118723448D01*
X194379814Y-118640186D01*
X194296552Y-118538729D01*
X194267222Y-118502991D01*
X194183557Y-118346466D01*
X194132037Y-118176627D01*
X194114641Y-118000000D01*
X194132037Y-117823373D01*
X194183557Y-117653534D01*
X194267222Y-117497009D01*
X194296552Y-117461271D01*
X194379814Y-117359814D01*
X194481271Y-117276552D01*
X194517009Y-117247222D01*
X194673534Y-117163557D01*
X194843373Y-117112037D01*
X194909557Y-117105519D01*
X194975740Y-117099000D01*
X195064260Y-117099000D01*
X195130443Y-117105519D01*
X195130443Y-117105519D01*
G37*
G36*
X192590443Y-117105519D02*
G01*
X192656627Y-117112037D01*
X192826466Y-117163557D01*
X192982991Y-117247222D01*
X193018729Y-117276552D01*
X193120186Y-117359814D01*
X193203448Y-117461271D01*
X193232778Y-117497009D01*
X193316443Y-117653534D01*
X193367963Y-117823373D01*
X193385359Y-118000000D01*
X193367963Y-118176627D01*
X193316443Y-118346466D01*
X193232778Y-118502991D01*
X193203448Y-118538729D01*
X193120186Y-118640186D01*
X193018729Y-118723448D01*
X192982991Y-118752778D01*
X192826466Y-118836443D01*
X192656627Y-118887963D01*
X192590442Y-118894482D01*
X192524260Y-118901000D01*
X192435740Y-118901000D01*
X192369558Y-118894482D01*
X192303373Y-118887963D01*
X192133534Y-118836443D01*
X191977009Y-118752778D01*
X191941271Y-118723448D01*
X191839814Y-118640186D01*
X191756552Y-118538729D01*
X191727222Y-118502991D01*
X191643557Y-118346466D01*
X191592037Y-118176627D01*
X191574641Y-118000000D01*
X191592037Y-117823373D01*
X191643557Y-117653534D01*
X191727222Y-117497009D01*
X191756552Y-117461271D01*
X191839814Y-117359814D01*
X191941271Y-117276552D01*
X191977009Y-117247222D01*
X192133534Y-117163557D01*
X192303373Y-117112037D01*
X192369557Y-117105519D01*
X192435740Y-117099000D01*
X192524260Y-117099000D01*
X192590443Y-117105519D01*
X192590443Y-117105519D01*
G37*
G36*
X187510443Y-117105519D02*
G01*
X187576627Y-117112037D01*
X187746466Y-117163557D01*
X187902991Y-117247222D01*
X187938729Y-117276552D01*
X188040186Y-117359814D01*
X188123448Y-117461271D01*
X188152778Y-117497009D01*
X188236443Y-117653534D01*
X188287963Y-117823373D01*
X188305359Y-118000000D01*
X188287963Y-118176627D01*
X188236443Y-118346466D01*
X188152778Y-118502991D01*
X188123448Y-118538729D01*
X188040186Y-118640186D01*
X187938729Y-118723448D01*
X187902991Y-118752778D01*
X187746466Y-118836443D01*
X187576627Y-118887963D01*
X187510442Y-118894482D01*
X187444260Y-118901000D01*
X187355740Y-118901000D01*
X187289558Y-118894482D01*
X187223373Y-118887963D01*
X187053534Y-118836443D01*
X186897009Y-118752778D01*
X186861271Y-118723448D01*
X186759814Y-118640186D01*
X186676552Y-118538729D01*
X186647222Y-118502991D01*
X186563557Y-118346466D01*
X186512037Y-118176627D01*
X186494641Y-118000000D01*
X186512037Y-117823373D01*
X186563557Y-117653534D01*
X186647222Y-117497009D01*
X186676552Y-117461271D01*
X186759814Y-117359814D01*
X186861271Y-117276552D01*
X186897009Y-117247222D01*
X187053534Y-117163557D01*
X187223373Y-117112037D01*
X187289557Y-117105519D01*
X187355740Y-117099000D01*
X187444260Y-117099000D01*
X187510443Y-117105519D01*
X187510443Y-117105519D01*
G37*
G36*
X184970443Y-117105519D02*
G01*
X185036627Y-117112037D01*
X185206466Y-117163557D01*
X185362991Y-117247222D01*
X185398729Y-117276552D01*
X185500186Y-117359814D01*
X185583448Y-117461271D01*
X185612778Y-117497009D01*
X185696443Y-117653534D01*
X185747963Y-117823373D01*
X185765359Y-118000000D01*
X185747963Y-118176627D01*
X185696443Y-118346466D01*
X185612778Y-118502991D01*
X185583448Y-118538729D01*
X185500186Y-118640186D01*
X185398729Y-118723448D01*
X185362991Y-118752778D01*
X185206466Y-118836443D01*
X185036627Y-118887963D01*
X184970442Y-118894482D01*
X184904260Y-118901000D01*
X184815740Y-118901000D01*
X184749558Y-118894482D01*
X184683373Y-118887963D01*
X184513534Y-118836443D01*
X184357009Y-118752778D01*
X184321271Y-118723448D01*
X184219814Y-118640186D01*
X184136552Y-118538729D01*
X184107222Y-118502991D01*
X184023557Y-118346466D01*
X183972037Y-118176627D01*
X183954641Y-118000000D01*
X183972037Y-117823373D01*
X184023557Y-117653534D01*
X184107222Y-117497009D01*
X184136552Y-117461271D01*
X184219814Y-117359814D01*
X184321271Y-117276552D01*
X184357009Y-117247222D01*
X184513534Y-117163557D01*
X184683373Y-117112037D01*
X184749557Y-117105519D01*
X184815740Y-117099000D01*
X184904260Y-117099000D01*
X184970443Y-117105519D01*
X184970443Y-117105519D01*
G37*
G36*
X167190443Y-117105519D02*
G01*
X167256627Y-117112037D01*
X167426466Y-117163557D01*
X167582991Y-117247222D01*
X167618729Y-117276552D01*
X167720186Y-117359814D01*
X167803448Y-117461271D01*
X167832778Y-117497009D01*
X167916443Y-117653534D01*
X167967963Y-117823373D01*
X167985359Y-118000000D01*
X167967963Y-118176627D01*
X167916443Y-118346466D01*
X167832778Y-118502991D01*
X167803448Y-118538729D01*
X167720186Y-118640186D01*
X167618729Y-118723448D01*
X167582991Y-118752778D01*
X167426466Y-118836443D01*
X167256627Y-118887963D01*
X167190442Y-118894482D01*
X167124260Y-118901000D01*
X167035740Y-118901000D01*
X166969558Y-118894482D01*
X166903373Y-118887963D01*
X166733534Y-118836443D01*
X166577009Y-118752778D01*
X166541271Y-118723448D01*
X166439814Y-118640186D01*
X166356552Y-118538729D01*
X166327222Y-118502991D01*
X166243557Y-118346466D01*
X166192037Y-118176627D01*
X166174641Y-118000000D01*
X166192037Y-117823373D01*
X166243557Y-117653534D01*
X166327222Y-117497009D01*
X166356552Y-117461271D01*
X166439814Y-117359814D01*
X166541271Y-117276552D01*
X166577009Y-117247222D01*
X166733534Y-117163557D01*
X166903373Y-117112037D01*
X166969557Y-117105519D01*
X167035740Y-117099000D01*
X167124260Y-117099000D01*
X167190443Y-117105519D01*
X167190443Y-117105519D01*
G37*
G36*
X179890443Y-117105519D02*
G01*
X179956627Y-117112037D01*
X180126466Y-117163557D01*
X180282991Y-117247222D01*
X180318729Y-117276552D01*
X180420186Y-117359814D01*
X180503448Y-117461271D01*
X180532778Y-117497009D01*
X180616443Y-117653534D01*
X180667963Y-117823373D01*
X180685359Y-118000000D01*
X180667963Y-118176627D01*
X180616443Y-118346466D01*
X180532778Y-118502991D01*
X180503448Y-118538729D01*
X180420186Y-118640186D01*
X180318729Y-118723448D01*
X180282991Y-118752778D01*
X180126466Y-118836443D01*
X179956627Y-118887963D01*
X179890442Y-118894482D01*
X179824260Y-118901000D01*
X179735740Y-118901000D01*
X179669558Y-118894482D01*
X179603373Y-118887963D01*
X179433534Y-118836443D01*
X179277009Y-118752778D01*
X179241271Y-118723448D01*
X179139814Y-118640186D01*
X179056552Y-118538729D01*
X179027222Y-118502991D01*
X178943557Y-118346466D01*
X178892037Y-118176627D01*
X178874641Y-118000000D01*
X178892037Y-117823373D01*
X178943557Y-117653534D01*
X179027222Y-117497009D01*
X179056552Y-117461271D01*
X179139814Y-117359814D01*
X179241271Y-117276552D01*
X179277009Y-117247222D01*
X179433534Y-117163557D01*
X179603373Y-117112037D01*
X179669557Y-117105519D01*
X179735740Y-117099000D01*
X179824260Y-117099000D01*
X179890443Y-117105519D01*
X179890443Y-117105519D01*
G37*
G36*
X174810443Y-117105519D02*
G01*
X174876627Y-117112037D01*
X175046466Y-117163557D01*
X175202991Y-117247222D01*
X175238729Y-117276552D01*
X175340186Y-117359814D01*
X175423448Y-117461271D01*
X175452778Y-117497009D01*
X175536443Y-117653534D01*
X175587963Y-117823373D01*
X175605359Y-118000000D01*
X175587963Y-118176627D01*
X175536443Y-118346466D01*
X175452778Y-118502991D01*
X175423448Y-118538729D01*
X175340186Y-118640186D01*
X175238729Y-118723448D01*
X175202991Y-118752778D01*
X175046466Y-118836443D01*
X174876627Y-118887963D01*
X174810442Y-118894482D01*
X174744260Y-118901000D01*
X174655740Y-118901000D01*
X174589558Y-118894482D01*
X174523373Y-118887963D01*
X174353534Y-118836443D01*
X174197009Y-118752778D01*
X174161271Y-118723448D01*
X174059814Y-118640186D01*
X173976552Y-118538729D01*
X173947222Y-118502991D01*
X173863557Y-118346466D01*
X173812037Y-118176627D01*
X173794641Y-118000000D01*
X173812037Y-117823373D01*
X173863557Y-117653534D01*
X173947222Y-117497009D01*
X173976552Y-117461271D01*
X174059814Y-117359814D01*
X174161271Y-117276552D01*
X174197009Y-117247222D01*
X174353534Y-117163557D01*
X174523373Y-117112037D01*
X174589557Y-117105519D01*
X174655740Y-117099000D01*
X174744260Y-117099000D01*
X174810443Y-117105519D01*
X174810443Y-117105519D01*
G37*
G36*
X190050443Y-117105519D02*
G01*
X190116627Y-117112037D01*
X190286466Y-117163557D01*
X190442991Y-117247222D01*
X190478729Y-117276552D01*
X190580186Y-117359814D01*
X190663448Y-117461271D01*
X190692778Y-117497009D01*
X190776443Y-117653534D01*
X190827963Y-117823373D01*
X190845359Y-118000000D01*
X190827963Y-118176627D01*
X190776443Y-118346466D01*
X190692778Y-118502991D01*
X190663448Y-118538729D01*
X190580186Y-118640186D01*
X190478729Y-118723448D01*
X190442991Y-118752778D01*
X190286466Y-118836443D01*
X190116627Y-118887963D01*
X190050442Y-118894482D01*
X189984260Y-118901000D01*
X189895740Y-118901000D01*
X189829558Y-118894482D01*
X189763373Y-118887963D01*
X189593534Y-118836443D01*
X189437009Y-118752778D01*
X189401271Y-118723448D01*
X189299814Y-118640186D01*
X189216552Y-118538729D01*
X189187222Y-118502991D01*
X189103557Y-118346466D01*
X189052037Y-118176627D01*
X189034641Y-118000000D01*
X189052037Y-117823373D01*
X189103557Y-117653534D01*
X189187222Y-117497009D01*
X189216552Y-117461271D01*
X189299814Y-117359814D01*
X189401271Y-117276552D01*
X189437009Y-117247222D01*
X189593534Y-117163557D01*
X189763373Y-117112037D01*
X189829557Y-117105519D01*
X189895740Y-117099000D01*
X189984260Y-117099000D01*
X190050443Y-117105519D01*
X190050443Y-117105519D01*
G37*
G36*
X186051000Y-116001000D02*
G01*
X185449000Y-116001000D01*
X185449000Y-114999000D01*
X186051000Y-114999000D01*
X186051000Y-116001000D01*
X186051000Y-116001000D01*
G37*
G36*
X216651000Y-116001000D02*
G01*
X215149000Y-116001000D01*
X215149000Y-114699000D01*
X216651000Y-114699000D01*
X216651000Y-116001000D01*
X216651000Y-116001000D01*
G37*
G36*
X184551000Y-116001000D02*
G01*
X183949000Y-116001000D01*
X183949000Y-114999000D01*
X184551000Y-114999000D01*
X184551000Y-116001000D01*
X184551000Y-116001000D01*
G37*
G36*
X218851000Y-116001000D02*
G01*
X217349000Y-116001000D01*
X217349000Y-114699000D01*
X218851000Y-114699000D01*
X218851000Y-116001000D01*
X218851000Y-116001000D01*
G37*
G36*
X190701000Y-115926000D02*
G01*
X189799000Y-115926000D01*
X189799000Y-115074000D01*
X190701000Y-115074000D01*
X190701000Y-115926000D01*
X190701000Y-115926000D01*
G37*
G36*
X192201000Y-115926000D02*
G01*
X191299000Y-115926000D01*
X191299000Y-115074000D01*
X192201000Y-115074000D01*
X192201000Y-115926000D01*
X192201000Y-115926000D01*
G37*
G36*
X187701000Y-115926000D02*
G01*
X186799000Y-115926000D01*
X186799000Y-115074000D01*
X187701000Y-115074000D01*
X187701000Y-115926000D01*
X187701000Y-115926000D01*
G37*
G36*
X189201000Y-115926000D02*
G01*
X188299000Y-115926000D01*
X188299000Y-115074000D01*
X189201000Y-115074000D01*
X189201000Y-115926000D01*
X189201000Y-115926000D01*
G37*
G36*
X214426000Y-115701000D02*
G01*
X213574000Y-115701000D01*
X213574000Y-114799000D01*
X214426000Y-114799000D01*
X214426000Y-115701000D01*
X214426000Y-115701000D01*
G37*
G36*
X223150442Y-113835518D02*
G01*
X223216627Y-113842037D01*
X223386466Y-113893557D01*
X223542991Y-113977222D01*
X223569527Y-113999000D01*
X223680186Y-114089814D01*
X223763448Y-114191271D01*
X223792778Y-114227009D01*
X223876443Y-114383534D01*
X223927963Y-114553373D01*
X223945359Y-114730000D01*
X223927963Y-114906627D01*
X223876443Y-115076466D01*
X223792778Y-115232991D01*
X223763448Y-115268729D01*
X223680186Y-115370186D01*
X223578729Y-115453448D01*
X223542991Y-115482778D01*
X223386466Y-115566443D01*
X223216627Y-115617963D01*
X223150442Y-115624482D01*
X223084260Y-115631000D01*
X222995740Y-115631000D01*
X222929558Y-115624482D01*
X222863373Y-115617963D01*
X222693534Y-115566443D01*
X222537009Y-115482778D01*
X222501271Y-115453448D01*
X222399814Y-115370186D01*
X222316552Y-115268729D01*
X222287222Y-115232991D01*
X222203557Y-115076466D01*
X222152037Y-114906627D01*
X222134641Y-114730000D01*
X222152037Y-114553373D01*
X222203557Y-114383534D01*
X222287222Y-114227009D01*
X222316552Y-114191271D01*
X222399814Y-114089814D01*
X222510473Y-113999000D01*
X222537009Y-113977222D01*
X222693534Y-113893557D01*
X222863373Y-113842037D01*
X222929558Y-113835518D01*
X222995740Y-113829000D01*
X223084260Y-113829000D01*
X223150442Y-113835518D01*
X223150442Y-113835518D01*
G37*
G36*
X220610442Y-113835518D02*
G01*
X220676627Y-113842037D01*
X220846466Y-113893557D01*
X221002991Y-113977222D01*
X221029527Y-113999000D01*
X221140186Y-114089814D01*
X221223448Y-114191271D01*
X221252778Y-114227009D01*
X221336443Y-114383534D01*
X221387963Y-114553373D01*
X221405359Y-114730000D01*
X221387963Y-114906627D01*
X221336443Y-115076466D01*
X221252778Y-115232991D01*
X221223448Y-115268729D01*
X221140186Y-115370186D01*
X221038729Y-115453448D01*
X221002991Y-115482778D01*
X220846466Y-115566443D01*
X220676627Y-115617963D01*
X220610442Y-115624482D01*
X220544260Y-115631000D01*
X220455740Y-115631000D01*
X220389558Y-115624482D01*
X220323373Y-115617963D01*
X220153534Y-115566443D01*
X219997009Y-115482778D01*
X219961271Y-115453448D01*
X219859814Y-115370186D01*
X219776552Y-115268729D01*
X219747222Y-115232991D01*
X219663557Y-115076466D01*
X219612037Y-114906627D01*
X219594641Y-114730000D01*
X219612037Y-114553373D01*
X219663557Y-114383534D01*
X219747222Y-114227009D01*
X219776552Y-114191271D01*
X219859814Y-114089814D01*
X219970473Y-113999000D01*
X219997009Y-113977222D01*
X220153534Y-113893557D01*
X220323373Y-113842037D01*
X220389558Y-113835518D01*
X220455740Y-113829000D01*
X220544260Y-113829000D01*
X220610442Y-113835518D01*
X220610442Y-113835518D01*
G37*
G36*
X225690442Y-113835518D02*
G01*
X225756627Y-113842037D01*
X225926466Y-113893557D01*
X226082991Y-113977222D01*
X226109527Y-113999000D01*
X226220186Y-114089814D01*
X226303448Y-114191271D01*
X226332778Y-114227009D01*
X226416443Y-114383534D01*
X226467963Y-114553373D01*
X226485359Y-114730000D01*
X226467963Y-114906627D01*
X226416443Y-115076466D01*
X226332778Y-115232991D01*
X226303448Y-115268729D01*
X226220186Y-115370186D01*
X226118729Y-115453448D01*
X226082991Y-115482778D01*
X225926466Y-115566443D01*
X225756627Y-115617963D01*
X225690442Y-115624482D01*
X225624260Y-115631000D01*
X225535740Y-115631000D01*
X225469558Y-115624482D01*
X225403373Y-115617963D01*
X225233534Y-115566443D01*
X225077009Y-115482778D01*
X225041271Y-115453448D01*
X224939814Y-115370186D01*
X224856552Y-115268729D01*
X224827222Y-115232991D01*
X224743557Y-115076466D01*
X224692037Y-114906627D01*
X224674641Y-114730000D01*
X224692037Y-114553373D01*
X224743557Y-114383534D01*
X224827222Y-114227009D01*
X224856552Y-114191271D01*
X224939814Y-114089814D01*
X225050473Y-113999000D01*
X225077009Y-113977222D01*
X225233534Y-113893557D01*
X225403373Y-113842037D01*
X225469558Y-113835518D01*
X225535740Y-113829000D01*
X225624260Y-113829000D01*
X225690442Y-113835518D01*
X225690442Y-113835518D01*
G37*
G36*
X228230442Y-113835518D02*
G01*
X228296627Y-113842037D01*
X228466466Y-113893557D01*
X228622991Y-113977222D01*
X228649527Y-113999000D01*
X228760186Y-114089814D01*
X228843448Y-114191271D01*
X228872778Y-114227009D01*
X228956443Y-114383534D01*
X229007963Y-114553373D01*
X229025359Y-114730000D01*
X229007963Y-114906627D01*
X228956443Y-115076466D01*
X228872778Y-115232991D01*
X228843448Y-115268729D01*
X228760186Y-115370186D01*
X228658729Y-115453448D01*
X228622991Y-115482778D01*
X228466466Y-115566443D01*
X228296627Y-115617963D01*
X228230442Y-115624482D01*
X228164260Y-115631000D01*
X228075740Y-115631000D01*
X228009558Y-115624482D01*
X227943373Y-115617963D01*
X227773534Y-115566443D01*
X227617009Y-115482778D01*
X227581271Y-115453448D01*
X227479814Y-115370186D01*
X227396552Y-115268729D01*
X227367222Y-115232991D01*
X227283557Y-115076466D01*
X227232037Y-114906627D01*
X227214641Y-114730000D01*
X227232037Y-114553373D01*
X227283557Y-114383534D01*
X227367222Y-114227009D01*
X227396552Y-114191271D01*
X227479814Y-114089814D01*
X227590473Y-113999000D01*
X227617009Y-113977222D01*
X227773534Y-113893557D01*
X227943373Y-113842037D01*
X228009558Y-113835518D01*
X228075740Y-113829000D01*
X228164260Y-113829000D01*
X228230442Y-113835518D01*
X228230442Y-113835518D01*
G37*
G36*
X209811000Y-115201000D02*
G01*
X197189000Y-115201000D01*
X197189000Y-113599000D01*
X209811000Y-113599000D01*
X209811000Y-115201000D01*
X209811000Y-115201000D01*
G37*
G36*
X134551000Y-115001000D02*
G01*
X133949000Y-115001000D01*
X133949000Y-113999000D01*
X134551000Y-113999000D01*
X134551000Y-115001000D01*
X134551000Y-115001000D01*
G37*
G36*
X133051000Y-115001000D02*
G01*
X132449000Y-115001000D01*
X132449000Y-113999000D01*
X133051000Y-113999000D01*
X133051000Y-115001000D01*
X133051000Y-115001000D01*
G37*
G36*
X162926000Y-114701000D02*
G01*
X162074000Y-114701000D01*
X162074000Y-113799000D01*
X162926000Y-113799000D01*
X162926000Y-114701000D01*
X162926000Y-114701000D01*
G37*
G36*
X170426000Y-114701000D02*
G01*
X169574000Y-114701000D01*
X169574000Y-113799000D01*
X170426000Y-113799000D01*
X170426000Y-114701000D01*
X170426000Y-114701000D01*
G37*
G36*
X169001000Y-114551000D02*
G01*
X167999000Y-114551000D01*
X167999000Y-113949000D01*
X169001000Y-113949000D01*
X169001000Y-114551000D01*
X169001000Y-114551000D01*
G37*
G36*
X166001000Y-114551000D02*
G01*
X164999000Y-114551000D01*
X164999000Y-113949000D01*
X166001000Y-113949000D01*
X166001000Y-114551000D01*
X166001000Y-114551000D01*
G37*
G36*
X167501000Y-114551000D02*
G01*
X166499000Y-114551000D01*
X166499000Y-113949000D01*
X167501000Y-113949000D01*
X167501000Y-114551000D01*
X167501000Y-114551000D01*
G37*
G36*
X164501000Y-114551000D02*
G01*
X163499000Y-114551000D01*
X163499000Y-113949000D01*
X164501000Y-113949000D01*
X164501000Y-114551000D01*
X164501000Y-114551000D01*
G37*
G36*
X216651000Y-114301000D02*
G01*
X215149000Y-114301000D01*
X215149000Y-112999000D01*
X216651000Y-112999000D01*
X216651000Y-114301000D01*
X216651000Y-114301000D01*
G37*
G36*
X218851000Y-114301000D02*
G01*
X217349000Y-114301000D01*
X217349000Y-112999000D01*
X218851000Y-112999000D01*
X218851000Y-114301000D01*
X218851000Y-114301000D01*
G37*
G36*
X214426000Y-114201000D02*
G01*
X213574000Y-114201000D01*
X213574000Y-113299000D01*
X214426000Y-113299000D01*
X214426000Y-114201000D01*
X214426000Y-114201000D01*
G37*
G36*
X193710721Y-113020174D02*
G01*
X193810995Y-113061709D01*
X193810996Y-113061710D01*
X193901242Y-113122010D01*
X193977990Y-113198758D01*
X193977991Y-113198760D01*
X194038291Y-113289005D01*
X194079826Y-113389279D01*
X194101000Y-113495730D01*
X194101000Y-113604270D01*
X194079826Y-113710721D01*
X194038291Y-113810995D01*
X194038290Y-113810996D01*
X193977990Y-113901242D01*
X193901242Y-113977990D01*
X193869798Y-113999000D01*
X193810995Y-114038291D01*
X193710721Y-114079826D01*
X193604270Y-114101000D01*
X193495730Y-114101000D01*
X193389279Y-114079826D01*
X193289005Y-114038291D01*
X193230202Y-113999000D01*
X193198758Y-113977990D01*
X193122010Y-113901242D01*
X193061710Y-113810996D01*
X193061709Y-113810995D01*
X193020174Y-113710721D01*
X192999000Y-113604270D01*
X192999000Y-113495730D01*
X193020174Y-113389279D01*
X193061709Y-113289005D01*
X193122009Y-113198760D01*
X193122010Y-113198758D01*
X193198758Y-113122010D01*
X193289004Y-113061710D01*
X193289005Y-113061709D01*
X193389279Y-113020174D01*
X193495730Y-112999000D01*
X193604270Y-112999000D01*
X193710721Y-113020174D01*
X193710721Y-113020174D01*
G37*
G36*
X176451000Y-113751000D02*
G01*
X175549000Y-113751000D01*
X175549000Y-112849000D01*
X176451000Y-112849000D01*
X176451000Y-113751000D01*
X176451000Y-113751000D01*
G37*
G36*
X123051000Y-113676000D02*
G01*
X121949000Y-113676000D01*
X121949000Y-112324000D01*
X123051000Y-112324000D01*
X123051000Y-113676000D01*
X123051000Y-113676000D01*
G37*
G36*
X125051000Y-113676000D02*
G01*
X123949000Y-113676000D01*
X123949000Y-112324000D01*
X125051000Y-112324000D01*
X125051000Y-113676000D01*
X125051000Y-113676000D01*
G37*
G36*
X185650443Y-111855519D02*
G01*
X185716627Y-111862037D01*
X185886466Y-111913557D01*
X186042991Y-111997222D01*
X186047594Y-112001000D01*
X186180186Y-112109814D01*
X186255019Y-112201000D01*
X186292778Y-112247009D01*
X186376443Y-112403534D01*
X186427963Y-112573373D01*
X186445359Y-112750000D01*
X186427963Y-112926627D01*
X186376443Y-113096466D01*
X186292778Y-113252991D01*
X186263448Y-113288729D01*
X186180186Y-113390186D01*
X186078729Y-113473448D01*
X186042991Y-113502778D01*
X185886466Y-113586443D01*
X185716627Y-113637963D01*
X185650443Y-113644481D01*
X185584260Y-113651000D01*
X185495740Y-113651000D01*
X185429557Y-113644481D01*
X185363373Y-113637963D01*
X185193534Y-113586443D01*
X185037009Y-113502778D01*
X185001271Y-113473448D01*
X184899814Y-113390186D01*
X184816552Y-113288729D01*
X184787222Y-113252991D01*
X184703557Y-113096466D01*
X184652037Y-112926627D01*
X184634641Y-112750000D01*
X184652037Y-112573373D01*
X184703557Y-112403534D01*
X184787222Y-112247009D01*
X184824981Y-112201000D01*
X184899814Y-112109814D01*
X185032406Y-112001000D01*
X185037009Y-111997222D01*
X185193534Y-111913557D01*
X185363373Y-111862037D01*
X185429557Y-111855519D01*
X185495740Y-111849000D01*
X185584260Y-111849000D01*
X185650443Y-111855519D01*
X185650443Y-111855519D01*
G37*
G36*
X183901000Y-113651000D02*
G01*
X182099000Y-113651000D01*
X182099000Y-111849000D01*
X183901000Y-111849000D01*
X183901000Y-113651000D01*
X183901000Y-113651000D01*
G37*
G36*
X130551000Y-113501000D02*
G01*
X129949000Y-113501000D01*
X129949000Y-112499000D01*
X130551000Y-112499000D01*
X130551000Y-113501000D01*
X130551000Y-113501000D01*
G37*
G36*
X129051000Y-113501000D02*
G01*
X128449000Y-113501000D01*
X128449000Y-112499000D01*
X129051000Y-112499000D01*
X129051000Y-113501000D01*
X129051000Y-113501000D01*
G37*
G36*
X170426000Y-113201000D02*
G01*
X169574000Y-113201000D01*
X169574000Y-112299000D01*
X170426000Y-112299000D01*
X170426000Y-113201000D01*
X170426000Y-113201000D01*
G37*
G36*
X162926000Y-113201000D02*
G01*
X162074000Y-113201000D01*
X162074000Y-112299000D01*
X162926000Y-112299000D01*
X162926000Y-113201000D01*
X162926000Y-113201000D01*
G37*
G36*
X225690442Y-111295518D02*
G01*
X225756627Y-111302037D01*
X225926466Y-111353557D01*
X226082991Y-111437222D01*
X226097342Y-111449000D01*
X226220186Y-111549814D01*
X226303448Y-111651271D01*
X226332778Y-111687009D01*
X226416443Y-111843534D01*
X226467963Y-112013373D01*
X226485359Y-112190000D01*
X226467963Y-112366627D01*
X226416443Y-112536466D01*
X226332778Y-112692991D01*
X226326205Y-112701000D01*
X226220186Y-112830186D01*
X226118729Y-112913448D01*
X226082991Y-112942778D01*
X225926466Y-113026443D01*
X225756627Y-113077963D01*
X225690442Y-113084482D01*
X225624260Y-113091000D01*
X225535740Y-113091000D01*
X225469558Y-113084482D01*
X225403373Y-113077963D01*
X225233534Y-113026443D01*
X225077009Y-112942778D01*
X225041271Y-112913448D01*
X224939814Y-112830186D01*
X224833795Y-112701000D01*
X224827222Y-112692991D01*
X224743557Y-112536466D01*
X224692037Y-112366627D01*
X224674641Y-112190000D01*
X224692037Y-112013373D01*
X224743557Y-111843534D01*
X224827222Y-111687009D01*
X224856552Y-111651271D01*
X224939814Y-111549814D01*
X225062658Y-111449000D01*
X225077009Y-111437222D01*
X225233534Y-111353557D01*
X225403373Y-111302037D01*
X225469558Y-111295518D01*
X225535740Y-111289000D01*
X225624260Y-111289000D01*
X225690442Y-111295518D01*
X225690442Y-111295518D01*
G37*
G36*
X223150442Y-111295518D02*
G01*
X223216627Y-111302037D01*
X223386466Y-111353557D01*
X223542991Y-111437222D01*
X223557342Y-111449000D01*
X223680186Y-111549814D01*
X223763448Y-111651271D01*
X223792778Y-111687009D01*
X223876443Y-111843534D01*
X223927963Y-112013373D01*
X223945359Y-112190000D01*
X223927963Y-112366627D01*
X223876443Y-112536466D01*
X223792778Y-112692991D01*
X223786205Y-112701000D01*
X223680186Y-112830186D01*
X223578729Y-112913448D01*
X223542991Y-112942778D01*
X223386466Y-113026443D01*
X223216627Y-113077963D01*
X223150442Y-113084482D01*
X223084260Y-113091000D01*
X222995740Y-113091000D01*
X222929558Y-113084482D01*
X222863373Y-113077963D01*
X222693534Y-113026443D01*
X222537009Y-112942778D01*
X222501271Y-112913448D01*
X222399814Y-112830186D01*
X222293795Y-112701000D01*
X222287222Y-112692991D01*
X222203557Y-112536466D01*
X222152037Y-112366627D01*
X222134641Y-112190000D01*
X222152037Y-112013373D01*
X222203557Y-111843534D01*
X222287222Y-111687009D01*
X222316552Y-111651271D01*
X222399814Y-111549814D01*
X222522658Y-111449000D01*
X222537009Y-111437222D01*
X222693534Y-111353557D01*
X222863373Y-111302037D01*
X222929558Y-111295518D01*
X222995740Y-111289000D01*
X223084260Y-111289000D01*
X223150442Y-111295518D01*
X223150442Y-111295518D01*
G37*
G36*
X228230442Y-111295518D02*
G01*
X228296627Y-111302037D01*
X228466466Y-111353557D01*
X228622991Y-111437222D01*
X228637342Y-111449000D01*
X228760186Y-111549814D01*
X228843448Y-111651271D01*
X228872778Y-111687009D01*
X228956443Y-111843534D01*
X229007963Y-112013373D01*
X229025359Y-112190000D01*
X229007963Y-112366627D01*
X228956443Y-112536466D01*
X228872778Y-112692991D01*
X228866205Y-112701000D01*
X228760186Y-112830186D01*
X228658729Y-112913448D01*
X228622991Y-112942778D01*
X228466466Y-113026443D01*
X228296627Y-113077963D01*
X228230442Y-113084482D01*
X228164260Y-113091000D01*
X228075740Y-113091000D01*
X228009558Y-113084482D01*
X227943373Y-113077963D01*
X227773534Y-113026443D01*
X227617009Y-112942778D01*
X227581271Y-112913448D01*
X227479814Y-112830186D01*
X227373795Y-112701000D01*
X227367222Y-112692991D01*
X227283557Y-112536466D01*
X227232037Y-112366627D01*
X227214641Y-112190000D01*
X227232037Y-112013373D01*
X227283557Y-111843534D01*
X227367222Y-111687009D01*
X227396552Y-111651271D01*
X227479814Y-111549814D01*
X227602658Y-111449000D01*
X227617009Y-111437222D01*
X227773534Y-111353557D01*
X227943373Y-111302037D01*
X228009558Y-111295518D01*
X228075740Y-111289000D01*
X228164260Y-111289000D01*
X228230442Y-111295518D01*
X228230442Y-111295518D01*
G37*
G36*
X166001000Y-113051000D02*
G01*
X164999000Y-113051000D01*
X164999000Y-112449000D01*
X166001000Y-112449000D01*
X166001000Y-113051000D01*
X166001000Y-113051000D01*
G37*
G36*
X164501000Y-113051000D02*
G01*
X163499000Y-113051000D01*
X163499000Y-112449000D01*
X164501000Y-112449000D01*
X164501000Y-113051000D01*
X164501000Y-113051000D01*
G37*
G36*
X167501000Y-113051000D02*
G01*
X166499000Y-113051000D01*
X166499000Y-112449000D01*
X167501000Y-112449000D01*
X167501000Y-113051000D01*
X167501000Y-113051000D01*
G37*
G36*
X169001000Y-113051000D02*
G01*
X167999000Y-113051000D01*
X167999000Y-112449000D01*
X169001000Y-112449000D01*
X169001000Y-113051000D01*
X169001000Y-113051000D01*
G37*
G36*
X212201000Y-112811000D02*
G01*
X210599000Y-112811000D01*
X210599000Y-100189000D01*
X212201000Y-100189000D01*
X212201000Y-112811000D01*
X212201000Y-112811000D01*
G37*
G36*
X196401000Y-112811000D02*
G01*
X194799000Y-112811000D01*
X194799000Y-100189000D01*
X196401000Y-100189000D01*
X196401000Y-112811000D01*
X196401000Y-112811000D01*
G37*
G36*
X192926000Y-112701000D02*
G01*
X192074000Y-112701000D01*
X192074000Y-111799000D01*
X192926000Y-111799000D01*
X192926000Y-112701000D01*
X192926000Y-112701000D01*
G37*
G36*
X189501000Y-112551000D02*
G01*
X188499000Y-112551000D01*
X188499000Y-111949000D01*
X189501000Y-111949000D01*
X189501000Y-112551000D01*
X189501000Y-112551000D01*
G37*
G36*
X133001000Y-112501000D02*
G01*
X132099000Y-112501000D01*
X132099000Y-111499000D01*
X133001000Y-111499000D01*
X133001000Y-112501000D01*
X133001000Y-112501000D01*
G37*
G36*
X134901000Y-112501000D02*
G01*
X133999000Y-112501000D01*
X133999000Y-111499000D01*
X134901000Y-111499000D01*
X134901000Y-112501000D01*
X134901000Y-112501000D01*
G37*
G36*
X173551000Y-112501000D02*
G01*
X172949000Y-112501000D01*
X172949000Y-111499000D01*
X173551000Y-111499000D01*
X173551000Y-112501000D01*
X173551000Y-112501000D01*
G37*
G36*
X175051000Y-112501000D02*
G01*
X174449000Y-112501000D01*
X174449000Y-111499000D01*
X175051000Y-111499000D01*
X175051000Y-112501000D01*
X175051000Y-112501000D01*
G37*
G36*
X143951000Y-112251000D02*
G01*
X143049000Y-112251000D01*
X143049000Y-111349000D01*
X143951000Y-111349000D01*
X143951000Y-112251000D01*
X143951000Y-112251000D01*
G37*
G36*
X215926000Y-112201000D02*
G01*
X215074000Y-112201000D01*
X215074000Y-111299000D01*
X215926000Y-111299000D01*
X215926000Y-112201000D01*
X215926000Y-112201000D01*
G37*
G36*
X217426000Y-112201000D02*
G01*
X216574000Y-112201000D01*
X216574000Y-111299000D01*
X217426000Y-111299000D01*
X217426000Y-112201000D01*
X217426000Y-112201000D01*
G37*
G36*
X176451000Y-112151000D02*
G01*
X175549000Y-112151000D01*
X175549000Y-111249000D01*
X176451000Y-111249000D01*
X176451000Y-112151000D01*
X176451000Y-112151000D01*
G37*
G36*
X142501000Y-112051000D02*
G01*
X141499000Y-112051000D01*
X141499000Y-111449000D01*
X142501000Y-111449000D01*
X142501000Y-112051000D01*
X142501000Y-112051000D01*
G37*
G36*
X136501000Y-112051000D02*
G01*
X135499000Y-112051000D01*
X135499000Y-111449000D01*
X136501000Y-111449000D01*
X136501000Y-112051000D01*
X136501000Y-112051000D01*
G37*
G36*
X138001000Y-112051000D02*
G01*
X136999000Y-112051000D01*
X136999000Y-111449000D01*
X138001000Y-111449000D01*
X138001000Y-112051000D01*
X138001000Y-112051000D01*
G37*
G36*
X139501000Y-112051000D02*
G01*
X138499000Y-112051000D01*
X138499000Y-111449000D01*
X139501000Y-111449000D01*
X139501000Y-112051000D01*
X139501000Y-112051000D01*
G37*
G36*
X141001000Y-112051000D02*
G01*
X139999000Y-112051000D01*
X139999000Y-111449000D01*
X141001000Y-111449000D01*
X141001000Y-112051000D01*
X141001000Y-112051000D01*
G37*
G36*
X129051000Y-112001000D02*
G01*
X128449000Y-112001000D01*
X128449000Y-110999000D01*
X129051000Y-110999000D01*
X129051000Y-112001000D01*
X129051000Y-112001000D01*
G37*
G36*
X130551000Y-112001000D02*
G01*
X129949000Y-112001000D01*
X129949000Y-110999000D01*
X130551000Y-110999000D01*
X130551000Y-112001000D01*
X130551000Y-112001000D01*
G37*
G36*
X167426000Y-111701000D02*
G01*
X166574000Y-111701000D01*
X166574000Y-110799000D01*
X167426000Y-110799000D01*
X167426000Y-111701000D01*
X167426000Y-111701000D01*
G37*
G36*
X168926000Y-111701000D02*
G01*
X168074000Y-111701000D01*
X168074000Y-110799000D01*
X168926000Y-110799000D01*
X168926000Y-111701000D01*
X168926000Y-111701000D01*
G37*
G36*
X164426000Y-111701000D02*
G01*
X163574000Y-111701000D01*
X163574000Y-110799000D01*
X164426000Y-110799000D01*
X164426000Y-111701000D01*
X164426000Y-111701000D01*
G37*
G36*
X165926000Y-111701000D02*
G01*
X165074000Y-111701000D01*
X165074000Y-110799000D01*
X165926000Y-110799000D01*
X165926000Y-111701000D01*
X165926000Y-111701000D01*
G37*
G36*
X172176000Y-111701000D02*
G01*
X171324000Y-111701000D01*
X171324000Y-110799000D01*
X172176000Y-110799000D01*
X172176000Y-111701000D01*
X172176000Y-111701000D01*
G37*
G36*
X170501000Y-111551000D02*
G01*
X169499000Y-111551000D01*
X169499000Y-110949000D01*
X170501000Y-110949000D01*
X170501000Y-111551000D01*
X170501000Y-111551000D01*
G37*
G36*
X192926000Y-111201000D02*
G01*
X192074000Y-111201000D01*
X192074000Y-110299000D01*
X192926000Y-110299000D01*
X192926000Y-111201000D01*
X192926000Y-111201000D01*
G37*
G36*
X121033015Y-109956973D02*
G01*
X121136879Y-109988479D01*
X121151821Y-109996466D01*
X121232600Y-110039643D01*
X121316501Y-110108499D01*
X121385357Y-110192400D01*
X121421995Y-110260945D01*
X121436521Y-110288121D01*
X121468027Y-110391985D01*
X121478666Y-110500000D01*
X121468027Y-110608015D01*
X121436521Y-110711879D01*
X121436519Y-110711882D01*
X121385357Y-110807600D01*
X121316501Y-110891501D01*
X121232600Y-110960357D01*
X121164055Y-110996995D01*
X121136879Y-111011521D01*
X121033015Y-111043027D01*
X120952067Y-111051000D01*
X120347933Y-111051000D01*
X120266985Y-111043027D01*
X120163121Y-111011521D01*
X120135945Y-110996995D01*
X120067400Y-110960357D01*
X119983499Y-110891501D01*
X119914643Y-110807600D01*
X119863481Y-110711882D01*
X119863479Y-110711879D01*
X119831973Y-110608015D01*
X119821334Y-110500000D01*
X119831973Y-110391985D01*
X119863479Y-110288121D01*
X119878005Y-110260945D01*
X119914643Y-110192400D01*
X119983499Y-110108499D01*
X120067400Y-110039643D01*
X120148179Y-109996466D01*
X120163121Y-109988479D01*
X120266985Y-109956973D01*
X120347933Y-109949000D01*
X120952067Y-109949000D01*
X121033015Y-109956973D01*
X121033015Y-109956973D01*
G37*
G36*
X146160721Y-109970174D02*
G01*
X146260995Y-110011709D01*
X146305812Y-110041655D01*
X146351242Y-110072010D01*
X146427990Y-110148758D01*
X146427991Y-110148760D01*
X146488291Y-110239005D01*
X146529826Y-110339279D01*
X146551000Y-110445730D01*
X146551000Y-110554270D01*
X146529826Y-110660721D01*
X146488291Y-110760995D01*
X146488290Y-110760996D01*
X146427990Y-110851242D01*
X146351242Y-110927990D01*
X146319798Y-110949000D01*
X146260995Y-110988291D01*
X146160721Y-111029826D01*
X146054270Y-111051000D01*
X145945730Y-111051000D01*
X145839279Y-111029826D01*
X145739005Y-110988291D01*
X145680202Y-110949000D01*
X145648758Y-110927990D01*
X145572010Y-110851242D01*
X145511710Y-110760996D01*
X145511709Y-110760995D01*
X145470174Y-110660721D01*
X145449000Y-110554270D01*
X145449000Y-110445730D01*
X145470174Y-110339279D01*
X145511709Y-110239005D01*
X145572009Y-110148760D01*
X145572010Y-110148758D01*
X145648758Y-110072010D01*
X145694188Y-110041655D01*
X145739005Y-110011709D01*
X145839279Y-109970174D01*
X145945730Y-109949000D01*
X146054270Y-109949000D01*
X146160721Y-109970174D01*
X146160721Y-109970174D01*
G37*
G36*
X189501000Y-111051000D02*
G01*
X188499000Y-111051000D01*
X188499000Y-110449000D01*
X189501000Y-110449000D01*
X189501000Y-111051000D01*
X189501000Y-111051000D01*
G37*
G36*
X148001000Y-111051000D02*
G01*
X146999000Y-111051000D01*
X146999000Y-110449000D01*
X148001000Y-110449000D01*
X148001000Y-111051000D01*
X148001000Y-111051000D01*
G37*
G36*
X219551000Y-111001000D02*
G01*
X218949000Y-111001000D01*
X218949000Y-109999000D01*
X219551000Y-109999000D01*
X219551000Y-111001000D01*
X219551000Y-111001000D01*
G37*
G36*
X175051000Y-111001000D02*
G01*
X174449000Y-111001000D01*
X174449000Y-109999000D01*
X175051000Y-109999000D01*
X175051000Y-111001000D01*
X175051000Y-111001000D01*
G37*
G36*
X221051000Y-111001000D02*
G01*
X220449000Y-111001000D01*
X220449000Y-109999000D01*
X221051000Y-109999000D01*
X221051000Y-111001000D01*
X221051000Y-111001000D01*
G37*
G36*
X173551000Y-111001000D02*
G01*
X172949000Y-111001000D01*
X172949000Y-109999000D01*
X173551000Y-109999000D01*
X173551000Y-111001000D01*
X173551000Y-111001000D01*
G37*
G36*
X176451000Y-110751000D02*
G01*
X175549000Y-110751000D01*
X175549000Y-109849000D01*
X176451000Y-109849000D01*
X176451000Y-110751000D01*
X176451000Y-110751000D01*
G37*
G36*
X185051000Y-110751000D02*
G01*
X184449000Y-110751000D01*
X184449000Y-109749000D01*
X185051000Y-109749000D01*
X185051000Y-110751000D01*
X185051000Y-110751000D01*
G37*
G36*
X183551000Y-110751000D02*
G01*
X182949000Y-110751000D01*
X182949000Y-109749000D01*
X183551000Y-109749000D01*
X183551000Y-110751000D01*
X183551000Y-110751000D01*
G37*
G36*
X217426000Y-110701000D02*
G01*
X216574000Y-110701000D01*
X216574000Y-109799000D01*
X217426000Y-109799000D01*
X217426000Y-110701000D01*
X217426000Y-110701000D01*
G37*
G36*
X215926000Y-110701000D02*
G01*
X215074000Y-110701000D01*
X215074000Y-109799000D01*
X215926000Y-109799000D01*
X215926000Y-110701000D01*
X215926000Y-110701000D01*
G37*
G36*
X143951000Y-110651000D02*
G01*
X143049000Y-110651000D01*
X143049000Y-109749000D01*
X143951000Y-109749000D01*
X143951000Y-110651000D01*
X143951000Y-110651000D01*
G37*
G36*
X223150443Y-108755519D02*
G01*
X223216627Y-108762037D01*
X223386466Y-108813557D01*
X223542991Y-108897222D01*
X223559208Y-108910531D01*
X223680186Y-109009814D01*
X223763448Y-109111271D01*
X223792778Y-109147009D01*
X223876443Y-109303534D01*
X223927963Y-109473373D01*
X223945359Y-109650000D01*
X223927963Y-109826627D01*
X223876443Y-109996466D01*
X223792778Y-110152991D01*
X223780141Y-110168389D01*
X223680186Y-110290186D01*
X223578729Y-110373448D01*
X223542991Y-110402778D01*
X223386466Y-110486443D01*
X223216627Y-110537963D01*
X223150442Y-110544482D01*
X223084260Y-110551000D01*
X222995740Y-110551000D01*
X222929558Y-110544482D01*
X222863373Y-110537963D01*
X222693534Y-110486443D01*
X222537009Y-110402778D01*
X222501271Y-110373448D01*
X222399814Y-110290186D01*
X222299859Y-110168389D01*
X222287222Y-110152991D01*
X222203557Y-109996466D01*
X222152037Y-109826627D01*
X222134641Y-109650000D01*
X222152037Y-109473373D01*
X222203557Y-109303534D01*
X222287222Y-109147009D01*
X222316552Y-109111271D01*
X222399814Y-109009814D01*
X222520792Y-108910531D01*
X222537009Y-108897222D01*
X222693534Y-108813557D01*
X222863373Y-108762037D01*
X222929557Y-108755519D01*
X222995740Y-108749000D01*
X223084260Y-108749000D01*
X223150443Y-108755519D01*
X223150443Y-108755519D01*
G37*
G36*
X225690443Y-108755519D02*
G01*
X225756627Y-108762037D01*
X225926466Y-108813557D01*
X226082991Y-108897222D01*
X226099208Y-108910531D01*
X226220186Y-109009814D01*
X226303448Y-109111271D01*
X226332778Y-109147009D01*
X226416443Y-109303534D01*
X226467963Y-109473373D01*
X226485359Y-109650000D01*
X226467963Y-109826627D01*
X226416443Y-109996466D01*
X226332778Y-110152991D01*
X226320141Y-110168389D01*
X226220186Y-110290186D01*
X226118729Y-110373448D01*
X226082991Y-110402778D01*
X225926466Y-110486443D01*
X225756627Y-110537963D01*
X225690442Y-110544482D01*
X225624260Y-110551000D01*
X225535740Y-110551000D01*
X225469558Y-110544482D01*
X225403373Y-110537963D01*
X225233534Y-110486443D01*
X225077009Y-110402778D01*
X225041271Y-110373448D01*
X224939814Y-110290186D01*
X224839859Y-110168389D01*
X224827222Y-110152991D01*
X224743557Y-109996466D01*
X224692037Y-109826627D01*
X224674641Y-109650000D01*
X224692037Y-109473373D01*
X224743557Y-109303534D01*
X224827222Y-109147009D01*
X224856552Y-109111271D01*
X224939814Y-109009814D01*
X225060792Y-108910531D01*
X225077009Y-108897222D01*
X225233534Y-108813557D01*
X225403373Y-108762037D01*
X225469557Y-108755519D01*
X225535740Y-108749000D01*
X225624260Y-108749000D01*
X225690443Y-108755519D01*
X225690443Y-108755519D01*
G37*
G36*
X228230443Y-108755519D02*
G01*
X228296627Y-108762037D01*
X228466466Y-108813557D01*
X228622991Y-108897222D01*
X228639208Y-108910531D01*
X228760186Y-109009814D01*
X228843448Y-109111271D01*
X228872778Y-109147009D01*
X228956443Y-109303534D01*
X229007963Y-109473373D01*
X229025359Y-109650000D01*
X229007963Y-109826627D01*
X228956443Y-109996466D01*
X228872778Y-110152991D01*
X228860141Y-110168389D01*
X228760186Y-110290186D01*
X228658729Y-110373448D01*
X228622991Y-110402778D01*
X228466466Y-110486443D01*
X228296627Y-110537963D01*
X228230442Y-110544482D01*
X228164260Y-110551000D01*
X228075740Y-110551000D01*
X228009558Y-110544482D01*
X227943373Y-110537963D01*
X227773534Y-110486443D01*
X227617009Y-110402778D01*
X227581271Y-110373448D01*
X227479814Y-110290186D01*
X227379859Y-110168389D01*
X227367222Y-110152991D01*
X227283557Y-109996466D01*
X227232037Y-109826627D01*
X227214641Y-109650000D01*
X227232037Y-109473373D01*
X227283557Y-109303534D01*
X227367222Y-109147009D01*
X227396552Y-109111271D01*
X227479814Y-109009814D01*
X227600792Y-108910531D01*
X227617009Y-108897222D01*
X227773534Y-108813557D01*
X227943373Y-108762037D01*
X228009557Y-108755519D01*
X228075740Y-108749000D01*
X228164260Y-108749000D01*
X228230443Y-108755519D01*
X228230443Y-108755519D01*
G37*
G36*
X136501000Y-110551000D02*
G01*
X135499000Y-110551000D01*
X135499000Y-109949000D01*
X136501000Y-109949000D01*
X136501000Y-110551000D01*
X136501000Y-110551000D01*
G37*
G36*
X138001000Y-110551000D02*
G01*
X136999000Y-110551000D01*
X136999000Y-109949000D01*
X138001000Y-109949000D01*
X138001000Y-110551000D01*
X138001000Y-110551000D01*
G37*
G36*
X139501000Y-110551000D02*
G01*
X138499000Y-110551000D01*
X138499000Y-109949000D01*
X139501000Y-109949000D01*
X139501000Y-110551000D01*
X139501000Y-110551000D01*
G37*
G36*
X141001000Y-110551000D02*
G01*
X139999000Y-110551000D01*
X139999000Y-109949000D01*
X141001000Y-109949000D01*
X141001000Y-110551000D01*
X141001000Y-110551000D01*
G37*
G36*
X142501000Y-110551000D02*
G01*
X141499000Y-110551000D01*
X141499000Y-109949000D01*
X142501000Y-109949000D01*
X142501000Y-110551000D01*
X142501000Y-110551000D01*
G37*
G36*
X128651000Y-110501000D02*
G01*
X127149000Y-110501000D01*
X127149000Y-109399000D01*
X128651000Y-109399000D01*
X128651000Y-110501000D01*
X128651000Y-110501000D01*
G37*
G36*
X133951000Y-110501000D02*
G01*
X133049000Y-110501000D01*
X133049000Y-109499000D01*
X133951000Y-109499000D01*
X133951000Y-110501000D01*
X133951000Y-110501000D01*
G37*
G36*
X130851000Y-110421000D02*
G01*
X129349000Y-110421000D01*
X129349000Y-109119000D01*
X130851000Y-109119000D01*
X130851000Y-110421000D01*
X130851000Y-110421000D01*
G37*
G36*
X168926000Y-110201000D02*
G01*
X168074000Y-110201000D01*
X168074000Y-109299000D01*
X168926000Y-109299000D01*
X168926000Y-110201000D01*
X168926000Y-110201000D01*
G37*
G36*
X165926000Y-110201000D02*
G01*
X165074000Y-110201000D01*
X165074000Y-109299000D01*
X165926000Y-109299000D01*
X165926000Y-110201000D01*
X165926000Y-110201000D01*
G37*
G36*
X167426000Y-110201000D02*
G01*
X166574000Y-110201000D01*
X166574000Y-109299000D01*
X167426000Y-109299000D01*
X167426000Y-110201000D01*
X167426000Y-110201000D01*
G37*
G36*
X164426000Y-110201000D02*
G01*
X163574000Y-110201000D01*
X163574000Y-109299000D01*
X164426000Y-109299000D01*
X164426000Y-110201000D01*
X164426000Y-110201000D01*
G37*
G36*
X172176000Y-110201000D02*
G01*
X171324000Y-110201000D01*
X171324000Y-109299000D01*
X172176000Y-109299000D01*
X172176000Y-110201000D01*
X172176000Y-110201000D01*
G37*
G36*
X123453113Y-108831611D02*
G01*
X123552264Y-108861688D01*
X123643644Y-108910531D01*
X123723738Y-108976262D01*
X123789469Y-109056356D01*
X123838312Y-109147735D01*
X123868389Y-109246886D01*
X123876000Y-109324161D01*
X123876000Y-109675838D01*
X123868389Y-109753113D01*
X123838312Y-109852264D01*
X123789469Y-109943644D01*
X123723738Y-110023738D01*
X123643644Y-110089469D01*
X123552265Y-110138312D01*
X123453114Y-110168389D01*
X123350000Y-110178545D01*
X123246887Y-110168389D01*
X123147736Y-110138312D01*
X123056357Y-110089469D01*
X122976263Y-110023738D01*
X122910532Y-109943644D01*
X122861689Y-109852266D01*
X122845531Y-109799000D01*
X122831611Y-109753114D01*
X122824000Y-109675839D01*
X122824000Y-109324162D01*
X122831611Y-109246887D01*
X122861688Y-109147736D01*
X122910531Y-109056356D01*
X122976262Y-108976262D01*
X123056356Y-108910531D01*
X123147735Y-108861688D01*
X123246886Y-108831611D01*
X123350000Y-108821455D01*
X123453113Y-108831611D01*
X123453113Y-108831611D01*
G37*
G36*
X170501000Y-110051000D02*
G01*
X169499000Y-110051000D01*
X169499000Y-109449000D01*
X170501000Y-109449000D01*
X170501000Y-110051000D01*
X170501000Y-110051000D01*
G37*
G36*
X148001000Y-109551000D02*
G01*
X146999000Y-109551000D01*
X146999000Y-108949000D01*
X148001000Y-108949000D01*
X148001000Y-109551000D01*
X148001000Y-109551000D01*
G37*
G36*
X146160721Y-108470174D02*
G01*
X146260995Y-108511709D01*
X146260996Y-108511710D01*
X146351242Y-108572010D01*
X146427990Y-108648758D01*
X146427991Y-108648760D01*
X146488291Y-108739005D01*
X146529826Y-108839279D01*
X146551000Y-108945730D01*
X146551000Y-109054270D01*
X146529826Y-109160721D01*
X146488291Y-109260995D01*
X146488290Y-109260996D01*
X146427990Y-109351242D01*
X146351242Y-109427990D01*
X146319798Y-109449000D01*
X146260995Y-109488291D01*
X146160721Y-109529826D01*
X146054270Y-109551000D01*
X145945730Y-109551000D01*
X145839279Y-109529826D01*
X145739005Y-109488291D01*
X145680202Y-109449000D01*
X145648758Y-109427990D01*
X145572010Y-109351242D01*
X145511710Y-109260996D01*
X145511709Y-109260995D01*
X145470174Y-109160721D01*
X145449000Y-109054270D01*
X145449000Y-108945730D01*
X145470174Y-108839279D01*
X145511709Y-108739005D01*
X145572009Y-108648760D01*
X145572010Y-108648758D01*
X145648758Y-108572010D01*
X145739004Y-108511710D01*
X145739005Y-108511709D01*
X145839279Y-108470174D01*
X145945730Y-108449000D01*
X146054270Y-108449000D01*
X146160721Y-108470174D01*
X146160721Y-108470174D01*
G37*
G36*
X173551000Y-109501000D02*
G01*
X172949000Y-109501000D01*
X172949000Y-108499000D01*
X173551000Y-108499000D01*
X173551000Y-109501000D01*
X173551000Y-109501000D01*
G37*
G36*
X175051000Y-109501000D02*
G01*
X174449000Y-109501000D01*
X174449000Y-108499000D01*
X175051000Y-108499000D01*
X175051000Y-109501000D01*
X175051000Y-109501000D01*
G37*
G36*
X221001000Y-109401000D02*
G01*
X219999000Y-109401000D01*
X219999000Y-108499000D01*
X221001000Y-108499000D01*
X221001000Y-109401000D01*
X221001000Y-109401000D01*
G37*
G36*
X176451000Y-109151000D02*
G01*
X175549000Y-109151000D01*
X175549000Y-108249000D01*
X176451000Y-108249000D01*
X176451000Y-109151000D01*
X176451000Y-109151000D01*
G37*
G36*
X192551000Y-109001000D02*
G01*
X191949000Y-109001000D01*
X191949000Y-107999000D01*
X192551000Y-107999000D01*
X192551000Y-109001000D01*
X192551000Y-109001000D01*
G37*
G36*
X191051000Y-109001000D02*
G01*
X190449000Y-109001000D01*
X190449000Y-107999000D01*
X191051000Y-107999000D01*
X191051000Y-109001000D01*
X191051000Y-109001000D01*
G37*
G36*
X183301000Y-108961000D02*
G01*
X180799000Y-108961000D01*
X180799000Y-108119000D01*
X183301000Y-108119000D01*
X183301000Y-108961000D01*
X183301000Y-108961000D01*
G37*
G36*
X187201000Y-108961000D02*
G01*
X184699000Y-108961000D01*
X184699000Y-108119000D01*
X187201000Y-108119000D01*
X187201000Y-108961000D01*
X187201000Y-108961000D01*
G37*
G36*
X159051000Y-108676000D02*
G01*
X157949000Y-108676000D01*
X157949000Y-107324000D01*
X159051000Y-107324000D01*
X159051000Y-108676000D01*
X159051000Y-108676000D01*
G37*
G36*
X157051000Y-108676000D02*
G01*
X155949000Y-108676000D01*
X155949000Y-107324000D01*
X157051000Y-107324000D01*
X157051000Y-108676000D01*
X157051000Y-108676000D01*
G37*
G36*
X128651000Y-108601000D02*
G01*
X127149000Y-108601000D01*
X127149000Y-107499000D01*
X128651000Y-107499000D01*
X128651000Y-108601000D01*
X128651000Y-108601000D01*
G37*
G36*
X130851000Y-108601000D02*
G01*
X129349000Y-108601000D01*
X129349000Y-107499000D01*
X130851000Y-107499000D01*
X130851000Y-108601000D01*
X130851000Y-108601000D01*
G37*
G36*
X124076000Y-108551000D02*
G01*
X122624000Y-108551000D01*
X122624000Y-105449000D01*
X124076000Y-105449000D01*
X124076000Y-108551000D01*
X124076000Y-108551000D01*
G37*
G36*
X219001000Y-108451000D02*
G01*
X217999000Y-108451000D01*
X217999000Y-107549000D01*
X219001000Y-107549000D01*
X219001000Y-108451000D01*
X219001000Y-108451000D01*
G37*
G36*
X162201000Y-108426000D02*
G01*
X161299000Y-108426000D01*
X161299000Y-107574000D01*
X162201000Y-107574000D01*
X162201000Y-108426000D01*
X162201000Y-108426000D01*
G37*
G36*
X160701000Y-108426000D02*
G01*
X159799000Y-108426000D01*
X159799000Y-107574000D01*
X160701000Y-107574000D01*
X160701000Y-108426000D01*
X160701000Y-108426000D01*
G37*
G36*
X141481000Y-108316000D02*
G01*
X136519000Y-108316000D01*
X136519000Y-107224000D01*
X141481000Y-107224000D01*
X141481000Y-108316000D01*
X141481000Y-108316000D01*
G37*
G36*
X223150442Y-106215518D02*
G01*
X223216627Y-106222037D01*
X223386466Y-106273557D01*
X223542991Y-106357222D01*
X223578729Y-106386552D01*
X223680186Y-106469814D01*
X223761585Y-106569000D01*
X223792778Y-106607009D01*
X223876443Y-106763534D01*
X223927963Y-106933373D01*
X223945359Y-107110000D01*
X223927963Y-107286627D01*
X223876443Y-107456466D01*
X223792778Y-107612991D01*
X223763448Y-107648729D01*
X223680186Y-107750186D01*
X223578729Y-107833448D01*
X223542991Y-107862778D01*
X223386466Y-107946443D01*
X223216627Y-107997963D01*
X223150442Y-108004482D01*
X223084260Y-108011000D01*
X222995740Y-108011000D01*
X222929558Y-108004482D01*
X222863373Y-107997963D01*
X222693534Y-107946443D01*
X222537009Y-107862778D01*
X222501271Y-107833448D01*
X222399814Y-107750186D01*
X222316552Y-107648729D01*
X222287222Y-107612991D01*
X222203557Y-107456466D01*
X222152037Y-107286627D01*
X222134641Y-107110000D01*
X222152037Y-106933373D01*
X222203557Y-106763534D01*
X222287222Y-106607009D01*
X222318415Y-106569000D01*
X222399814Y-106469814D01*
X222501271Y-106386552D01*
X222537009Y-106357222D01*
X222693534Y-106273557D01*
X222863373Y-106222037D01*
X222929558Y-106215518D01*
X222995740Y-106209000D01*
X223084260Y-106209000D01*
X223150442Y-106215518D01*
X223150442Y-106215518D01*
G37*
G36*
X228230442Y-106215518D02*
G01*
X228296627Y-106222037D01*
X228466466Y-106273557D01*
X228622991Y-106357222D01*
X228658729Y-106386552D01*
X228760186Y-106469814D01*
X228841585Y-106569000D01*
X228872778Y-106607009D01*
X228956443Y-106763534D01*
X229007963Y-106933373D01*
X229025359Y-107110000D01*
X229007963Y-107286627D01*
X228956443Y-107456466D01*
X228872778Y-107612991D01*
X228843448Y-107648729D01*
X228760186Y-107750186D01*
X228658729Y-107833448D01*
X228622991Y-107862778D01*
X228466466Y-107946443D01*
X228296627Y-107997963D01*
X228230442Y-108004482D01*
X228164260Y-108011000D01*
X228075740Y-108011000D01*
X228009558Y-108004482D01*
X227943373Y-107997963D01*
X227773534Y-107946443D01*
X227617009Y-107862778D01*
X227581271Y-107833448D01*
X227479814Y-107750186D01*
X227396552Y-107648729D01*
X227367222Y-107612991D01*
X227283557Y-107456466D01*
X227232037Y-107286627D01*
X227214641Y-107110000D01*
X227232037Y-106933373D01*
X227283557Y-106763534D01*
X227367222Y-106607009D01*
X227398415Y-106569000D01*
X227479814Y-106469814D01*
X227581271Y-106386552D01*
X227617009Y-106357222D01*
X227773534Y-106273557D01*
X227943373Y-106222037D01*
X228009558Y-106215518D01*
X228075740Y-106209000D01*
X228164260Y-106209000D01*
X228230442Y-106215518D01*
X228230442Y-106215518D01*
G37*
G36*
X225690442Y-106215518D02*
G01*
X225756627Y-106222037D01*
X225926466Y-106273557D01*
X226082991Y-106357222D01*
X226118729Y-106386552D01*
X226220186Y-106469814D01*
X226301585Y-106569000D01*
X226332778Y-106607009D01*
X226416443Y-106763534D01*
X226467963Y-106933373D01*
X226485359Y-107110000D01*
X226467963Y-107286627D01*
X226416443Y-107456466D01*
X226332778Y-107612991D01*
X226303448Y-107648729D01*
X226220186Y-107750186D01*
X226118729Y-107833448D01*
X226082991Y-107862778D01*
X225926466Y-107946443D01*
X225756627Y-107997963D01*
X225690442Y-108004482D01*
X225624260Y-108011000D01*
X225535740Y-108011000D01*
X225469558Y-108004482D01*
X225403373Y-107997963D01*
X225233534Y-107946443D01*
X225077009Y-107862778D01*
X225041271Y-107833448D01*
X224939814Y-107750186D01*
X224856552Y-107648729D01*
X224827222Y-107612991D01*
X224743557Y-107456466D01*
X224692037Y-107286627D01*
X224674641Y-107110000D01*
X224692037Y-106933373D01*
X224743557Y-106763534D01*
X224827222Y-106607009D01*
X224858415Y-106569000D01*
X224939814Y-106469814D01*
X225041271Y-106386552D01*
X225077009Y-106357222D01*
X225233534Y-106273557D01*
X225403373Y-106222037D01*
X225469558Y-106215518D01*
X225535740Y-106209000D01*
X225624260Y-106209000D01*
X225690442Y-106215518D01*
X225690442Y-106215518D01*
G37*
G36*
X146551000Y-108001000D02*
G01*
X145949000Y-108001000D01*
X145949000Y-106999000D01*
X146551000Y-106999000D01*
X146551000Y-108001000D01*
X146551000Y-108001000D01*
G37*
G36*
X145051000Y-108001000D02*
G01*
X144449000Y-108001000D01*
X144449000Y-106999000D01*
X145051000Y-106999000D01*
X145051000Y-108001000D01*
X145051000Y-108001000D01*
G37*
G36*
X187201000Y-107691000D02*
G01*
X184699000Y-107691000D01*
X184699000Y-106849000D01*
X187201000Y-106849000D01*
X187201000Y-107691000D01*
X187201000Y-107691000D01*
G37*
G36*
X183301000Y-107691000D02*
G01*
X180799000Y-107691000D01*
X180799000Y-106849000D01*
X183301000Y-106849000D01*
X183301000Y-107691000D01*
X183301000Y-107691000D01*
G37*
G36*
X221001000Y-107501000D02*
G01*
X219999000Y-107501000D01*
X219999000Y-106599000D01*
X221001000Y-106599000D01*
X221001000Y-107501000D01*
X221001000Y-107501000D01*
G37*
G36*
X191051000Y-107501000D02*
G01*
X190449000Y-107501000D01*
X190449000Y-106499000D01*
X191051000Y-106499000D01*
X191051000Y-107501000D01*
X191051000Y-107501000D01*
G37*
G36*
X192551000Y-107501000D02*
G01*
X191949000Y-107501000D01*
X191949000Y-106499000D01*
X192551000Y-106499000D01*
X192551000Y-107501000D01*
X192551000Y-107501000D01*
G37*
G36*
X168402600Y-107362400D02*
G01*
X165597400Y-107362400D01*
X165597400Y-106650800D01*
X168402600Y-106650800D01*
X168402600Y-107362400D01*
X168402600Y-107362400D01*
G37*
G36*
X172926000Y-107201000D02*
G01*
X172074000Y-107201000D01*
X172074000Y-106299000D01*
X172926000Y-106299000D01*
X172926000Y-107201000D01*
X172926000Y-107201000D01*
G37*
G36*
X162051000Y-107001000D02*
G01*
X161449000Y-107001000D01*
X161449000Y-105999000D01*
X162051000Y-105999000D01*
X162051000Y-107001000D01*
X162051000Y-107001000D01*
G37*
G36*
X160551000Y-107001000D02*
G01*
X159949000Y-107001000D01*
X159949000Y-105999000D01*
X160551000Y-105999000D01*
X160551000Y-107001000D01*
X160551000Y-107001000D01*
G37*
G36*
X136276000Y-106981000D02*
G01*
X135184000Y-106981000D01*
X135184000Y-102019000D01*
X136276000Y-102019000D01*
X136276000Y-106981000D01*
X136276000Y-106981000D01*
G37*
G36*
X142816000Y-106981000D02*
G01*
X141724000Y-106981000D01*
X141724000Y-102019000D01*
X142816000Y-102019000D01*
X142816000Y-106981000D01*
X142816000Y-106981000D01*
G37*
G36*
X141401000Y-106901000D02*
G01*
X136599000Y-106901000D01*
X136599000Y-102099000D01*
X141401000Y-102099000D01*
X141401000Y-106901000D01*
X141401000Y-106901000D01*
G37*
G36*
X174801000Y-106851000D02*
G01*
X173499000Y-106851000D01*
X173499000Y-105349000D01*
X174801000Y-105349000D01*
X174801000Y-106851000D01*
X174801000Y-106851000D01*
G37*
G36*
X176501000Y-106851000D02*
G01*
X175199000Y-106851000D01*
X175199000Y-105349000D01*
X176501000Y-105349000D01*
X176501000Y-106851000D01*
X176501000Y-106851000D01*
G37*
G36*
X157001000Y-106551000D02*
G01*
X155999000Y-106551000D01*
X155999000Y-105949000D01*
X157001000Y-105949000D01*
X157001000Y-106551000D01*
X157001000Y-106551000D01*
G37*
G36*
X130551000Y-106501000D02*
G01*
X129949000Y-106501000D01*
X129949000Y-105499000D01*
X130551000Y-105499000D01*
X130551000Y-106501000D01*
X130551000Y-106501000D01*
G37*
G36*
X129051000Y-106501000D02*
G01*
X128449000Y-106501000D01*
X128449000Y-105499000D01*
X129051000Y-105499000D01*
X129051000Y-106501000D01*
X129051000Y-106501000D01*
G37*
G36*
X133701000Y-106426000D02*
G01*
X132799000Y-106426000D01*
X132799000Y-105574000D01*
X133701000Y-105574000D01*
X133701000Y-106426000D01*
X133701000Y-106426000D01*
G37*
G36*
X132201000Y-106426000D02*
G01*
X131299000Y-106426000D01*
X131299000Y-105574000D01*
X132201000Y-105574000D01*
X132201000Y-106426000D01*
X132201000Y-106426000D01*
G37*
G36*
X187201000Y-106421000D02*
G01*
X184699000Y-106421000D01*
X184699000Y-105579000D01*
X187201000Y-105579000D01*
X187201000Y-106421000D01*
X187201000Y-106421000D01*
G37*
G36*
X183301000Y-106421000D02*
G01*
X180799000Y-106421000D01*
X180799000Y-105579000D01*
X183301000Y-105579000D01*
X183301000Y-106421000D01*
X183301000Y-106421000D01*
G37*
G36*
X169362400Y-106402600D02*
G01*
X168650800Y-106402600D01*
X168650800Y-103597400D01*
X169362400Y-103597400D01*
X169362400Y-106402600D01*
X169362400Y-106402600D01*
G37*
G36*
X165349200Y-106402600D02*
G01*
X164637600Y-106402600D01*
X164637600Y-103597400D01*
X165349200Y-103597400D01*
X165349200Y-106402600D01*
X165349200Y-106402600D01*
G37*
G36*
X168346400Y-106346400D02*
G01*
X165653600Y-106346400D01*
X165653600Y-103653600D01*
X168346400Y-103653600D01*
X168346400Y-106346400D01*
X168346400Y-106346400D01*
G37*
G36*
X145426000Y-106201000D02*
G01*
X144574000Y-106201000D01*
X144574000Y-105299000D01*
X145426000Y-105299000D01*
X145426000Y-106201000D01*
X145426000Y-106201000D01*
G37*
G36*
X146926000Y-106201000D02*
G01*
X146074000Y-106201000D01*
X146074000Y-105299000D01*
X146926000Y-105299000D01*
X146926000Y-106201000D01*
X146926000Y-106201000D01*
G37*
G36*
X191051000Y-106001000D02*
G01*
X190449000Y-106001000D01*
X190449000Y-104999000D01*
X191051000Y-104999000D01*
X191051000Y-106001000D01*
X191051000Y-106001000D01*
G37*
G36*
X192551000Y-106001000D02*
G01*
X191949000Y-106001000D01*
X191949000Y-104999000D01*
X192551000Y-104999000D01*
X192551000Y-106001000D01*
X192551000Y-106001000D01*
G37*
G36*
X148351000Y-105701000D02*
G01*
X147649000Y-105701000D01*
X147649000Y-105199000D01*
X148351000Y-105199000D01*
X148351000Y-105701000D01*
X148351000Y-105701000D01*
G37*
G36*
X218426000Y-105701000D02*
G01*
X217574000Y-105701000D01*
X217574000Y-104799000D01*
X218426000Y-104799000D01*
X218426000Y-105701000D01*
X218426000Y-105701000D01*
G37*
G36*
X172926000Y-105701000D02*
G01*
X172074000Y-105701000D01*
X172074000Y-104799000D01*
X172926000Y-104799000D01*
X172926000Y-105701000D01*
X172926000Y-105701000D01*
G37*
G36*
X171501000Y-105551000D02*
G01*
X170499000Y-105551000D01*
X170499000Y-104949000D01*
X171501000Y-104949000D01*
X171501000Y-105551000D01*
X171501000Y-105551000D01*
G37*
G36*
X221051000Y-105501000D02*
G01*
X220449000Y-105501000D01*
X220449000Y-104499000D01*
X221051000Y-104499000D01*
X221051000Y-105501000D01*
X221051000Y-105501000D01*
G37*
G36*
X219551000Y-105501000D02*
G01*
X218949000Y-105501000D01*
X218949000Y-104499000D01*
X219551000Y-104499000D01*
X219551000Y-105501000D01*
X219551000Y-105501000D01*
G37*
G36*
X160551000Y-105501000D02*
G01*
X159949000Y-105501000D01*
X159949000Y-104499000D01*
X160551000Y-104499000D01*
X160551000Y-105501000D01*
X160551000Y-105501000D01*
G37*
G36*
X162051000Y-105501000D02*
G01*
X161449000Y-105501000D01*
X161449000Y-104499000D01*
X162051000Y-104499000D01*
X162051000Y-105501000D01*
X162051000Y-105501000D01*
G37*
G36*
X228230442Y-103675518D02*
G01*
X228296627Y-103682037D01*
X228466466Y-103733557D01*
X228622991Y-103817222D01*
X228640524Y-103831611D01*
X228760186Y-103929814D01*
X228827240Y-104011521D01*
X228872778Y-104067009D01*
X228956443Y-104223534D01*
X229007963Y-104393373D01*
X229025359Y-104570000D01*
X229007963Y-104746627D01*
X228956443Y-104916466D01*
X228872778Y-105072991D01*
X228852746Y-105097400D01*
X228760186Y-105210186D01*
X228658729Y-105293448D01*
X228622991Y-105322778D01*
X228466466Y-105406443D01*
X228296627Y-105457963D01*
X228230442Y-105464482D01*
X228164260Y-105471000D01*
X228075740Y-105471000D01*
X228009557Y-105464481D01*
X227943373Y-105457963D01*
X227773534Y-105406443D01*
X227617009Y-105322778D01*
X227581271Y-105293448D01*
X227479814Y-105210186D01*
X227387254Y-105097400D01*
X227367222Y-105072991D01*
X227283557Y-104916466D01*
X227232037Y-104746627D01*
X227214641Y-104570000D01*
X227232037Y-104393373D01*
X227283557Y-104223534D01*
X227367222Y-104067009D01*
X227412760Y-104011521D01*
X227479814Y-103929814D01*
X227599476Y-103831611D01*
X227617009Y-103817222D01*
X227773534Y-103733557D01*
X227943373Y-103682037D01*
X228009558Y-103675518D01*
X228075740Y-103669000D01*
X228164260Y-103669000D01*
X228230442Y-103675518D01*
X228230442Y-103675518D01*
G37*
G36*
X223150442Y-103675518D02*
G01*
X223216627Y-103682037D01*
X223386466Y-103733557D01*
X223542991Y-103817222D01*
X223560524Y-103831611D01*
X223680186Y-103929814D01*
X223747240Y-104011521D01*
X223792778Y-104067009D01*
X223876443Y-104223534D01*
X223927963Y-104393373D01*
X223945359Y-104570000D01*
X223927963Y-104746627D01*
X223876443Y-104916466D01*
X223792778Y-105072991D01*
X223772746Y-105097400D01*
X223680186Y-105210186D01*
X223578729Y-105293448D01*
X223542991Y-105322778D01*
X223386466Y-105406443D01*
X223216627Y-105457963D01*
X223150442Y-105464482D01*
X223084260Y-105471000D01*
X222995740Y-105471000D01*
X222929557Y-105464481D01*
X222863373Y-105457963D01*
X222693534Y-105406443D01*
X222537009Y-105322778D01*
X222501271Y-105293448D01*
X222399814Y-105210186D01*
X222307254Y-105097400D01*
X222287222Y-105072991D01*
X222203557Y-104916466D01*
X222152037Y-104746627D01*
X222134641Y-104570000D01*
X222152037Y-104393373D01*
X222203557Y-104223534D01*
X222287222Y-104067009D01*
X222332760Y-104011521D01*
X222399814Y-103929814D01*
X222519476Y-103831611D01*
X222537009Y-103817222D01*
X222693534Y-103733557D01*
X222863373Y-103682037D01*
X222929558Y-103675518D01*
X222995740Y-103669000D01*
X223084260Y-103669000D01*
X223150442Y-103675518D01*
X223150442Y-103675518D01*
G37*
G36*
X225690442Y-103675518D02*
G01*
X225756627Y-103682037D01*
X225926466Y-103733557D01*
X226082991Y-103817222D01*
X226100524Y-103831611D01*
X226220186Y-103929814D01*
X226287240Y-104011521D01*
X226332778Y-104067009D01*
X226416443Y-104223534D01*
X226467963Y-104393373D01*
X226485359Y-104570000D01*
X226467963Y-104746627D01*
X226416443Y-104916466D01*
X226332778Y-105072991D01*
X226312746Y-105097400D01*
X226220186Y-105210186D01*
X226118729Y-105293448D01*
X226082991Y-105322778D01*
X225926466Y-105406443D01*
X225756627Y-105457963D01*
X225690442Y-105464482D01*
X225624260Y-105471000D01*
X225535740Y-105471000D01*
X225469557Y-105464481D01*
X225403373Y-105457963D01*
X225233534Y-105406443D01*
X225077009Y-105322778D01*
X225041271Y-105293448D01*
X224939814Y-105210186D01*
X224847254Y-105097400D01*
X224827222Y-105072991D01*
X224743557Y-104916466D01*
X224692037Y-104746627D01*
X224674641Y-104570000D01*
X224692037Y-104393373D01*
X224743557Y-104223534D01*
X224827222Y-104067009D01*
X224872760Y-104011521D01*
X224939814Y-103929814D01*
X225059476Y-103831611D01*
X225077009Y-103817222D01*
X225233534Y-103733557D01*
X225403373Y-103682037D01*
X225469558Y-103675518D01*
X225535740Y-103669000D01*
X225624260Y-103669000D01*
X225690442Y-103675518D01*
X225690442Y-103675518D01*
G37*
G36*
X123453113Y-103831611D02*
G01*
X123552264Y-103861688D01*
X123643644Y-103910531D01*
X123723738Y-103976262D01*
X123789469Y-104056356D01*
X123838312Y-104147735D01*
X123868389Y-104246886D01*
X123876000Y-104324161D01*
X123876000Y-104675838D01*
X123868389Y-104753113D01*
X123838312Y-104852264D01*
X123789469Y-104943644D01*
X123723738Y-105023738D01*
X123643644Y-105089469D01*
X123552265Y-105138312D01*
X123453114Y-105168389D01*
X123350000Y-105178545D01*
X123246887Y-105168389D01*
X123147736Y-105138312D01*
X123056357Y-105089469D01*
X122976263Y-105023738D01*
X122910532Y-104943644D01*
X122896005Y-104916466D01*
X122861689Y-104852266D01*
X122848564Y-104809000D01*
X122831611Y-104753114D01*
X122824000Y-104675839D01*
X122824000Y-104324162D01*
X122831611Y-104246887D01*
X122861688Y-104147736D01*
X122910531Y-104056356D01*
X122976262Y-103976262D01*
X123056356Y-103910531D01*
X123147735Y-103861688D01*
X123246886Y-103831611D01*
X123350000Y-103821455D01*
X123453113Y-103831611D01*
X123453113Y-103831611D01*
G37*
G36*
X183301000Y-105151000D02*
G01*
X180799000Y-105151000D01*
X180799000Y-104309000D01*
X183301000Y-104309000D01*
X183301000Y-105151000D01*
X183301000Y-105151000D01*
G37*
G36*
X187201000Y-105151000D02*
G01*
X184699000Y-105151000D01*
X184699000Y-104309000D01*
X187201000Y-104309000D01*
X187201000Y-105151000D01*
X187201000Y-105151000D01*
G37*
G36*
X157001000Y-105051000D02*
G01*
X155999000Y-105051000D01*
X155999000Y-104449000D01*
X157001000Y-104449000D01*
X157001000Y-105051000D01*
X157001000Y-105051000D01*
G37*
G36*
X129051000Y-105001000D02*
G01*
X128449000Y-105001000D01*
X128449000Y-103999000D01*
X129051000Y-103999000D01*
X129051000Y-105001000D01*
X129051000Y-105001000D01*
G37*
G36*
X130551000Y-105001000D02*
G01*
X129949000Y-105001000D01*
X129949000Y-103999000D01*
X130551000Y-103999000D01*
X130551000Y-105001000D01*
X130551000Y-105001000D01*
G37*
G36*
X133701000Y-104926000D02*
G01*
X132799000Y-104926000D01*
X132799000Y-104074000D01*
X133701000Y-104074000D01*
X133701000Y-104926000D01*
X133701000Y-104926000D01*
G37*
G36*
X214701000Y-104926000D02*
G01*
X213799000Y-104926000D01*
X213799000Y-104074000D01*
X214701000Y-104074000D01*
X214701000Y-104926000D01*
X214701000Y-104926000D01*
G37*
G36*
X132201000Y-104926000D02*
G01*
X131299000Y-104926000D01*
X131299000Y-104074000D01*
X132201000Y-104074000D01*
X132201000Y-104926000D01*
X132201000Y-104926000D01*
G37*
G36*
X216201000Y-104926000D02*
G01*
X215299000Y-104926000D01*
X215299000Y-104074000D01*
X216201000Y-104074000D01*
X216201000Y-104926000D01*
X216201000Y-104926000D01*
G37*
G36*
X148351000Y-104801000D02*
G01*
X147649000Y-104801000D01*
X147649000Y-104299000D01*
X148351000Y-104299000D01*
X148351000Y-104801000D01*
X148351000Y-104801000D01*
G37*
G36*
X146926000Y-104701000D02*
G01*
X146074000Y-104701000D01*
X146074000Y-103799000D01*
X146926000Y-103799000D01*
X146926000Y-104701000D01*
X146926000Y-104701000D01*
G37*
G36*
X145426000Y-104701000D02*
G01*
X144574000Y-104701000D01*
X144574000Y-103799000D01*
X145426000Y-103799000D01*
X145426000Y-104701000D01*
X145426000Y-104701000D01*
G37*
G36*
X174801000Y-104651000D02*
G01*
X173499000Y-104651000D01*
X173499000Y-103149000D01*
X174801000Y-103149000D01*
X174801000Y-104651000D01*
X174801000Y-104651000D01*
G37*
G36*
X176501000Y-104651000D02*
G01*
X175199000Y-104651000D01*
X175199000Y-103149000D01*
X176501000Y-103149000D01*
X176501000Y-104651000D01*
X176501000Y-104651000D01*
G37*
G36*
X191201000Y-104426000D02*
G01*
X190299000Y-104426000D01*
X190299000Y-103574000D01*
X191201000Y-103574000D01*
X191201000Y-104426000D01*
X191201000Y-104426000D01*
G37*
G36*
X192701000Y-104426000D02*
G01*
X191799000Y-104426000D01*
X191799000Y-103574000D01*
X192701000Y-103574000D01*
X192701000Y-104426000D01*
X192701000Y-104426000D01*
G37*
G36*
X218426000Y-104201000D02*
G01*
X217574000Y-104201000D01*
X217574000Y-103299000D01*
X218426000Y-103299000D01*
X218426000Y-104201000D01*
X218426000Y-104201000D01*
G37*
G36*
X172926000Y-104201000D02*
G01*
X172074000Y-104201000D01*
X172074000Y-103299000D01*
X172926000Y-103299000D01*
X172926000Y-104201000D01*
X172926000Y-104201000D01*
G37*
G36*
X171501000Y-104051000D02*
G01*
X170499000Y-104051000D01*
X170499000Y-103449000D01*
X171501000Y-103449000D01*
X171501000Y-104051000D01*
X171501000Y-104051000D01*
G37*
G36*
X121033015Y-102956973D02*
G01*
X121136879Y-102988479D01*
X121156562Y-102999000D01*
X121232600Y-103039643D01*
X121316501Y-103108499D01*
X121385357Y-103192400D01*
X121421995Y-103260945D01*
X121436521Y-103288121D01*
X121468027Y-103391985D01*
X121478666Y-103500000D01*
X121468027Y-103608015D01*
X121436521Y-103711879D01*
X121436519Y-103711882D01*
X121385357Y-103807600D01*
X121316501Y-103891501D01*
X121232600Y-103960357D01*
X121164055Y-103996995D01*
X121136879Y-104011521D01*
X121033015Y-104043027D01*
X120952067Y-104051000D01*
X120347933Y-104051000D01*
X120266985Y-104043027D01*
X120163121Y-104011521D01*
X120135945Y-103996995D01*
X120067400Y-103960357D01*
X119983499Y-103891501D01*
X119914643Y-103807600D01*
X119863481Y-103711882D01*
X119863479Y-103711879D01*
X119831973Y-103608015D01*
X119821334Y-103500000D01*
X119831973Y-103391985D01*
X119863479Y-103288121D01*
X119878005Y-103260945D01*
X119914643Y-103192400D01*
X119983499Y-103108499D01*
X120067400Y-103039643D01*
X120143438Y-102999000D01*
X120163121Y-102988479D01*
X120266985Y-102956973D01*
X120347933Y-102949000D01*
X120952067Y-102949000D01*
X121033015Y-102956973D01*
X121033015Y-102956973D01*
G37*
G36*
X160551000Y-104001000D02*
G01*
X159949000Y-104001000D01*
X159949000Y-102999000D01*
X160551000Y-102999000D01*
X160551000Y-104001000D01*
X160551000Y-104001000D01*
G37*
G36*
X162051000Y-104001000D02*
G01*
X161449000Y-104001000D01*
X161449000Y-102999000D01*
X162051000Y-102999000D01*
X162051000Y-104001000D01*
X162051000Y-104001000D01*
G37*
G36*
X187201000Y-103881000D02*
G01*
X184699000Y-103881000D01*
X184699000Y-103039000D01*
X187201000Y-103039000D01*
X187201000Y-103881000D01*
X187201000Y-103881000D01*
G37*
G36*
X183301000Y-103881000D02*
G01*
X180799000Y-103881000D01*
X180799000Y-103039000D01*
X183301000Y-103039000D01*
X183301000Y-103881000D01*
X183301000Y-103881000D01*
G37*
G36*
X221051000Y-103501000D02*
G01*
X220449000Y-103501000D01*
X220449000Y-102499000D01*
X221051000Y-102499000D01*
X221051000Y-103501000D01*
X221051000Y-103501000D01*
G37*
G36*
X219551000Y-103501000D02*
G01*
X218949000Y-103501000D01*
X218949000Y-102499000D01*
X219551000Y-102499000D01*
X219551000Y-103501000D01*
X219551000Y-103501000D01*
G37*
G36*
X168402600Y-103349200D02*
G01*
X165597400Y-103349200D01*
X165597400Y-102637600D01*
X168402600Y-102637600D01*
X168402600Y-103349200D01*
X168402600Y-103349200D01*
G37*
G36*
X192551000Y-103001000D02*
G01*
X191949000Y-103001000D01*
X191949000Y-101999000D01*
X192551000Y-101999000D01*
X192551000Y-103001000D01*
X192551000Y-103001000D01*
G37*
G36*
X191051000Y-103001000D02*
G01*
X190449000Y-103001000D01*
X190449000Y-101999000D01*
X191051000Y-101999000D01*
X191051000Y-103001000D01*
X191051000Y-103001000D01*
G37*
G36*
X145051000Y-103001000D02*
G01*
X144449000Y-103001000D01*
X144449000Y-101999000D01*
X145051000Y-101999000D01*
X145051000Y-103001000D01*
X145051000Y-103001000D01*
G37*
G36*
X146551000Y-103001000D02*
G01*
X145949000Y-103001000D01*
X145949000Y-101999000D01*
X146551000Y-101999000D01*
X146551000Y-103001000D01*
X146551000Y-103001000D01*
G37*
G36*
X223150442Y-101135518D02*
G01*
X223216627Y-101142037D01*
X223386466Y-101193557D01*
X223542991Y-101277222D01*
X223578729Y-101306552D01*
X223680186Y-101389814D01*
X223763448Y-101491271D01*
X223792778Y-101527009D01*
X223876443Y-101683534D01*
X223927963Y-101853373D01*
X223945359Y-102030000D01*
X223927963Y-102206627D01*
X223876443Y-102376466D01*
X223792778Y-102532991D01*
X223763448Y-102568729D01*
X223680186Y-102670186D01*
X223581712Y-102751000D01*
X223542991Y-102782778D01*
X223386466Y-102866443D01*
X223216627Y-102917963D01*
X223150443Y-102924481D01*
X223084260Y-102931000D01*
X222995740Y-102931000D01*
X222929558Y-102924482D01*
X222863373Y-102917963D01*
X222693534Y-102866443D01*
X222537009Y-102782778D01*
X222498288Y-102751000D01*
X222399814Y-102670186D01*
X222316552Y-102568729D01*
X222287222Y-102532991D01*
X222203557Y-102376466D01*
X222152037Y-102206627D01*
X222134641Y-102030000D01*
X222152037Y-101853373D01*
X222203557Y-101683534D01*
X222287222Y-101527009D01*
X222316552Y-101491271D01*
X222399814Y-101389814D01*
X222501271Y-101306552D01*
X222537009Y-101277222D01*
X222693534Y-101193557D01*
X222863373Y-101142037D01*
X222929557Y-101135519D01*
X222995740Y-101129000D01*
X223084260Y-101129000D01*
X223150442Y-101135518D01*
X223150442Y-101135518D01*
G37*
G36*
X225690442Y-101135518D02*
G01*
X225756627Y-101142037D01*
X225926466Y-101193557D01*
X226082991Y-101277222D01*
X226118729Y-101306552D01*
X226220186Y-101389814D01*
X226303448Y-101491271D01*
X226332778Y-101527009D01*
X226416443Y-101683534D01*
X226467963Y-101853373D01*
X226485359Y-102030000D01*
X226467963Y-102206627D01*
X226416443Y-102376466D01*
X226332778Y-102532991D01*
X226303448Y-102568729D01*
X226220186Y-102670186D01*
X226121712Y-102751000D01*
X226082991Y-102782778D01*
X225926466Y-102866443D01*
X225756627Y-102917963D01*
X225690443Y-102924481D01*
X225624260Y-102931000D01*
X225535740Y-102931000D01*
X225469558Y-102924482D01*
X225403373Y-102917963D01*
X225233534Y-102866443D01*
X225077009Y-102782778D01*
X225038288Y-102751000D01*
X224939814Y-102670186D01*
X224856552Y-102568729D01*
X224827222Y-102532991D01*
X224743557Y-102376466D01*
X224692037Y-102206627D01*
X224674641Y-102030000D01*
X224692037Y-101853373D01*
X224743557Y-101683534D01*
X224827222Y-101527009D01*
X224856552Y-101491271D01*
X224939814Y-101389814D01*
X225041271Y-101306552D01*
X225077009Y-101277222D01*
X225233534Y-101193557D01*
X225403373Y-101142037D01*
X225469557Y-101135519D01*
X225535740Y-101129000D01*
X225624260Y-101129000D01*
X225690442Y-101135518D01*
X225690442Y-101135518D01*
G37*
G36*
X228230442Y-101135518D02*
G01*
X228296627Y-101142037D01*
X228466466Y-101193557D01*
X228622991Y-101277222D01*
X228658729Y-101306552D01*
X228760186Y-101389814D01*
X228843448Y-101491271D01*
X228872778Y-101527009D01*
X228956443Y-101683534D01*
X229007963Y-101853373D01*
X229025359Y-102030000D01*
X229007963Y-102206627D01*
X228956443Y-102376466D01*
X228872778Y-102532991D01*
X228843448Y-102568729D01*
X228760186Y-102670186D01*
X228661712Y-102751000D01*
X228622991Y-102782778D01*
X228466466Y-102866443D01*
X228296627Y-102917963D01*
X228230443Y-102924481D01*
X228164260Y-102931000D01*
X228075740Y-102931000D01*
X228009558Y-102924482D01*
X227943373Y-102917963D01*
X227773534Y-102866443D01*
X227617009Y-102782778D01*
X227578288Y-102751000D01*
X227479814Y-102670186D01*
X227396552Y-102568729D01*
X227367222Y-102532991D01*
X227283557Y-102376466D01*
X227232037Y-102206627D01*
X227214641Y-102030000D01*
X227232037Y-101853373D01*
X227283557Y-101683534D01*
X227367222Y-101527009D01*
X227396552Y-101491271D01*
X227479814Y-101389814D01*
X227581271Y-101306552D01*
X227617009Y-101277222D01*
X227773534Y-101193557D01*
X227943373Y-101142037D01*
X228009557Y-101135519D01*
X228075740Y-101129000D01*
X228164260Y-101129000D01*
X228230442Y-101135518D01*
X228230442Y-101135518D01*
G37*
G36*
X130951000Y-102751000D02*
G01*
X130049000Y-102751000D01*
X130049000Y-101849000D01*
X130951000Y-101849000D01*
X130951000Y-102751000D01*
X130951000Y-102751000D01*
G37*
G36*
X218426000Y-102701000D02*
G01*
X217574000Y-102701000D01*
X217574000Y-101799000D01*
X218426000Y-101799000D01*
X218426000Y-102701000D01*
X218426000Y-102701000D01*
G37*
G36*
X172926000Y-102701000D02*
G01*
X172074000Y-102701000D01*
X172074000Y-101799000D01*
X172926000Y-101799000D01*
X172926000Y-102701000D01*
X172926000Y-102701000D01*
G37*
G36*
X162051000Y-102501000D02*
G01*
X161449000Y-102501000D01*
X161449000Y-101499000D01*
X162051000Y-101499000D01*
X162051000Y-102501000D01*
X162051000Y-102501000D01*
G37*
G36*
X160551000Y-102501000D02*
G01*
X159949000Y-102501000D01*
X159949000Y-101499000D01*
X160551000Y-101499000D01*
X160551000Y-102501000D01*
X160551000Y-102501000D01*
G37*
G36*
X132051000Y-102501000D02*
G01*
X131449000Y-102501000D01*
X131449000Y-101499000D01*
X132051000Y-101499000D01*
X132051000Y-102501000D01*
X132051000Y-102501000D01*
G37*
G36*
X133551000Y-102501000D02*
G01*
X132949000Y-102501000D01*
X132949000Y-101499000D01*
X133551000Y-101499000D01*
X133551000Y-102501000D01*
X133551000Y-102501000D01*
G37*
G36*
X219551000Y-102001000D02*
G01*
X218949000Y-102001000D01*
X218949000Y-100999000D01*
X219551000Y-100999000D01*
X219551000Y-102001000D01*
X219551000Y-102001000D01*
G37*
G36*
X221051000Y-102001000D02*
G01*
X220449000Y-102001000D01*
X220449000Y-100999000D01*
X221051000Y-100999000D01*
X221051000Y-102001000D01*
X221051000Y-102001000D01*
G37*
G36*
X141481000Y-101776000D02*
G01*
X136519000Y-101776000D01*
X136519000Y-100684000D01*
X141481000Y-100684000D01*
X141481000Y-101776000D01*
X141481000Y-101776000D01*
G37*
G36*
X185551000Y-101501000D02*
G01*
X184949000Y-101501000D01*
X184949000Y-100499000D01*
X185551000Y-100499000D01*
X185551000Y-101501000D01*
X185551000Y-101501000D01*
G37*
G36*
X192551000Y-101501000D02*
G01*
X191949000Y-101501000D01*
X191949000Y-100499000D01*
X192551000Y-100499000D01*
X192551000Y-101501000D01*
X192551000Y-101501000D01*
G37*
G36*
X191051000Y-101501000D02*
G01*
X190449000Y-101501000D01*
X190449000Y-100499000D01*
X191051000Y-100499000D01*
X191051000Y-101501000D01*
X191051000Y-101501000D01*
G37*
G36*
X145051000Y-101501000D02*
G01*
X144449000Y-101501000D01*
X144449000Y-100499000D01*
X145051000Y-100499000D01*
X145051000Y-101501000D01*
X145051000Y-101501000D01*
G37*
G36*
X146551000Y-101501000D02*
G01*
X145949000Y-101501000D01*
X145949000Y-100499000D01*
X146551000Y-100499000D01*
X146551000Y-101501000D01*
X146551000Y-101501000D01*
G37*
G36*
X187051000Y-101501000D02*
G01*
X186449000Y-101501000D01*
X186449000Y-100499000D01*
X187051000Y-100499000D01*
X187051000Y-101501000D01*
X187051000Y-101501000D01*
G37*
G36*
X179179400Y-101235400D02*
G01*
X177096200Y-101235400D01*
X177096200Y-100574600D01*
X179179400Y-100574600D01*
X179179400Y-101235400D01*
X179179400Y-101235400D01*
G37*
G36*
X183903800Y-101235400D02*
G01*
X181820600Y-101235400D01*
X181820600Y-100574600D01*
X183903800Y-100574600D01*
X183903800Y-101235400D01*
X183903800Y-101235400D01*
G37*
G36*
X218426000Y-101201000D02*
G01*
X217574000Y-101201000D01*
X217574000Y-100299000D01*
X218426000Y-100299000D01*
X218426000Y-101201000D01*
X218426000Y-101201000D01*
G37*
G36*
X130951000Y-101151000D02*
G01*
X130049000Y-101151000D01*
X130049000Y-100249000D01*
X130951000Y-100249000D01*
X130951000Y-101151000D01*
X130951000Y-101151000D01*
G37*
G36*
X132051000Y-101001000D02*
G01*
X131449000Y-101001000D01*
X131449000Y-99999000D01*
X132051000Y-99999000D01*
X132051000Y-101001000D01*
X132051000Y-101001000D01*
G37*
G36*
X133551000Y-101001000D02*
G01*
X132949000Y-101001000D01*
X132949000Y-99999000D01*
X133551000Y-99999000D01*
X133551000Y-101001000D01*
X133551000Y-101001000D01*
G37*
G36*
X171926000Y-100701000D02*
G01*
X171074000Y-100701000D01*
X171074000Y-99799000D01*
X171926000Y-99799000D01*
X171926000Y-100701000D01*
X171926000Y-100701000D01*
G37*
G36*
X164001000Y-100551000D02*
G01*
X162999000Y-100551000D01*
X162999000Y-99949000D01*
X164001000Y-99949000D01*
X164001000Y-100551000D01*
X164001000Y-100551000D01*
G37*
G36*
X170501000Y-100551000D02*
G01*
X169499000Y-100551000D01*
X169499000Y-99949000D01*
X170501000Y-99949000D01*
X170501000Y-100551000D01*
X170501000Y-100551000D01*
G37*
G36*
X174176000Y-100551000D02*
G01*
X172824000Y-100551000D01*
X172824000Y-99449000D01*
X174176000Y-99449000D01*
X174176000Y-100551000D01*
X174176000Y-100551000D01*
G37*
G36*
X158001000Y-100551000D02*
G01*
X156999000Y-100551000D01*
X156999000Y-99949000D01*
X158001000Y-99949000D01*
X158001000Y-100551000D01*
X158001000Y-100551000D01*
G37*
G36*
X159501000Y-100551000D02*
G01*
X158499000Y-100551000D01*
X158499000Y-99949000D01*
X159501000Y-99949000D01*
X159501000Y-100551000D01*
X159501000Y-100551000D01*
G37*
G36*
X161001000Y-100551000D02*
G01*
X159999000Y-100551000D01*
X159999000Y-99949000D01*
X161001000Y-99949000D01*
X161001000Y-100551000D01*
X161001000Y-100551000D01*
G37*
G36*
X162501000Y-100551000D02*
G01*
X161499000Y-100551000D01*
X161499000Y-99949000D01*
X162501000Y-99949000D01*
X162501000Y-100551000D01*
X162501000Y-100551000D01*
G37*
G36*
X169001000Y-100551000D02*
G01*
X167999000Y-100551000D01*
X167999000Y-99949000D01*
X169001000Y-99949000D01*
X169001000Y-100551000D01*
X169001000Y-100551000D01*
G37*
G36*
X167201000Y-100176000D02*
G01*
X166299000Y-100176000D01*
X166299000Y-99324000D01*
X167201000Y-99324000D01*
X167201000Y-100176000D01*
X167201000Y-100176000D01*
G37*
G36*
X165701000Y-100176000D02*
G01*
X164799000Y-100176000D01*
X164799000Y-99324000D01*
X165701000Y-99324000D01*
X165701000Y-100176000D01*
X165701000Y-100176000D01*
G37*
G36*
X185551000Y-100001000D02*
G01*
X184949000Y-100001000D01*
X184949000Y-98999000D01*
X185551000Y-98999000D01*
X185551000Y-100001000D01*
X185551000Y-100001000D01*
G37*
G36*
X187051000Y-100001000D02*
G01*
X186449000Y-100001000D01*
X186449000Y-98999000D01*
X187051000Y-98999000D01*
X187051000Y-100001000D01*
X187051000Y-100001000D01*
G37*
G36*
X191051000Y-100001000D02*
G01*
X190449000Y-100001000D01*
X190449000Y-98999000D01*
X191051000Y-98999000D01*
X191051000Y-100001000D01*
X191051000Y-100001000D01*
G37*
G36*
X192551000Y-100001000D02*
G01*
X191949000Y-100001000D01*
X191949000Y-98999000D01*
X192551000Y-98999000D01*
X192551000Y-100001000D01*
X192551000Y-100001000D01*
G37*
G36*
X183903800Y-99965400D02*
G01*
X181820600Y-99965400D01*
X181820600Y-99304600D01*
X183903800Y-99304600D01*
X183903800Y-99965400D01*
X183903800Y-99965400D01*
G37*
G36*
X179179400Y-99965400D02*
G01*
X177096200Y-99965400D01*
X177096200Y-99304600D01*
X179179400Y-99304600D01*
X179179400Y-99965400D01*
X179179400Y-99965400D01*
G37*
G36*
X209811000Y-99401000D02*
G01*
X197189000Y-99401000D01*
X197189000Y-97799000D01*
X209811000Y-97799000D01*
X209811000Y-99401000D01*
X209811000Y-99401000D01*
G37*
G36*
X142426000Y-99201000D02*
G01*
X141574000Y-99201000D01*
X141574000Y-98299000D01*
X142426000Y-98299000D01*
X142426000Y-99201000D01*
X142426000Y-99201000D01*
G37*
G36*
X137426000Y-99201000D02*
G01*
X136574000Y-99201000D01*
X136574000Y-98299000D01*
X137426000Y-98299000D01*
X137426000Y-99201000D01*
X137426000Y-99201000D01*
G37*
G36*
X138926000Y-99201000D02*
G01*
X138074000Y-99201000D01*
X138074000Y-98299000D01*
X138926000Y-98299000D01*
X138926000Y-99201000D01*
X138926000Y-99201000D01*
G37*
G36*
X171926000Y-99201000D02*
G01*
X171074000Y-99201000D01*
X171074000Y-98299000D01*
X171926000Y-98299000D01*
X171926000Y-99201000D01*
X171926000Y-99201000D01*
G37*
G36*
X161001000Y-99051000D02*
G01*
X159999000Y-99051000D01*
X159999000Y-98449000D01*
X161001000Y-98449000D01*
X161001000Y-99051000D01*
X161001000Y-99051000D01*
G37*
G36*
X169001000Y-99051000D02*
G01*
X167999000Y-99051000D01*
X167999000Y-98449000D01*
X169001000Y-98449000D01*
X169001000Y-99051000D01*
X169001000Y-99051000D01*
G37*
G36*
X170501000Y-99051000D02*
G01*
X169499000Y-99051000D01*
X169499000Y-98449000D01*
X170501000Y-98449000D01*
X170501000Y-99051000D01*
X170501000Y-99051000D01*
G37*
G36*
X162501000Y-99051000D02*
G01*
X161499000Y-99051000D01*
X161499000Y-98449000D01*
X162501000Y-98449000D01*
X162501000Y-99051000D01*
X162501000Y-99051000D01*
G37*
G36*
X164001000Y-99051000D02*
G01*
X162999000Y-99051000D01*
X162999000Y-98449000D01*
X164001000Y-98449000D01*
X164001000Y-99051000D01*
X164001000Y-99051000D01*
G37*
G36*
X159501000Y-99051000D02*
G01*
X158499000Y-99051000D01*
X158499000Y-98449000D01*
X159501000Y-98449000D01*
X159501000Y-99051000D01*
X159501000Y-99051000D01*
G37*
G36*
X133001000Y-99051000D02*
G01*
X131999000Y-99051000D01*
X131999000Y-98449000D01*
X133001000Y-98449000D01*
X133001000Y-99051000D01*
X133001000Y-99051000D01*
G37*
G36*
X134501000Y-99051000D02*
G01*
X133499000Y-99051000D01*
X133499000Y-98449000D01*
X134501000Y-98449000D01*
X134501000Y-99051000D01*
X134501000Y-99051000D01*
G37*
G36*
X141001000Y-99051000D02*
G01*
X139999000Y-99051000D01*
X139999000Y-98449000D01*
X141001000Y-98449000D01*
X141001000Y-99051000D01*
X141001000Y-99051000D01*
G37*
G36*
X144001000Y-99051000D02*
G01*
X142999000Y-99051000D01*
X142999000Y-98449000D01*
X144001000Y-98449000D01*
X144001000Y-99051000D01*
X144001000Y-99051000D01*
G37*
G36*
X158001000Y-99051000D02*
G01*
X156999000Y-99051000D01*
X156999000Y-98449000D01*
X158001000Y-98449000D01*
X158001000Y-99051000D01*
X158001000Y-99051000D01*
G37*
G36*
X215201000Y-98926000D02*
G01*
X214299000Y-98926000D01*
X214299000Y-98074000D01*
X215201000Y-98074000D01*
X215201000Y-98926000D01*
X215201000Y-98926000D01*
G37*
G36*
X216701000Y-98926000D02*
G01*
X215799000Y-98926000D01*
X215799000Y-98074000D01*
X216701000Y-98074000D01*
X216701000Y-98926000D01*
X216701000Y-98926000D01*
G37*
G36*
X135851000Y-98701000D02*
G01*
X135149000Y-98701000D01*
X135149000Y-98199000D01*
X135851000Y-98199000D01*
X135851000Y-98701000D01*
X135851000Y-98701000D01*
G37*
G36*
X183903800Y-98695400D02*
G01*
X181820600Y-98695400D01*
X181820600Y-98034600D01*
X183903800Y-98034600D01*
X183903800Y-98695400D01*
X183903800Y-98695400D01*
G37*
G36*
X179179400Y-98695400D02*
G01*
X177096200Y-98695400D01*
X177096200Y-98034600D01*
X179179400Y-98034600D01*
X179179400Y-98695400D01*
X179179400Y-98695400D01*
G37*
G36*
X167551000Y-98676000D02*
G01*
X166449000Y-98676000D01*
X166449000Y-97324000D01*
X167551000Y-97324000D01*
X167551000Y-98676000D01*
X167551000Y-98676000D01*
G37*
G36*
X165551000Y-98676000D02*
G01*
X164449000Y-98676000D01*
X164449000Y-97324000D01*
X165551000Y-97324000D01*
X165551000Y-98676000D01*
X165551000Y-98676000D01*
G37*
G36*
X174176000Y-98551000D02*
G01*
X172824000Y-98551000D01*
X172824000Y-97449000D01*
X174176000Y-97449000D01*
X174176000Y-98551000D01*
X174176000Y-98551000D01*
G37*
G36*
X135851000Y-97801000D02*
G01*
X135149000Y-97801000D01*
X135149000Y-97299000D01*
X135851000Y-97299000D01*
X135851000Y-97801000D01*
X135851000Y-97801000D01*
G37*
G36*
X138926000Y-97701000D02*
G01*
X138074000Y-97701000D01*
X138074000Y-96799000D01*
X138926000Y-96799000D01*
X138926000Y-97701000D01*
X138926000Y-97701000D01*
G37*
G36*
X137426000Y-97701000D02*
G01*
X136574000Y-97701000D01*
X136574000Y-96799000D01*
X137426000Y-96799000D01*
X137426000Y-97701000D01*
X137426000Y-97701000D01*
G37*
G36*
X142426000Y-97701000D02*
G01*
X141574000Y-97701000D01*
X141574000Y-96799000D01*
X142426000Y-96799000D01*
X142426000Y-97701000D01*
X142426000Y-97701000D01*
G37*
G36*
X141001000Y-97551000D02*
G01*
X139999000Y-97551000D01*
X139999000Y-96949000D01*
X141001000Y-96949000D01*
X141001000Y-97551000D01*
X141001000Y-97551000D01*
G37*
G36*
X134501000Y-97551000D02*
G01*
X133499000Y-97551000D01*
X133499000Y-96949000D01*
X134501000Y-96949000D01*
X134501000Y-97551000D01*
X134501000Y-97551000D01*
G37*
G36*
X133001000Y-97551000D02*
G01*
X131999000Y-97551000D01*
X131999000Y-96949000D01*
X133001000Y-96949000D01*
X133001000Y-97551000D01*
X133001000Y-97551000D01*
G37*
G36*
X144001000Y-97551000D02*
G01*
X142999000Y-97551000D01*
X142999000Y-96949000D01*
X144001000Y-96949000D01*
X144001000Y-97551000D01*
X144001000Y-97551000D01*
G37*
G36*
X148551000Y-97511000D02*
G01*
X145449000Y-97511000D01*
X145449000Y-96759000D01*
X148551000Y-96759000D01*
X148551000Y-97511000D01*
X148551000Y-97511000D01*
G37*
G36*
X185701000Y-97426000D02*
G01*
X184799000Y-97426000D01*
X184799000Y-96574000D01*
X185701000Y-96574000D01*
X185701000Y-97426000D01*
X185701000Y-97426000D01*
G37*
G36*
X187201000Y-97426000D02*
G01*
X186299000Y-97426000D01*
X186299000Y-96574000D01*
X187201000Y-96574000D01*
X187201000Y-97426000D01*
X187201000Y-97426000D01*
G37*
G36*
X192701000Y-97426000D02*
G01*
X191799000Y-97426000D01*
X191799000Y-96574000D01*
X192701000Y-96574000D01*
X192701000Y-97426000D01*
X192701000Y-97426000D01*
G37*
G36*
X191201000Y-97426000D02*
G01*
X190299000Y-97426000D01*
X190299000Y-96574000D01*
X191201000Y-96574000D01*
X191201000Y-97426000D01*
X191201000Y-97426000D01*
G37*
G36*
X183903800Y-97425400D02*
G01*
X181820600Y-97425400D01*
X181820600Y-96764600D01*
X183903800Y-96764600D01*
X183903800Y-97425400D01*
X183903800Y-97425400D01*
G37*
G36*
X179179400Y-97425400D02*
G01*
X177096200Y-97425400D01*
X177096200Y-96764600D01*
X179179400Y-96764600D01*
X179179400Y-97425400D01*
X179179400Y-97425400D01*
G37*
G36*
X151551000Y-96241000D02*
G01*
X148449000Y-96241000D01*
X148449000Y-95489000D01*
X151551000Y-95489000D01*
X151551000Y-96241000D01*
X151551000Y-96241000D01*
G37*
G36*
X134751000Y-95951000D02*
G01*
X133849000Y-95951000D01*
X133849000Y-95049000D01*
X134751000Y-95049000D01*
X134751000Y-95951000D01*
X134751000Y-95951000D01*
G37*
G36*
X133151000Y-95951000D02*
G01*
X132249000Y-95951000D01*
X132249000Y-95049000D01*
X133151000Y-95049000D01*
X133151000Y-95951000D01*
X133151000Y-95951000D01*
G37*
G36*
X139201000Y-95926000D02*
G01*
X138299000Y-95926000D01*
X138299000Y-95074000D01*
X139201000Y-95074000D01*
X139201000Y-95926000D01*
X139201000Y-95926000D01*
G37*
G36*
X140701000Y-95926000D02*
G01*
X139799000Y-95926000D01*
X139799000Y-95074000D01*
X140701000Y-95074000D01*
X140701000Y-95926000D01*
X140701000Y-95926000D01*
G37*
G36*
X136201000Y-95926000D02*
G01*
X135299000Y-95926000D01*
X135299000Y-95074000D01*
X136201000Y-95074000D01*
X136201000Y-95926000D01*
X136201000Y-95926000D01*
G37*
G36*
X137701000Y-95926000D02*
G01*
X136799000Y-95926000D01*
X136799000Y-95074000D01*
X137701000Y-95074000D01*
X137701000Y-95926000D01*
X137701000Y-95926000D01*
G37*
G36*
X207830442Y-93605518D02*
G01*
X207896627Y-93612037D01*
X208066466Y-93663557D01*
X208222991Y-93747222D01*
X208258729Y-93776552D01*
X208360186Y-93859814D01*
X208443448Y-93961271D01*
X208472778Y-93997009D01*
X208556443Y-94153534D01*
X208607963Y-94323373D01*
X208625359Y-94500000D01*
X208607963Y-94676627D01*
X208556443Y-94846466D01*
X208472778Y-95002991D01*
X208443448Y-95038729D01*
X208360186Y-95140186D01*
X208258729Y-95223448D01*
X208222991Y-95252778D01*
X208066466Y-95336443D01*
X207896627Y-95387963D01*
X207830442Y-95394482D01*
X207764260Y-95401000D01*
X207675740Y-95401000D01*
X207609558Y-95394482D01*
X207543373Y-95387963D01*
X207373534Y-95336443D01*
X207217009Y-95252778D01*
X207181271Y-95223448D01*
X207079814Y-95140186D01*
X206996552Y-95038729D01*
X206967222Y-95002991D01*
X206883557Y-94846466D01*
X206832037Y-94676627D01*
X206814641Y-94500000D01*
X206832037Y-94323373D01*
X206883557Y-94153534D01*
X206967222Y-93997009D01*
X206996552Y-93961271D01*
X207079814Y-93859814D01*
X207181271Y-93776552D01*
X207217009Y-93747222D01*
X207373534Y-93663557D01*
X207543373Y-93612037D01*
X207609558Y-93605518D01*
X207675740Y-93599000D01*
X207764260Y-93599000D01*
X207830442Y-93605518D01*
X207830442Y-93605518D01*
G37*
G36*
X228150442Y-93605518D02*
G01*
X228216627Y-93612037D01*
X228386466Y-93663557D01*
X228542991Y-93747222D01*
X228578729Y-93776552D01*
X228680186Y-93859814D01*
X228763448Y-93961271D01*
X228792778Y-93997009D01*
X228876443Y-94153534D01*
X228927963Y-94323373D01*
X228945359Y-94500000D01*
X228927963Y-94676627D01*
X228876443Y-94846466D01*
X228792778Y-95002991D01*
X228763448Y-95038729D01*
X228680186Y-95140186D01*
X228578729Y-95223448D01*
X228542991Y-95252778D01*
X228386466Y-95336443D01*
X228216627Y-95387963D01*
X228150442Y-95394482D01*
X228084260Y-95401000D01*
X227995740Y-95401000D01*
X227929558Y-95394482D01*
X227863373Y-95387963D01*
X227693534Y-95336443D01*
X227537009Y-95252778D01*
X227501271Y-95223448D01*
X227399814Y-95140186D01*
X227316552Y-95038729D01*
X227287222Y-95002991D01*
X227203557Y-94846466D01*
X227152037Y-94676627D01*
X227134641Y-94500000D01*
X227152037Y-94323373D01*
X227203557Y-94153534D01*
X227287222Y-93997009D01*
X227316552Y-93961271D01*
X227399814Y-93859814D01*
X227501271Y-93776552D01*
X227537009Y-93747222D01*
X227693534Y-93663557D01*
X227863373Y-93612037D01*
X227929558Y-93605518D01*
X227995740Y-93599000D01*
X228084260Y-93599000D01*
X228150442Y-93605518D01*
X228150442Y-93605518D01*
G37*
G36*
X225610442Y-93605518D02*
G01*
X225676627Y-93612037D01*
X225846466Y-93663557D01*
X226002991Y-93747222D01*
X226038729Y-93776552D01*
X226140186Y-93859814D01*
X226223448Y-93961271D01*
X226252778Y-93997009D01*
X226336443Y-94153534D01*
X226387963Y-94323373D01*
X226405359Y-94500000D01*
X226387963Y-94676627D01*
X226336443Y-94846466D01*
X226252778Y-95002991D01*
X226223448Y-95038729D01*
X226140186Y-95140186D01*
X226038729Y-95223448D01*
X226002991Y-95252778D01*
X225846466Y-95336443D01*
X225676627Y-95387963D01*
X225610442Y-95394482D01*
X225544260Y-95401000D01*
X225455740Y-95401000D01*
X225389558Y-95394482D01*
X225323373Y-95387963D01*
X225153534Y-95336443D01*
X224997009Y-95252778D01*
X224961271Y-95223448D01*
X224859814Y-95140186D01*
X224776552Y-95038729D01*
X224747222Y-95002991D01*
X224663557Y-94846466D01*
X224612037Y-94676627D01*
X224594641Y-94500000D01*
X224612037Y-94323373D01*
X224663557Y-94153534D01*
X224747222Y-93997009D01*
X224776552Y-93961271D01*
X224859814Y-93859814D01*
X224961271Y-93776552D01*
X224997009Y-93747222D01*
X225153534Y-93663557D01*
X225323373Y-93612037D01*
X225389558Y-93605518D01*
X225455740Y-93599000D01*
X225544260Y-93599000D01*
X225610442Y-93605518D01*
X225610442Y-93605518D01*
G37*
G36*
X223070442Y-93605518D02*
G01*
X223136627Y-93612037D01*
X223306466Y-93663557D01*
X223462991Y-93747222D01*
X223498729Y-93776552D01*
X223600186Y-93859814D01*
X223683448Y-93961271D01*
X223712778Y-93997009D01*
X223796443Y-94153534D01*
X223847963Y-94323373D01*
X223865359Y-94500000D01*
X223847963Y-94676627D01*
X223796443Y-94846466D01*
X223712778Y-95002991D01*
X223683448Y-95038729D01*
X223600186Y-95140186D01*
X223498729Y-95223448D01*
X223462991Y-95252778D01*
X223306466Y-95336443D01*
X223136627Y-95387963D01*
X223070442Y-95394482D01*
X223004260Y-95401000D01*
X222915740Y-95401000D01*
X222849558Y-95394482D01*
X222783373Y-95387963D01*
X222613534Y-95336443D01*
X222457009Y-95252778D01*
X222421271Y-95223448D01*
X222319814Y-95140186D01*
X222236552Y-95038729D01*
X222207222Y-95002991D01*
X222123557Y-94846466D01*
X222072037Y-94676627D01*
X222054641Y-94500000D01*
X222072037Y-94323373D01*
X222123557Y-94153534D01*
X222207222Y-93997009D01*
X222236552Y-93961271D01*
X222319814Y-93859814D01*
X222421271Y-93776552D01*
X222457009Y-93747222D01*
X222613534Y-93663557D01*
X222783373Y-93612037D01*
X222849558Y-93605518D01*
X222915740Y-93599000D01*
X223004260Y-93599000D01*
X223070442Y-93605518D01*
X223070442Y-93605518D01*
G37*
G36*
X212910442Y-93605518D02*
G01*
X212976627Y-93612037D01*
X213146466Y-93663557D01*
X213302991Y-93747222D01*
X213338729Y-93776552D01*
X213440186Y-93859814D01*
X213523448Y-93961271D01*
X213552778Y-93997009D01*
X213636443Y-94153534D01*
X213687963Y-94323373D01*
X213705359Y-94500000D01*
X213687963Y-94676627D01*
X213636443Y-94846466D01*
X213552778Y-95002991D01*
X213523448Y-95038729D01*
X213440186Y-95140186D01*
X213338729Y-95223448D01*
X213302991Y-95252778D01*
X213146466Y-95336443D01*
X212976627Y-95387963D01*
X212910442Y-95394482D01*
X212844260Y-95401000D01*
X212755740Y-95401000D01*
X212689558Y-95394482D01*
X212623373Y-95387963D01*
X212453534Y-95336443D01*
X212297009Y-95252778D01*
X212261271Y-95223448D01*
X212159814Y-95140186D01*
X212076552Y-95038729D01*
X212047222Y-95002991D01*
X211963557Y-94846466D01*
X211912037Y-94676627D01*
X211894641Y-94500000D01*
X211912037Y-94323373D01*
X211963557Y-94153534D01*
X212047222Y-93997009D01*
X212076552Y-93961271D01*
X212159814Y-93859814D01*
X212261271Y-93776552D01*
X212297009Y-93747222D01*
X212453534Y-93663557D01*
X212623373Y-93612037D01*
X212689558Y-93605518D01*
X212755740Y-93599000D01*
X212844260Y-93599000D01*
X212910442Y-93605518D01*
X212910442Y-93605518D01*
G37*
G36*
X215450442Y-93605518D02*
G01*
X215516627Y-93612037D01*
X215686466Y-93663557D01*
X215842991Y-93747222D01*
X215878729Y-93776552D01*
X215980186Y-93859814D01*
X216063448Y-93961271D01*
X216092778Y-93997009D01*
X216176443Y-94153534D01*
X216227963Y-94323373D01*
X216245359Y-94500000D01*
X216227963Y-94676627D01*
X216176443Y-94846466D01*
X216092778Y-95002991D01*
X216063448Y-95038729D01*
X215980186Y-95140186D01*
X215878729Y-95223448D01*
X215842991Y-95252778D01*
X215686466Y-95336443D01*
X215516627Y-95387963D01*
X215450442Y-95394482D01*
X215384260Y-95401000D01*
X215295740Y-95401000D01*
X215229558Y-95394482D01*
X215163373Y-95387963D01*
X214993534Y-95336443D01*
X214837009Y-95252778D01*
X214801271Y-95223448D01*
X214699814Y-95140186D01*
X214616552Y-95038729D01*
X214587222Y-95002991D01*
X214503557Y-94846466D01*
X214452037Y-94676627D01*
X214434641Y-94500000D01*
X214452037Y-94323373D01*
X214503557Y-94153534D01*
X214587222Y-93997009D01*
X214616552Y-93961271D01*
X214699814Y-93859814D01*
X214801271Y-93776552D01*
X214837009Y-93747222D01*
X214993534Y-93663557D01*
X215163373Y-93612037D01*
X215229558Y-93605518D01*
X215295740Y-93599000D01*
X215384260Y-93599000D01*
X215450442Y-93605518D01*
X215450442Y-93605518D01*
G37*
G36*
X217990442Y-93605518D02*
G01*
X218056627Y-93612037D01*
X218226466Y-93663557D01*
X218382991Y-93747222D01*
X218418729Y-93776552D01*
X218520186Y-93859814D01*
X218603448Y-93961271D01*
X218632778Y-93997009D01*
X218716443Y-94153534D01*
X218767963Y-94323373D01*
X218785359Y-94500000D01*
X218767963Y-94676627D01*
X218716443Y-94846466D01*
X218632778Y-95002991D01*
X218603448Y-95038729D01*
X218520186Y-95140186D01*
X218418729Y-95223448D01*
X218382991Y-95252778D01*
X218226466Y-95336443D01*
X218056627Y-95387963D01*
X217990442Y-95394482D01*
X217924260Y-95401000D01*
X217835740Y-95401000D01*
X217769558Y-95394482D01*
X217703373Y-95387963D01*
X217533534Y-95336443D01*
X217377009Y-95252778D01*
X217341271Y-95223448D01*
X217239814Y-95140186D01*
X217156552Y-95038729D01*
X217127222Y-95002991D01*
X217043557Y-94846466D01*
X216992037Y-94676627D01*
X216974641Y-94500000D01*
X216992037Y-94323373D01*
X217043557Y-94153534D01*
X217127222Y-93997009D01*
X217156552Y-93961271D01*
X217239814Y-93859814D01*
X217341271Y-93776552D01*
X217377009Y-93747222D01*
X217533534Y-93663557D01*
X217703373Y-93612037D01*
X217769558Y-93605518D01*
X217835740Y-93599000D01*
X217924260Y-93599000D01*
X217990442Y-93605518D01*
X217990442Y-93605518D01*
G37*
G36*
X220530442Y-93605518D02*
G01*
X220596627Y-93612037D01*
X220766466Y-93663557D01*
X220922991Y-93747222D01*
X220958729Y-93776552D01*
X221060186Y-93859814D01*
X221143448Y-93961271D01*
X221172778Y-93997009D01*
X221256443Y-94153534D01*
X221307963Y-94323373D01*
X221325359Y-94500000D01*
X221307963Y-94676627D01*
X221256443Y-94846466D01*
X221172778Y-95002991D01*
X221143448Y-95038729D01*
X221060186Y-95140186D01*
X220958729Y-95223448D01*
X220922991Y-95252778D01*
X220766466Y-95336443D01*
X220596627Y-95387963D01*
X220530442Y-95394482D01*
X220464260Y-95401000D01*
X220375740Y-95401000D01*
X220309558Y-95394482D01*
X220243373Y-95387963D01*
X220073534Y-95336443D01*
X219917009Y-95252778D01*
X219881271Y-95223448D01*
X219779814Y-95140186D01*
X219696552Y-95038729D01*
X219667222Y-95002991D01*
X219583557Y-94846466D01*
X219532037Y-94676627D01*
X219514641Y-94500000D01*
X219532037Y-94323373D01*
X219583557Y-94153534D01*
X219667222Y-93997009D01*
X219696552Y-93961271D01*
X219779814Y-93859814D01*
X219881271Y-93776552D01*
X219917009Y-93747222D01*
X220073534Y-93663557D01*
X220243373Y-93612037D01*
X220309558Y-93605518D01*
X220375740Y-93599000D01*
X220464260Y-93599000D01*
X220530442Y-93605518D01*
X220530442Y-93605518D01*
G37*
G36*
X210370442Y-93605518D02*
G01*
X210436627Y-93612037D01*
X210606466Y-93663557D01*
X210762991Y-93747222D01*
X210798729Y-93776552D01*
X210900186Y-93859814D01*
X210983448Y-93961271D01*
X211012778Y-93997009D01*
X211096443Y-94153534D01*
X211147963Y-94323373D01*
X211165359Y-94500000D01*
X211147963Y-94676627D01*
X211096443Y-94846466D01*
X211012778Y-95002991D01*
X210983448Y-95038729D01*
X210900186Y-95140186D01*
X210798729Y-95223448D01*
X210762991Y-95252778D01*
X210606466Y-95336443D01*
X210436627Y-95387963D01*
X210370442Y-95394482D01*
X210304260Y-95401000D01*
X210215740Y-95401000D01*
X210149558Y-95394482D01*
X210083373Y-95387963D01*
X209913534Y-95336443D01*
X209757009Y-95252778D01*
X209721271Y-95223448D01*
X209619814Y-95140186D01*
X209536552Y-95038729D01*
X209507222Y-95002991D01*
X209423557Y-94846466D01*
X209372037Y-94676627D01*
X209354641Y-94500000D01*
X209372037Y-94323373D01*
X209423557Y-94153534D01*
X209507222Y-93997009D01*
X209536552Y-93961271D01*
X209619814Y-93859814D01*
X209721271Y-93776552D01*
X209757009Y-93747222D01*
X209913534Y-93663557D01*
X210083373Y-93612037D01*
X210149558Y-93605518D01*
X210215740Y-93599000D01*
X210304260Y-93599000D01*
X210370442Y-93605518D01*
X210370442Y-93605518D01*
G37*
G36*
X192590442Y-93605518D02*
G01*
X192656627Y-93612037D01*
X192826466Y-93663557D01*
X192982991Y-93747222D01*
X193018729Y-93776552D01*
X193120186Y-93859814D01*
X193203448Y-93961271D01*
X193232778Y-93997009D01*
X193316443Y-94153534D01*
X193367963Y-94323373D01*
X193385359Y-94500000D01*
X193367963Y-94676627D01*
X193316443Y-94846466D01*
X193232778Y-95002991D01*
X193203448Y-95038729D01*
X193120186Y-95140186D01*
X193018729Y-95223448D01*
X192982991Y-95252778D01*
X192826466Y-95336443D01*
X192656627Y-95387963D01*
X192590442Y-95394482D01*
X192524260Y-95401000D01*
X192435740Y-95401000D01*
X192369558Y-95394482D01*
X192303373Y-95387963D01*
X192133534Y-95336443D01*
X191977009Y-95252778D01*
X191941271Y-95223448D01*
X191839814Y-95140186D01*
X191756552Y-95038729D01*
X191727222Y-95002991D01*
X191643557Y-94846466D01*
X191592037Y-94676627D01*
X191574641Y-94500000D01*
X191592037Y-94323373D01*
X191643557Y-94153534D01*
X191727222Y-93997009D01*
X191756552Y-93961271D01*
X191839814Y-93859814D01*
X191941271Y-93776552D01*
X191977009Y-93747222D01*
X192133534Y-93663557D01*
X192303373Y-93612037D01*
X192369558Y-93605518D01*
X192435740Y-93599000D01*
X192524260Y-93599000D01*
X192590442Y-93605518D01*
X192590442Y-93605518D01*
G37*
G36*
X177350442Y-93605518D02*
G01*
X177416627Y-93612037D01*
X177586466Y-93663557D01*
X177742991Y-93747222D01*
X177778729Y-93776552D01*
X177880186Y-93859814D01*
X177963448Y-93961271D01*
X177992778Y-93997009D01*
X178076443Y-94153534D01*
X178127963Y-94323373D01*
X178145359Y-94500000D01*
X178127963Y-94676627D01*
X178076443Y-94846466D01*
X177992778Y-95002991D01*
X177963448Y-95038729D01*
X177880186Y-95140186D01*
X177778729Y-95223448D01*
X177742991Y-95252778D01*
X177586466Y-95336443D01*
X177416627Y-95387963D01*
X177350442Y-95394482D01*
X177284260Y-95401000D01*
X177195740Y-95401000D01*
X177129558Y-95394482D01*
X177063373Y-95387963D01*
X176893534Y-95336443D01*
X176737009Y-95252778D01*
X176701271Y-95223448D01*
X176599814Y-95140186D01*
X176516552Y-95038729D01*
X176487222Y-95002991D01*
X176403557Y-94846466D01*
X176352037Y-94676627D01*
X176334641Y-94500000D01*
X176352037Y-94323373D01*
X176403557Y-94153534D01*
X176487222Y-93997009D01*
X176516552Y-93961271D01*
X176599814Y-93859814D01*
X176701271Y-93776552D01*
X176737009Y-93747222D01*
X176893534Y-93663557D01*
X177063373Y-93612037D01*
X177129558Y-93605518D01*
X177195740Y-93599000D01*
X177284260Y-93599000D01*
X177350442Y-93605518D01*
X177350442Y-93605518D01*
G37*
G36*
X174810442Y-93605518D02*
G01*
X174876627Y-93612037D01*
X175046466Y-93663557D01*
X175202991Y-93747222D01*
X175238729Y-93776552D01*
X175340186Y-93859814D01*
X175423448Y-93961271D01*
X175452778Y-93997009D01*
X175536443Y-94153534D01*
X175587963Y-94323373D01*
X175605359Y-94500000D01*
X175587963Y-94676627D01*
X175536443Y-94846466D01*
X175452778Y-95002991D01*
X175423448Y-95038729D01*
X175340186Y-95140186D01*
X175238729Y-95223448D01*
X175202991Y-95252778D01*
X175046466Y-95336443D01*
X174876627Y-95387963D01*
X174810442Y-95394482D01*
X174744260Y-95401000D01*
X174655740Y-95401000D01*
X174589558Y-95394482D01*
X174523373Y-95387963D01*
X174353534Y-95336443D01*
X174197009Y-95252778D01*
X174161271Y-95223448D01*
X174059814Y-95140186D01*
X173976552Y-95038729D01*
X173947222Y-95002991D01*
X173863557Y-94846466D01*
X173812037Y-94676627D01*
X173794641Y-94500000D01*
X173812037Y-94323373D01*
X173863557Y-94153534D01*
X173947222Y-93997009D01*
X173976552Y-93961271D01*
X174059814Y-93859814D01*
X174161271Y-93776552D01*
X174197009Y-93747222D01*
X174353534Y-93663557D01*
X174523373Y-93612037D01*
X174589558Y-93605518D01*
X174655740Y-93599000D01*
X174744260Y-93599000D01*
X174810442Y-93605518D01*
X174810442Y-93605518D01*
G37*
G36*
X172270442Y-93605518D02*
G01*
X172336627Y-93612037D01*
X172506466Y-93663557D01*
X172662991Y-93747222D01*
X172698729Y-93776552D01*
X172800186Y-93859814D01*
X172883448Y-93961271D01*
X172912778Y-93997009D01*
X172996443Y-94153534D01*
X173047963Y-94323373D01*
X173065359Y-94500000D01*
X173047963Y-94676627D01*
X172996443Y-94846466D01*
X172912778Y-95002991D01*
X172883448Y-95038729D01*
X172800186Y-95140186D01*
X172698729Y-95223448D01*
X172662991Y-95252778D01*
X172506466Y-95336443D01*
X172336627Y-95387963D01*
X172270442Y-95394482D01*
X172204260Y-95401000D01*
X172115740Y-95401000D01*
X172049558Y-95394482D01*
X171983373Y-95387963D01*
X171813534Y-95336443D01*
X171657009Y-95252778D01*
X171621271Y-95223448D01*
X171519814Y-95140186D01*
X171436552Y-95038729D01*
X171407222Y-95002991D01*
X171323557Y-94846466D01*
X171272037Y-94676627D01*
X171254641Y-94500000D01*
X171272037Y-94323373D01*
X171323557Y-94153534D01*
X171407222Y-93997009D01*
X171436552Y-93961271D01*
X171519814Y-93859814D01*
X171621271Y-93776552D01*
X171657009Y-93747222D01*
X171813534Y-93663557D01*
X171983373Y-93612037D01*
X172049558Y-93605518D01*
X172115740Y-93599000D01*
X172204260Y-93599000D01*
X172270442Y-93605518D01*
X172270442Y-93605518D01*
G37*
G36*
X169730442Y-93605518D02*
G01*
X169796627Y-93612037D01*
X169966466Y-93663557D01*
X170122991Y-93747222D01*
X170158729Y-93776552D01*
X170260186Y-93859814D01*
X170343448Y-93961271D01*
X170372778Y-93997009D01*
X170456443Y-94153534D01*
X170507963Y-94323373D01*
X170525359Y-94500000D01*
X170507963Y-94676627D01*
X170456443Y-94846466D01*
X170372778Y-95002991D01*
X170343448Y-95038729D01*
X170260186Y-95140186D01*
X170158729Y-95223448D01*
X170122991Y-95252778D01*
X169966466Y-95336443D01*
X169796627Y-95387963D01*
X169730442Y-95394482D01*
X169664260Y-95401000D01*
X169575740Y-95401000D01*
X169509558Y-95394482D01*
X169443373Y-95387963D01*
X169273534Y-95336443D01*
X169117009Y-95252778D01*
X169081271Y-95223448D01*
X168979814Y-95140186D01*
X168896552Y-95038729D01*
X168867222Y-95002991D01*
X168783557Y-94846466D01*
X168732037Y-94676627D01*
X168714641Y-94500000D01*
X168732037Y-94323373D01*
X168783557Y-94153534D01*
X168867222Y-93997009D01*
X168896552Y-93961271D01*
X168979814Y-93859814D01*
X169081271Y-93776552D01*
X169117009Y-93747222D01*
X169273534Y-93663557D01*
X169443373Y-93612037D01*
X169509558Y-93605518D01*
X169575740Y-93599000D01*
X169664260Y-93599000D01*
X169730442Y-93605518D01*
X169730442Y-93605518D01*
G37*
G36*
X164650442Y-93605518D02*
G01*
X164716627Y-93612037D01*
X164886466Y-93663557D01*
X165042991Y-93747222D01*
X165078729Y-93776552D01*
X165180186Y-93859814D01*
X165263448Y-93961271D01*
X165292778Y-93997009D01*
X165376443Y-94153534D01*
X165427963Y-94323373D01*
X165445359Y-94500000D01*
X165427963Y-94676627D01*
X165376443Y-94846466D01*
X165292778Y-95002991D01*
X165263448Y-95038729D01*
X165180186Y-95140186D01*
X165078729Y-95223448D01*
X165042991Y-95252778D01*
X164886466Y-95336443D01*
X164716627Y-95387963D01*
X164650442Y-95394482D01*
X164584260Y-95401000D01*
X164495740Y-95401000D01*
X164429558Y-95394482D01*
X164363373Y-95387963D01*
X164193534Y-95336443D01*
X164037009Y-95252778D01*
X164001271Y-95223448D01*
X163899814Y-95140186D01*
X163816552Y-95038729D01*
X163787222Y-95002991D01*
X163703557Y-94846466D01*
X163652037Y-94676627D01*
X163634641Y-94500000D01*
X163652037Y-94323373D01*
X163703557Y-94153534D01*
X163787222Y-93997009D01*
X163816552Y-93961271D01*
X163899814Y-93859814D01*
X164001271Y-93776552D01*
X164037009Y-93747222D01*
X164193534Y-93663557D01*
X164363373Y-93612037D01*
X164429558Y-93605518D01*
X164495740Y-93599000D01*
X164584260Y-93599000D01*
X164650442Y-93605518D01*
X164650442Y-93605518D01*
G37*
G36*
X162901000Y-95401000D02*
G01*
X161099000Y-95401000D01*
X161099000Y-93599000D01*
X162901000Y-93599000D01*
X162901000Y-95401000D01*
X162901000Y-95401000D01*
G37*
G36*
X182430442Y-93605518D02*
G01*
X182496627Y-93612037D01*
X182666466Y-93663557D01*
X182822991Y-93747222D01*
X182858729Y-93776552D01*
X182960186Y-93859814D01*
X183043448Y-93961271D01*
X183072778Y-93997009D01*
X183156443Y-94153534D01*
X183207963Y-94323373D01*
X183225359Y-94500000D01*
X183207963Y-94676627D01*
X183156443Y-94846466D01*
X183072778Y-95002991D01*
X183043448Y-95038729D01*
X182960186Y-95140186D01*
X182858729Y-95223448D01*
X182822991Y-95252778D01*
X182666466Y-95336443D01*
X182496627Y-95387963D01*
X182430442Y-95394482D01*
X182364260Y-95401000D01*
X182275740Y-95401000D01*
X182209558Y-95394482D01*
X182143373Y-95387963D01*
X181973534Y-95336443D01*
X181817009Y-95252778D01*
X181781271Y-95223448D01*
X181679814Y-95140186D01*
X181596552Y-95038729D01*
X181567222Y-95002991D01*
X181483557Y-94846466D01*
X181432037Y-94676627D01*
X181414641Y-94500000D01*
X181432037Y-94323373D01*
X181483557Y-94153534D01*
X181567222Y-93997009D01*
X181596552Y-93961271D01*
X181679814Y-93859814D01*
X181781271Y-93776552D01*
X181817009Y-93747222D01*
X181973534Y-93663557D01*
X182143373Y-93612037D01*
X182209558Y-93605518D01*
X182275740Y-93599000D01*
X182364260Y-93599000D01*
X182430442Y-93605518D01*
X182430442Y-93605518D01*
G37*
G36*
X179890442Y-93605518D02*
G01*
X179956627Y-93612037D01*
X180126466Y-93663557D01*
X180282991Y-93747222D01*
X180318729Y-93776552D01*
X180420186Y-93859814D01*
X180503448Y-93961271D01*
X180532778Y-93997009D01*
X180616443Y-94153534D01*
X180667963Y-94323373D01*
X180685359Y-94500000D01*
X180667963Y-94676627D01*
X180616443Y-94846466D01*
X180532778Y-95002991D01*
X180503448Y-95038729D01*
X180420186Y-95140186D01*
X180318729Y-95223448D01*
X180282991Y-95252778D01*
X180126466Y-95336443D01*
X179956627Y-95387963D01*
X179890442Y-95394482D01*
X179824260Y-95401000D01*
X179735740Y-95401000D01*
X179669558Y-95394482D01*
X179603373Y-95387963D01*
X179433534Y-95336443D01*
X179277009Y-95252778D01*
X179241271Y-95223448D01*
X179139814Y-95140186D01*
X179056552Y-95038729D01*
X179027222Y-95002991D01*
X178943557Y-94846466D01*
X178892037Y-94676627D01*
X178874641Y-94500000D01*
X178892037Y-94323373D01*
X178943557Y-94153534D01*
X179027222Y-93997009D01*
X179056552Y-93961271D01*
X179139814Y-93859814D01*
X179241271Y-93776552D01*
X179277009Y-93747222D01*
X179433534Y-93663557D01*
X179603373Y-93612037D01*
X179669558Y-93605518D01*
X179735740Y-93599000D01*
X179824260Y-93599000D01*
X179890442Y-93605518D01*
X179890442Y-93605518D01*
G37*
G36*
X184970442Y-93605518D02*
G01*
X185036627Y-93612037D01*
X185206466Y-93663557D01*
X185362991Y-93747222D01*
X185398729Y-93776552D01*
X185500186Y-93859814D01*
X185583448Y-93961271D01*
X185612778Y-93997009D01*
X185696443Y-94153534D01*
X185747963Y-94323373D01*
X185765359Y-94500000D01*
X185747963Y-94676627D01*
X185696443Y-94846466D01*
X185612778Y-95002991D01*
X185583448Y-95038729D01*
X185500186Y-95140186D01*
X185398729Y-95223448D01*
X185362991Y-95252778D01*
X185206466Y-95336443D01*
X185036627Y-95387963D01*
X184970442Y-95394482D01*
X184904260Y-95401000D01*
X184815740Y-95401000D01*
X184749558Y-95394482D01*
X184683373Y-95387963D01*
X184513534Y-95336443D01*
X184357009Y-95252778D01*
X184321271Y-95223448D01*
X184219814Y-95140186D01*
X184136552Y-95038729D01*
X184107222Y-95002991D01*
X184023557Y-94846466D01*
X183972037Y-94676627D01*
X183954641Y-94500000D01*
X183972037Y-94323373D01*
X184023557Y-94153534D01*
X184107222Y-93997009D01*
X184136552Y-93961271D01*
X184219814Y-93859814D01*
X184321271Y-93776552D01*
X184357009Y-93747222D01*
X184513534Y-93663557D01*
X184683373Y-93612037D01*
X184749558Y-93605518D01*
X184815740Y-93599000D01*
X184904260Y-93599000D01*
X184970442Y-93605518D01*
X184970442Y-93605518D01*
G37*
G36*
X187510442Y-93605518D02*
G01*
X187576627Y-93612037D01*
X187746466Y-93663557D01*
X187902991Y-93747222D01*
X187938729Y-93776552D01*
X188040186Y-93859814D01*
X188123448Y-93961271D01*
X188152778Y-93997009D01*
X188236443Y-94153534D01*
X188287963Y-94323373D01*
X188305359Y-94500000D01*
X188287963Y-94676627D01*
X188236443Y-94846466D01*
X188152778Y-95002991D01*
X188123448Y-95038729D01*
X188040186Y-95140186D01*
X187938729Y-95223448D01*
X187902991Y-95252778D01*
X187746466Y-95336443D01*
X187576627Y-95387963D01*
X187510442Y-95394482D01*
X187444260Y-95401000D01*
X187355740Y-95401000D01*
X187289558Y-95394482D01*
X187223373Y-95387963D01*
X187053534Y-95336443D01*
X186897009Y-95252778D01*
X186861271Y-95223448D01*
X186759814Y-95140186D01*
X186676552Y-95038729D01*
X186647222Y-95002991D01*
X186563557Y-94846466D01*
X186512037Y-94676627D01*
X186494641Y-94500000D01*
X186512037Y-94323373D01*
X186563557Y-94153534D01*
X186647222Y-93997009D01*
X186676552Y-93961271D01*
X186759814Y-93859814D01*
X186861271Y-93776552D01*
X186897009Y-93747222D01*
X187053534Y-93663557D01*
X187223373Y-93612037D01*
X187289558Y-93605518D01*
X187355740Y-93599000D01*
X187444260Y-93599000D01*
X187510442Y-93605518D01*
X187510442Y-93605518D01*
G37*
G36*
X205290442Y-93605518D02*
G01*
X205356627Y-93612037D01*
X205526466Y-93663557D01*
X205682991Y-93747222D01*
X205718729Y-93776552D01*
X205820186Y-93859814D01*
X205903448Y-93961271D01*
X205932778Y-93997009D01*
X206016443Y-94153534D01*
X206067963Y-94323373D01*
X206085359Y-94500000D01*
X206067963Y-94676627D01*
X206016443Y-94846466D01*
X205932778Y-95002991D01*
X205903448Y-95038729D01*
X205820186Y-95140186D01*
X205718729Y-95223448D01*
X205682991Y-95252778D01*
X205526466Y-95336443D01*
X205356627Y-95387963D01*
X205290442Y-95394482D01*
X205224260Y-95401000D01*
X205135740Y-95401000D01*
X205069558Y-95394482D01*
X205003373Y-95387963D01*
X204833534Y-95336443D01*
X204677009Y-95252778D01*
X204641271Y-95223448D01*
X204539814Y-95140186D01*
X204456552Y-95038729D01*
X204427222Y-95002991D01*
X204343557Y-94846466D01*
X204292037Y-94676627D01*
X204274641Y-94500000D01*
X204292037Y-94323373D01*
X204343557Y-94153534D01*
X204427222Y-93997009D01*
X204456552Y-93961271D01*
X204539814Y-93859814D01*
X204641271Y-93776552D01*
X204677009Y-93747222D01*
X204833534Y-93663557D01*
X205003373Y-93612037D01*
X205069558Y-93605518D01*
X205135740Y-93599000D01*
X205224260Y-93599000D01*
X205290442Y-93605518D01*
X205290442Y-93605518D01*
G37*
G36*
X195130442Y-93605518D02*
G01*
X195196627Y-93612037D01*
X195366466Y-93663557D01*
X195522991Y-93747222D01*
X195558729Y-93776552D01*
X195660186Y-93859814D01*
X195743448Y-93961271D01*
X195772778Y-93997009D01*
X195856443Y-94153534D01*
X195907963Y-94323373D01*
X195925359Y-94500000D01*
X195907963Y-94676627D01*
X195856443Y-94846466D01*
X195772778Y-95002991D01*
X195743448Y-95038729D01*
X195660186Y-95140186D01*
X195558729Y-95223448D01*
X195522991Y-95252778D01*
X195366466Y-95336443D01*
X195196627Y-95387963D01*
X195130442Y-95394482D01*
X195064260Y-95401000D01*
X194975740Y-95401000D01*
X194909558Y-95394482D01*
X194843373Y-95387963D01*
X194673534Y-95336443D01*
X194517009Y-95252778D01*
X194481271Y-95223448D01*
X194379814Y-95140186D01*
X194296552Y-95038729D01*
X194267222Y-95002991D01*
X194183557Y-94846466D01*
X194132037Y-94676627D01*
X194114641Y-94500000D01*
X194132037Y-94323373D01*
X194183557Y-94153534D01*
X194267222Y-93997009D01*
X194296552Y-93961271D01*
X194379814Y-93859814D01*
X194481271Y-93776552D01*
X194517009Y-93747222D01*
X194673534Y-93663557D01*
X194843373Y-93612037D01*
X194909558Y-93605518D01*
X194975740Y-93599000D01*
X195064260Y-93599000D01*
X195130442Y-93605518D01*
X195130442Y-93605518D01*
G37*
G36*
X190050442Y-93605518D02*
G01*
X190116627Y-93612037D01*
X190286466Y-93663557D01*
X190442991Y-93747222D01*
X190478729Y-93776552D01*
X190580186Y-93859814D01*
X190663448Y-93961271D01*
X190692778Y-93997009D01*
X190776443Y-94153534D01*
X190827963Y-94323373D01*
X190845359Y-94500000D01*
X190827963Y-94676627D01*
X190776443Y-94846466D01*
X190692778Y-95002991D01*
X190663448Y-95038729D01*
X190580186Y-95140186D01*
X190478729Y-95223448D01*
X190442991Y-95252778D01*
X190286466Y-95336443D01*
X190116627Y-95387963D01*
X190050442Y-95394482D01*
X189984260Y-95401000D01*
X189895740Y-95401000D01*
X189829558Y-95394482D01*
X189763373Y-95387963D01*
X189593534Y-95336443D01*
X189437009Y-95252778D01*
X189401271Y-95223448D01*
X189299814Y-95140186D01*
X189216552Y-95038729D01*
X189187222Y-95002991D01*
X189103557Y-94846466D01*
X189052037Y-94676627D01*
X189034641Y-94500000D01*
X189052037Y-94323373D01*
X189103557Y-94153534D01*
X189187222Y-93997009D01*
X189216552Y-93961271D01*
X189299814Y-93859814D01*
X189401271Y-93776552D01*
X189437009Y-93747222D01*
X189593534Y-93663557D01*
X189763373Y-93612037D01*
X189829558Y-93605518D01*
X189895740Y-93599000D01*
X189984260Y-93599000D01*
X190050442Y-93605518D01*
X190050442Y-93605518D01*
G37*
G36*
X197670442Y-93605518D02*
G01*
X197736627Y-93612037D01*
X197906466Y-93663557D01*
X198062991Y-93747222D01*
X198098729Y-93776552D01*
X198200186Y-93859814D01*
X198283448Y-93961271D01*
X198312778Y-93997009D01*
X198396443Y-94153534D01*
X198447963Y-94323373D01*
X198465359Y-94500000D01*
X198447963Y-94676627D01*
X198396443Y-94846466D01*
X198312778Y-95002991D01*
X198283448Y-95038729D01*
X198200186Y-95140186D01*
X198098729Y-95223448D01*
X198062991Y-95252778D01*
X197906466Y-95336443D01*
X197736627Y-95387963D01*
X197670442Y-95394482D01*
X197604260Y-95401000D01*
X197515740Y-95401000D01*
X197449558Y-95394482D01*
X197383373Y-95387963D01*
X197213534Y-95336443D01*
X197057009Y-95252778D01*
X197021271Y-95223448D01*
X196919814Y-95140186D01*
X196836552Y-95038729D01*
X196807222Y-95002991D01*
X196723557Y-94846466D01*
X196672037Y-94676627D01*
X196654641Y-94500000D01*
X196672037Y-94323373D01*
X196723557Y-94153534D01*
X196807222Y-93997009D01*
X196836552Y-93961271D01*
X196919814Y-93859814D01*
X197021271Y-93776552D01*
X197057009Y-93747222D01*
X197213534Y-93663557D01*
X197383373Y-93612037D01*
X197449558Y-93605518D01*
X197515740Y-93599000D01*
X197604260Y-93599000D01*
X197670442Y-93605518D01*
X197670442Y-93605518D01*
G37*
G36*
X200210442Y-93605518D02*
G01*
X200276627Y-93612037D01*
X200446466Y-93663557D01*
X200602991Y-93747222D01*
X200638729Y-93776552D01*
X200740186Y-93859814D01*
X200823448Y-93961271D01*
X200852778Y-93997009D01*
X200936443Y-94153534D01*
X200987963Y-94323373D01*
X201005359Y-94500000D01*
X200987963Y-94676627D01*
X200936443Y-94846466D01*
X200852778Y-95002991D01*
X200823448Y-95038729D01*
X200740186Y-95140186D01*
X200638729Y-95223448D01*
X200602991Y-95252778D01*
X200446466Y-95336443D01*
X200276627Y-95387963D01*
X200210442Y-95394482D01*
X200144260Y-95401000D01*
X200055740Y-95401000D01*
X199989558Y-95394482D01*
X199923373Y-95387963D01*
X199753534Y-95336443D01*
X199597009Y-95252778D01*
X199561271Y-95223448D01*
X199459814Y-95140186D01*
X199376552Y-95038729D01*
X199347222Y-95002991D01*
X199263557Y-94846466D01*
X199212037Y-94676627D01*
X199194641Y-94500000D01*
X199212037Y-94323373D01*
X199263557Y-94153534D01*
X199347222Y-93997009D01*
X199376552Y-93961271D01*
X199459814Y-93859814D01*
X199561271Y-93776552D01*
X199597009Y-93747222D01*
X199753534Y-93663557D01*
X199923373Y-93612037D01*
X199989558Y-93605518D01*
X200055740Y-93599000D01*
X200144260Y-93599000D01*
X200210442Y-93605518D01*
X200210442Y-93605518D01*
G37*
G36*
X202750442Y-93605518D02*
G01*
X202816627Y-93612037D01*
X202986466Y-93663557D01*
X203142991Y-93747222D01*
X203178729Y-93776552D01*
X203280186Y-93859814D01*
X203363448Y-93961271D01*
X203392778Y-93997009D01*
X203476443Y-94153534D01*
X203527963Y-94323373D01*
X203545359Y-94500000D01*
X203527963Y-94676627D01*
X203476443Y-94846466D01*
X203392778Y-95002991D01*
X203363448Y-95038729D01*
X203280186Y-95140186D01*
X203178729Y-95223448D01*
X203142991Y-95252778D01*
X202986466Y-95336443D01*
X202816627Y-95387963D01*
X202750442Y-95394482D01*
X202684260Y-95401000D01*
X202595740Y-95401000D01*
X202529558Y-95394482D01*
X202463373Y-95387963D01*
X202293534Y-95336443D01*
X202137009Y-95252778D01*
X202101271Y-95223448D01*
X201999814Y-95140186D01*
X201916552Y-95038729D01*
X201887222Y-95002991D01*
X201803557Y-94846466D01*
X201752037Y-94676627D01*
X201734641Y-94500000D01*
X201752037Y-94323373D01*
X201803557Y-94153534D01*
X201887222Y-93997009D01*
X201916552Y-93961271D01*
X201999814Y-93859814D01*
X202101271Y-93776552D01*
X202137009Y-93747222D01*
X202293534Y-93663557D01*
X202463373Y-93612037D01*
X202529558Y-93605518D01*
X202595740Y-93599000D01*
X202684260Y-93599000D01*
X202750442Y-93605518D01*
X202750442Y-93605518D01*
G37*
G36*
X167190442Y-93605518D02*
G01*
X167256627Y-93612037D01*
X167426466Y-93663557D01*
X167582991Y-93747222D01*
X167618729Y-93776552D01*
X167720186Y-93859814D01*
X167803448Y-93961271D01*
X167832778Y-93997009D01*
X167916443Y-94153534D01*
X167967963Y-94323373D01*
X167985359Y-94500000D01*
X167967963Y-94676627D01*
X167916443Y-94846466D01*
X167832778Y-95002991D01*
X167803448Y-95038729D01*
X167720186Y-95140186D01*
X167618729Y-95223448D01*
X167582991Y-95252778D01*
X167426466Y-95336443D01*
X167256627Y-95387963D01*
X167190442Y-95394482D01*
X167124260Y-95401000D01*
X167035740Y-95401000D01*
X166969558Y-95394482D01*
X166903373Y-95387963D01*
X166733534Y-95336443D01*
X166577009Y-95252778D01*
X166541271Y-95223448D01*
X166439814Y-95140186D01*
X166356552Y-95038729D01*
X166327222Y-95002991D01*
X166243557Y-94846466D01*
X166192037Y-94676627D01*
X166174641Y-94500000D01*
X166192037Y-94323373D01*
X166243557Y-94153534D01*
X166327222Y-93997009D01*
X166356552Y-93961271D01*
X166439814Y-93859814D01*
X166541271Y-93776552D01*
X166577009Y-93747222D01*
X166733534Y-93663557D01*
X166903373Y-93612037D01*
X166969558Y-93605518D01*
X167035740Y-93599000D01*
X167124260Y-93599000D01*
X167190442Y-93605518D01*
X167190442Y-93605518D01*
G37*
G36*
X142551000Y-93151000D02*
G01*
X137949000Y-93151000D01*
X137949000Y-91049000D01*
X142551000Y-91049000D01*
X142551000Y-93151000D01*
X142551000Y-93151000D01*
G37*
G36*
X134051000Y-93151000D02*
G01*
X129449000Y-93151000D01*
X129449000Y-91049000D01*
X134051000Y-91049000D01*
X134051000Y-93151000D01*
X134051000Y-93151000D01*
G37*
G36*
X165926000Y-92701000D02*
G01*
X165074000Y-92701000D01*
X165074000Y-91799000D01*
X165926000Y-91799000D01*
X165926000Y-92701000D01*
X165926000Y-92701000D01*
G37*
G36*
X172501000Y-92551000D02*
G01*
X171499000Y-92551000D01*
X171499000Y-91949000D01*
X172501000Y-91949000D01*
X172501000Y-92551000D01*
X172501000Y-92551000D01*
G37*
G36*
X175501000Y-92551000D02*
G01*
X174499000Y-92551000D01*
X174499000Y-91949000D01*
X175501000Y-91949000D01*
X175501000Y-92551000D01*
X175501000Y-92551000D01*
G37*
G36*
X223551000Y-92501000D02*
G01*
X221949000Y-92501000D01*
X221949000Y-91399000D01*
X223551000Y-91399000D01*
X223551000Y-92501000D01*
X223551000Y-92501000D01*
G37*
G36*
X220051000Y-92501000D02*
G01*
X218449000Y-92501000D01*
X218449000Y-91399000D01*
X220051000Y-91399000D01*
X220051000Y-92501000D01*
X220051000Y-92501000D01*
G37*
G36*
X149650443Y-90605519D02*
G01*
X149716627Y-90612037D01*
X149886466Y-90663557D01*
X150042991Y-90747222D01*
X150078729Y-90776552D01*
X150180186Y-90859814D01*
X150263448Y-90961271D01*
X150292778Y-90997009D01*
X150376443Y-91153534D01*
X150427963Y-91323373D01*
X150445359Y-91500000D01*
X150427963Y-91676627D01*
X150376443Y-91846466D01*
X150292778Y-92002991D01*
X150263448Y-92038729D01*
X150180186Y-92140186D01*
X150078729Y-92223448D01*
X150042991Y-92252778D01*
X149886466Y-92336443D01*
X149716627Y-92387963D01*
X149650443Y-92394481D01*
X149584260Y-92401000D01*
X149495740Y-92401000D01*
X149429557Y-92394481D01*
X149363373Y-92387963D01*
X149193534Y-92336443D01*
X149037009Y-92252778D01*
X149001271Y-92223448D01*
X148899814Y-92140186D01*
X148816552Y-92038729D01*
X148787222Y-92002991D01*
X148703557Y-91846466D01*
X148652037Y-91676627D01*
X148634641Y-91500000D01*
X148652037Y-91323373D01*
X148703557Y-91153534D01*
X148787222Y-90997009D01*
X148816552Y-90961271D01*
X148899814Y-90859814D01*
X149001271Y-90776552D01*
X149037009Y-90747222D01*
X149193534Y-90663557D01*
X149363373Y-90612037D01*
X149429557Y-90605519D01*
X149495740Y-90599000D01*
X149584260Y-90599000D01*
X149650443Y-90605519D01*
X149650443Y-90605519D01*
G37*
G36*
X169326000Y-92401000D02*
G01*
X168574000Y-92401000D01*
X168574000Y-91899000D01*
X169326000Y-91899000D01*
X169326000Y-92401000D01*
X169326000Y-92401000D01*
G37*
G36*
X147901000Y-92401000D02*
G01*
X146099000Y-92401000D01*
X146099000Y-90599000D01*
X147901000Y-90599000D01*
X147901000Y-92401000D01*
X147901000Y-92401000D01*
G37*
G36*
X167426000Y-92401000D02*
G01*
X166674000Y-92401000D01*
X166674000Y-90599000D01*
X167426000Y-90599000D01*
X167426000Y-92401000D01*
X167426000Y-92401000D01*
G37*
G36*
X227001000Y-92051000D02*
G01*
X225999000Y-92051000D01*
X225999000Y-91449000D01*
X227001000Y-91449000D01*
X227001000Y-92051000D01*
X227001000Y-92051000D01*
G37*
G36*
X225501000Y-92051000D02*
G01*
X224499000Y-92051000D01*
X224499000Y-91449000D01*
X225501000Y-91449000D01*
X225501000Y-92051000D01*
X225501000Y-92051000D01*
G37*
G36*
X217501000Y-92051000D02*
G01*
X216499000Y-92051000D01*
X216499000Y-91449000D01*
X217501000Y-91449000D01*
X217501000Y-92051000D01*
X217501000Y-92051000D01*
G37*
G36*
X216001000Y-92051000D02*
G01*
X214999000Y-92051000D01*
X214999000Y-91449000D01*
X216001000Y-91449000D01*
X216001000Y-92051000D01*
X216001000Y-92051000D01*
G37*
G36*
X165926000Y-91201000D02*
G01*
X165074000Y-91201000D01*
X165074000Y-90299000D01*
X165926000Y-90299000D01*
X165926000Y-91201000D01*
X165926000Y-91201000D01*
G37*
G36*
X220051000Y-91101000D02*
G01*
X218449000Y-91101000D01*
X218449000Y-89999000D01*
X220051000Y-89999000D01*
X220051000Y-91101000D01*
X220051000Y-91101000D01*
G37*
G36*
X169326000Y-91101000D02*
G01*
X168574000Y-91101000D01*
X168574000Y-90599000D01*
X169326000Y-90599000D01*
X169326000Y-91101000D01*
X169326000Y-91101000D01*
G37*
G36*
X223551000Y-91101000D02*
G01*
X221949000Y-91101000D01*
X221949000Y-89999000D01*
X223551000Y-89999000D01*
X223551000Y-91101000D01*
X223551000Y-91101000D01*
G37*
G36*
X172501000Y-91051000D02*
G01*
X171499000Y-91051000D01*
X171499000Y-90449000D01*
X172501000Y-90449000D01*
X172501000Y-91051000D01*
X172501000Y-91051000D01*
G37*
G36*
X175501000Y-91051000D02*
G01*
X174499000Y-91051000D01*
X174499000Y-90449000D01*
X175501000Y-90449000D01*
X175501000Y-91051000D01*
X175501000Y-91051000D01*
G37*
G36*
X227001000Y-90551000D02*
G01*
X225999000Y-90551000D01*
X225999000Y-89949000D01*
X227001000Y-89949000D01*
X227001000Y-90551000D01*
X227001000Y-90551000D01*
G37*
G36*
X216001000Y-90551000D02*
G01*
X214999000Y-90551000D01*
X214999000Y-89949000D01*
X216001000Y-89949000D01*
X216001000Y-90551000D01*
X216001000Y-90551000D01*
G37*
G36*
X217501000Y-90551000D02*
G01*
X216499000Y-90551000D01*
X216499000Y-89949000D01*
X217501000Y-89949000D01*
X217501000Y-90551000D01*
X217501000Y-90551000D01*
G37*
G36*
X225501000Y-90551000D02*
G01*
X224499000Y-90551000D01*
X224499000Y-89949000D01*
X225501000Y-89949000D01*
X225501000Y-90551000D01*
X225501000Y-90551000D01*
G37*
G36*
X120645843Y-89519214D02*
G01*
X120645846Y-89519215D01*
X120645845Y-89519215D01*
X120736839Y-89556906D01*
X120778063Y-89584451D01*
X120818730Y-89611624D01*
X120888376Y-89681270D01*
X120943095Y-89763163D01*
X120980786Y-89854157D01*
X121000000Y-89950753D01*
X121000000Y-90049247D01*
X120980786Y-90145843D01*
X120980785Y-90145845D01*
X120943094Y-90236839D01*
X120888375Y-90318731D01*
X120818731Y-90388375D01*
X120736839Y-90443094D01*
X120736838Y-90443095D01*
X120736837Y-90443095D01*
X120645843Y-90480786D01*
X120549247Y-90500000D01*
X120450753Y-90500000D01*
X120354157Y-90480786D01*
X120263163Y-90443095D01*
X120263162Y-90443095D01*
X120263161Y-90443094D01*
X120181269Y-90388375D01*
X120111625Y-90318731D01*
X120056906Y-90236839D01*
X120019215Y-90145845D01*
X120019214Y-90145843D01*
X120000000Y-90049247D01*
X120000000Y-89950753D01*
X120019214Y-89854157D01*
X120056905Y-89763163D01*
X120111624Y-89681270D01*
X120181270Y-89611624D01*
X120221937Y-89584451D01*
X120263161Y-89556906D01*
X120354155Y-89519215D01*
X120354154Y-89519215D01*
X120354157Y-89519214D01*
X120450753Y-89500000D01*
X120549247Y-89500000D01*
X120645843Y-89519214D01*
X120645843Y-89519214D01*
G37*
G36*
X229145843Y-89519214D02*
G01*
X229145846Y-89519215D01*
X229145845Y-89519215D01*
X229236839Y-89556906D01*
X229278063Y-89584451D01*
X229318730Y-89611624D01*
X229388376Y-89681270D01*
X229443095Y-89763163D01*
X229480786Y-89854157D01*
X229500000Y-89950753D01*
X229500000Y-90049247D01*
X229480786Y-90145843D01*
X229480785Y-90145845D01*
X229443094Y-90236839D01*
X229388375Y-90318731D01*
X229318731Y-90388375D01*
X229236839Y-90443094D01*
X229236838Y-90443095D01*
X229236837Y-90443095D01*
X229145843Y-90480786D01*
X229049247Y-90500000D01*
X228950753Y-90500000D01*
X228854157Y-90480786D01*
X228763163Y-90443095D01*
X228763162Y-90443095D01*
X228763161Y-90443094D01*
X228681269Y-90388375D01*
X228611625Y-90318731D01*
X228556906Y-90236839D01*
X228519215Y-90145845D01*
X228519214Y-90145843D01*
X228500000Y-90049247D01*
X228500000Y-89950753D01*
X228519214Y-89854157D01*
X228556905Y-89763163D01*
X228611624Y-89681270D01*
X228681270Y-89611624D01*
X228721937Y-89584451D01*
X228763161Y-89556906D01*
X228854155Y-89519215D01*
X228854154Y-89519215D01*
X228854157Y-89519214D01*
X228950753Y-89500000D01*
X229049247Y-89500000D01*
X229145843Y-89519214D01*
X229145843Y-89519214D01*
G37*
M02*
