G04 #@! TF.GenerationSoftware,KiCad,Pcbnew,(5.1.2)-1*
G04 #@! TF.CreationDate,2019-11-21T17:45:34-03:00*
G04 #@! TF.ProjectId,M_dulo Stick LPC1769,4df36475-6c6f-4205-9374-69636b204c50,v1.0*
G04 #@! TF.SameCoordinates,Original*
G04 #@! TF.FileFunction,Legend,Top*
G04 #@! TF.FilePolarity,Positive*
%FSLAX46Y46*%
G04 Gerber Fmt 4.6, Leading zero omitted, Abs format (unit mm)*
G04 Created by KiCad (PCBNEW (5.1.2)-1) date 2019-11-21 17:45:34*
%MOMM*%
%LPD*%
G04 APERTURE LIST*
%ADD10C,0.150000*%
%ADD11C,0.120000*%
%ADD12C,0.300000*%
%ADD13C,0.100000*%
%ADD14C,0.200000*%
%ADD15C,0.127000*%
%ADD16C,0.152400*%
%ADD17C,0.050000*%
%ADD18C,0.250000*%
G04 APERTURE END LIST*
D10*
X228047619Y-100361904D02*
X227590476Y-100361904D01*
X227819047Y-100361904D02*
X227819047Y-99561904D01*
X227742857Y-99676190D01*
X227666666Y-99752380D01*
X227590476Y-99790476D01*
X228428571Y-100361904D02*
X228580952Y-100361904D01*
X228657142Y-100323809D01*
X228695238Y-100285714D01*
X228771428Y-100171428D01*
X228809523Y-100019047D01*
X228809523Y-99714285D01*
X228771428Y-99638095D01*
X228733333Y-99600000D01*
X228657142Y-99561904D01*
X228504761Y-99561904D01*
X228428571Y-99600000D01*
X228390476Y-99638095D01*
X228352380Y-99714285D01*
X228352380Y-99904761D01*
X228390476Y-99980952D01*
X228428571Y-100019047D01*
X228504761Y-100057142D01*
X228657142Y-100057142D01*
X228733333Y-100019047D01*
X228771428Y-99980952D01*
X228809523Y-99904761D01*
X222833333Y-99661904D02*
X223366666Y-99661904D01*
X223023809Y-100461904D01*
X223971428Y-113238095D02*
X224009523Y-113200000D01*
X224085714Y-113161904D01*
X224276190Y-113161904D01*
X224352380Y-113200000D01*
X224390476Y-113238095D01*
X224428571Y-113314285D01*
X224428571Y-113390476D01*
X224390476Y-113504761D01*
X223933333Y-113961904D01*
X224428571Y-113961904D01*
X220728571Y-113261904D02*
X220271428Y-113261904D01*
X220500000Y-113261904D02*
X220500000Y-112461904D01*
X220423809Y-112576190D01*
X220347619Y-112652380D01*
X220271428Y-112690476D01*
X228409523Y-92161904D02*
X228028571Y-92161904D01*
X227990476Y-92542857D01*
X228028571Y-92504761D01*
X228104761Y-92466666D01*
X228295238Y-92466666D01*
X228371428Y-92504761D01*
X228409523Y-92542857D01*
X228447619Y-92619047D01*
X228447619Y-92809523D01*
X228409523Y-92885714D01*
X228371428Y-92923809D01*
X228295238Y-92961904D01*
X228104761Y-92961904D01*
X228028571Y-92923809D01*
X227990476Y-92885714D01*
X229133333Y-92428571D02*
X229133333Y-92961904D01*
X228942857Y-92123809D02*
X228752380Y-92695238D01*
X229247619Y-92695238D01*
X161390476Y-92538095D02*
X161428571Y-92500000D01*
X161504761Y-92461904D01*
X161695238Y-92461904D01*
X161771428Y-92500000D01*
X161809523Y-92538095D01*
X161847619Y-92614285D01*
X161847619Y-92690476D01*
X161809523Y-92804761D01*
X161352380Y-93261904D01*
X161847619Y-93261904D01*
X162304761Y-92804761D02*
X162228571Y-92766666D01*
X162190476Y-92728571D01*
X162152380Y-92652380D01*
X162152380Y-92614285D01*
X162190476Y-92538095D01*
X162228571Y-92500000D01*
X162304761Y-92461904D01*
X162457142Y-92461904D01*
X162533333Y-92500000D01*
X162571428Y-92538095D01*
X162609523Y-92614285D01*
X162609523Y-92652380D01*
X162571428Y-92728571D01*
X162533333Y-92766666D01*
X162457142Y-92804761D01*
X162304761Y-92804761D01*
X162228571Y-92842857D01*
X162190476Y-92880952D01*
X162152380Y-92957142D01*
X162152380Y-93109523D01*
X162190476Y-93185714D01*
X162228571Y-93223809D01*
X162304761Y-93261904D01*
X162457142Y-93261904D01*
X162533333Y-93223809D01*
X162571428Y-93185714D01*
X162609523Y-93109523D01*
X162609523Y-92957142D01*
X162571428Y-92880952D01*
X162533333Y-92842857D01*
X162457142Y-92804761D01*
X162328571Y-116661904D02*
X161871428Y-116661904D01*
X162100000Y-116661904D02*
X162100000Y-115861904D01*
X162023809Y-115976190D01*
X161947619Y-116052380D01*
X161871428Y-116090476D01*
D11*
X142900000Y-103500000D02*
X143400000Y-103500000D01*
X142900000Y-106800000D02*
X143200000Y-106800000D01*
X138700000Y-108400000D02*
X138700000Y-108900000D01*
X135100000Y-106100000D02*
X134800000Y-106100000D01*
X134700000Y-102900000D02*
X134600000Y-102900000D01*
X135100000Y-102900000D02*
X134700000Y-102900000D01*
X138700000Y-100600000D02*
X138700000Y-100300000D01*
X166250000Y-107500000D02*
X166250000Y-108000000D01*
X164500000Y-104750000D02*
X164250000Y-104750000D01*
X166750000Y-102500000D02*
X166750000Y-102000000D01*
X169500000Y-104250000D02*
X169750000Y-104250000D01*
X194750000Y-112500000D02*
X194250000Y-112500000D01*
X194750000Y-110000000D02*
X194500000Y-110000000D01*
X194750000Y-107500000D02*
X194250000Y-107500000D01*
X194750000Y-105000000D02*
X194500000Y-105000000D01*
X194750000Y-102500000D02*
X194250000Y-102500000D01*
X197500000Y-97750000D02*
X197500000Y-97500000D01*
X200000000Y-97750000D02*
X200000000Y-97250000D01*
X202500000Y-97750000D02*
X202500000Y-97500000D01*
X205000000Y-97750000D02*
X205000000Y-97250000D01*
X207500000Y-97750000D02*
X207500000Y-97500000D01*
X212250000Y-100500000D02*
X212750000Y-100500000D01*
X212750000Y-103000000D02*
X213000000Y-103000000D01*
X212250000Y-105500000D02*
X212750000Y-105500000D01*
X212250000Y-108000000D02*
X212500000Y-108000000D01*
X212250000Y-110500000D02*
X212750000Y-110500000D01*
X209500000Y-115250000D02*
X209500000Y-115500000D01*
X207000000Y-115250000D02*
X207000000Y-115750000D01*
X204500000Y-115250000D02*
X204500000Y-115500000D01*
X202000000Y-115250000D02*
X202000000Y-115750000D01*
X199500000Y-115250000D02*
X199500000Y-115500000D01*
D12*
X121857142Y-122750000D02*
X122571428Y-122750000D01*
X121714285Y-123178571D02*
X122214285Y-121678571D01*
X122714285Y-123178571D01*
X123142857Y-123107142D02*
X123285714Y-123178571D01*
X123571428Y-123178571D01*
X123714285Y-123107142D01*
X123785714Y-122964285D01*
X123785714Y-122892857D01*
X123714285Y-122750000D01*
X123571428Y-122678571D01*
X123357142Y-122678571D01*
X123214285Y-122607142D01*
X123142857Y-122464285D01*
X123142857Y-122392857D01*
X123214285Y-122250000D01*
X123357142Y-122178571D01*
X123571428Y-122178571D01*
X123714285Y-122250000D01*
X124357142Y-123107142D02*
X124500000Y-123178571D01*
X124785714Y-123178571D01*
X124928571Y-123107142D01*
X125000000Y-122964285D01*
X125000000Y-122892857D01*
X124928571Y-122750000D01*
X124785714Y-122678571D01*
X124571428Y-122678571D01*
X124428571Y-122607142D01*
X124357142Y-122464285D01*
X124357142Y-122392857D01*
X124428571Y-122250000D01*
X124571428Y-122178571D01*
X124785714Y-122178571D01*
X124928571Y-122250000D01*
X125500000Y-122178571D02*
X125857142Y-123178571D01*
X126214285Y-122178571D02*
X125857142Y-123178571D01*
X125714285Y-123535714D01*
X125642857Y-123607142D01*
X125500000Y-123678571D01*
X122000000Y-119107142D02*
X122214285Y-119178571D01*
X122571428Y-119178571D01*
X122714285Y-119107142D01*
X122785714Y-119035714D01*
X122857142Y-118892857D01*
X122857142Y-118750000D01*
X122785714Y-118607142D01*
X122714285Y-118535714D01*
X122571428Y-118464285D01*
X122285714Y-118392857D01*
X122142857Y-118321428D01*
X122071428Y-118250000D01*
X122000000Y-118107142D01*
X122000000Y-117964285D01*
X122071428Y-117821428D01*
X122142857Y-117750000D01*
X122285714Y-117678571D01*
X122642857Y-117678571D01*
X122857142Y-117750000D01*
X124571428Y-117607142D02*
X123285714Y-119535714D01*
X125071428Y-119178571D02*
X125071428Y-117678571D01*
X125928571Y-119178571D01*
X125928571Y-117678571D01*
D13*
G36*
X141500000Y-119500000D02*
G01*
X126500000Y-119500000D01*
X126500000Y-115500000D01*
X141500000Y-115500000D01*
X141500000Y-119500000D01*
G37*
X141500000Y-119500000D02*
X126500000Y-119500000D01*
X126500000Y-115500000D01*
X141500000Y-115500000D01*
X141500000Y-119500000D01*
G36*
X141500000Y-124000000D02*
G01*
X126500000Y-124000000D01*
X126500000Y-120000000D01*
X141500000Y-120000000D01*
X141500000Y-124000000D01*
G37*
X141500000Y-124000000D02*
X126500000Y-124000000D01*
X126500000Y-120000000D01*
X141500000Y-120000000D01*
X141500000Y-124000000D01*
D14*
X142653809Y-116052380D02*
X142653809Y-116766666D01*
X142606190Y-116909523D01*
X142510952Y-117004761D01*
X142368095Y-117052380D01*
X142272857Y-117052380D01*
X143272857Y-117052380D02*
X143177619Y-117004761D01*
X143130000Y-116957142D01*
X143082380Y-116861904D01*
X143082380Y-116576190D01*
X143130000Y-116480952D01*
X143177619Y-116433333D01*
X143272857Y-116385714D01*
X143415714Y-116385714D01*
X143510952Y-116433333D01*
X143558571Y-116480952D01*
X143606190Y-116576190D01*
X143606190Y-116861904D01*
X143558571Y-116957142D01*
X143510952Y-117004761D01*
X143415714Y-117052380D01*
X143272857Y-117052380D01*
X144034761Y-116385714D02*
X144034761Y-117052380D01*
X144034761Y-116480952D02*
X144082380Y-116433333D01*
X144177619Y-116385714D01*
X144320476Y-116385714D01*
X144415714Y-116433333D01*
X144463333Y-116528571D01*
X144463333Y-117052380D01*
X145368095Y-117052380D02*
X145368095Y-116528571D01*
X145320476Y-116433333D01*
X145225238Y-116385714D01*
X145034761Y-116385714D01*
X144939523Y-116433333D01*
X145368095Y-117004761D02*
X145272857Y-117052380D01*
X145034761Y-117052380D01*
X144939523Y-117004761D01*
X144891904Y-116909523D01*
X144891904Y-116814285D01*
X144939523Y-116719047D01*
X145034761Y-116671428D01*
X145272857Y-116671428D01*
X145368095Y-116623809D01*
X145701428Y-116385714D02*
X146082380Y-116385714D01*
X145844285Y-116052380D02*
X145844285Y-116909523D01*
X145891904Y-117004761D01*
X145987142Y-117052380D01*
X146082380Y-117052380D01*
X146415714Y-117052380D02*
X146415714Y-116052380D01*
X146844285Y-117052380D02*
X146844285Y-116528571D01*
X146796666Y-116433333D01*
X146701428Y-116385714D01*
X146558571Y-116385714D01*
X146463333Y-116433333D01*
X146415714Y-116480952D01*
X147749047Y-117052380D02*
X147749047Y-116528571D01*
X147701428Y-116433333D01*
X147606190Y-116385714D01*
X147415714Y-116385714D01*
X147320476Y-116433333D01*
X147749047Y-117004761D02*
X147653809Y-117052380D01*
X147415714Y-117052380D01*
X147320476Y-117004761D01*
X147272857Y-116909523D01*
X147272857Y-116814285D01*
X147320476Y-116719047D01*
X147415714Y-116671428D01*
X147653809Y-116671428D01*
X147749047Y-116623809D01*
X148225238Y-116385714D02*
X148225238Y-117052380D01*
X148225238Y-116480952D02*
X148272857Y-116433333D01*
X148368095Y-116385714D01*
X148510952Y-116385714D01*
X148606190Y-116433333D01*
X148653809Y-116528571D01*
X148653809Y-117052380D01*
X150082380Y-116576190D02*
X150082380Y-117052380D01*
X149749047Y-116052380D02*
X150082380Y-116576190D01*
X150415714Y-116052380D01*
X151177619Y-116385714D02*
X151177619Y-117052380D01*
X150749047Y-116385714D02*
X150749047Y-116909523D01*
X150796666Y-117004761D01*
X150891904Y-117052380D01*
X151034761Y-117052380D01*
X151130000Y-117004761D01*
X151177619Y-116957142D01*
X151653809Y-116385714D02*
X151653809Y-117242857D01*
X151606190Y-117338095D01*
X151510952Y-117385714D01*
X151463333Y-117385714D01*
X151653809Y-116052380D02*
X151606190Y-116100000D01*
X151653809Y-116147619D01*
X151701428Y-116100000D01*
X151653809Y-116052380D01*
X151653809Y-116147619D01*
X152130000Y-117052380D02*
X152130000Y-116385714D01*
X152130000Y-116576190D02*
X152177619Y-116480952D01*
X152225238Y-116433333D01*
X152320476Y-116385714D01*
X152415714Y-116385714D01*
X153177619Y-117052380D02*
X153177619Y-116528571D01*
X153130000Y-116433333D01*
X153034761Y-116385714D01*
X152844285Y-116385714D01*
X152749047Y-116433333D01*
X153177619Y-117004761D02*
X153082380Y-117052380D01*
X152844285Y-117052380D01*
X152749047Y-117004761D01*
X152701428Y-116909523D01*
X152701428Y-116814285D01*
X152749047Y-116719047D01*
X152844285Y-116671428D01*
X153082380Y-116671428D01*
X153177619Y-116623809D01*
X142891904Y-118752380D02*
X142320476Y-118752380D01*
X142606190Y-118752380D02*
X142606190Y-117752380D01*
X142510952Y-117895238D01*
X142415714Y-117990476D01*
X142320476Y-118038095D01*
X143749047Y-117752380D02*
X143558571Y-117752380D01*
X143463333Y-117800000D01*
X143415714Y-117847619D01*
X143320476Y-117990476D01*
X143272857Y-118180952D01*
X143272857Y-118561904D01*
X143320476Y-118657142D01*
X143368095Y-118704761D01*
X143463333Y-118752380D01*
X143653809Y-118752380D01*
X143749047Y-118704761D01*
X143796666Y-118657142D01*
X143844285Y-118561904D01*
X143844285Y-118323809D01*
X143796666Y-118228571D01*
X143749047Y-118180952D01*
X143653809Y-118133333D01*
X143463333Y-118133333D01*
X143368095Y-118180952D01*
X143320476Y-118228571D01*
X143272857Y-118323809D01*
X144177619Y-117752380D02*
X144796666Y-117752380D01*
X144463333Y-118133333D01*
X144606190Y-118133333D01*
X144701428Y-118180952D01*
X144749047Y-118228571D01*
X144796666Y-118323809D01*
X144796666Y-118561904D01*
X144749047Y-118657142D01*
X144701428Y-118704761D01*
X144606190Y-118752380D01*
X144320476Y-118752380D01*
X144225238Y-118704761D01*
X144177619Y-118657142D01*
X145653809Y-117752380D02*
X145463333Y-117752380D01*
X145368095Y-117800000D01*
X145320476Y-117847619D01*
X145225238Y-117990476D01*
X145177619Y-118180952D01*
X145177619Y-118561904D01*
X145225238Y-118657142D01*
X145272857Y-118704761D01*
X145368095Y-118752380D01*
X145558571Y-118752380D01*
X145653809Y-118704761D01*
X145701428Y-118657142D01*
X145749047Y-118561904D01*
X145749047Y-118323809D01*
X145701428Y-118228571D01*
X145653809Y-118180952D01*
X145558571Y-118133333D01*
X145368095Y-118133333D01*
X145272857Y-118180952D01*
X145225238Y-118228571D01*
X145177619Y-118323809D01*
X146606190Y-118085714D02*
X146606190Y-118752380D01*
X146368095Y-117704761D02*
X146130000Y-118419047D01*
X146749047Y-118419047D01*
X147034761Y-117752380D02*
X147701428Y-117752380D01*
X147272857Y-118752380D01*
X148130000Y-118752380D02*
X148320476Y-118752380D01*
X148415714Y-118704761D01*
X148463333Y-118657142D01*
X148558571Y-118514285D01*
X148606190Y-118323809D01*
X148606190Y-117942857D01*
X148558571Y-117847619D01*
X148510952Y-117800000D01*
X148415714Y-117752380D01*
X148225238Y-117752380D01*
X148130000Y-117800000D01*
X148082380Y-117847619D01*
X148034761Y-117942857D01*
X148034761Y-118180952D01*
X148082380Y-118276190D01*
X148130000Y-118323809D01*
X148225238Y-118371428D01*
X148415714Y-118371428D01*
X148510952Y-118323809D01*
X148558571Y-118276190D01*
X148606190Y-118180952D01*
X142939523Y-120452380D02*
X142606190Y-119976190D01*
X142368095Y-120452380D02*
X142368095Y-119452380D01*
X142749047Y-119452380D01*
X142844285Y-119500000D01*
X142891904Y-119547619D01*
X142939523Y-119642857D01*
X142939523Y-119785714D01*
X142891904Y-119880952D01*
X142844285Y-119928571D01*
X142749047Y-119976190D01*
X142368095Y-119976190D01*
X143891904Y-120452380D02*
X143320476Y-120452380D01*
X143606190Y-120452380D02*
X143606190Y-119452380D01*
X143510952Y-119595238D01*
X143415714Y-119690476D01*
X143320476Y-119738095D01*
X144510952Y-119452380D02*
X144606190Y-119452380D01*
X144701428Y-119500000D01*
X144749047Y-119547619D01*
X144796666Y-119642857D01*
X144844285Y-119833333D01*
X144844285Y-120071428D01*
X144796666Y-120261904D01*
X144749047Y-120357142D01*
X144701428Y-120404761D01*
X144606190Y-120452380D01*
X144510952Y-120452380D01*
X144415714Y-120404761D01*
X144368095Y-120357142D01*
X144320476Y-120261904D01*
X144272857Y-120071428D01*
X144272857Y-119833333D01*
X144320476Y-119642857D01*
X144368095Y-119547619D01*
X144415714Y-119500000D01*
X144510952Y-119452380D01*
X145177619Y-119452380D02*
X145796666Y-119452380D01*
X145463333Y-119833333D01*
X145606190Y-119833333D01*
X145701428Y-119880952D01*
X145749047Y-119928571D01*
X145796666Y-120023809D01*
X145796666Y-120261904D01*
X145749047Y-120357142D01*
X145701428Y-120404761D01*
X145606190Y-120452380D01*
X145320476Y-120452380D01*
X145225238Y-120404761D01*
X145177619Y-120357142D01*
X146177619Y-119547619D02*
X146225238Y-119500000D01*
X146320476Y-119452380D01*
X146558571Y-119452380D01*
X146653809Y-119500000D01*
X146701428Y-119547619D01*
X146749047Y-119642857D01*
X146749047Y-119738095D01*
X146701428Y-119880952D01*
X146130000Y-120452380D01*
X146749047Y-120452380D01*
X142558571Y-121152380D02*
X142749047Y-121152380D01*
X142844285Y-121200000D01*
X142939523Y-121295238D01*
X142987142Y-121485714D01*
X142987142Y-121819047D01*
X142939523Y-122009523D01*
X142844285Y-122104761D01*
X142749047Y-122152380D01*
X142558571Y-122152380D01*
X142463333Y-122104761D01*
X142368095Y-122009523D01*
X142320476Y-121819047D01*
X142320476Y-121485714D01*
X142368095Y-121295238D01*
X142463333Y-121200000D01*
X142558571Y-121152380D01*
X143844285Y-122104761D02*
X143749047Y-122152380D01*
X143558571Y-122152380D01*
X143463333Y-122104761D01*
X143415714Y-122057142D01*
X143368095Y-121961904D01*
X143368095Y-121676190D01*
X143415714Y-121580952D01*
X143463333Y-121533333D01*
X143558571Y-121485714D01*
X143749047Y-121485714D01*
X143844285Y-121533333D01*
X144130000Y-121485714D02*
X144510952Y-121485714D01*
X144272857Y-121152380D02*
X144272857Y-122009523D01*
X144320476Y-122104761D01*
X144415714Y-122152380D01*
X144510952Y-122152380D01*
X145272857Y-121485714D02*
X145272857Y-122152380D01*
X144844285Y-121485714D02*
X144844285Y-122009523D01*
X144891904Y-122104761D01*
X144987142Y-122152380D01*
X145130000Y-122152380D01*
X145225238Y-122104761D01*
X145272857Y-122057142D01*
X145749047Y-122152380D02*
X145749047Y-121152380D01*
X145749047Y-121533333D02*
X145844285Y-121485714D01*
X146034761Y-121485714D01*
X146130000Y-121533333D01*
X146177619Y-121580952D01*
X146225238Y-121676190D01*
X146225238Y-121961904D01*
X146177619Y-122057142D01*
X146130000Y-122104761D01*
X146034761Y-122152380D01*
X145844285Y-122152380D01*
X145749047Y-122104761D01*
X146653809Y-122152380D02*
X146653809Y-121485714D01*
X146653809Y-121676190D02*
X146701428Y-121580952D01*
X146749047Y-121533333D01*
X146844285Y-121485714D01*
X146939523Y-121485714D01*
X147653809Y-122104761D02*
X147558571Y-122152380D01*
X147368095Y-122152380D01*
X147272857Y-122104761D01*
X147225238Y-122009523D01*
X147225238Y-121628571D01*
X147272857Y-121533333D01*
X147368095Y-121485714D01*
X147558571Y-121485714D01*
X147653809Y-121533333D01*
X147701428Y-121628571D01*
X147701428Y-121723809D01*
X147225238Y-121819047D01*
X148796666Y-121152380D02*
X149415714Y-121152380D01*
X149082380Y-121533333D01*
X149225238Y-121533333D01*
X149320476Y-121580952D01*
X149368095Y-121628571D01*
X149415714Y-121723809D01*
X149415714Y-121961904D01*
X149368095Y-122057142D01*
X149320476Y-122104761D01*
X149225238Y-122152380D01*
X148939523Y-122152380D01*
X148844285Y-122104761D01*
X148796666Y-122057142D01*
X150368095Y-122152380D02*
X149796666Y-122152380D01*
X150082380Y-122152380D02*
X150082380Y-121152380D01*
X149987142Y-121295238D01*
X149891904Y-121390476D01*
X149796666Y-121438095D01*
X142225238Y-122852380D02*
X142796666Y-122852380D01*
X142510952Y-123852380D02*
X142510952Y-122852380D01*
X143130000Y-123852380D02*
X143130000Y-122852380D01*
X143510952Y-122852380D01*
X143606190Y-122900000D01*
X143653809Y-122947619D01*
X143701428Y-123042857D01*
X143701428Y-123185714D01*
X143653809Y-123280952D01*
X143606190Y-123328571D01*
X143510952Y-123376190D01*
X143130000Y-123376190D01*
X144034761Y-122852380D02*
X144653809Y-122852380D01*
X144320476Y-123233333D01*
X144463333Y-123233333D01*
X144558571Y-123280952D01*
X144606190Y-123328571D01*
X144653809Y-123423809D01*
X144653809Y-123661904D01*
X144606190Y-123757142D01*
X144558571Y-123804761D01*
X144463333Y-123852380D01*
X144177619Y-123852380D01*
X144082380Y-123804761D01*
X144034761Y-123757142D01*
X145082380Y-123471428D02*
X145844285Y-123471428D01*
X146177619Y-122852380D02*
X146510952Y-123852380D01*
X146844285Y-122852380D01*
X147701428Y-123852380D02*
X147130000Y-123852380D01*
X147415714Y-123852380D02*
X147415714Y-122852380D01*
X147320476Y-122995238D01*
X147225238Y-123090476D01*
X147130000Y-123138095D01*
X148130000Y-123757142D02*
X148177619Y-123804761D01*
X148130000Y-123852380D01*
X148082380Y-123804761D01*
X148130000Y-123757142D01*
X148130000Y-123852380D01*
X148796666Y-122852380D02*
X148891904Y-122852380D01*
X148987142Y-122900000D01*
X149034761Y-122947619D01*
X149082380Y-123042857D01*
X149130000Y-123233333D01*
X149130000Y-123471428D01*
X149082380Y-123661904D01*
X149034761Y-123757142D01*
X148987142Y-123804761D01*
X148891904Y-123852380D01*
X148796666Y-123852380D01*
X148701428Y-123804761D01*
X148653809Y-123757142D01*
X148606190Y-123661904D01*
X148558571Y-123471428D01*
X148558571Y-123233333D01*
X148606190Y-123042857D01*
X148653809Y-122947619D01*
X148701428Y-122900000D01*
X148796666Y-122852380D01*
D11*
X147390000Y-95170000D02*
X149610000Y-95170000D01*
X147390000Y-97830000D02*
X149610000Y-97830000D01*
X149610000Y-96450000D02*
X149610000Y-97820000D01*
X147390000Y-95180000D02*
X147390000Y-96550000D01*
X149610000Y-95280000D02*
X151440000Y-95280000D01*
X149610000Y-95170000D02*
X149610000Y-95280000D01*
X147390000Y-97720000D02*
X147390000Y-97830000D01*
X119200000Y-102650000D02*
X124380000Y-102650000D01*
X119200000Y-111350000D02*
X119200000Y-102650000D01*
X124380000Y-111350000D02*
X119200000Y-111350000D01*
X124380000Y-102650000D02*
X124380000Y-111350000D01*
D10*
X196250000Y-113750000D02*
X197100000Y-113750000D01*
X196250000Y-113750000D02*
X196250000Y-112900000D01*
X210750000Y-113750000D02*
X209900000Y-113750000D01*
X210750000Y-113750000D02*
X210750000Y-112900000D01*
X210750000Y-99250000D02*
X210750000Y-100100000D01*
X210750000Y-99250000D02*
X209900000Y-99250000D01*
X196250000Y-99250000D02*
X197100000Y-99250000D01*
X196250000Y-99250000D02*
X196250000Y-100100000D01*
X197608114Y-115500000D02*
G75*
G03X197608114Y-115500000I-158114J0D01*
G01*
X197500000Y-115500000D02*
G75*
G03X197500000Y-115500000I-50000J0D01*
G01*
D11*
X229370000Y-119330000D02*
X229370000Y-116670000D01*
X163270000Y-119330000D02*
X229370000Y-119330000D01*
X163270000Y-116670000D02*
X229370000Y-116670000D01*
X163270000Y-119330000D02*
X163270000Y-116670000D01*
X162000000Y-119330000D02*
X160670000Y-119330000D01*
X160670000Y-119330000D02*
X160670000Y-118000000D01*
X221680000Y-120500000D02*
X221680000Y-121500000D01*
X220320000Y-121500000D02*
X220320000Y-120500000D01*
D15*
X135500000Y-108000000D02*
X136250000Y-108000000D01*
X135500000Y-107300000D02*
X135500000Y-108000000D01*
X135500000Y-101000000D02*
X135500000Y-101700000D01*
X136200000Y-101000000D02*
X135500000Y-101000000D01*
X142500000Y-108000000D02*
X141800000Y-108000000D01*
X142500000Y-107300000D02*
X142500000Y-108000000D01*
X142500000Y-101000000D02*
X142500000Y-101700000D01*
X141800000Y-101000000D02*
X142500000Y-101000000D01*
D13*
X141933000Y-100630000D02*
G75*
G03X141933000Y-100630000I-150000J0D01*
G01*
D11*
X186870000Y-114080000D02*
X186870000Y-111420000D01*
X184270000Y-114080000D02*
X186870000Y-114080000D01*
X184270000Y-111420000D02*
X186870000Y-111420000D01*
X184270000Y-114080000D02*
X184270000Y-111420000D01*
X183000000Y-114080000D02*
X181670000Y-114080000D01*
X181670000Y-114080000D02*
X181670000Y-112750000D01*
X188320000Y-112000000D02*
X188320000Y-111000000D01*
X189680000Y-111000000D02*
X189680000Y-112000000D01*
D16*
X169133600Y-102866400D02*
X168684340Y-102866400D01*
X164866400Y-102866400D02*
X164866400Y-103315660D01*
X164866400Y-107133600D02*
X165315660Y-107133600D01*
X169133600Y-107133600D02*
X169133600Y-106684340D01*
X169133600Y-103315660D02*
X169133600Y-102866400D01*
X165315660Y-102866400D02*
X164866400Y-102866400D01*
X164866400Y-106684340D02*
X164866400Y-107133600D01*
X168684340Y-107133600D02*
X169133600Y-107133600D01*
D10*
X169650000Y-106250000D02*
G75*
G03X169650000Y-106250000I-100000J0D01*
G01*
D11*
X160670000Y-95830000D02*
X160670000Y-94500000D01*
X162000000Y-95830000D02*
X160670000Y-95830000D01*
X163270000Y-95830000D02*
X163270000Y-93170000D01*
X163270000Y-93170000D02*
X229370000Y-93170000D01*
X163270000Y-95830000D02*
X229370000Y-95830000D01*
X229370000Y-95830000D02*
X229370000Y-93170000D01*
D17*
X125550000Y-93150000D02*
G75*
G03X123450000Y-93150000I-1050000J0D01*
G01*
D11*
X126950000Y-92000000D02*
G75*
G03X126950000Y-92000000I-2450000J0D01*
G01*
X126600000Y-92000000D02*
G75*
G03X126600000Y-92000000I-2100000J0D01*
G01*
D17*
X124350000Y-90850000D02*
X124650000Y-90850000D01*
X124650000Y-90850000D02*
X124650000Y-92250000D01*
X124350000Y-90850000D02*
X124350000Y-92200000D01*
X124350000Y-93150000D02*
X124650000Y-93150000D01*
X124650000Y-93150000D02*
X124650000Y-92150000D01*
X124650000Y-92150000D02*
X125550000Y-92150000D01*
X125550000Y-92150000D02*
X125550000Y-91850000D01*
X125550000Y-91850000D02*
X123450000Y-91850000D01*
X123450000Y-91850000D02*
X123450000Y-92150000D01*
X123450000Y-92150000D02*
X124700000Y-92150000D01*
X124340000Y-92150000D02*
X124350000Y-92150000D01*
X124350000Y-92150000D02*
X124350000Y-93150000D01*
X123450000Y-93150000D02*
X123750000Y-93150000D01*
X125550000Y-93150000D02*
X125250000Y-93150000D01*
X123750000Y-93150000D02*
G75*
G02X125250000Y-93150000I750000J0D01*
G01*
X123450000Y-90850000D02*
G75*
G03X125550000Y-90850000I1050000J0D01*
G01*
X125550000Y-90850000D02*
X125250000Y-90850000D01*
X123450000Y-90850000D02*
X123750000Y-90850000D01*
X125250000Y-90850000D02*
G75*
G02X123750000Y-90850000I-750000J0D01*
G01*
X124375000Y-90900000D02*
X124625000Y-90900000D01*
X124375000Y-93100000D02*
X124625000Y-93100000D01*
X124375000Y-93050000D02*
X124625000Y-93050000D01*
X124375000Y-90950000D02*
X124625000Y-90950000D01*
D18*
X124500000Y-90950000D02*
X124500000Y-93050000D01*
D17*
X123500000Y-91850000D02*
X123500000Y-92150000D01*
X123550000Y-92150000D02*
X123550000Y-91850000D01*
X125500000Y-91850000D02*
X125500000Y-92150000D01*
X125450000Y-91850000D02*
X125450000Y-92150000D01*
X125400000Y-91850000D02*
X125400000Y-92150000D01*
X123600000Y-91850000D02*
X123600000Y-92150000D01*
D18*
X123600000Y-92000000D02*
X125400000Y-92000000D01*
X125399964Y-90950309D02*
G75*
G02X123600001Y-90949999I-899964J100309D01*
G01*
D13*
X125299957Y-90900662D02*
G75*
G02X123700001Y-90899999I-799957J50662D01*
G01*
X125500020Y-90899568D02*
G75*
G02X123500001Y-90899999I-1000020J49568D01*
G01*
D18*
X123600036Y-93049691D02*
G75*
G02X125399999Y-93050001I899964J-100309D01*
G01*
D13*
X123499980Y-93100432D02*
G75*
G02X125499999Y-93100001I1000020J-49568D01*
G01*
X123700043Y-93099338D02*
G75*
G02X125299999Y-93100001I799957J-50662D01*
G01*
D16*
X169547500Y-123074800D02*
X171452500Y-123074800D01*
X171452500Y-121875961D02*
X171452500Y-121124039D01*
X171452500Y-119925200D02*
X169547500Y-119925200D01*
D10*
X169180278Y-119900000D02*
G75*
G03X169180278Y-119900000I-180278J0D01*
G01*
D16*
X182582800Y-96421900D02*
X178417200Y-96421900D01*
X178417200Y-101578100D02*
X182582800Y-101578100D01*
D10*
X176708114Y-97100000D02*
G75*
G03X176708114Y-97100000I-158114J0D01*
G01*
X168100000Y-122500000D02*
G75*
G03X168100000Y-122500000I-600000J0D01*
G01*
X146600000Y-109000000D02*
G75*
G03X146600000Y-109000000I-600000J0D01*
G01*
X146600000Y-110500000D02*
G75*
G03X146600000Y-110500000I-600000J0D01*
G01*
X194150000Y-113550000D02*
G75*
G03X194150000Y-113550000I-600000J0D01*
G01*
X193600000Y-123000000D02*
G75*
G03X193600000Y-123000000I-600000J0D01*
G01*
D11*
X204820000Y-121500000D02*
X204820000Y-120500000D01*
X206180000Y-120500000D02*
X206180000Y-121500000D01*
X173500000Y-109820000D02*
X174500000Y-109820000D01*
X174500000Y-111180000D02*
X173500000Y-111180000D01*
D10*
X223700000Y-92750000D02*
X218300000Y-92750000D01*
X223700000Y-89750000D02*
X218200000Y-89750000D01*
X218200000Y-90750000D02*
X218200000Y-89750000D01*
D11*
X145000000Y-100320000D02*
X146000000Y-100320000D01*
X146000000Y-101680000D02*
X145000000Y-101680000D01*
X179820000Y-121500000D02*
X179820000Y-120500000D01*
X181180000Y-120500000D02*
X181180000Y-121500000D01*
X179680000Y-120500000D02*
X179680000Y-121500000D01*
X178320000Y-121500000D02*
X178320000Y-120500000D01*
X133000000Y-102680000D02*
X132000000Y-102680000D01*
X132000000Y-101320000D02*
X133000000Y-101320000D01*
X133320000Y-98500000D02*
X133320000Y-97500000D01*
X134680000Y-97500000D02*
X134680000Y-98500000D01*
X142680000Y-110500000D02*
X142680000Y-111500000D01*
X141320000Y-111500000D02*
X141320000Y-110500000D01*
X146820000Y-110500000D02*
X146820000Y-109500000D01*
X148180000Y-109500000D02*
X148180000Y-110500000D01*
X145000000Y-101820000D02*
X146000000Y-101820000D01*
X146000000Y-103180000D02*
X145000000Y-103180000D01*
X145000000Y-106820000D02*
X146000000Y-106820000D01*
X146000000Y-108180000D02*
X145000000Y-108180000D01*
X141180000Y-110500000D02*
X141180000Y-111500000D01*
X139820000Y-111500000D02*
X139820000Y-110500000D01*
X129000000Y-105320000D02*
X130000000Y-105320000D01*
X130000000Y-106680000D02*
X129000000Y-106680000D01*
X139680000Y-110500000D02*
X139680000Y-111500000D01*
X138320000Y-111500000D02*
X138320000Y-110500000D01*
X129000000Y-103820000D02*
X130000000Y-103820000D01*
X130000000Y-105180000D02*
X129000000Y-105180000D01*
X138180000Y-110500000D02*
X138180000Y-111500000D01*
X136820000Y-111500000D02*
X136820000Y-110500000D01*
X132000000Y-99820000D02*
X133000000Y-99820000D01*
X133000000Y-101180000D02*
X132000000Y-101180000D01*
X131820000Y-98500000D02*
X131820000Y-97500000D01*
X133180000Y-97500000D02*
X133180000Y-98500000D01*
X139820000Y-98500000D02*
X139820000Y-97500000D01*
X141180000Y-97500000D02*
X141180000Y-98500000D01*
X129000000Y-110820000D02*
X130000000Y-110820000D01*
X130000000Y-112180000D02*
X129000000Y-112180000D01*
X135320000Y-111500000D02*
X135320000Y-110500000D01*
X136680000Y-110500000D02*
X136680000Y-111500000D01*
X144180000Y-97500000D02*
X144180000Y-98500000D01*
X142820000Y-98500000D02*
X142820000Y-97500000D01*
X134000000Y-115180000D02*
X133000000Y-115180000D01*
X133000000Y-113820000D02*
X134000000Y-113820000D01*
X178180000Y-120500000D02*
X178180000Y-121500000D01*
X176820000Y-121500000D02*
X176820000Y-120500000D01*
X185500000Y-100320000D02*
X186500000Y-100320000D01*
X186500000Y-101680000D02*
X185500000Y-101680000D01*
X185500000Y-98820000D02*
X186500000Y-98820000D01*
X186500000Y-100180000D02*
X185500000Y-100180000D01*
X173500000Y-111320000D02*
X174500000Y-111320000D01*
X174500000Y-112680000D02*
X173500000Y-112680000D01*
X173500000Y-108320000D02*
X174500000Y-108320000D01*
X174500000Y-109680000D02*
X173500000Y-109680000D01*
X171680000Y-104000000D02*
X171680000Y-105000000D01*
X170320000Y-105000000D02*
X170320000Y-104000000D01*
X170680000Y-110000000D02*
X170680000Y-111000000D01*
X169320000Y-111000000D02*
X169320000Y-110000000D01*
X159680000Y-99000000D02*
X159680000Y-100000000D01*
X158320000Y-100000000D02*
X158320000Y-99000000D01*
X160500000Y-101320000D02*
X161500000Y-101320000D01*
X161500000Y-102680000D02*
X160500000Y-102680000D01*
X156820000Y-100000000D02*
X156820000Y-99000000D01*
X158180000Y-99000000D02*
X158180000Y-100000000D01*
X164180000Y-99000000D02*
X164180000Y-100000000D01*
X162820000Y-100000000D02*
X162820000Y-99000000D01*
X162680000Y-99000000D02*
X162680000Y-100000000D01*
X161320000Y-100000000D02*
X161320000Y-99000000D01*
X170680000Y-99000000D02*
X170680000Y-100000000D01*
X169320000Y-100000000D02*
X169320000Y-99000000D01*
X175680000Y-91000000D02*
X175680000Y-92000000D01*
X174320000Y-92000000D02*
X174320000Y-91000000D01*
X160500000Y-102820000D02*
X161500000Y-102820000D01*
X161500000Y-104180000D02*
X160500000Y-104180000D01*
X160500000Y-105820000D02*
X161500000Y-105820000D01*
X161500000Y-107180000D02*
X160500000Y-107180000D01*
X160500000Y-104320000D02*
X161500000Y-104320000D01*
X161500000Y-105680000D02*
X160500000Y-105680000D01*
X169180000Y-99000000D02*
X169180000Y-100000000D01*
X167820000Y-100000000D02*
X167820000Y-99000000D01*
X172680000Y-91000000D02*
X172680000Y-92000000D01*
X171320000Y-92000000D02*
X171320000Y-91000000D01*
X159820000Y-100000000D02*
X159820000Y-99000000D01*
X161180000Y-99000000D02*
X161180000Y-100000000D01*
X164680000Y-113000000D02*
X164680000Y-114000000D01*
X163320000Y-114000000D02*
X163320000Y-113000000D01*
X166180000Y-113000000D02*
X166180000Y-114000000D01*
X164820000Y-114000000D02*
X164820000Y-113000000D01*
X167680000Y-113000000D02*
X167680000Y-114000000D01*
X166320000Y-114000000D02*
X166320000Y-113000000D01*
X169180000Y-113000000D02*
X169180000Y-114000000D01*
X167820000Y-114000000D02*
X167820000Y-113000000D01*
X223180000Y-120500000D02*
X223180000Y-121500000D01*
X221820000Y-121500000D02*
X221820000Y-120500000D01*
X214180000Y-120500000D02*
X214180000Y-121500000D01*
X212820000Y-121500000D02*
X212820000Y-120500000D01*
X199000000Y-123180000D02*
X198000000Y-123180000D01*
X198000000Y-121820000D02*
X199000000Y-121820000D01*
X189000000Y-119820000D02*
X190000000Y-119820000D01*
X190000000Y-121180000D02*
X189000000Y-121180000D01*
X191500000Y-119820000D02*
X192500000Y-119820000D01*
X192500000Y-121180000D02*
X191500000Y-121180000D01*
X207680000Y-120500000D02*
X207680000Y-121500000D01*
X206320000Y-121500000D02*
X206320000Y-120500000D01*
X191000000Y-107820000D02*
X192000000Y-107820000D01*
X192000000Y-109180000D02*
X191000000Y-109180000D01*
X191000000Y-106320000D02*
X192000000Y-106320000D01*
X192000000Y-107680000D02*
X191000000Y-107680000D01*
X191000000Y-100320000D02*
X192000000Y-100320000D01*
X192000000Y-101680000D02*
X191000000Y-101680000D01*
X191000000Y-98820000D02*
X192000000Y-98820000D01*
X192000000Y-100180000D02*
X191000000Y-100180000D01*
X191000000Y-104820000D02*
X192000000Y-104820000D01*
X192000000Y-106180000D02*
X191000000Y-106180000D01*
X191000000Y-101820000D02*
X192000000Y-101820000D01*
X192000000Y-103180000D02*
X191000000Y-103180000D01*
X183500000Y-109570000D02*
X184500000Y-109570000D01*
X184500000Y-110930000D02*
X183500000Y-110930000D01*
X220500000Y-102180000D02*
X219500000Y-102180000D01*
X219500000Y-100820000D02*
X220500000Y-100820000D01*
X220500000Y-103680000D02*
X219500000Y-103680000D01*
X219500000Y-102320000D02*
X220500000Y-102320000D01*
X212180000Y-120500000D02*
X212180000Y-121500000D01*
X210820000Y-121500000D02*
X210820000Y-120500000D01*
X210680000Y-120500000D02*
X210680000Y-121500000D01*
X209320000Y-121500000D02*
X209320000Y-120500000D01*
X220500000Y-105680000D02*
X219500000Y-105680000D01*
X219500000Y-104320000D02*
X220500000Y-104320000D01*
X225820000Y-91500000D02*
X225820000Y-90500000D01*
X227180000Y-90500000D02*
X227180000Y-91500000D01*
X224320000Y-91500000D02*
X224320000Y-90500000D01*
X225680000Y-90500000D02*
X225680000Y-91500000D01*
X220500000Y-111180000D02*
X219500000Y-111180000D01*
X219500000Y-109820000D02*
X220500000Y-109820000D01*
X214820000Y-91500000D02*
X214820000Y-90500000D01*
X216180000Y-90500000D02*
X216180000Y-91500000D01*
X217680000Y-90500000D02*
X217680000Y-91500000D01*
X216320000Y-91500000D02*
X216320000Y-90500000D01*
X174650000Y-121000000D02*
X174650000Y-122000000D01*
X176350000Y-122000000D02*
X176350000Y-121000000D01*
X174100000Y-120650000D02*
X174100000Y-121350000D01*
X172900000Y-121350000D02*
X172900000Y-120650000D01*
X166600000Y-120650000D02*
X166600000Y-121350000D01*
X165400000Y-121350000D02*
X165400000Y-120650000D01*
X163150000Y-121000000D02*
X163150000Y-122000000D01*
X164850000Y-122000000D02*
X164850000Y-121000000D01*
X145600000Y-104650000D02*
X145600000Y-105350000D01*
X144400000Y-105350000D02*
X144400000Y-104650000D01*
X147100000Y-104650000D02*
X147100000Y-105350000D01*
X145900000Y-105350000D02*
X145900000Y-104650000D01*
X139100000Y-97650000D02*
X139100000Y-98350000D01*
X137900000Y-98350000D02*
X137900000Y-97650000D01*
X137600000Y-97650000D02*
X137600000Y-98350000D01*
X136400000Y-98350000D02*
X136400000Y-97650000D01*
X123000000Y-113850000D02*
X124000000Y-113850000D01*
X124000000Y-112150000D02*
X123000000Y-112150000D01*
X132150000Y-105400000D02*
X132850000Y-105400000D01*
X132850000Y-106600000D02*
X132150000Y-106600000D01*
X132150000Y-103900000D02*
X132850000Y-103900000D01*
X132850000Y-105100000D02*
X132150000Y-105100000D01*
X136850000Y-96100000D02*
X136150000Y-96100000D01*
X136150000Y-94900000D02*
X136850000Y-94900000D01*
X139850000Y-96100000D02*
X139150000Y-96100000D01*
X139150000Y-94900000D02*
X139850000Y-94900000D01*
X142600000Y-97650000D02*
X142600000Y-98350000D01*
X141400000Y-98350000D02*
X141400000Y-97650000D01*
X186350000Y-97600000D02*
X185650000Y-97600000D01*
X185650000Y-96400000D02*
X186350000Y-96400000D01*
X166100000Y-91150000D02*
X166100000Y-91850000D01*
X164900000Y-91850000D02*
X164900000Y-91150000D01*
X171900000Y-106350000D02*
X171900000Y-105650000D01*
X173100000Y-105650000D02*
X173100000Y-106350000D01*
X173100000Y-102650000D02*
X173100000Y-103350000D01*
X171900000Y-103350000D02*
X171900000Y-102650000D01*
X166400000Y-110850000D02*
X166400000Y-110150000D01*
X167600000Y-110150000D02*
X167600000Y-110850000D01*
X167900000Y-110850000D02*
X167900000Y-110150000D01*
X169100000Y-110150000D02*
X169100000Y-110850000D01*
X163400000Y-110850000D02*
X163400000Y-110150000D01*
X164600000Y-110150000D02*
X164600000Y-110850000D01*
X164900000Y-110850000D02*
X164900000Y-110150000D01*
X166100000Y-110150000D02*
X166100000Y-110850000D01*
X163100000Y-113150000D02*
X163100000Y-113850000D01*
X161900000Y-113850000D02*
X161900000Y-113150000D01*
X170600000Y-113150000D02*
X170600000Y-113850000D01*
X169400000Y-113850000D02*
X169400000Y-113150000D01*
X172100000Y-99150000D02*
X172100000Y-99850000D01*
X170900000Y-99850000D02*
X170900000Y-99150000D01*
X172650000Y-98500000D02*
X172650000Y-99500000D01*
X174350000Y-99500000D02*
X174350000Y-98500000D01*
X166350000Y-100350000D02*
X165650000Y-100350000D01*
X165650000Y-99150000D02*
X166350000Y-99150000D01*
X166500000Y-97150000D02*
X165500000Y-97150000D01*
X165500000Y-98850000D02*
X166500000Y-98850000D01*
X172350000Y-110150000D02*
X172350000Y-110850000D01*
X171150000Y-110850000D02*
X171150000Y-110150000D01*
X160650000Y-107400000D02*
X161350000Y-107400000D01*
X161350000Y-108600000D02*
X160650000Y-108600000D01*
X157000000Y-108850000D02*
X158000000Y-108850000D01*
X158000000Y-107150000D02*
X157000000Y-107150000D01*
X201850000Y-123100000D02*
X201150000Y-123100000D01*
X201150000Y-121900000D02*
X201850000Y-121900000D01*
X204600000Y-120650000D02*
X204600000Y-121350000D01*
X203400000Y-121350000D02*
X203400000Y-120650000D01*
X195850000Y-123100000D02*
X195150000Y-123100000D01*
X195150000Y-121900000D02*
X195850000Y-121900000D01*
X213400000Y-114850000D02*
X213400000Y-114150000D01*
X214600000Y-114150000D02*
X214600000Y-114850000D01*
X216400000Y-111350000D02*
X216400000Y-110650000D01*
X217600000Y-110650000D02*
X217600000Y-111350000D01*
X188350000Y-116100000D02*
X187650000Y-116100000D01*
X187650000Y-114900000D02*
X188350000Y-114900000D01*
X190650000Y-114900000D02*
X191350000Y-114900000D01*
X191350000Y-116100000D02*
X190650000Y-116100000D01*
X209100000Y-120650000D02*
X209100000Y-121350000D01*
X207900000Y-121350000D02*
X207900000Y-120650000D01*
X191150000Y-103400000D02*
X191850000Y-103400000D01*
X191850000Y-104600000D02*
X191150000Y-104600000D01*
X214900000Y-111350000D02*
X214900000Y-110650000D01*
X216100000Y-110650000D02*
X216100000Y-111350000D01*
X215150000Y-97900000D02*
X215850000Y-97900000D01*
X215850000Y-99100000D02*
X215150000Y-99100000D01*
X191150000Y-96400000D02*
X191850000Y-96400000D01*
X191850000Y-97600000D02*
X191150000Y-97600000D01*
X214650000Y-103900000D02*
X215350000Y-103900000D01*
X215350000Y-105100000D02*
X214650000Y-105100000D01*
X191900000Y-111850000D02*
X191900000Y-111150000D01*
X193100000Y-111150000D02*
X193100000Y-111850000D01*
X217400000Y-104850000D02*
X217400000Y-104150000D01*
X218600000Y-104150000D02*
X218600000Y-104850000D01*
X217400000Y-101850000D02*
X217400000Y-101150000D01*
X218600000Y-101150000D02*
X218600000Y-101850000D01*
X130100000Y-94650000D02*
X142700000Y-94650000D01*
X142700000Y-94650000D02*
X142700000Y-89550000D01*
X142700000Y-89550000D02*
X130100000Y-89550000D01*
X176650000Y-103000000D02*
X173350000Y-103000000D01*
X173350000Y-103000000D02*
X173350000Y-107000000D01*
X195050000Y-119550000D02*
X195050000Y-121450000D01*
X195050000Y-121450000D02*
X202950000Y-121450000D01*
X219000000Y-116150000D02*
X219000000Y-112850000D01*
X219000000Y-112850000D02*
X215000000Y-112850000D01*
X168700000Y-90340000D02*
X166800000Y-90340000D01*
X167300000Y-92660000D02*
X168700000Y-92660000D01*
X228700000Y-121550000D02*
X228700000Y-121450000D01*
X224300000Y-123050000D02*
X228700000Y-123050000D01*
X228700000Y-119950000D02*
X224300000Y-119950000D01*
X224300000Y-121550000D02*
X224300000Y-121450000D01*
X219200000Y-121550000D02*
X219200000Y-121450000D01*
X214800000Y-123050000D02*
X219200000Y-123050000D01*
X219200000Y-119950000D02*
X214800000Y-119950000D01*
X214800000Y-121550000D02*
X214800000Y-121450000D01*
X135080000Y-110240000D02*
X134150000Y-110240000D01*
X131920000Y-110240000D02*
X132850000Y-110240000D01*
X131920000Y-110240000D02*
X131920000Y-112400000D01*
X135080000Y-110240000D02*
X135080000Y-111700000D01*
X218740000Y-106420000D02*
X218740000Y-107350000D01*
X218740000Y-109580000D02*
X218740000Y-108650000D01*
X218740000Y-109580000D02*
X220900000Y-109580000D01*
X218740000Y-106420000D02*
X220200000Y-106420000D01*
X182500000Y-119700000D02*
X181500000Y-119700000D01*
X181500000Y-119700000D02*
X181500000Y-121800000D01*
X182500000Y-119700000D02*
X182500000Y-121800000D01*
X130000000Y-102800000D02*
X131000000Y-102800000D01*
X131000000Y-102800000D02*
X131000000Y-100700000D01*
X130000000Y-102800000D02*
X130000000Y-100700000D01*
X134800000Y-96000000D02*
X134800000Y-95000000D01*
X134800000Y-95000000D02*
X132700000Y-95000000D01*
X134800000Y-96000000D02*
X132700000Y-96000000D01*
X143000000Y-112300000D02*
X144000000Y-112300000D01*
X144000000Y-112300000D02*
X144000000Y-110200000D01*
X143000000Y-112300000D02*
X143000000Y-110200000D01*
X175500000Y-110800000D02*
X176500000Y-110800000D01*
X176500000Y-110800000D02*
X176500000Y-108700000D01*
X175500000Y-110800000D02*
X175500000Y-108700000D01*
X175500000Y-113800000D02*
X176500000Y-113800000D01*
X176500000Y-113800000D02*
X176500000Y-111700000D01*
X175500000Y-113800000D02*
X175500000Y-111700000D01*
X191800000Y-123500000D02*
X191800000Y-122500000D01*
X191800000Y-122500000D02*
X189700000Y-122500000D01*
X191800000Y-123500000D02*
X189700000Y-123500000D01*
X130000000Y-113680000D02*
X129000000Y-113680000D01*
X129000000Y-112320000D02*
X130000000Y-112320000D01*
X147470000Y-104750000D02*
X147470000Y-105250000D01*
X148530000Y-105250000D02*
X148530000Y-104750000D01*
X136030000Y-98250000D02*
X136030000Y-97750000D01*
X134970000Y-97750000D02*
X134970000Y-98250000D01*
X155820000Y-106000000D02*
X155820000Y-105000000D01*
X157180000Y-105000000D02*
X157180000Y-106000000D01*
X185500000Y-116180000D02*
X184500000Y-116180000D01*
X184500000Y-114820000D02*
X185500000Y-114820000D01*
X150870000Y-92830000D02*
X150870000Y-90170000D01*
X148270000Y-92830000D02*
X150870000Y-92830000D01*
X148270000Y-90170000D02*
X150870000Y-90170000D01*
X148270000Y-92830000D02*
X148270000Y-90170000D01*
X147000000Y-92830000D02*
X145670000Y-92830000D01*
X145670000Y-92830000D02*
X145670000Y-91500000D01*
X219230000Y-113460000D02*
X219230000Y-116000000D01*
X221710000Y-113460000D02*
X219230000Y-113460000D01*
X229390000Y-116000000D02*
X219230000Y-116000000D01*
X221710000Y-113460000D02*
X221710000Y-100700000D01*
X229390000Y-116000000D02*
X229390000Y-100700000D01*
X229390000Y-100700000D02*
X221710000Y-100700000D01*
D10*
X182300000Y-109200000D02*
X185700000Y-109200000D01*
X180900000Y-102800000D02*
X185700000Y-102800000D01*
D11*
X162500000Y-121350000D02*
X162500000Y-119650000D01*
X162500000Y-119650000D02*
X159950000Y-119650000D01*
X162500000Y-121350000D02*
X159950000Y-121350000D01*
X162500000Y-123350000D02*
X162500000Y-121650000D01*
X162500000Y-121650000D02*
X159950000Y-121650000D01*
X162500000Y-123350000D02*
X159950000Y-123350000D01*
X130200000Y-107450000D02*
X127800000Y-107450000D01*
X127800000Y-110550000D02*
X130750000Y-110550000D01*
X156150000Y-123500000D02*
X157850000Y-123500000D01*
X157850000Y-123500000D02*
X157850000Y-120950000D01*
X156150000Y-123500000D02*
X156150000Y-120950000D01*
X184500000Y-120650000D02*
X184500000Y-122350000D01*
X184500000Y-122350000D02*
X187050000Y-122350000D01*
X184500000Y-120650000D02*
X187050000Y-120650000D01*
D10*
X150561904Y-98166666D02*
X151133333Y-98166666D01*
X151247619Y-98204761D01*
X151323809Y-98280952D01*
X151361904Y-98395238D01*
X151361904Y-98471428D01*
X151361904Y-97785714D02*
X150561904Y-97785714D01*
X150561904Y-97480952D01*
X150600000Y-97404761D01*
X150638095Y-97366666D01*
X150714285Y-97328571D01*
X150828571Y-97328571D01*
X150904761Y-97366666D01*
X150942857Y-97404761D01*
X150980952Y-97480952D01*
X150980952Y-97785714D01*
X150561904Y-97061904D02*
X150561904Y-96566666D01*
X150866666Y-96833333D01*
X150866666Y-96719047D01*
X150904761Y-96642857D01*
X150942857Y-96604761D01*
X151019047Y-96566666D01*
X151209523Y-96566666D01*
X151285714Y-96604761D01*
X151323809Y-96642857D01*
X151361904Y-96719047D01*
X151361904Y-96947619D01*
X151323809Y-97023809D01*
X151285714Y-97061904D01*
X119733333Y-101561904D02*
X119733333Y-102133333D01*
X119695238Y-102247619D01*
X119619047Y-102323809D01*
X119504761Y-102361904D01*
X119428571Y-102361904D01*
X120457142Y-101828571D02*
X120457142Y-102361904D01*
X120266666Y-101523809D02*
X120076190Y-102095238D01*
X120571428Y-102095238D01*
X195290476Y-98061904D02*
X195290476Y-98709523D01*
X195328571Y-98785714D01*
X195366666Y-98823809D01*
X195442857Y-98861904D01*
X195595238Y-98861904D01*
X195671428Y-98823809D01*
X195709523Y-98785714D01*
X195747619Y-98709523D01*
X195747619Y-98061904D01*
X196547619Y-98861904D02*
X196090476Y-98861904D01*
X196319047Y-98861904D02*
X196319047Y-98061904D01*
X196242857Y-98176190D01*
X196166666Y-98252380D01*
X196090476Y-98290476D01*
X159561904Y-118609523D02*
X160133333Y-118609523D01*
X160247619Y-118647619D01*
X160323809Y-118723809D01*
X160361904Y-118838095D01*
X160361904Y-118914285D01*
X160133333Y-118266666D02*
X160133333Y-117885714D01*
X160361904Y-118342857D02*
X159561904Y-118076190D01*
X160361904Y-117809523D01*
X159638095Y-117580952D02*
X159600000Y-117542857D01*
X159561904Y-117466666D01*
X159561904Y-117276190D01*
X159600000Y-117200000D01*
X159638095Y-117161904D01*
X159714285Y-117123809D01*
X159790476Y-117123809D01*
X159904761Y-117161904D01*
X160361904Y-117619047D01*
X160361904Y-117123809D01*
X221361904Y-123764285D02*
X220980952Y-124030952D01*
X221361904Y-124221428D02*
X220561904Y-124221428D01*
X220561904Y-123916666D01*
X220600000Y-123840476D01*
X220638095Y-123802380D01*
X220714285Y-123764285D01*
X220828571Y-123764285D01*
X220904761Y-123802380D01*
X220942857Y-123840476D01*
X220980952Y-123916666D01*
X220980952Y-124221428D01*
X220638095Y-123459523D02*
X220600000Y-123421428D01*
X220561904Y-123345238D01*
X220561904Y-123154761D01*
X220600000Y-123078571D01*
X220638095Y-123040476D01*
X220714285Y-123002380D01*
X220790476Y-123002380D01*
X220904761Y-123040476D01*
X221361904Y-123497619D01*
X221361904Y-123002380D01*
X220828571Y-122316666D02*
X221361904Y-122316666D01*
X220523809Y-122507142D02*
X221095238Y-122697619D01*
X221095238Y-122202380D01*
D17*
X133890476Y-101061904D02*
X133890476Y-101709523D01*
X133928571Y-101785714D01*
X133966666Y-101823809D01*
X134042857Y-101861904D01*
X134195238Y-101861904D01*
X134271428Y-101823809D01*
X134309523Y-101785714D01*
X134347619Y-101709523D01*
X134347619Y-101061904D01*
X135109523Y-101061904D02*
X134728571Y-101061904D01*
X134690476Y-101442857D01*
X134728571Y-101404761D01*
X134804761Y-101366666D01*
X134995238Y-101366666D01*
X135071428Y-101404761D01*
X135109523Y-101442857D01*
X135147619Y-101519047D01*
X135147619Y-101709523D01*
X135109523Y-101785714D01*
X135071428Y-101823809D01*
X134995238Y-101861904D01*
X134804761Y-101861904D01*
X134728571Y-101823809D01*
X134690476Y-101785714D01*
D10*
X180061904Y-113666666D02*
X180633333Y-113666666D01*
X180747619Y-113704761D01*
X180823809Y-113780952D01*
X180861904Y-113895238D01*
X180861904Y-113971428D01*
X180861904Y-113285714D02*
X180061904Y-113285714D01*
X180061904Y-112980952D01*
X180100000Y-112904761D01*
X180138095Y-112866666D01*
X180214285Y-112828571D01*
X180328571Y-112828571D01*
X180404761Y-112866666D01*
X180442857Y-112904761D01*
X180480952Y-112980952D01*
X180480952Y-113285714D01*
X180861904Y-112066666D02*
X180861904Y-112523809D01*
X180861904Y-112295238D02*
X180061904Y-112295238D01*
X180176190Y-112371428D01*
X180252380Y-112447619D01*
X180290476Y-112523809D01*
X190811904Y-112014285D02*
X190430952Y-112280952D01*
X190811904Y-112471428D02*
X190011904Y-112471428D01*
X190011904Y-112166666D01*
X190050000Y-112090476D01*
X190088095Y-112052380D01*
X190164285Y-112014285D01*
X190278571Y-112014285D01*
X190354761Y-112052380D01*
X190392857Y-112090476D01*
X190430952Y-112166666D01*
X190430952Y-112471428D01*
X190811904Y-111252380D02*
X190811904Y-111709523D01*
X190811904Y-111480952D02*
X190011904Y-111480952D01*
X190126190Y-111557142D01*
X190202380Y-111633333D01*
X190240476Y-111709523D01*
X190011904Y-110528571D02*
X190011904Y-110909523D01*
X190392857Y-110947619D01*
X190354761Y-110909523D01*
X190316666Y-110833333D01*
X190316666Y-110642857D01*
X190354761Y-110566666D01*
X190392857Y-110528571D01*
X190469047Y-110490476D01*
X190659523Y-110490476D01*
X190735714Y-110528571D01*
X190773809Y-110566666D01*
X190811904Y-110642857D01*
X190811904Y-110833333D01*
X190773809Y-110909523D01*
X190735714Y-110947619D01*
X163390476Y-101561904D02*
X163390476Y-102209523D01*
X163428571Y-102285714D01*
X163466666Y-102323809D01*
X163542857Y-102361904D01*
X163695238Y-102361904D01*
X163771428Y-102323809D01*
X163809523Y-102285714D01*
X163847619Y-102209523D01*
X163847619Y-101561904D01*
X164190476Y-101638095D02*
X164228571Y-101600000D01*
X164304761Y-101561904D01*
X164495238Y-101561904D01*
X164571428Y-101600000D01*
X164609523Y-101638095D01*
X164647619Y-101714285D01*
X164647619Y-101790476D01*
X164609523Y-101904761D01*
X164152380Y-102361904D01*
X164647619Y-102361904D01*
X159661904Y-95266666D02*
X160233333Y-95266666D01*
X160347619Y-95304761D01*
X160423809Y-95380952D01*
X160461904Y-95495238D01*
X160461904Y-95571428D01*
X160042857Y-94619047D02*
X160080952Y-94504761D01*
X160119047Y-94466666D01*
X160195238Y-94428571D01*
X160309523Y-94428571D01*
X160385714Y-94466666D01*
X160423809Y-94504761D01*
X160461904Y-94580952D01*
X160461904Y-94885714D01*
X159661904Y-94885714D01*
X159661904Y-94619047D01*
X159700000Y-94542857D01*
X159738095Y-94504761D01*
X159814285Y-94466666D01*
X159890476Y-94466666D01*
X159966666Y-94504761D01*
X160004761Y-94542857D01*
X160042857Y-94619047D01*
X160042857Y-94885714D01*
X159738095Y-94123809D02*
X159700000Y-94085714D01*
X159661904Y-94009523D01*
X159661904Y-93819047D01*
X159700000Y-93742857D01*
X159738095Y-93704761D01*
X159814285Y-93666666D01*
X159890476Y-93666666D01*
X160004761Y-93704761D01*
X160461904Y-94161904D01*
X160461904Y-93666666D01*
X166890476Y-120061904D02*
X166890476Y-120709523D01*
X166928571Y-120785714D01*
X166966666Y-120823809D01*
X167042857Y-120861904D01*
X167195238Y-120861904D01*
X167271428Y-120823809D01*
X167309523Y-120785714D01*
X167347619Y-120709523D01*
X167347619Y-120061904D01*
X168071428Y-120061904D02*
X167919047Y-120061904D01*
X167842857Y-120100000D01*
X167804761Y-120138095D01*
X167728571Y-120252380D01*
X167690476Y-120404761D01*
X167690476Y-120709523D01*
X167728571Y-120785714D01*
X167766666Y-120823809D01*
X167842857Y-120861904D01*
X167995238Y-120861904D01*
X168071428Y-120823809D01*
X168109523Y-120785714D01*
X168147619Y-120709523D01*
X168147619Y-120519047D01*
X168109523Y-120442857D01*
X168071428Y-120404761D01*
X167995238Y-120366666D01*
X167842857Y-120366666D01*
X167766666Y-120404761D01*
X167728571Y-120442857D01*
X167690476Y-120519047D01*
X175390476Y-100561904D02*
X175390476Y-101209523D01*
X175428571Y-101285714D01*
X175466666Y-101323809D01*
X175542857Y-101361904D01*
X175695238Y-101361904D01*
X175771428Y-101323809D01*
X175809523Y-101285714D01*
X175847619Y-101209523D01*
X175847619Y-100561904D01*
X176571428Y-100828571D02*
X176571428Y-101361904D01*
X176380952Y-100523809D02*
X176190476Y-101095238D01*
X176685714Y-101095238D01*
X166966666Y-123311904D02*
X167423809Y-123311904D01*
X167195238Y-124111904D02*
X167195238Y-123311904D01*
X167690476Y-124111904D02*
X167690476Y-123311904D01*
X167995238Y-123311904D01*
X168071428Y-123350000D01*
X168109523Y-123388095D01*
X168147619Y-123464285D01*
X168147619Y-123578571D01*
X168109523Y-123654761D01*
X168071428Y-123692857D01*
X167995238Y-123730952D01*
X167690476Y-123730952D01*
X168300000Y-124188095D02*
X168909523Y-124188095D01*
X169519047Y-123350000D02*
X169442857Y-123311904D01*
X169328571Y-123311904D01*
X169214285Y-123350000D01*
X169138095Y-123426190D01*
X169100000Y-123502380D01*
X169061904Y-123654761D01*
X169061904Y-123769047D01*
X169100000Y-123921428D01*
X169138095Y-123997619D01*
X169214285Y-124073809D01*
X169328571Y-124111904D01*
X169404761Y-124111904D01*
X169519047Y-124073809D01*
X169557142Y-124035714D01*
X169557142Y-123769047D01*
X169404761Y-123769047D01*
X169900000Y-124111904D02*
X169900000Y-123311904D01*
X170357142Y-124111904D01*
X170357142Y-123311904D01*
X170738095Y-124111904D02*
X170738095Y-123311904D01*
X170928571Y-123311904D01*
X171042857Y-123350000D01*
X171119047Y-123426190D01*
X171157142Y-123502380D01*
X171195238Y-123654761D01*
X171195238Y-123769047D01*
X171157142Y-123921428D01*
X171119047Y-123997619D01*
X171042857Y-124073809D01*
X170928571Y-124111904D01*
X170738095Y-124111904D01*
X171957142Y-124111904D02*
X171500000Y-124111904D01*
X171728571Y-124111904D02*
X171728571Y-123311904D01*
X171652380Y-123426190D01*
X171576190Y-123502380D01*
X171500000Y-123540476D01*
X148490476Y-108561904D02*
X148947619Y-108561904D01*
X148719047Y-109361904D02*
X148719047Y-108561904D01*
X149214285Y-109361904D02*
X149214285Y-108561904D01*
X149519047Y-108561904D01*
X149595238Y-108600000D01*
X149633333Y-108638095D01*
X149671428Y-108714285D01*
X149671428Y-108828571D01*
X149633333Y-108904761D01*
X149595238Y-108942857D01*
X149519047Y-108980952D01*
X149214285Y-108980952D01*
X150357142Y-108828571D02*
X150357142Y-109361904D01*
X150166666Y-108523809D02*
X149976190Y-109095238D01*
X150471428Y-109095238D01*
X148490476Y-110061904D02*
X148947619Y-110061904D01*
X148719047Y-110861904D02*
X148719047Y-110061904D01*
X149214285Y-110861904D02*
X149214285Y-110061904D01*
X149519047Y-110061904D01*
X149595238Y-110100000D01*
X149633333Y-110138095D01*
X149671428Y-110214285D01*
X149671428Y-110328571D01*
X149633333Y-110404761D01*
X149595238Y-110442857D01*
X149519047Y-110480952D01*
X149214285Y-110480952D01*
X149938095Y-110061904D02*
X150433333Y-110061904D01*
X150166666Y-110366666D01*
X150280952Y-110366666D01*
X150357142Y-110404761D01*
X150395238Y-110442857D01*
X150433333Y-110519047D01*
X150433333Y-110709523D01*
X150395238Y-110785714D01*
X150357142Y-110823809D01*
X150280952Y-110861904D01*
X150052380Y-110861904D01*
X149976190Y-110823809D01*
X149938095Y-110785714D01*
X192690476Y-114611904D02*
X193147619Y-114611904D01*
X192919047Y-115411904D02*
X192919047Y-114611904D01*
X193414285Y-115411904D02*
X193414285Y-114611904D01*
X193719047Y-114611904D01*
X193795238Y-114650000D01*
X193833333Y-114688095D01*
X193871428Y-114764285D01*
X193871428Y-114878571D01*
X193833333Y-114954761D01*
X193795238Y-114992857D01*
X193719047Y-115030952D01*
X193414285Y-115030952D01*
X194176190Y-114688095D02*
X194214285Y-114650000D01*
X194290476Y-114611904D01*
X194480952Y-114611904D01*
X194557142Y-114650000D01*
X194595238Y-114688095D01*
X194633333Y-114764285D01*
X194633333Y-114840476D01*
X194595238Y-114954761D01*
X194138095Y-115411904D01*
X194633333Y-115411904D01*
X186990476Y-123061904D02*
X187447619Y-123061904D01*
X187219047Y-123861904D02*
X187219047Y-123061904D01*
X187714285Y-123861904D02*
X187714285Y-123061904D01*
X188019047Y-123061904D01*
X188095238Y-123100000D01*
X188133333Y-123138095D01*
X188171428Y-123214285D01*
X188171428Y-123328571D01*
X188133333Y-123404761D01*
X188095238Y-123442857D01*
X188019047Y-123480952D01*
X187714285Y-123480952D01*
X188933333Y-123861904D02*
X188476190Y-123861904D01*
X188704761Y-123861904D02*
X188704761Y-123061904D01*
X188628571Y-123176190D01*
X188552380Y-123252380D01*
X188476190Y-123290476D01*
X205861904Y-123764285D02*
X205480952Y-124030952D01*
X205861904Y-124221428D02*
X205061904Y-124221428D01*
X205061904Y-123916666D01*
X205100000Y-123840476D01*
X205138095Y-123802380D01*
X205214285Y-123764285D01*
X205328571Y-123764285D01*
X205404761Y-123802380D01*
X205442857Y-123840476D01*
X205480952Y-123916666D01*
X205480952Y-124221428D01*
X205861904Y-123002380D02*
X205861904Y-123459523D01*
X205861904Y-123230952D02*
X205061904Y-123230952D01*
X205176190Y-123307142D01*
X205252380Y-123383333D01*
X205290476Y-123459523D01*
X205138095Y-122697619D02*
X205100000Y-122659523D01*
X205061904Y-122583333D01*
X205061904Y-122392857D01*
X205100000Y-122316666D01*
X205138095Y-122278571D01*
X205214285Y-122240476D01*
X205290476Y-122240476D01*
X205404761Y-122278571D01*
X205861904Y-122735714D01*
X205861904Y-122240476D01*
X173485714Y-114861904D02*
X173219047Y-114480952D01*
X173028571Y-114861904D02*
X173028571Y-114061904D01*
X173333333Y-114061904D01*
X173409523Y-114100000D01*
X173447619Y-114138095D01*
X173485714Y-114214285D01*
X173485714Y-114328571D01*
X173447619Y-114404761D01*
X173409523Y-114442857D01*
X173333333Y-114480952D01*
X173028571Y-114480952D01*
X174171428Y-114328571D02*
X174171428Y-114861904D01*
X173980952Y-114023809D02*
X173790476Y-114595238D01*
X174285714Y-114595238D01*
X174514285Y-114061904D02*
X175009523Y-114061904D01*
X174742857Y-114366666D01*
X174857142Y-114366666D01*
X174933333Y-114404761D01*
X174971428Y-114442857D01*
X175009523Y-114519047D01*
X175009523Y-114709523D01*
X174971428Y-114785714D01*
X174933333Y-114823809D01*
X174857142Y-114861904D01*
X174628571Y-114861904D01*
X174552380Y-114823809D01*
X174514285Y-114785714D01*
X212361904Y-92145238D02*
X212361904Y-92526190D01*
X211561904Y-92526190D01*
X211942857Y-91878571D02*
X211942857Y-91611904D01*
X212361904Y-91497619D02*
X212361904Y-91878571D01*
X211561904Y-91878571D01*
X211561904Y-91497619D01*
X212361904Y-91154761D02*
X211561904Y-91154761D01*
X211561904Y-90964285D01*
X211600000Y-90850000D01*
X211676190Y-90773809D01*
X211752380Y-90735714D01*
X211904761Y-90697619D01*
X212019047Y-90697619D01*
X212171428Y-90735714D01*
X212247619Y-90773809D01*
X212323809Y-90850000D01*
X212361904Y-90964285D01*
X212361904Y-91154761D01*
X212361904Y-89935714D02*
X212361904Y-90392857D01*
X212361904Y-90164285D02*
X211561904Y-90164285D01*
X211676190Y-90240476D01*
X211752380Y-90316666D01*
X211790476Y-90392857D01*
X147485714Y-101361904D02*
X147219047Y-100980952D01*
X147028571Y-101361904D02*
X147028571Y-100561904D01*
X147333333Y-100561904D01*
X147409523Y-100600000D01*
X147447619Y-100638095D01*
X147485714Y-100714285D01*
X147485714Y-100828571D01*
X147447619Y-100904761D01*
X147409523Y-100942857D01*
X147333333Y-100980952D01*
X147028571Y-100980952D01*
X148171428Y-100561904D02*
X148019047Y-100561904D01*
X147942857Y-100600000D01*
X147904761Y-100638095D01*
X147828571Y-100752380D01*
X147790476Y-100904761D01*
X147790476Y-101209523D01*
X147828571Y-101285714D01*
X147866666Y-101323809D01*
X147942857Y-101361904D01*
X148095238Y-101361904D01*
X148171428Y-101323809D01*
X148209523Y-101285714D01*
X148247619Y-101209523D01*
X148247619Y-101019047D01*
X148209523Y-100942857D01*
X148171428Y-100904761D01*
X148095238Y-100866666D01*
X147942857Y-100866666D01*
X147866666Y-100904761D01*
X147828571Y-100942857D01*
X147790476Y-101019047D01*
X148514285Y-100561904D02*
X149047619Y-100561904D01*
X148704761Y-101361904D01*
X180861904Y-124014285D02*
X180480952Y-124280952D01*
X180861904Y-124471428D02*
X180061904Y-124471428D01*
X180061904Y-124166666D01*
X180100000Y-124090476D01*
X180138095Y-124052380D01*
X180214285Y-124014285D01*
X180328571Y-124014285D01*
X180404761Y-124052380D01*
X180442857Y-124090476D01*
X180480952Y-124166666D01*
X180480952Y-124471428D01*
X180061904Y-123747619D02*
X180061904Y-123214285D01*
X180861904Y-123557142D01*
X180061904Y-122985714D02*
X180061904Y-122490476D01*
X180366666Y-122757142D01*
X180366666Y-122642857D01*
X180404761Y-122566666D01*
X180442857Y-122528571D01*
X180519047Y-122490476D01*
X180709523Y-122490476D01*
X180785714Y-122528571D01*
X180823809Y-122566666D01*
X180861904Y-122642857D01*
X180861904Y-122871428D01*
X180823809Y-122947619D01*
X180785714Y-122985714D01*
X179361904Y-124014285D02*
X178980952Y-124280952D01*
X179361904Y-124471428D02*
X178561904Y-124471428D01*
X178561904Y-124166666D01*
X178600000Y-124090476D01*
X178638095Y-124052380D01*
X178714285Y-124014285D01*
X178828571Y-124014285D01*
X178904761Y-124052380D01*
X178942857Y-124090476D01*
X178980952Y-124166666D01*
X178980952Y-124471428D01*
X178561904Y-123747619D02*
X178561904Y-123214285D01*
X179361904Y-123557142D01*
X178638095Y-122947619D02*
X178600000Y-122909523D01*
X178561904Y-122833333D01*
X178561904Y-122642857D01*
X178600000Y-122566666D01*
X178638095Y-122528571D01*
X178714285Y-122490476D01*
X178790476Y-122490476D01*
X178904761Y-122528571D01*
X179361904Y-122985714D01*
X179361904Y-122490476D01*
X127985714Y-102361904D02*
X127719047Y-101980952D01*
X127528571Y-102361904D02*
X127528571Y-101561904D01*
X127833333Y-101561904D01*
X127909523Y-101600000D01*
X127947619Y-101638095D01*
X127985714Y-101714285D01*
X127985714Y-101828571D01*
X127947619Y-101904761D01*
X127909523Y-101942857D01*
X127833333Y-101980952D01*
X127528571Y-101980952D01*
X128252380Y-101561904D02*
X128785714Y-101561904D01*
X128442857Y-102361904D01*
X129509523Y-102361904D02*
X129052380Y-102361904D01*
X129280952Y-102361904D02*
X129280952Y-101561904D01*
X129204761Y-101676190D01*
X129128571Y-101752380D01*
X129052380Y-101790476D01*
X121861904Y-98514285D02*
X121480952Y-98780952D01*
X121861904Y-98971428D02*
X121061904Y-98971428D01*
X121061904Y-98666666D01*
X121100000Y-98590476D01*
X121138095Y-98552380D01*
X121214285Y-98514285D01*
X121328571Y-98514285D01*
X121404761Y-98552380D01*
X121442857Y-98590476D01*
X121480952Y-98666666D01*
X121480952Y-98971428D01*
X121061904Y-98247619D02*
X121061904Y-97714285D01*
X121861904Y-98057142D01*
X121061904Y-97257142D02*
X121061904Y-97180952D01*
X121100000Y-97104761D01*
X121138095Y-97066666D01*
X121214285Y-97028571D01*
X121366666Y-96990476D01*
X121557142Y-96990476D01*
X121709523Y-97028571D01*
X121785714Y-97066666D01*
X121823809Y-97104761D01*
X121861904Y-97180952D01*
X121861904Y-97257142D01*
X121823809Y-97333333D01*
X121785714Y-97371428D01*
X121709523Y-97409523D01*
X121557142Y-97447619D01*
X121366666Y-97447619D01*
X121214285Y-97409523D01*
X121138095Y-97371428D01*
X121100000Y-97333333D01*
X121061904Y-97257142D01*
X142361904Y-114014285D02*
X141980952Y-114280952D01*
X142361904Y-114471428D02*
X141561904Y-114471428D01*
X141561904Y-114166666D01*
X141600000Y-114090476D01*
X141638095Y-114052380D01*
X141714285Y-114014285D01*
X141828571Y-114014285D01*
X141904761Y-114052380D01*
X141942857Y-114090476D01*
X141980952Y-114166666D01*
X141980952Y-114471428D01*
X141561904Y-113328571D02*
X141561904Y-113480952D01*
X141600000Y-113557142D01*
X141638095Y-113595238D01*
X141752380Y-113671428D01*
X141904761Y-113709523D01*
X142209523Y-113709523D01*
X142285714Y-113671428D01*
X142323809Y-113633333D01*
X142361904Y-113557142D01*
X142361904Y-113404761D01*
X142323809Y-113328571D01*
X142285714Y-113290476D01*
X142209523Y-113252380D01*
X142019047Y-113252380D01*
X141942857Y-113290476D01*
X141904761Y-113328571D01*
X141866666Y-113404761D01*
X141866666Y-113557142D01*
X141904761Y-113633333D01*
X141942857Y-113671428D01*
X142019047Y-113709523D01*
X142361904Y-112871428D02*
X142361904Y-112719047D01*
X142323809Y-112642857D01*
X142285714Y-112604761D01*
X142171428Y-112528571D01*
X142019047Y-112490476D01*
X141714285Y-112490476D01*
X141638095Y-112528571D01*
X141600000Y-112566666D01*
X141561904Y-112642857D01*
X141561904Y-112795238D01*
X141600000Y-112871428D01*
X141638095Y-112909523D01*
X141714285Y-112947619D01*
X141904761Y-112947619D01*
X141980952Y-112909523D01*
X142019047Y-112871428D01*
X142057142Y-112795238D01*
X142057142Y-112642857D01*
X142019047Y-112566666D01*
X141980952Y-112528571D01*
X141904761Y-112490476D01*
X151861904Y-110014285D02*
X151480952Y-110280952D01*
X151861904Y-110471428D02*
X151061904Y-110471428D01*
X151061904Y-110166666D01*
X151100000Y-110090476D01*
X151138095Y-110052380D01*
X151214285Y-110014285D01*
X151328571Y-110014285D01*
X151404761Y-110052380D01*
X151442857Y-110090476D01*
X151480952Y-110166666D01*
X151480952Y-110471428D01*
X151061904Y-109328571D02*
X151061904Y-109480952D01*
X151100000Y-109557142D01*
X151138095Y-109595238D01*
X151252380Y-109671428D01*
X151404761Y-109709523D01*
X151709523Y-109709523D01*
X151785714Y-109671428D01*
X151823809Y-109633333D01*
X151861904Y-109557142D01*
X151861904Y-109404761D01*
X151823809Y-109328571D01*
X151785714Y-109290476D01*
X151709523Y-109252380D01*
X151519047Y-109252380D01*
X151442857Y-109290476D01*
X151404761Y-109328571D01*
X151366666Y-109404761D01*
X151366666Y-109557142D01*
X151404761Y-109633333D01*
X151442857Y-109671428D01*
X151519047Y-109709523D01*
X151404761Y-108795238D02*
X151366666Y-108871428D01*
X151328571Y-108909523D01*
X151252380Y-108947619D01*
X151214285Y-108947619D01*
X151138095Y-108909523D01*
X151100000Y-108871428D01*
X151061904Y-108795238D01*
X151061904Y-108642857D01*
X151100000Y-108566666D01*
X151138095Y-108528571D01*
X151214285Y-108490476D01*
X151252380Y-108490476D01*
X151328571Y-108528571D01*
X151366666Y-108566666D01*
X151404761Y-108642857D01*
X151404761Y-108795238D01*
X151442857Y-108871428D01*
X151480952Y-108909523D01*
X151557142Y-108947619D01*
X151709523Y-108947619D01*
X151785714Y-108909523D01*
X151823809Y-108871428D01*
X151861904Y-108795238D01*
X151861904Y-108642857D01*
X151823809Y-108566666D01*
X151785714Y-108528571D01*
X151709523Y-108490476D01*
X151557142Y-108490476D01*
X151480952Y-108528571D01*
X151442857Y-108566666D01*
X151404761Y-108642857D01*
X147485714Y-102861904D02*
X147219047Y-102480952D01*
X147028571Y-102861904D02*
X147028571Y-102061904D01*
X147333333Y-102061904D01*
X147409523Y-102100000D01*
X147447619Y-102138095D01*
X147485714Y-102214285D01*
X147485714Y-102328571D01*
X147447619Y-102404761D01*
X147409523Y-102442857D01*
X147333333Y-102480952D01*
X147028571Y-102480952D01*
X148171428Y-102061904D02*
X148019047Y-102061904D01*
X147942857Y-102100000D01*
X147904761Y-102138095D01*
X147828571Y-102252380D01*
X147790476Y-102404761D01*
X147790476Y-102709523D01*
X147828571Y-102785714D01*
X147866666Y-102823809D01*
X147942857Y-102861904D01*
X148095238Y-102861904D01*
X148171428Y-102823809D01*
X148209523Y-102785714D01*
X148247619Y-102709523D01*
X148247619Y-102519047D01*
X148209523Y-102442857D01*
X148171428Y-102404761D01*
X148095238Y-102366666D01*
X147942857Y-102366666D01*
X147866666Y-102404761D01*
X147828571Y-102442857D01*
X147790476Y-102519047D01*
X148933333Y-102061904D02*
X148780952Y-102061904D01*
X148704761Y-102100000D01*
X148666666Y-102138095D01*
X148590476Y-102252380D01*
X148552380Y-102404761D01*
X148552380Y-102709523D01*
X148590476Y-102785714D01*
X148628571Y-102823809D01*
X148704761Y-102861904D01*
X148857142Y-102861904D01*
X148933333Y-102823809D01*
X148971428Y-102785714D01*
X149009523Y-102709523D01*
X149009523Y-102519047D01*
X148971428Y-102442857D01*
X148933333Y-102404761D01*
X148857142Y-102366666D01*
X148704761Y-102366666D01*
X148628571Y-102404761D01*
X148590476Y-102442857D01*
X148552380Y-102519047D01*
X147485714Y-107861904D02*
X147219047Y-107480952D01*
X147028571Y-107861904D02*
X147028571Y-107061904D01*
X147333333Y-107061904D01*
X147409523Y-107100000D01*
X147447619Y-107138095D01*
X147485714Y-107214285D01*
X147485714Y-107328571D01*
X147447619Y-107404761D01*
X147409523Y-107442857D01*
X147333333Y-107480952D01*
X147028571Y-107480952D01*
X148171428Y-107061904D02*
X148019047Y-107061904D01*
X147942857Y-107100000D01*
X147904761Y-107138095D01*
X147828571Y-107252380D01*
X147790476Y-107404761D01*
X147790476Y-107709523D01*
X147828571Y-107785714D01*
X147866666Y-107823809D01*
X147942857Y-107861904D01*
X148095238Y-107861904D01*
X148171428Y-107823809D01*
X148209523Y-107785714D01*
X148247619Y-107709523D01*
X148247619Y-107519047D01*
X148209523Y-107442857D01*
X148171428Y-107404761D01*
X148095238Y-107366666D01*
X147942857Y-107366666D01*
X147866666Y-107404761D01*
X147828571Y-107442857D01*
X147790476Y-107519047D01*
X148971428Y-107061904D02*
X148590476Y-107061904D01*
X148552380Y-107442857D01*
X148590476Y-107404761D01*
X148666666Y-107366666D01*
X148857142Y-107366666D01*
X148933333Y-107404761D01*
X148971428Y-107442857D01*
X149009523Y-107519047D01*
X149009523Y-107709523D01*
X148971428Y-107785714D01*
X148933333Y-107823809D01*
X148857142Y-107861904D01*
X148666666Y-107861904D01*
X148590476Y-107823809D01*
X148552380Y-107785714D01*
X140861904Y-114014285D02*
X140480952Y-114280952D01*
X140861904Y-114471428D02*
X140061904Y-114471428D01*
X140061904Y-114166666D01*
X140100000Y-114090476D01*
X140138095Y-114052380D01*
X140214285Y-114014285D01*
X140328571Y-114014285D01*
X140404761Y-114052380D01*
X140442857Y-114090476D01*
X140480952Y-114166666D01*
X140480952Y-114471428D01*
X140061904Y-113328571D02*
X140061904Y-113480952D01*
X140100000Y-113557142D01*
X140138095Y-113595238D01*
X140252380Y-113671428D01*
X140404761Y-113709523D01*
X140709523Y-113709523D01*
X140785714Y-113671428D01*
X140823809Y-113633333D01*
X140861904Y-113557142D01*
X140861904Y-113404761D01*
X140823809Y-113328571D01*
X140785714Y-113290476D01*
X140709523Y-113252380D01*
X140519047Y-113252380D01*
X140442857Y-113290476D01*
X140404761Y-113328571D01*
X140366666Y-113404761D01*
X140366666Y-113557142D01*
X140404761Y-113633333D01*
X140442857Y-113671428D01*
X140519047Y-113709523D01*
X140328571Y-112566666D02*
X140861904Y-112566666D01*
X140023809Y-112757142D02*
X140595238Y-112947619D01*
X140595238Y-112452380D01*
X126485714Y-106361904D02*
X126219047Y-105980952D01*
X126028571Y-106361904D02*
X126028571Y-105561904D01*
X126333333Y-105561904D01*
X126409523Y-105600000D01*
X126447619Y-105638095D01*
X126485714Y-105714285D01*
X126485714Y-105828571D01*
X126447619Y-105904761D01*
X126409523Y-105942857D01*
X126333333Y-105980952D01*
X126028571Y-105980952D01*
X127171428Y-105561904D02*
X127019047Y-105561904D01*
X126942857Y-105600000D01*
X126904761Y-105638095D01*
X126828571Y-105752380D01*
X126790476Y-105904761D01*
X126790476Y-106209523D01*
X126828571Y-106285714D01*
X126866666Y-106323809D01*
X126942857Y-106361904D01*
X127095238Y-106361904D01*
X127171428Y-106323809D01*
X127209523Y-106285714D01*
X127247619Y-106209523D01*
X127247619Y-106019047D01*
X127209523Y-105942857D01*
X127171428Y-105904761D01*
X127095238Y-105866666D01*
X126942857Y-105866666D01*
X126866666Y-105904761D01*
X126828571Y-105942857D01*
X126790476Y-106019047D01*
X127514285Y-105561904D02*
X128009523Y-105561904D01*
X127742857Y-105866666D01*
X127857142Y-105866666D01*
X127933333Y-105904761D01*
X127971428Y-105942857D01*
X128009523Y-106019047D01*
X128009523Y-106209523D01*
X127971428Y-106285714D01*
X127933333Y-106323809D01*
X127857142Y-106361904D01*
X127628571Y-106361904D01*
X127552380Y-106323809D01*
X127514285Y-106285714D01*
X139361904Y-114014285D02*
X138980952Y-114280952D01*
X139361904Y-114471428D02*
X138561904Y-114471428D01*
X138561904Y-114166666D01*
X138600000Y-114090476D01*
X138638095Y-114052380D01*
X138714285Y-114014285D01*
X138828571Y-114014285D01*
X138904761Y-114052380D01*
X138942857Y-114090476D01*
X138980952Y-114166666D01*
X138980952Y-114471428D01*
X138561904Y-113328571D02*
X138561904Y-113480952D01*
X138600000Y-113557142D01*
X138638095Y-113595238D01*
X138752380Y-113671428D01*
X138904761Y-113709523D01*
X139209523Y-113709523D01*
X139285714Y-113671428D01*
X139323809Y-113633333D01*
X139361904Y-113557142D01*
X139361904Y-113404761D01*
X139323809Y-113328571D01*
X139285714Y-113290476D01*
X139209523Y-113252380D01*
X139019047Y-113252380D01*
X138942857Y-113290476D01*
X138904761Y-113328571D01*
X138866666Y-113404761D01*
X138866666Y-113557142D01*
X138904761Y-113633333D01*
X138942857Y-113671428D01*
X139019047Y-113709523D01*
X138638095Y-112947619D02*
X138600000Y-112909523D01*
X138561904Y-112833333D01*
X138561904Y-112642857D01*
X138600000Y-112566666D01*
X138638095Y-112528571D01*
X138714285Y-112490476D01*
X138790476Y-112490476D01*
X138904761Y-112528571D01*
X139361904Y-112985714D01*
X139361904Y-112490476D01*
X126485714Y-104861904D02*
X126219047Y-104480952D01*
X126028571Y-104861904D02*
X126028571Y-104061904D01*
X126333333Y-104061904D01*
X126409523Y-104100000D01*
X126447619Y-104138095D01*
X126485714Y-104214285D01*
X126485714Y-104328571D01*
X126447619Y-104404761D01*
X126409523Y-104442857D01*
X126333333Y-104480952D01*
X126028571Y-104480952D01*
X127171428Y-104061904D02*
X127019047Y-104061904D01*
X126942857Y-104100000D01*
X126904761Y-104138095D01*
X126828571Y-104252380D01*
X126790476Y-104404761D01*
X126790476Y-104709523D01*
X126828571Y-104785714D01*
X126866666Y-104823809D01*
X126942857Y-104861904D01*
X127095238Y-104861904D01*
X127171428Y-104823809D01*
X127209523Y-104785714D01*
X127247619Y-104709523D01*
X127247619Y-104519047D01*
X127209523Y-104442857D01*
X127171428Y-104404761D01*
X127095238Y-104366666D01*
X126942857Y-104366666D01*
X126866666Y-104404761D01*
X126828571Y-104442857D01*
X126790476Y-104519047D01*
X128009523Y-104861904D02*
X127552380Y-104861904D01*
X127780952Y-104861904D02*
X127780952Y-104061904D01*
X127704761Y-104176190D01*
X127628571Y-104252380D01*
X127552380Y-104290476D01*
X137861904Y-114014285D02*
X137480952Y-114280952D01*
X137861904Y-114471428D02*
X137061904Y-114471428D01*
X137061904Y-114166666D01*
X137100000Y-114090476D01*
X137138095Y-114052380D01*
X137214285Y-114014285D01*
X137328571Y-114014285D01*
X137404761Y-114052380D01*
X137442857Y-114090476D01*
X137480952Y-114166666D01*
X137480952Y-114471428D01*
X137061904Y-113328571D02*
X137061904Y-113480952D01*
X137100000Y-113557142D01*
X137138095Y-113595238D01*
X137252380Y-113671428D01*
X137404761Y-113709523D01*
X137709523Y-113709523D01*
X137785714Y-113671428D01*
X137823809Y-113633333D01*
X137861904Y-113557142D01*
X137861904Y-113404761D01*
X137823809Y-113328571D01*
X137785714Y-113290476D01*
X137709523Y-113252380D01*
X137519047Y-113252380D01*
X137442857Y-113290476D01*
X137404761Y-113328571D01*
X137366666Y-113404761D01*
X137366666Y-113557142D01*
X137404761Y-113633333D01*
X137442857Y-113671428D01*
X137519047Y-113709523D01*
X137061904Y-112757142D02*
X137061904Y-112680952D01*
X137100000Y-112604761D01*
X137138095Y-112566666D01*
X137214285Y-112528571D01*
X137366666Y-112490476D01*
X137557142Y-112490476D01*
X137709523Y-112528571D01*
X137785714Y-112566666D01*
X137823809Y-112604761D01*
X137861904Y-112680952D01*
X137861904Y-112757142D01*
X137823809Y-112833333D01*
X137785714Y-112871428D01*
X137709523Y-112909523D01*
X137557142Y-112947619D01*
X137366666Y-112947619D01*
X137214285Y-112909523D01*
X137138095Y-112871428D01*
X137100000Y-112833333D01*
X137061904Y-112757142D01*
X127985714Y-100861904D02*
X127719047Y-100480952D01*
X127528571Y-100861904D02*
X127528571Y-100061904D01*
X127833333Y-100061904D01*
X127909523Y-100100000D01*
X127947619Y-100138095D01*
X127985714Y-100214285D01*
X127985714Y-100328571D01*
X127947619Y-100404761D01*
X127909523Y-100442857D01*
X127833333Y-100480952D01*
X127528571Y-100480952D01*
X128709523Y-100061904D02*
X128328571Y-100061904D01*
X128290476Y-100442857D01*
X128328571Y-100404761D01*
X128404761Y-100366666D01*
X128595238Y-100366666D01*
X128671428Y-100404761D01*
X128709523Y-100442857D01*
X128747619Y-100519047D01*
X128747619Y-100709523D01*
X128709523Y-100785714D01*
X128671428Y-100823809D01*
X128595238Y-100861904D01*
X128404761Y-100861904D01*
X128328571Y-100823809D01*
X128290476Y-100785714D01*
X129128571Y-100861904D02*
X129280952Y-100861904D01*
X129357142Y-100823809D01*
X129395238Y-100785714D01*
X129471428Y-100671428D01*
X129509523Y-100519047D01*
X129509523Y-100214285D01*
X129471428Y-100138095D01*
X129433333Y-100100000D01*
X129357142Y-100061904D01*
X129204761Y-100061904D01*
X129128571Y-100100000D01*
X129090476Y-100138095D01*
X129052380Y-100214285D01*
X129052380Y-100404761D01*
X129090476Y-100480952D01*
X129128571Y-100519047D01*
X129204761Y-100557142D01*
X129357142Y-100557142D01*
X129433333Y-100519047D01*
X129471428Y-100480952D01*
X129509523Y-100404761D01*
X120361904Y-98514285D02*
X119980952Y-98780952D01*
X120361904Y-98971428D02*
X119561904Y-98971428D01*
X119561904Y-98666666D01*
X119600000Y-98590476D01*
X119638095Y-98552380D01*
X119714285Y-98514285D01*
X119828571Y-98514285D01*
X119904761Y-98552380D01*
X119942857Y-98590476D01*
X119980952Y-98666666D01*
X119980952Y-98971428D01*
X119561904Y-97790476D02*
X119561904Y-98171428D01*
X119942857Y-98209523D01*
X119904761Y-98171428D01*
X119866666Y-98095238D01*
X119866666Y-97904761D01*
X119904761Y-97828571D01*
X119942857Y-97790476D01*
X120019047Y-97752380D01*
X120209523Y-97752380D01*
X120285714Y-97790476D01*
X120323809Y-97828571D01*
X120361904Y-97904761D01*
X120361904Y-98095238D01*
X120323809Y-98171428D01*
X120285714Y-98209523D01*
X119904761Y-97295238D02*
X119866666Y-97371428D01*
X119828571Y-97409523D01*
X119752380Y-97447619D01*
X119714285Y-97447619D01*
X119638095Y-97409523D01*
X119600000Y-97371428D01*
X119561904Y-97295238D01*
X119561904Y-97142857D01*
X119600000Y-97066666D01*
X119638095Y-97028571D01*
X119714285Y-96990476D01*
X119752380Y-96990476D01*
X119828571Y-97028571D01*
X119866666Y-97066666D01*
X119904761Y-97142857D01*
X119904761Y-97295238D01*
X119942857Y-97371428D01*
X119980952Y-97409523D01*
X120057142Y-97447619D01*
X120209523Y-97447619D01*
X120285714Y-97409523D01*
X120323809Y-97371428D01*
X120361904Y-97295238D01*
X120361904Y-97142857D01*
X120323809Y-97066666D01*
X120285714Y-97028571D01*
X120209523Y-96990476D01*
X120057142Y-96990476D01*
X119980952Y-97028571D01*
X119942857Y-97066666D01*
X119904761Y-97142857D01*
X128361904Y-98514285D02*
X127980952Y-98780952D01*
X128361904Y-98971428D02*
X127561904Y-98971428D01*
X127561904Y-98666666D01*
X127600000Y-98590476D01*
X127638095Y-98552380D01*
X127714285Y-98514285D01*
X127828571Y-98514285D01*
X127904761Y-98552380D01*
X127942857Y-98590476D01*
X127980952Y-98666666D01*
X127980952Y-98971428D01*
X127561904Y-97790476D02*
X127561904Y-98171428D01*
X127942857Y-98209523D01*
X127904761Y-98171428D01*
X127866666Y-98095238D01*
X127866666Y-97904761D01*
X127904761Y-97828571D01*
X127942857Y-97790476D01*
X128019047Y-97752380D01*
X128209523Y-97752380D01*
X128285714Y-97790476D01*
X128323809Y-97828571D01*
X128361904Y-97904761D01*
X128361904Y-98095238D01*
X128323809Y-98171428D01*
X128285714Y-98209523D01*
X127561904Y-97485714D02*
X127561904Y-96952380D01*
X128361904Y-97295238D01*
X126485714Y-111861904D02*
X126219047Y-111480952D01*
X126028571Y-111861904D02*
X126028571Y-111061904D01*
X126333333Y-111061904D01*
X126409523Y-111100000D01*
X126447619Y-111138095D01*
X126485714Y-111214285D01*
X126485714Y-111328571D01*
X126447619Y-111404761D01*
X126409523Y-111442857D01*
X126333333Y-111480952D01*
X126028571Y-111480952D01*
X127209523Y-111061904D02*
X126828571Y-111061904D01*
X126790476Y-111442857D01*
X126828571Y-111404761D01*
X126904761Y-111366666D01*
X127095238Y-111366666D01*
X127171428Y-111404761D01*
X127209523Y-111442857D01*
X127247619Y-111519047D01*
X127247619Y-111709523D01*
X127209523Y-111785714D01*
X127171428Y-111823809D01*
X127095238Y-111861904D01*
X126904761Y-111861904D01*
X126828571Y-111823809D01*
X126790476Y-111785714D01*
X127933333Y-111061904D02*
X127780952Y-111061904D01*
X127704761Y-111100000D01*
X127666666Y-111138095D01*
X127590476Y-111252380D01*
X127552380Y-111404761D01*
X127552380Y-111709523D01*
X127590476Y-111785714D01*
X127628571Y-111823809D01*
X127704761Y-111861904D01*
X127857142Y-111861904D01*
X127933333Y-111823809D01*
X127971428Y-111785714D01*
X128009523Y-111709523D01*
X128009523Y-111519047D01*
X127971428Y-111442857D01*
X127933333Y-111404761D01*
X127857142Y-111366666D01*
X127704761Y-111366666D01*
X127628571Y-111404761D01*
X127590476Y-111442857D01*
X127552380Y-111519047D01*
X136361904Y-114014285D02*
X135980952Y-114280952D01*
X136361904Y-114471428D02*
X135561904Y-114471428D01*
X135561904Y-114166666D01*
X135600000Y-114090476D01*
X135638095Y-114052380D01*
X135714285Y-114014285D01*
X135828571Y-114014285D01*
X135904761Y-114052380D01*
X135942857Y-114090476D01*
X135980952Y-114166666D01*
X135980952Y-114471428D01*
X135561904Y-113290476D02*
X135561904Y-113671428D01*
X135942857Y-113709523D01*
X135904761Y-113671428D01*
X135866666Y-113595238D01*
X135866666Y-113404761D01*
X135904761Y-113328571D01*
X135942857Y-113290476D01*
X136019047Y-113252380D01*
X136209523Y-113252380D01*
X136285714Y-113290476D01*
X136323809Y-113328571D01*
X136361904Y-113404761D01*
X136361904Y-113595238D01*
X136323809Y-113671428D01*
X136285714Y-113709523D01*
X135828571Y-112566666D02*
X136361904Y-112566666D01*
X135523809Y-112757142D02*
X136095238Y-112947619D01*
X136095238Y-112452380D01*
X131361904Y-98514285D02*
X130980952Y-98780952D01*
X131361904Y-98971428D02*
X130561904Y-98971428D01*
X130561904Y-98666666D01*
X130600000Y-98590476D01*
X130638095Y-98552380D01*
X130714285Y-98514285D01*
X130828571Y-98514285D01*
X130904761Y-98552380D01*
X130942857Y-98590476D01*
X130980952Y-98666666D01*
X130980952Y-98971428D01*
X130561904Y-97790476D02*
X130561904Y-98171428D01*
X130942857Y-98209523D01*
X130904761Y-98171428D01*
X130866666Y-98095238D01*
X130866666Y-97904761D01*
X130904761Y-97828571D01*
X130942857Y-97790476D01*
X131019047Y-97752380D01*
X131209523Y-97752380D01*
X131285714Y-97790476D01*
X131323809Y-97828571D01*
X131361904Y-97904761D01*
X131361904Y-98095238D01*
X131323809Y-98171428D01*
X131285714Y-98209523D01*
X130561904Y-97485714D02*
X130561904Y-96990476D01*
X130866666Y-97257142D01*
X130866666Y-97142857D01*
X130904761Y-97066666D01*
X130942857Y-97028571D01*
X131019047Y-96990476D01*
X131209523Y-96990476D01*
X131285714Y-97028571D01*
X131323809Y-97066666D01*
X131361904Y-97142857D01*
X131361904Y-97371428D01*
X131323809Y-97447619D01*
X131285714Y-97485714D01*
X130485714Y-114861904D02*
X130219047Y-114480952D01*
X130028571Y-114861904D02*
X130028571Y-114061904D01*
X130333333Y-114061904D01*
X130409523Y-114100000D01*
X130447619Y-114138095D01*
X130485714Y-114214285D01*
X130485714Y-114328571D01*
X130447619Y-114404761D01*
X130409523Y-114442857D01*
X130333333Y-114480952D01*
X130028571Y-114480952D01*
X131209523Y-114061904D02*
X130828571Y-114061904D01*
X130790476Y-114442857D01*
X130828571Y-114404761D01*
X130904761Y-114366666D01*
X131095238Y-114366666D01*
X131171428Y-114404761D01*
X131209523Y-114442857D01*
X131247619Y-114519047D01*
X131247619Y-114709523D01*
X131209523Y-114785714D01*
X131171428Y-114823809D01*
X131095238Y-114861904D01*
X130904761Y-114861904D01*
X130828571Y-114823809D01*
X130790476Y-114785714D01*
X131552380Y-114138095D02*
X131590476Y-114100000D01*
X131666666Y-114061904D01*
X131857142Y-114061904D01*
X131933333Y-114100000D01*
X131971428Y-114138095D01*
X132009523Y-114214285D01*
X132009523Y-114290476D01*
X131971428Y-114404761D01*
X131514285Y-114861904D01*
X132009523Y-114861904D01*
X177861904Y-124014285D02*
X177480952Y-124280952D01*
X177861904Y-124471428D02*
X177061904Y-124471428D01*
X177061904Y-124166666D01*
X177100000Y-124090476D01*
X177138095Y-124052380D01*
X177214285Y-124014285D01*
X177328571Y-124014285D01*
X177404761Y-124052380D01*
X177442857Y-124090476D01*
X177480952Y-124166666D01*
X177480952Y-124471428D01*
X177061904Y-123290476D02*
X177061904Y-123671428D01*
X177442857Y-123709523D01*
X177404761Y-123671428D01*
X177366666Y-123595238D01*
X177366666Y-123404761D01*
X177404761Y-123328571D01*
X177442857Y-123290476D01*
X177519047Y-123252380D01*
X177709523Y-123252380D01*
X177785714Y-123290476D01*
X177823809Y-123328571D01*
X177861904Y-123404761D01*
X177861904Y-123595238D01*
X177823809Y-123671428D01*
X177785714Y-123709523D01*
X177861904Y-122490476D02*
X177861904Y-122947619D01*
X177861904Y-122719047D02*
X177061904Y-122719047D01*
X177176190Y-122795238D01*
X177252380Y-122871428D01*
X177290476Y-122947619D01*
X185485714Y-92861904D02*
X185219047Y-92480952D01*
X185028571Y-92861904D02*
X185028571Y-92061904D01*
X185333333Y-92061904D01*
X185409523Y-92100000D01*
X185447619Y-92138095D01*
X185485714Y-92214285D01*
X185485714Y-92328571D01*
X185447619Y-92404761D01*
X185409523Y-92442857D01*
X185333333Y-92480952D01*
X185028571Y-92480952D01*
X186209523Y-92061904D02*
X185828571Y-92061904D01*
X185790476Y-92442857D01*
X185828571Y-92404761D01*
X185904761Y-92366666D01*
X186095238Y-92366666D01*
X186171428Y-92404761D01*
X186209523Y-92442857D01*
X186247619Y-92519047D01*
X186247619Y-92709523D01*
X186209523Y-92785714D01*
X186171428Y-92823809D01*
X186095238Y-92861904D01*
X185904761Y-92861904D01*
X185828571Y-92823809D01*
X185790476Y-92785714D01*
X186742857Y-92061904D02*
X186819047Y-92061904D01*
X186895238Y-92100000D01*
X186933333Y-92138095D01*
X186971428Y-92214285D01*
X187009523Y-92366666D01*
X187009523Y-92557142D01*
X186971428Y-92709523D01*
X186933333Y-92785714D01*
X186895238Y-92823809D01*
X186819047Y-92861904D01*
X186742857Y-92861904D01*
X186666666Y-92823809D01*
X186628571Y-92785714D01*
X186590476Y-92709523D01*
X186552380Y-92557142D01*
X186552380Y-92366666D01*
X186590476Y-92214285D01*
X186628571Y-92138095D01*
X186666666Y-92100000D01*
X186742857Y-92061904D01*
X185485714Y-91861904D02*
X185219047Y-91480952D01*
X185028571Y-91861904D02*
X185028571Y-91061904D01*
X185333333Y-91061904D01*
X185409523Y-91100000D01*
X185447619Y-91138095D01*
X185485714Y-91214285D01*
X185485714Y-91328571D01*
X185447619Y-91404761D01*
X185409523Y-91442857D01*
X185333333Y-91480952D01*
X185028571Y-91480952D01*
X186171428Y-91328571D02*
X186171428Y-91861904D01*
X185980952Y-91023809D02*
X185790476Y-91595238D01*
X186285714Y-91595238D01*
X186628571Y-91861904D02*
X186780952Y-91861904D01*
X186857142Y-91823809D01*
X186895238Y-91785714D01*
X186971428Y-91671428D01*
X187009523Y-91519047D01*
X187009523Y-91214285D01*
X186971428Y-91138095D01*
X186933333Y-91100000D01*
X186857142Y-91061904D01*
X186704761Y-91061904D01*
X186628571Y-91100000D01*
X186590476Y-91138095D01*
X186552380Y-91214285D01*
X186552380Y-91404761D01*
X186590476Y-91480952D01*
X186628571Y-91519047D01*
X186704761Y-91557142D01*
X186857142Y-91557142D01*
X186933333Y-91519047D01*
X186971428Y-91480952D01*
X187009523Y-91404761D01*
X173485714Y-115861904D02*
X173219047Y-115480952D01*
X173028571Y-115861904D02*
X173028571Y-115061904D01*
X173333333Y-115061904D01*
X173409523Y-115100000D01*
X173447619Y-115138095D01*
X173485714Y-115214285D01*
X173485714Y-115328571D01*
X173447619Y-115404761D01*
X173409523Y-115442857D01*
X173333333Y-115480952D01*
X173028571Y-115480952D01*
X174171428Y-115328571D02*
X174171428Y-115861904D01*
X173980952Y-115023809D02*
X173790476Y-115595238D01*
X174285714Y-115595238D01*
X174704761Y-115404761D02*
X174628571Y-115366666D01*
X174590476Y-115328571D01*
X174552380Y-115252380D01*
X174552380Y-115214285D01*
X174590476Y-115138095D01*
X174628571Y-115100000D01*
X174704761Y-115061904D01*
X174857142Y-115061904D01*
X174933333Y-115100000D01*
X174971428Y-115138095D01*
X175009523Y-115214285D01*
X175009523Y-115252380D01*
X174971428Y-115328571D01*
X174933333Y-115366666D01*
X174857142Y-115404761D01*
X174704761Y-115404761D01*
X174628571Y-115442857D01*
X174590476Y-115480952D01*
X174552380Y-115557142D01*
X174552380Y-115709523D01*
X174590476Y-115785714D01*
X174628571Y-115823809D01*
X174704761Y-115861904D01*
X174857142Y-115861904D01*
X174933333Y-115823809D01*
X174971428Y-115785714D01*
X175009523Y-115709523D01*
X175009523Y-115557142D01*
X174971428Y-115480952D01*
X174933333Y-115442857D01*
X174857142Y-115404761D01*
X173485714Y-113861904D02*
X173219047Y-113480952D01*
X173028571Y-113861904D02*
X173028571Y-113061904D01*
X173333333Y-113061904D01*
X173409523Y-113100000D01*
X173447619Y-113138095D01*
X173485714Y-113214285D01*
X173485714Y-113328571D01*
X173447619Y-113404761D01*
X173409523Y-113442857D01*
X173333333Y-113480952D01*
X173028571Y-113480952D01*
X174171428Y-113328571D02*
X174171428Y-113861904D01*
X173980952Y-113023809D02*
X173790476Y-113595238D01*
X174285714Y-113595238D01*
X174514285Y-113061904D02*
X175047619Y-113061904D01*
X174704761Y-113861904D01*
X177861904Y-105514285D02*
X177480952Y-105780952D01*
X177861904Y-105971428D02*
X177061904Y-105971428D01*
X177061904Y-105666666D01*
X177100000Y-105590476D01*
X177138095Y-105552380D01*
X177214285Y-105514285D01*
X177328571Y-105514285D01*
X177404761Y-105552380D01*
X177442857Y-105590476D01*
X177480952Y-105666666D01*
X177480952Y-105971428D01*
X177328571Y-104828571D02*
X177861904Y-104828571D01*
X177023809Y-105019047D02*
X177595238Y-105209523D01*
X177595238Y-104714285D01*
X177061904Y-104066666D02*
X177061904Y-104219047D01*
X177100000Y-104295238D01*
X177138095Y-104333333D01*
X177252380Y-104409523D01*
X177404761Y-104447619D01*
X177709523Y-104447619D01*
X177785714Y-104409523D01*
X177823809Y-104371428D01*
X177861904Y-104295238D01*
X177861904Y-104142857D01*
X177823809Y-104066666D01*
X177785714Y-104028571D01*
X177709523Y-103990476D01*
X177519047Y-103990476D01*
X177442857Y-104028571D01*
X177404761Y-104066666D01*
X177366666Y-104142857D01*
X177366666Y-104295238D01*
X177404761Y-104371428D01*
X177442857Y-104409523D01*
X177519047Y-104447619D01*
X161861904Y-111014285D02*
X161480952Y-111280952D01*
X161861904Y-111471428D02*
X161061904Y-111471428D01*
X161061904Y-111166666D01*
X161100000Y-111090476D01*
X161138095Y-111052380D01*
X161214285Y-111014285D01*
X161328571Y-111014285D01*
X161404761Y-111052380D01*
X161442857Y-111090476D01*
X161480952Y-111166666D01*
X161480952Y-111471428D01*
X161328571Y-110328571D02*
X161861904Y-110328571D01*
X161023809Y-110519047D02*
X161595238Y-110709523D01*
X161595238Y-110214285D01*
X161061904Y-109528571D02*
X161061904Y-109909523D01*
X161442857Y-109947619D01*
X161404761Y-109909523D01*
X161366666Y-109833333D01*
X161366666Y-109642857D01*
X161404761Y-109566666D01*
X161442857Y-109528571D01*
X161519047Y-109490476D01*
X161709523Y-109490476D01*
X161785714Y-109528571D01*
X161823809Y-109566666D01*
X161861904Y-109642857D01*
X161861904Y-109833333D01*
X161823809Y-109909523D01*
X161785714Y-109947619D01*
X159361904Y-97514285D02*
X158980952Y-97780952D01*
X159361904Y-97971428D02*
X158561904Y-97971428D01*
X158561904Y-97666666D01*
X158600000Y-97590476D01*
X158638095Y-97552380D01*
X158714285Y-97514285D01*
X158828571Y-97514285D01*
X158904761Y-97552380D01*
X158942857Y-97590476D01*
X158980952Y-97666666D01*
X158980952Y-97971428D01*
X158828571Y-96828571D02*
X159361904Y-96828571D01*
X158523809Y-97019047D02*
X159095238Y-97209523D01*
X159095238Y-96714285D01*
X158828571Y-96066666D02*
X159361904Y-96066666D01*
X158523809Y-96257142D02*
X159095238Y-96447619D01*
X159095238Y-95952380D01*
X157985714Y-102361904D02*
X157719047Y-101980952D01*
X157528571Y-102361904D02*
X157528571Y-101561904D01*
X157833333Y-101561904D01*
X157909523Y-101600000D01*
X157947619Y-101638095D01*
X157985714Y-101714285D01*
X157985714Y-101828571D01*
X157947619Y-101904761D01*
X157909523Y-101942857D01*
X157833333Y-101980952D01*
X157528571Y-101980952D01*
X158671428Y-101828571D02*
X158671428Y-102361904D01*
X158480952Y-101523809D02*
X158290476Y-102095238D01*
X158785714Y-102095238D01*
X159052380Y-101638095D02*
X159090476Y-101600000D01*
X159166666Y-101561904D01*
X159357142Y-101561904D01*
X159433333Y-101600000D01*
X159471428Y-101638095D01*
X159509523Y-101714285D01*
X159509523Y-101790476D01*
X159471428Y-101904761D01*
X159014285Y-102361904D01*
X159509523Y-102361904D01*
X157861904Y-97514285D02*
X157480952Y-97780952D01*
X157861904Y-97971428D02*
X157061904Y-97971428D01*
X157061904Y-97666666D01*
X157100000Y-97590476D01*
X157138095Y-97552380D01*
X157214285Y-97514285D01*
X157328571Y-97514285D01*
X157404761Y-97552380D01*
X157442857Y-97590476D01*
X157480952Y-97666666D01*
X157480952Y-97971428D01*
X157328571Y-96828571D02*
X157861904Y-96828571D01*
X157023809Y-97019047D02*
X157595238Y-97209523D01*
X157595238Y-96714285D01*
X157861904Y-95990476D02*
X157861904Y-96447619D01*
X157861904Y-96219047D02*
X157061904Y-96219047D01*
X157176190Y-96295238D01*
X157252380Y-96371428D01*
X157290476Y-96447619D01*
X163861904Y-97514285D02*
X163480952Y-97780952D01*
X163861904Y-97971428D02*
X163061904Y-97971428D01*
X163061904Y-97666666D01*
X163100000Y-97590476D01*
X163138095Y-97552380D01*
X163214285Y-97514285D01*
X163328571Y-97514285D01*
X163404761Y-97552380D01*
X163442857Y-97590476D01*
X163480952Y-97666666D01*
X163480952Y-97971428D01*
X163328571Y-96828571D02*
X163861904Y-96828571D01*
X163023809Y-97019047D02*
X163595238Y-97209523D01*
X163595238Y-96714285D01*
X163061904Y-96257142D02*
X163061904Y-96180952D01*
X163100000Y-96104761D01*
X163138095Y-96066666D01*
X163214285Y-96028571D01*
X163366666Y-95990476D01*
X163557142Y-95990476D01*
X163709523Y-96028571D01*
X163785714Y-96066666D01*
X163823809Y-96104761D01*
X163861904Y-96180952D01*
X163861904Y-96257142D01*
X163823809Y-96333333D01*
X163785714Y-96371428D01*
X163709523Y-96409523D01*
X163557142Y-96447619D01*
X163366666Y-96447619D01*
X163214285Y-96409523D01*
X163138095Y-96371428D01*
X163100000Y-96333333D01*
X163061904Y-96257142D01*
X162361904Y-97514285D02*
X161980952Y-97780952D01*
X162361904Y-97971428D02*
X161561904Y-97971428D01*
X161561904Y-97666666D01*
X161600000Y-97590476D01*
X161638095Y-97552380D01*
X161714285Y-97514285D01*
X161828571Y-97514285D01*
X161904761Y-97552380D01*
X161942857Y-97590476D01*
X161980952Y-97666666D01*
X161980952Y-97971428D01*
X161561904Y-97247619D02*
X161561904Y-96752380D01*
X161866666Y-97019047D01*
X161866666Y-96904761D01*
X161904761Y-96828571D01*
X161942857Y-96790476D01*
X162019047Y-96752380D01*
X162209523Y-96752380D01*
X162285714Y-96790476D01*
X162323809Y-96828571D01*
X162361904Y-96904761D01*
X162361904Y-97133333D01*
X162323809Y-97209523D01*
X162285714Y-97247619D01*
X162361904Y-96371428D02*
X162361904Y-96219047D01*
X162323809Y-96142857D01*
X162285714Y-96104761D01*
X162171428Y-96028571D01*
X162019047Y-95990476D01*
X161714285Y-95990476D01*
X161638095Y-96028571D01*
X161600000Y-96066666D01*
X161561904Y-96142857D01*
X161561904Y-96295238D01*
X161600000Y-96371428D01*
X161638095Y-96409523D01*
X161714285Y-96447619D01*
X161904761Y-96447619D01*
X161980952Y-96409523D01*
X162019047Y-96371428D01*
X162057142Y-96295238D01*
X162057142Y-96142857D01*
X162019047Y-96066666D01*
X161980952Y-96028571D01*
X161904761Y-95990476D01*
X170361904Y-97514285D02*
X169980952Y-97780952D01*
X170361904Y-97971428D02*
X169561904Y-97971428D01*
X169561904Y-97666666D01*
X169600000Y-97590476D01*
X169638095Y-97552380D01*
X169714285Y-97514285D01*
X169828571Y-97514285D01*
X169904761Y-97552380D01*
X169942857Y-97590476D01*
X169980952Y-97666666D01*
X169980952Y-97971428D01*
X169561904Y-97247619D02*
X169561904Y-96752380D01*
X169866666Y-97019047D01*
X169866666Y-96904761D01*
X169904761Y-96828571D01*
X169942857Y-96790476D01*
X170019047Y-96752380D01*
X170209523Y-96752380D01*
X170285714Y-96790476D01*
X170323809Y-96828571D01*
X170361904Y-96904761D01*
X170361904Y-97133333D01*
X170323809Y-97209523D01*
X170285714Y-97247619D01*
X169904761Y-96295238D02*
X169866666Y-96371428D01*
X169828571Y-96409523D01*
X169752380Y-96447619D01*
X169714285Y-96447619D01*
X169638095Y-96409523D01*
X169600000Y-96371428D01*
X169561904Y-96295238D01*
X169561904Y-96142857D01*
X169600000Y-96066666D01*
X169638095Y-96028571D01*
X169714285Y-95990476D01*
X169752380Y-95990476D01*
X169828571Y-96028571D01*
X169866666Y-96066666D01*
X169904761Y-96142857D01*
X169904761Y-96295238D01*
X169942857Y-96371428D01*
X169980952Y-96409523D01*
X170057142Y-96447619D01*
X170209523Y-96447619D01*
X170285714Y-96409523D01*
X170323809Y-96371428D01*
X170361904Y-96295238D01*
X170361904Y-96142857D01*
X170323809Y-96066666D01*
X170285714Y-96028571D01*
X170209523Y-95990476D01*
X170057142Y-95990476D01*
X169980952Y-96028571D01*
X169942857Y-96066666D01*
X169904761Y-96142857D01*
X173911904Y-92014285D02*
X173530952Y-92280952D01*
X173911904Y-92471428D02*
X173111904Y-92471428D01*
X173111904Y-92166666D01*
X173150000Y-92090476D01*
X173188095Y-92052380D01*
X173264285Y-92014285D01*
X173378571Y-92014285D01*
X173454761Y-92052380D01*
X173492857Y-92090476D01*
X173530952Y-92166666D01*
X173530952Y-92471428D01*
X173111904Y-91747619D02*
X173111904Y-91252380D01*
X173416666Y-91519047D01*
X173416666Y-91404761D01*
X173454761Y-91328571D01*
X173492857Y-91290476D01*
X173569047Y-91252380D01*
X173759523Y-91252380D01*
X173835714Y-91290476D01*
X173873809Y-91328571D01*
X173911904Y-91404761D01*
X173911904Y-91633333D01*
X173873809Y-91709523D01*
X173835714Y-91747619D01*
X173111904Y-90985714D02*
X173111904Y-90452380D01*
X173911904Y-90795238D01*
X157985714Y-103861904D02*
X157719047Y-103480952D01*
X157528571Y-103861904D02*
X157528571Y-103061904D01*
X157833333Y-103061904D01*
X157909523Y-103100000D01*
X157947619Y-103138095D01*
X157985714Y-103214285D01*
X157985714Y-103328571D01*
X157947619Y-103404761D01*
X157909523Y-103442857D01*
X157833333Y-103480952D01*
X157528571Y-103480952D01*
X158252380Y-103061904D02*
X158747619Y-103061904D01*
X158480952Y-103366666D01*
X158595238Y-103366666D01*
X158671428Y-103404761D01*
X158709523Y-103442857D01*
X158747619Y-103519047D01*
X158747619Y-103709523D01*
X158709523Y-103785714D01*
X158671428Y-103823809D01*
X158595238Y-103861904D01*
X158366666Y-103861904D01*
X158290476Y-103823809D01*
X158252380Y-103785714D01*
X159433333Y-103061904D02*
X159280952Y-103061904D01*
X159204761Y-103100000D01*
X159166666Y-103138095D01*
X159090476Y-103252380D01*
X159052380Y-103404761D01*
X159052380Y-103709523D01*
X159090476Y-103785714D01*
X159128571Y-103823809D01*
X159204761Y-103861904D01*
X159357142Y-103861904D01*
X159433333Y-103823809D01*
X159471428Y-103785714D01*
X159509523Y-103709523D01*
X159509523Y-103519047D01*
X159471428Y-103442857D01*
X159433333Y-103404761D01*
X159357142Y-103366666D01*
X159204761Y-103366666D01*
X159128571Y-103404761D01*
X159090476Y-103442857D01*
X159052380Y-103519047D01*
X157985714Y-106861904D02*
X157719047Y-106480952D01*
X157528571Y-106861904D02*
X157528571Y-106061904D01*
X157833333Y-106061904D01*
X157909523Y-106100000D01*
X157947619Y-106138095D01*
X157985714Y-106214285D01*
X157985714Y-106328571D01*
X157947619Y-106404761D01*
X157909523Y-106442857D01*
X157833333Y-106480952D01*
X157528571Y-106480952D01*
X158252380Y-106061904D02*
X158747619Y-106061904D01*
X158480952Y-106366666D01*
X158595238Y-106366666D01*
X158671428Y-106404761D01*
X158709523Y-106442857D01*
X158747619Y-106519047D01*
X158747619Y-106709523D01*
X158709523Y-106785714D01*
X158671428Y-106823809D01*
X158595238Y-106861904D01*
X158366666Y-106861904D01*
X158290476Y-106823809D01*
X158252380Y-106785714D01*
X159471428Y-106061904D02*
X159090476Y-106061904D01*
X159052380Y-106442857D01*
X159090476Y-106404761D01*
X159166666Y-106366666D01*
X159357142Y-106366666D01*
X159433333Y-106404761D01*
X159471428Y-106442857D01*
X159509523Y-106519047D01*
X159509523Y-106709523D01*
X159471428Y-106785714D01*
X159433333Y-106823809D01*
X159357142Y-106861904D01*
X159166666Y-106861904D01*
X159090476Y-106823809D01*
X159052380Y-106785714D01*
X157985714Y-105361904D02*
X157719047Y-104980952D01*
X157528571Y-105361904D02*
X157528571Y-104561904D01*
X157833333Y-104561904D01*
X157909523Y-104600000D01*
X157947619Y-104638095D01*
X157985714Y-104714285D01*
X157985714Y-104828571D01*
X157947619Y-104904761D01*
X157909523Y-104942857D01*
X157833333Y-104980952D01*
X157528571Y-104980952D01*
X158252380Y-104561904D02*
X158747619Y-104561904D01*
X158480952Y-104866666D01*
X158595238Y-104866666D01*
X158671428Y-104904761D01*
X158709523Y-104942857D01*
X158747619Y-105019047D01*
X158747619Y-105209523D01*
X158709523Y-105285714D01*
X158671428Y-105323809D01*
X158595238Y-105361904D01*
X158366666Y-105361904D01*
X158290476Y-105323809D01*
X158252380Y-105285714D01*
X159433333Y-104828571D02*
X159433333Y-105361904D01*
X159242857Y-104523809D02*
X159052380Y-105095238D01*
X159547619Y-105095238D01*
X168861904Y-97514285D02*
X168480952Y-97780952D01*
X168861904Y-97971428D02*
X168061904Y-97971428D01*
X168061904Y-97666666D01*
X168100000Y-97590476D01*
X168138095Y-97552380D01*
X168214285Y-97514285D01*
X168328571Y-97514285D01*
X168404761Y-97552380D01*
X168442857Y-97590476D01*
X168480952Y-97666666D01*
X168480952Y-97971428D01*
X168061904Y-97247619D02*
X168061904Y-96752380D01*
X168366666Y-97019047D01*
X168366666Y-96904761D01*
X168404761Y-96828571D01*
X168442857Y-96790476D01*
X168519047Y-96752380D01*
X168709523Y-96752380D01*
X168785714Y-96790476D01*
X168823809Y-96828571D01*
X168861904Y-96904761D01*
X168861904Y-97133333D01*
X168823809Y-97209523D01*
X168785714Y-97247619D01*
X168061904Y-96485714D02*
X168061904Y-95990476D01*
X168366666Y-96257142D01*
X168366666Y-96142857D01*
X168404761Y-96066666D01*
X168442857Y-96028571D01*
X168519047Y-95990476D01*
X168709523Y-95990476D01*
X168785714Y-96028571D01*
X168823809Y-96066666D01*
X168861904Y-96142857D01*
X168861904Y-96371428D01*
X168823809Y-96447619D01*
X168785714Y-96485714D01*
X170911904Y-92014285D02*
X170530952Y-92280952D01*
X170911904Y-92471428D02*
X170111904Y-92471428D01*
X170111904Y-92166666D01*
X170150000Y-92090476D01*
X170188095Y-92052380D01*
X170264285Y-92014285D01*
X170378571Y-92014285D01*
X170454761Y-92052380D01*
X170492857Y-92090476D01*
X170530952Y-92166666D01*
X170530952Y-92471428D01*
X170111904Y-91747619D02*
X170111904Y-91252380D01*
X170416666Y-91519047D01*
X170416666Y-91404761D01*
X170454761Y-91328571D01*
X170492857Y-91290476D01*
X170569047Y-91252380D01*
X170759523Y-91252380D01*
X170835714Y-91290476D01*
X170873809Y-91328571D01*
X170911904Y-91404761D01*
X170911904Y-91633333D01*
X170873809Y-91709523D01*
X170835714Y-91747619D01*
X170188095Y-90947619D02*
X170150000Y-90909523D01*
X170111904Y-90833333D01*
X170111904Y-90642857D01*
X170150000Y-90566666D01*
X170188095Y-90528571D01*
X170264285Y-90490476D01*
X170340476Y-90490476D01*
X170454761Y-90528571D01*
X170911904Y-90985714D01*
X170911904Y-90490476D01*
X160861904Y-97514285D02*
X160480952Y-97780952D01*
X160861904Y-97971428D02*
X160061904Y-97971428D01*
X160061904Y-97666666D01*
X160100000Y-97590476D01*
X160138095Y-97552380D01*
X160214285Y-97514285D01*
X160328571Y-97514285D01*
X160404761Y-97552380D01*
X160442857Y-97590476D01*
X160480952Y-97666666D01*
X160480952Y-97971428D01*
X160061904Y-97247619D02*
X160061904Y-96752380D01*
X160366666Y-97019047D01*
X160366666Y-96904761D01*
X160404761Y-96828571D01*
X160442857Y-96790476D01*
X160519047Y-96752380D01*
X160709523Y-96752380D01*
X160785714Y-96790476D01*
X160823809Y-96828571D01*
X160861904Y-96904761D01*
X160861904Y-97133333D01*
X160823809Y-97209523D01*
X160785714Y-97247619D01*
X160861904Y-95990476D02*
X160861904Y-96447619D01*
X160861904Y-96219047D02*
X160061904Y-96219047D01*
X160176190Y-96295238D01*
X160252380Y-96371428D01*
X160290476Y-96447619D01*
X158361904Y-114014285D02*
X157980952Y-114280952D01*
X158361904Y-114471428D02*
X157561904Y-114471428D01*
X157561904Y-114166666D01*
X157600000Y-114090476D01*
X157638095Y-114052380D01*
X157714285Y-114014285D01*
X157828571Y-114014285D01*
X157904761Y-114052380D01*
X157942857Y-114090476D01*
X157980952Y-114166666D01*
X157980952Y-114471428D01*
X157561904Y-113747619D02*
X157561904Y-113252380D01*
X157866666Y-113519047D01*
X157866666Y-113404761D01*
X157904761Y-113328571D01*
X157942857Y-113290476D01*
X158019047Y-113252380D01*
X158209523Y-113252380D01*
X158285714Y-113290476D01*
X158323809Y-113328571D01*
X158361904Y-113404761D01*
X158361904Y-113633333D01*
X158323809Y-113709523D01*
X158285714Y-113747619D01*
X157561904Y-112757142D02*
X157561904Y-112680952D01*
X157600000Y-112604761D01*
X157638095Y-112566666D01*
X157714285Y-112528571D01*
X157866666Y-112490476D01*
X158057142Y-112490476D01*
X158209523Y-112528571D01*
X158285714Y-112566666D01*
X158323809Y-112604761D01*
X158361904Y-112680952D01*
X158361904Y-112757142D01*
X158323809Y-112833333D01*
X158285714Y-112871428D01*
X158209523Y-112909523D01*
X158057142Y-112947619D01*
X157866666Y-112947619D01*
X157714285Y-112909523D01*
X157638095Y-112871428D01*
X157600000Y-112833333D01*
X157561904Y-112757142D01*
X159361904Y-114014285D02*
X158980952Y-114280952D01*
X159361904Y-114471428D02*
X158561904Y-114471428D01*
X158561904Y-114166666D01*
X158600000Y-114090476D01*
X158638095Y-114052380D01*
X158714285Y-114014285D01*
X158828571Y-114014285D01*
X158904761Y-114052380D01*
X158942857Y-114090476D01*
X158980952Y-114166666D01*
X158980952Y-114471428D01*
X158638095Y-113709523D02*
X158600000Y-113671428D01*
X158561904Y-113595238D01*
X158561904Y-113404761D01*
X158600000Y-113328571D01*
X158638095Y-113290476D01*
X158714285Y-113252380D01*
X158790476Y-113252380D01*
X158904761Y-113290476D01*
X159361904Y-113747619D01*
X159361904Y-113252380D01*
X159361904Y-112871428D02*
X159361904Y-112719047D01*
X159323809Y-112642857D01*
X159285714Y-112604761D01*
X159171428Y-112528571D01*
X159019047Y-112490476D01*
X158714285Y-112490476D01*
X158638095Y-112528571D01*
X158600000Y-112566666D01*
X158561904Y-112642857D01*
X158561904Y-112795238D01*
X158600000Y-112871428D01*
X158638095Y-112909523D01*
X158714285Y-112947619D01*
X158904761Y-112947619D01*
X158980952Y-112909523D01*
X159019047Y-112871428D01*
X159057142Y-112795238D01*
X159057142Y-112642857D01*
X159019047Y-112566666D01*
X158980952Y-112528571D01*
X158904761Y-112490476D01*
X160361904Y-114014285D02*
X159980952Y-114280952D01*
X160361904Y-114471428D02*
X159561904Y-114471428D01*
X159561904Y-114166666D01*
X159600000Y-114090476D01*
X159638095Y-114052380D01*
X159714285Y-114014285D01*
X159828571Y-114014285D01*
X159904761Y-114052380D01*
X159942857Y-114090476D01*
X159980952Y-114166666D01*
X159980952Y-114471428D01*
X159638095Y-113709523D02*
X159600000Y-113671428D01*
X159561904Y-113595238D01*
X159561904Y-113404761D01*
X159600000Y-113328571D01*
X159638095Y-113290476D01*
X159714285Y-113252380D01*
X159790476Y-113252380D01*
X159904761Y-113290476D01*
X160361904Y-113747619D01*
X160361904Y-113252380D01*
X159904761Y-112795238D02*
X159866666Y-112871428D01*
X159828571Y-112909523D01*
X159752380Y-112947619D01*
X159714285Y-112947619D01*
X159638095Y-112909523D01*
X159600000Y-112871428D01*
X159561904Y-112795238D01*
X159561904Y-112642857D01*
X159600000Y-112566666D01*
X159638095Y-112528571D01*
X159714285Y-112490476D01*
X159752380Y-112490476D01*
X159828571Y-112528571D01*
X159866666Y-112566666D01*
X159904761Y-112642857D01*
X159904761Y-112795238D01*
X159942857Y-112871428D01*
X159980952Y-112909523D01*
X160057142Y-112947619D01*
X160209523Y-112947619D01*
X160285714Y-112909523D01*
X160323809Y-112871428D01*
X160361904Y-112795238D01*
X160361904Y-112642857D01*
X160323809Y-112566666D01*
X160285714Y-112528571D01*
X160209523Y-112490476D01*
X160057142Y-112490476D01*
X159980952Y-112528571D01*
X159942857Y-112566666D01*
X159904761Y-112642857D01*
X161361904Y-114014285D02*
X160980952Y-114280952D01*
X161361904Y-114471428D02*
X160561904Y-114471428D01*
X160561904Y-114166666D01*
X160600000Y-114090476D01*
X160638095Y-114052380D01*
X160714285Y-114014285D01*
X160828571Y-114014285D01*
X160904761Y-114052380D01*
X160942857Y-114090476D01*
X160980952Y-114166666D01*
X160980952Y-114471428D01*
X160638095Y-113709523D02*
X160600000Y-113671428D01*
X160561904Y-113595238D01*
X160561904Y-113404761D01*
X160600000Y-113328571D01*
X160638095Y-113290476D01*
X160714285Y-113252380D01*
X160790476Y-113252380D01*
X160904761Y-113290476D01*
X161361904Y-113747619D01*
X161361904Y-113252380D01*
X160561904Y-112985714D02*
X160561904Y-112452380D01*
X161361904Y-112795238D01*
X222861904Y-123764285D02*
X222480952Y-124030952D01*
X222861904Y-124221428D02*
X222061904Y-124221428D01*
X222061904Y-123916666D01*
X222100000Y-123840476D01*
X222138095Y-123802380D01*
X222214285Y-123764285D01*
X222328571Y-123764285D01*
X222404761Y-123802380D01*
X222442857Y-123840476D01*
X222480952Y-123916666D01*
X222480952Y-124221428D01*
X222138095Y-123459523D02*
X222100000Y-123421428D01*
X222061904Y-123345238D01*
X222061904Y-123154761D01*
X222100000Y-123078571D01*
X222138095Y-123040476D01*
X222214285Y-123002380D01*
X222290476Y-123002380D01*
X222404761Y-123040476D01*
X222861904Y-123497619D01*
X222861904Y-123002380D01*
X222061904Y-122316666D02*
X222061904Y-122469047D01*
X222100000Y-122545238D01*
X222138095Y-122583333D01*
X222252380Y-122659523D01*
X222404761Y-122697619D01*
X222709523Y-122697619D01*
X222785714Y-122659523D01*
X222823809Y-122621428D01*
X222861904Y-122545238D01*
X222861904Y-122392857D01*
X222823809Y-122316666D01*
X222785714Y-122278571D01*
X222709523Y-122240476D01*
X222519047Y-122240476D01*
X222442857Y-122278571D01*
X222404761Y-122316666D01*
X222366666Y-122392857D01*
X222366666Y-122545238D01*
X222404761Y-122621428D01*
X222442857Y-122659523D01*
X222519047Y-122697619D01*
X213861904Y-123764285D02*
X213480952Y-124030952D01*
X213861904Y-124221428D02*
X213061904Y-124221428D01*
X213061904Y-123916666D01*
X213100000Y-123840476D01*
X213138095Y-123802380D01*
X213214285Y-123764285D01*
X213328571Y-123764285D01*
X213404761Y-123802380D01*
X213442857Y-123840476D01*
X213480952Y-123916666D01*
X213480952Y-124221428D01*
X213138095Y-123459523D02*
X213100000Y-123421428D01*
X213061904Y-123345238D01*
X213061904Y-123154761D01*
X213100000Y-123078571D01*
X213138095Y-123040476D01*
X213214285Y-123002380D01*
X213290476Y-123002380D01*
X213404761Y-123040476D01*
X213861904Y-123497619D01*
X213861904Y-123002380D01*
X213061904Y-122278571D02*
X213061904Y-122659523D01*
X213442857Y-122697619D01*
X213404761Y-122659523D01*
X213366666Y-122583333D01*
X213366666Y-122392857D01*
X213404761Y-122316666D01*
X213442857Y-122278571D01*
X213519047Y-122240476D01*
X213709523Y-122240476D01*
X213785714Y-122278571D01*
X213823809Y-122316666D01*
X213861904Y-122392857D01*
X213861904Y-122583333D01*
X213823809Y-122659523D01*
X213785714Y-122697619D01*
X197985714Y-124361904D02*
X197719047Y-123980952D01*
X197528571Y-124361904D02*
X197528571Y-123561904D01*
X197833333Y-123561904D01*
X197909523Y-123600000D01*
X197947619Y-123638095D01*
X197985714Y-123714285D01*
X197985714Y-123828571D01*
X197947619Y-123904761D01*
X197909523Y-123942857D01*
X197833333Y-123980952D01*
X197528571Y-123980952D01*
X198290476Y-123638095D02*
X198328571Y-123600000D01*
X198404761Y-123561904D01*
X198595238Y-123561904D01*
X198671428Y-123600000D01*
X198709523Y-123638095D01*
X198747619Y-123714285D01*
X198747619Y-123790476D01*
X198709523Y-123904761D01*
X198252380Y-124361904D01*
X198747619Y-124361904D01*
X199014285Y-123561904D02*
X199509523Y-123561904D01*
X199242857Y-123866666D01*
X199357142Y-123866666D01*
X199433333Y-123904761D01*
X199471428Y-123942857D01*
X199509523Y-124019047D01*
X199509523Y-124209523D01*
X199471428Y-124285714D01*
X199433333Y-124323809D01*
X199357142Y-124361904D01*
X199128571Y-124361904D01*
X199052380Y-124323809D01*
X199014285Y-124285714D01*
X188985714Y-122111904D02*
X188719047Y-121730952D01*
X188528571Y-122111904D02*
X188528571Y-121311904D01*
X188833333Y-121311904D01*
X188909523Y-121350000D01*
X188947619Y-121388095D01*
X188985714Y-121464285D01*
X188985714Y-121578571D01*
X188947619Y-121654761D01*
X188909523Y-121692857D01*
X188833333Y-121730952D01*
X188528571Y-121730952D01*
X189290476Y-121388095D02*
X189328571Y-121350000D01*
X189404761Y-121311904D01*
X189595238Y-121311904D01*
X189671428Y-121350000D01*
X189709523Y-121388095D01*
X189747619Y-121464285D01*
X189747619Y-121540476D01*
X189709523Y-121654761D01*
X189252380Y-122111904D01*
X189747619Y-122111904D01*
X190052380Y-121388095D02*
X190090476Y-121350000D01*
X190166666Y-121311904D01*
X190357142Y-121311904D01*
X190433333Y-121350000D01*
X190471428Y-121388095D01*
X190509523Y-121464285D01*
X190509523Y-121540476D01*
X190471428Y-121654761D01*
X190014285Y-122111904D01*
X190509523Y-122111904D01*
X191485714Y-122111904D02*
X191219047Y-121730952D01*
X191028571Y-122111904D02*
X191028571Y-121311904D01*
X191333333Y-121311904D01*
X191409523Y-121350000D01*
X191447619Y-121388095D01*
X191485714Y-121464285D01*
X191485714Y-121578571D01*
X191447619Y-121654761D01*
X191409523Y-121692857D01*
X191333333Y-121730952D01*
X191028571Y-121730952D01*
X191790476Y-121388095D02*
X191828571Y-121350000D01*
X191904761Y-121311904D01*
X192095238Y-121311904D01*
X192171428Y-121350000D01*
X192209523Y-121388095D01*
X192247619Y-121464285D01*
X192247619Y-121540476D01*
X192209523Y-121654761D01*
X191752380Y-122111904D01*
X192247619Y-122111904D01*
X193009523Y-122111904D02*
X192552380Y-122111904D01*
X192780952Y-122111904D02*
X192780952Y-121311904D01*
X192704761Y-121426190D01*
X192628571Y-121502380D01*
X192552380Y-121540476D01*
X207361904Y-123764285D02*
X206980952Y-124030952D01*
X207361904Y-124221428D02*
X206561904Y-124221428D01*
X206561904Y-123916666D01*
X206600000Y-123840476D01*
X206638095Y-123802380D01*
X206714285Y-123764285D01*
X206828571Y-123764285D01*
X206904761Y-123802380D01*
X206942857Y-123840476D01*
X206980952Y-123916666D01*
X206980952Y-124221428D01*
X206638095Y-123459523D02*
X206600000Y-123421428D01*
X206561904Y-123345238D01*
X206561904Y-123154761D01*
X206600000Y-123078571D01*
X206638095Y-123040476D01*
X206714285Y-123002380D01*
X206790476Y-123002380D01*
X206904761Y-123040476D01*
X207361904Y-123497619D01*
X207361904Y-123002380D01*
X206561904Y-122507142D02*
X206561904Y-122430952D01*
X206600000Y-122354761D01*
X206638095Y-122316666D01*
X206714285Y-122278571D01*
X206866666Y-122240476D01*
X207057142Y-122240476D01*
X207209523Y-122278571D01*
X207285714Y-122316666D01*
X207323809Y-122354761D01*
X207361904Y-122430952D01*
X207361904Y-122507142D01*
X207323809Y-122583333D01*
X207285714Y-122621428D01*
X207209523Y-122659523D01*
X207057142Y-122697619D01*
X206866666Y-122697619D01*
X206714285Y-122659523D01*
X206638095Y-122621428D01*
X206600000Y-122583333D01*
X206561904Y-122507142D01*
X188485714Y-108861904D02*
X188219047Y-108480952D01*
X188028571Y-108861904D02*
X188028571Y-108061904D01*
X188333333Y-108061904D01*
X188409523Y-108100000D01*
X188447619Y-108138095D01*
X188485714Y-108214285D01*
X188485714Y-108328571D01*
X188447619Y-108404761D01*
X188409523Y-108442857D01*
X188333333Y-108480952D01*
X188028571Y-108480952D01*
X189247619Y-108861904D02*
X188790476Y-108861904D01*
X189019047Y-108861904D02*
X189019047Y-108061904D01*
X188942857Y-108176190D01*
X188866666Y-108252380D01*
X188790476Y-108290476D01*
X189628571Y-108861904D02*
X189780952Y-108861904D01*
X189857142Y-108823809D01*
X189895238Y-108785714D01*
X189971428Y-108671428D01*
X190009523Y-108519047D01*
X190009523Y-108214285D01*
X189971428Y-108138095D01*
X189933333Y-108100000D01*
X189857142Y-108061904D01*
X189704761Y-108061904D01*
X189628571Y-108100000D01*
X189590476Y-108138095D01*
X189552380Y-108214285D01*
X189552380Y-108404761D01*
X189590476Y-108480952D01*
X189628571Y-108519047D01*
X189704761Y-108557142D01*
X189857142Y-108557142D01*
X189933333Y-108519047D01*
X189971428Y-108480952D01*
X190009523Y-108404761D01*
X188485714Y-107361904D02*
X188219047Y-106980952D01*
X188028571Y-107361904D02*
X188028571Y-106561904D01*
X188333333Y-106561904D01*
X188409523Y-106600000D01*
X188447619Y-106638095D01*
X188485714Y-106714285D01*
X188485714Y-106828571D01*
X188447619Y-106904761D01*
X188409523Y-106942857D01*
X188333333Y-106980952D01*
X188028571Y-106980952D01*
X189247619Y-107361904D02*
X188790476Y-107361904D01*
X189019047Y-107361904D02*
X189019047Y-106561904D01*
X188942857Y-106676190D01*
X188866666Y-106752380D01*
X188790476Y-106790476D01*
X189704761Y-106904761D02*
X189628571Y-106866666D01*
X189590476Y-106828571D01*
X189552380Y-106752380D01*
X189552380Y-106714285D01*
X189590476Y-106638095D01*
X189628571Y-106600000D01*
X189704761Y-106561904D01*
X189857142Y-106561904D01*
X189933333Y-106600000D01*
X189971428Y-106638095D01*
X190009523Y-106714285D01*
X190009523Y-106752380D01*
X189971428Y-106828571D01*
X189933333Y-106866666D01*
X189857142Y-106904761D01*
X189704761Y-106904761D01*
X189628571Y-106942857D01*
X189590476Y-106980952D01*
X189552380Y-107057142D01*
X189552380Y-107209523D01*
X189590476Y-107285714D01*
X189628571Y-107323809D01*
X189704761Y-107361904D01*
X189857142Y-107361904D01*
X189933333Y-107323809D01*
X189971428Y-107285714D01*
X190009523Y-107209523D01*
X190009523Y-107057142D01*
X189971428Y-106980952D01*
X189933333Y-106942857D01*
X189857142Y-106904761D01*
X188485714Y-101361904D02*
X188219047Y-100980952D01*
X188028571Y-101361904D02*
X188028571Y-100561904D01*
X188333333Y-100561904D01*
X188409523Y-100600000D01*
X188447619Y-100638095D01*
X188485714Y-100714285D01*
X188485714Y-100828571D01*
X188447619Y-100904761D01*
X188409523Y-100942857D01*
X188333333Y-100980952D01*
X188028571Y-100980952D01*
X189247619Y-101361904D02*
X188790476Y-101361904D01*
X189019047Y-101361904D02*
X189019047Y-100561904D01*
X188942857Y-100676190D01*
X188866666Y-100752380D01*
X188790476Y-100790476D01*
X189514285Y-100561904D02*
X190047619Y-100561904D01*
X189704761Y-101361904D01*
X188485714Y-99861904D02*
X188219047Y-99480952D01*
X188028571Y-99861904D02*
X188028571Y-99061904D01*
X188333333Y-99061904D01*
X188409523Y-99100000D01*
X188447619Y-99138095D01*
X188485714Y-99214285D01*
X188485714Y-99328571D01*
X188447619Y-99404761D01*
X188409523Y-99442857D01*
X188333333Y-99480952D01*
X188028571Y-99480952D01*
X189247619Y-99861904D02*
X188790476Y-99861904D01*
X189019047Y-99861904D02*
X189019047Y-99061904D01*
X188942857Y-99176190D01*
X188866666Y-99252380D01*
X188790476Y-99290476D01*
X189933333Y-99061904D02*
X189780952Y-99061904D01*
X189704761Y-99100000D01*
X189666666Y-99138095D01*
X189590476Y-99252380D01*
X189552380Y-99404761D01*
X189552380Y-99709523D01*
X189590476Y-99785714D01*
X189628571Y-99823809D01*
X189704761Y-99861904D01*
X189857142Y-99861904D01*
X189933333Y-99823809D01*
X189971428Y-99785714D01*
X190009523Y-99709523D01*
X190009523Y-99519047D01*
X189971428Y-99442857D01*
X189933333Y-99404761D01*
X189857142Y-99366666D01*
X189704761Y-99366666D01*
X189628571Y-99404761D01*
X189590476Y-99442857D01*
X189552380Y-99519047D01*
X188485714Y-105861904D02*
X188219047Y-105480952D01*
X188028571Y-105861904D02*
X188028571Y-105061904D01*
X188333333Y-105061904D01*
X188409523Y-105100000D01*
X188447619Y-105138095D01*
X188485714Y-105214285D01*
X188485714Y-105328571D01*
X188447619Y-105404761D01*
X188409523Y-105442857D01*
X188333333Y-105480952D01*
X188028571Y-105480952D01*
X189247619Y-105861904D02*
X188790476Y-105861904D01*
X189019047Y-105861904D02*
X189019047Y-105061904D01*
X188942857Y-105176190D01*
X188866666Y-105252380D01*
X188790476Y-105290476D01*
X189933333Y-105328571D02*
X189933333Y-105861904D01*
X189742857Y-105023809D02*
X189552380Y-105595238D01*
X190047619Y-105595238D01*
X188485714Y-102861904D02*
X188219047Y-102480952D01*
X188028571Y-102861904D02*
X188028571Y-102061904D01*
X188333333Y-102061904D01*
X188409523Y-102100000D01*
X188447619Y-102138095D01*
X188485714Y-102214285D01*
X188485714Y-102328571D01*
X188447619Y-102404761D01*
X188409523Y-102442857D01*
X188333333Y-102480952D01*
X188028571Y-102480952D01*
X189247619Y-102861904D02*
X188790476Y-102861904D01*
X189019047Y-102861904D02*
X189019047Y-102061904D01*
X188942857Y-102176190D01*
X188866666Y-102252380D01*
X188790476Y-102290476D01*
X189514285Y-102061904D02*
X190009523Y-102061904D01*
X189742857Y-102366666D01*
X189857142Y-102366666D01*
X189933333Y-102404761D01*
X189971428Y-102442857D01*
X190009523Y-102519047D01*
X190009523Y-102709523D01*
X189971428Y-102785714D01*
X189933333Y-102823809D01*
X189857142Y-102861904D01*
X189628571Y-102861904D01*
X189552380Y-102823809D01*
X189514285Y-102785714D01*
X180985714Y-110611904D02*
X180719047Y-110230952D01*
X180528571Y-110611904D02*
X180528571Y-109811904D01*
X180833333Y-109811904D01*
X180909523Y-109850000D01*
X180947619Y-109888095D01*
X180985714Y-109964285D01*
X180985714Y-110078571D01*
X180947619Y-110154761D01*
X180909523Y-110192857D01*
X180833333Y-110230952D01*
X180528571Y-110230952D01*
X181747619Y-110611904D02*
X181290476Y-110611904D01*
X181519047Y-110611904D02*
X181519047Y-109811904D01*
X181442857Y-109926190D01*
X181366666Y-110002380D01*
X181290476Y-110040476D01*
X182509523Y-110611904D02*
X182052380Y-110611904D01*
X182280952Y-110611904D02*
X182280952Y-109811904D01*
X182204761Y-109926190D01*
X182128571Y-110002380D01*
X182052380Y-110040476D01*
X219985714Y-97361904D02*
X219719047Y-96980952D01*
X219528571Y-97361904D02*
X219528571Y-96561904D01*
X219833333Y-96561904D01*
X219909523Y-96600000D01*
X219947619Y-96638095D01*
X219985714Y-96714285D01*
X219985714Y-96828571D01*
X219947619Y-96904761D01*
X219909523Y-96942857D01*
X219833333Y-96980952D01*
X219528571Y-96980952D01*
X220747619Y-97361904D02*
X220290476Y-97361904D01*
X220519047Y-97361904D02*
X220519047Y-96561904D01*
X220442857Y-96676190D01*
X220366666Y-96752380D01*
X220290476Y-96790476D01*
X221242857Y-96561904D02*
X221319047Y-96561904D01*
X221395238Y-96600000D01*
X221433333Y-96638095D01*
X221471428Y-96714285D01*
X221509523Y-96866666D01*
X221509523Y-97057142D01*
X221471428Y-97209523D01*
X221433333Y-97285714D01*
X221395238Y-97323809D01*
X221319047Y-97361904D01*
X221242857Y-97361904D01*
X221166666Y-97323809D01*
X221128571Y-97285714D01*
X221090476Y-97209523D01*
X221052380Y-97057142D01*
X221052380Y-96866666D01*
X221090476Y-96714285D01*
X221128571Y-96638095D01*
X221166666Y-96600000D01*
X221242857Y-96561904D01*
X219866666Y-98861904D02*
X219600000Y-98480952D01*
X219409523Y-98861904D02*
X219409523Y-98061904D01*
X219714285Y-98061904D01*
X219790476Y-98100000D01*
X219828571Y-98138095D01*
X219866666Y-98214285D01*
X219866666Y-98328571D01*
X219828571Y-98404761D01*
X219790476Y-98442857D01*
X219714285Y-98480952D01*
X219409523Y-98480952D01*
X220247619Y-98861904D02*
X220400000Y-98861904D01*
X220476190Y-98823809D01*
X220514285Y-98785714D01*
X220590476Y-98671428D01*
X220628571Y-98519047D01*
X220628571Y-98214285D01*
X220590476Y-98138095D01*
X220552380Y-98100000D01*
X220476190Y-98061904D01*
X220323809Y-98061904D01*
X220247619Y-98100000D01*
X220209523Y-98138095D01*
X220171428Y-98214285D01*
X220171428Y-98404761D01*
X220209523Y-98480952D01*
X220247619Y-98519047D01*
X220323809Y-98557142D01*
X220476190Y-98557142D01*
X220552380Y-98519047D01*
X220590476Y-98480952D01*
X220628571Y-98404761D01*
X211861904Y-123633333D02*
X211480952Y-123900000D01*
X211861904Y-124090476D02*
X211061904Y-124090476D01*
X211061904Y-123785714D01*
X211100000Y-123709523D01*
X211138095Y-123671428D01*
X211214285Y-123633333D01*
X211328571Y-123633333D01*
X211404761Y-123671428D01*
X211442857Y-123709523D01*
X211480952Y-123785714D01*
X211480952Y-124090476D01*
X211404761Y-123176190D02*
X211366666Y-123252380D01*
X211328571Y-123290476D01*
X211252380Y-123328571D01*
X211214285Y-123328571D01*
X211138095Y-123290476D01*
X211100000Y-123252380D01*
X211061904Y-123176190D01*
X211061904Y-123023809D01*
X211100000Y-122947619D01*
X211138095Y-122909523D01*
X211214285Y-122871428D01*
X211252380Y-122871428D01*
X211328571Y-122909523D01*
X211366666Y-122947619D01*
X211404761Y-123023809D01*
X211404761Y-123176190D01*
X211442857Y-123252380D01*
X211480952Y-123290476D01*
X211557142Y-123328571D01*
X211709523Y-123328571D01*
X211785714Y-123290476D01*
X211823809Y-123252380D01*
X211861904Y-123176190D01*
X211861904Y-123023809D01*
X211823809Y-122947619D01*
X211785714Y-122909523D01*
X211709523Y-122871428D01*
X211557142Y-122871428D01*
X211480952Y-122909523D01*
X211442857Y-122947619D01*
X211404761Y-123023809D01*
X210361904Y-123633333D02*
X209980952Y-123900000D01*
X210361904Y-124090476D02*
X209561904Y-124090476D01*
X209561904Y-123785714D01*
X209600000Y-123709523D01*
X209638095Y-123671428D01*
X209714285Y-123633333D01*
X209828571Y-123633333D01*
X209904761Y-123671428D01*
X209942857Y-123709523D01*
X209980952Y-123785714D01*
X209980952Y-124090476D01*
X209561904Y-123366666D02*
X209561904Y-122833333D01*
X210361904Y-123176190D01*
X219866666Y-100361904D02*
X219600000Y-99980952D01*
X219409523Y-100361904D02*
X219409523Y-99561904D01*
X219714285Y-99561904D01*
X219790476Y-99600000D01*
X219828571Y-99638095D01*
X219866666Y-99714285D01*
X219866666Y-99828571D01*
X219828571Y-99904761D01*
X219790476Y-99942857D01*
X219714285Y-99980952D01*
X219409523Y-99980952D01*
X220552380Y-99561904D02*
X220400000Y-99561904D01*
X220323809Y-99600000D01*
X220285714Y-99638095D01*
X220209523Y-99752380D01*
X220171428Y-99904761D01*
X220171428Y-100209523D01*
X220209523Y-100285714D01*
X220247619Y-100323809D01*
X220323809Y-100361904D01*
X220476190Y-100361904D01*
X220552380Y-100323809D01*
X220590476Y-100285714D01*
X220628571Y-100209523D01*
X220628571Y-100019047D01*
X220590476Y-99942857D01*
X220552380Y-99904761D01*
X220476190Y-99866666D01*
X220323809Y-99866666D01*
X220247619Y-99904761D01*
X220209523Y-99942857D01*
X220171428Y-100019047D01*
X214361904Y-91133333D02*
X213980952Y-91400000D01*
X214361904Y-91590476D02*
X213561904Y-91590476D01*
X213561904Y-91285714D01*
X213600000Y-91209523D01*
X213638095Y-91171428D01*
X213714285Y-91133333D01*
X213828571Y-91133333D01*
X213904761Y-91171428D01*
X213942857Y-91209523D01*
X213980952Y-91285714D01*
X213980952Y-91590476D01*
X213561904Y-90409523D02*
X213561904Y-90790476D01*
X213942857Y-90828571D01*
X213904761Y-90790476D01*
X213866666Y-90714285D01*
X213866666Y-90523809D01*
X213904761Y-90447619D01*
X213942857Y-90409523D01*
X214019047Y-90371428D01*
X214209523Y-90371428D01*
X214285714Y-90409523D01*
X214323809Y-90447619D01*
X214361904Y-90523809D01*
X214361904Y-90714285D01*
X214323809Y-90790476D01*
X214285714Y-90828571D01*
X213361904Y-91133333D02*
X212980952Y-91400000D01*
X213361904Y-91590476D02*
X212561904Y-91590476D01*
X212561904Y-91285714D01*
X212600000Y-91209523D01*
X212638095Y-91171428D01*
X212714285Y-91133333D01*
X212828571Y-91133333D01*
X212904761Y-91171428D01*
X212942857Y-91209523D01*
X212980952Y-91285714D01*
X212980952Y-91590476D01*
X212828571Y-90447619D02*
X213361904Y-90447619D01*
X212523809Y-90638095D02*
X213095238Y-90828571D01*
X213095238Y-90333333D01*
X220366666Y-112161904D02*
X220100000Y-111780952D01*
X219909523Y-112161904D02*
X219909523Y-111361904D01*
X220214285Y-111361904D01*
X220290476Y-111400000D01*
X220328571Y-111438095D01*
X220366666Y-111514285D01*
X220366666Y-111628571D01*
X220328571Y-111704761D01*
X220290476Y-111742857D01*
X220214285Y-111780952D01*
X219909523Y-111780952D01*
X220633333Y-111361904D02*
X221128571Y-111361904D01*
X220861904Y-111666666D01*
X220976190Y-111666666D01*
X221052380Y-111704761D01*
X221090476Y-111742857D01*
X221128571Y-111819047D01*
X221128571Y-112009523D01*
X221090476Y-112085714D01*
X221052380Y-112123809D01*
X220976190Y-112161904D01*
X220747619Y-112161904D01*
X220671428Y-112123809D01*
X220633333Y-112085714D01*
X210361904Y-91133333D02*
X209980952Y-91400000D01*
X210361904Y-91590476D02*
X209561904Y-91590476D01*
X209561904Y-91285714D01*
X209600000Y-91209523D01*
X209638095Y-91171428D01*
X209714285Y-91133333D01*
X209828571Y-91133333D01*
X209904761Y-91171428D01*
X209942857Y-91209523D01*
X209980952Y-91285714D01*
X209980952Y-91590476D01*
X209638095Y-90828571D02*
X209600000Y-90790476D01*
X209561904Y-90714285D01*
X209561904Y-90523809D01*
X209600000Y-90447619D01*
X209638095Y-90409523D01*
X209714285Y-90371428D01*
X209790476Y-90371428D01*
X209904761Y-90409523D01*
X210361904Y-90866666D01*
X210361904Y-90371428D01*
X211361904Y-91133333D02*
X210980952Y-91400000D01*
X211361904Y-91590476D02*
X210561904Y-91590476D01*
X210561904Y-91285714D01*
X210600000Y-91209523D01*
X210638095Y-91171428D01*
X210714285Y-91133333D01*
X210828571Y-91133333D01*
X210904761Y-91171428D01*
X210942857Y-91209523D01*
X210980952Y-91285714D01*
X210980952Y-91590476D01*
X211361904Y-90371428D02*
X211361904Y-90828571D01*
X211361904Y-90600000D02*
X210561904Y-90600000D01*
X210676190Y-90676190D01*
X210752380Y-90752380D01*
X210790476Y-90828571D01*
X174985714Y-124285714D02*
X174947619Y-124323809D01*
X174833333Y-124361904D01*
X174757142Y-124361904D01*
X174642857Y-124323809D01*
X174566666Y-124247619D01*
X174528571Y-124171428D01*
X174490476Y-124019047D01*
X174490476Y-123904761D01*
X174528571Y-123752380D01*
X174566666Y-123676190D01*
X174642857Y-123600000D01*
X174757142Y-123561904D01*
X174833333Y-123561904D01*
X174947619Y-123600000D01*
X174985714Y-123638095D01*
X175671428Y-123828571D02*
X175671428Y-124361904D01*
X175480952Y-123523809D02*
X175290476Y-124095238D01*
X175785714Y-124095238D01*
X176014285Y-123561904D02*
X176547619Y-123561904D01*
X176204761Y-124361904D01*
X173785714Y-124014285D02*
X173823809Y-124052380D01*
X173861904Y-124166666D01*
X173861904Y-124242857D01*
X173823809Y-124357142D01*
X173747619Y-124433333D01*
X173671428Y-124471428D01*
X173519047Y-124509523D01*
X173404761Y-124509523D01*
X173252380Y-124471428D01*
X173176190Y-124433333D01*
X173100000Y-124357142D01*
X173061904Y-124242857D01*
X173061904Y-124166666D01*
X173100000Y-124052380D01*
X173138095Y-124014285D01*
X173328571Y-123328571D02*
X173861904Y-123328571D01*
X173023809Y-123519047D02*
X173595238Y-123709523D01*
X173595238Y-123214285D01*
X173061904Y-122566666D02*
X173061904Y-122719047D01*
X173100000Y-122795238D01*
X173138095Y-122833333D01*
X173252380Y-122909523D01*
X173404761Y-122947619D01*
X173709523Y-122947619D01*
X173785714Y-122909523D01*
X173823809Y-122871428D01*
X173861904Y-122795238D01*
X173861904Y-122642857D01*
X173823809Y-122566666D01*
X173785714Y-122528571D01*
X173709523Y-122490476D01*
X173519047Y-122490476D01*
X173442857Y-122528571D01*
X173404761Y-122566666D01*
X173366666Y-122642857D01*
X173366666Y-122795238D01*
X173404761Y-122871428D01*
X173442857Y-122909523D01*
X173519047Y-122947619D01*
X166285714Y-124014285D02*
X166323809Y-124052380D01*
X166361904Y-124166666D01*
X166361904Y-124242857D01*
X166323809Y-124357142D01*
X166247619Y-124433333D01*
X166171428Y-124471428D01*
X166019047Y-124509523D01*
X165904761Y-124509523D01*
X165752380Y-124471428D01*
X165676190Y-124433333D01*
X165600000Y-124357142D01*
X165561904Y-124242857D01*
X165561904Y-124166666D01*
X165600000Y-124052380D01*
X165638095Y-124014285D01*
X165828571Y-123328571D02*
X166361904Y-123328571D01*
X165523809Y-123519047D02*
X166095238Y-123709523D01*
X166095238Y-123214285D01*
X165561904Y-122528571D02*
X165561904Y-122909523D01*
X165942857Y-122947619D01*
X165904761Y-122909523D01*
X165866666Y-122833333D01*
X165866666Y-122642857D01*
X165904761Y-122566666D01*
X165942857Y-122528571D01*
X166019047Y-122490476D01*
X166209523Y-122490476D01*
X166285714Y-122528571D01*
X166323809Y-122566666D01*
X166361904Y-122642857D01*
X166361904Y-122833333D01*
X166323809Y-122909523D01*
X166285714Y-122947619D01*
X163485714Y-124285714D02*
X163447619Y-124323809D01*
X163333333Y-124361904D01*
X163257142Y-124361904D01*
X163142857Y-124323809D01*
X163066666Y-124247619D01*
X163028571Y-124171428D01*
X162990476Y-124019047D01*
X162990476Y-123904761D01*
X163028571Y-123752380D01*
X163066666Y-123676190D01*
X163142857Y-123600000D01*
X163257142Y-123561904D01*
X163333333Y-123561904D01*
X163447619Y-123600000D01*
X163485714Y-123638095D01*
X164171428Y-123828571D02*
X164171428Y-124361904D01*
X163980952Y-123523809D02*
X163790476Y-124095238D01*
X164285714Y-124095238D01*
X164933333Y-123828571D02*
X164933333Y-124361904D01*
X164742857Y-123523809D02*
X164552380Y-124095238D01*
X165047619Y-124095238D01*
X149785714Y-105514285D02*
X149823809Y-105552380D01*
X149861904Y-105666666D01*
X149861904Y-105742857D01*
X149823809Y-105857142D01*
X149747619Y-105933333D01*
X149671428Y-105971428D01*
X149519047Y-106009523D01*
X149404761Y-106009523D01*
X149252380Y-105971428D01*
X149176190Y-105933333D01*
X149100000Y-105857142D01*
X149061904Y-105742857D01*
X149061904Y-105666666D01*
X149100000Y-105552380D01*
X149138095Y-105514285D01*
X149328571Y-104828571D02*
X149861904Y-104828571D01*
X149023809Y-105019047D02*
X149595238Y-105209523D01*
X149595238Y-104714285D01*
X149061904Y-104485714D02*
X149061904Y-103990476D01*
X149366666Y-104257142D01*
X149366666Y-104142857D01*
X149404761Y-104066666D01*
X149442857Y-104028571D01*
X149519047Y-103990476D01*
X149709523Y-103990476D01*
X149785714Y-104028571D01*
X149823809Y-104066666D01*
X149861904Y-104142857D01*
X149861904Y-104371428D01*
X149823809Y-104447619D01*
X149785714Y-104485714D01*
X150785714Y-105514285D02*
X150823809Y-105552380D01*
X150861904Y-105666666D01*
X150861904Y-105742857D01*
X150823809Y-105857142D01*
X150747619Y-105933333D01*
X150671428Y-105971428D01*
X150519047Y-106009523D01*
X150404761Y-106009523D01*
X150252380Y-105971428D01*
X150176190Y-105933333D01*
X150100000Y-105857142D01*
X150061904Y-105742857D01*
X150061904Y-105666666D01*
X150100000Y-105552380D01*
X150138095Y-105514285D01*
X150328571Y-104828571D02*
X150861904Y-104828571D01*
X150023809Y-105019047D02*
X150595238Y-105209523D01*
X150595238Y-104714285D01*
X150138095Y-104447619D02*
X150100000Y-104409523D01*
X150061904Y-104333333D01*
X150061904Y-104142857D01*
X150100000Y-104066666D01*
X150138095Y-104028571D01*
X150214285Y-103990476D01*
X150290476Y-103990476D01*
X150404761Y-104028571D01*
X150861904Y-104485714D01*
X150861904Y-103990476D01*
X126285714Y-98514285D02*
X126323809Y-98552380D01*
X126361904Y-98666666D01*
X126361904Y-98742857D01*
X126323809Y-98857142D01*
X126247619Y-98933333D01*
X126171428Y-98971428D01*
X126019047Y-99009523D01*
X125904761Y-99009523D01*
X125752380Y-98971428D01*
X125676190Y-98933333D01*
X125600000Y-98857142D01*
X125561904Y-98742857D01*
X125561904Y-98666666D01*
X125600000Y-98552380D01*
X125638095Y-98514285D01*
X125828571Y-97828571D02*
X126361904Y-97828571D01*
X125523809Y-98019047D02*
X126095238Y-98209523D01*
X126095238Y-97714285D01*
X126361904Y-96990476D02*
X126361904Y-97447619D01*
X126361904Y-97219047D02*
X125561904Y-97219047D01*
X125676190Y-97295238D01*
X125752380Y-97371428D01*
X125790476Y-97447619D01*
X124785714Y-98514285D02*
X124823809Y-98552380D01*
X124861904Y-98666666D01*
X124861904Y-98742857D01*
X124823809Y-98857142D01*
X124747619Y-98933333D01*
X124671428Y-98971428D01*
X124519047Y-99009523D01*
X124404761Y-99009523D01*
X124252380Y-98971428D01*
X124176190Y-98933333D01*
X124100000Y-98857142D01*
X124061904Y-98742857D01*
X124061904Y-98666666D01*
X124100000Y-98552380D01*
X124138095Y-98514285D01*
X124328571Y-97828571D02*
X124861904Y-97828571D01*
X124023809Y-98019047D02*
X124595238Y-98209523D01*
X124595238Y-97714285D01*
X124061904Y-97257142D02*
X124061904Y-97180952D01*
X124100000Y-97104761D01*
X124138095Y-97066666D01*
X124214285Y-97028571D01*
X124366666Y-96990476D01*
X124557142Y-96990476D01*
X124709523Y-97028571D01*
X124785714Y-97066666D01*
X124823809Y-97104761D01*
X124861904Y-97180952D01*
X124861904Y-97257142D01*
X124823809Y-97333333D01*
X124785714Y-97371428D01*
X124709523Y-97409523D01*
X124557142Y-97447619D01*
X124366666Y-97447619D01*
X124214285Y-97409523D01*
X124138095Y-97371428D01*
X124100000Y-97333333D01*
X124061904Y-97257142D01*
X119985714Y-113285714D02*
X119947619Y-113323809D01*
X119833333Y-113361904D01*
X119757142Y-113361904D01*
X119642857Y-113323809D01*
X119566666Y-113247619D01*
X119528571Y-113171428D01*
X119490476Y-113019047D01*
X119490476Y-112904761D01*
X119528571Y-112752380D01*
X119566666Y-112676190D01*
X119642857Y-112600000D01*
X119757142Y-112561904D01*
X119833333Y-112561904D01*
X119947619Y-112600000D01*
X119985714Y-112638095D01*
X120252380Y-112561904D02*
X120747619Y-112561904D01*
X120480952Y-112866666D01*
X120595238Y-112866666D01*
X120671428Y-112904761D01*
X120709523Y-112942857D01*
X120747619Y-113019047D01*
X120747619Y-113209523D01*
X120709523Y-113285714D01*
X120671428Y-113323809D01*
X120595238Y-113361904D01*
X120366666Y-113361904D01*
X120290476Y-113323809D01*
X120252380Y-113285714D01*
X121128571Y-113361904D02*
X121280952Y-113361904D01*
X121357142Y-113323809D01*
X121395238Y-113285714D01*
X121471428Y-113171428D01*
X121509523Y-113019047D01*
X121509523Y-112714285D01*
X121471428Y-112638095D01*
X121433333Y-112600000D01*
X121357142Y-112561904D01*
X121204761Y-112561904D01*
X121128571Y-112600000D01*
X121090476Y-112638095D01*
X121052380Y-112714285D01*
X121052380Y-112904761D01*
X121090476Y-112980952D01*
X121128571Y-113019047D01*
X121204761Y-113057142D01*
X121357142Y-113057142D01*
X121433333Y-113019047D01*
X121471428Y-112980952D01*
X121509523Y-112904761D01*
X131985714Y-108785714D02*
X131947619Y-108823809D01*
X131833333Y-108861904D01*
X131757142Y-108861904D01*
X131642857Y-108823809D01*
X131566666Y-108747619D01*
X131528571Y-108671428D01*
X131490476Y-108519047D01*
X131490476Y-108404761D01*
X131528571Y-108252380D01*
X131566666Y-108176190D01*
X131642857Y-108100000D01*
X131757142Y-108061904D01*
X131833333Y-108061904D01*
X131947619Y-108100000D01*
X131985714Y-108138095D01*
X132252380Y-108061904D02*
X132747619Y-108061904D01*
X132480952Y-108366666D01*
X132595238Y-108366666D01*
X132671428Y-108404761D01*
X132709523Y-108442857D01*
X132747619Y-108519047D01*
X132747619Y-108709523D01*
X132709523Y-108785714D01*
X132671428Y-108823809D01*
X132595238Y-108861904D01*
X132366666Y-108861904D01*
X132290476Y-108823809D01*
X132252380Y-108785714D01*
X133204761Y-108404761D02*
X133128571Y-108366666D01*
X133090476Y-108328571D01*
X133052380Y-108252380D01*
X133052380Y-108214285D01*
X133090476Y-108138095D01*
X133128571Y-108100000D01*
X133204761Y-108061904D01*
X133357142Y-108061904D01*
X133433333Y-108100000D01*
X133471428Y-108138095D01*
X133509523Y-108214285D01*
X133509523Y-108252380D01*
X133471428Y-108328571D01*
X133433333Y-108366666D01*
X133357142Y-108404761D01*
X133204761Y-108404761D01*
X133128571Y-108442857D01*
X133090476Y-108480952D01*
X133052380Y-108557142D01*
X133052380Y-108709523D01*
X133090476Y-108785714D01*
X133128571Y-108823809D01*
X133204761Y-108861904D01*
X133357142Y-108861904D01*
X133433333Y-108823809D01*
X133471428Y-108785714D01*
X133509523Y-108709523D01*
X133509523Y-108557142D01*
X133471428Y-108480952D01*
X133433333Y-108442857D01*
X133357142Y-108404761D01*
X131985714Y-107785714D02*
X131947619Y-107823809D01*
X131833333Y-107861904D01*
X131757142Y-107861904D01*
X131642857Y-107823809D01*
X131566666Y-107747619D01*
X131528571Y-107671428D01*
X131490476Y-107519047D01*
X131490476Y-107404761D01*
X131528571Y-107252380D01*
X131566666Y-107176190D01*
X131642857Y-107100000D01*
X131757142Y-107061904D01*
X131833333Y-107061904D01*
X131947619Y-107100000D01*
X131985714Y-107138095D01*
X132252380Y-107061904D02*
X132747619Y-107061904D01*
X132480952Y-107366666D01*
X132595238Y-107366666D01*
X132671428Y-107404761D01*
X132709523Y-107442857D01*
X132747619Y-107519047D01*
X132747619Y-107709523D01*
X132709523Y-107785714D01*
X132671428Y-107823809D01*
X132595238Y-107861904D01*
X132366666Y-107861904D01*
X132290476Y-107823809D01*
X132252380Y-107785714D01*
X133014285Y-107061904D02*
X133547619Y-107061904D01*
X133204761Y-107861904D01*
X127485714Y-95785714D02*
X127447619Y-95823809D01*
X127333333Y-95861904D01*
X127257142Y-95861904D01*
X127142857Y-95823809D01*
X127066666Y-95747619D01*
X127028571Y-95671428D01*
X126990476Y-95519047D01*
X126990476Y-95404761D01*
X127028571Y-95252380D01*
X127066666Y-95176190D01*
X127142857Y-95100000D01*
X127257142Y-95061904D01*
X127333333Y-95061904D01*
X127447619Y-95100000D01*
X127485714Y-95138095D01*
X127752380Y-95061904D02*
X128247619Y-95061904D01*
X127980952Y-95366666D01*
X128095238Y-95366666D01*
X128171428Y-95404761D01*
X128209523Y-95442857D01*
X128247619Y-95519047D01*
X128247619Y-95709523D01*
X128209523Y-95785714D01*
X128171428Y-95823809D01*
X128095238Y-95861904D01*
X127866666Y-95861904D01*
X127790476Y-95823809D01*
X127752380Y-95785714D01*
X128933333Y-95061904D02*
X128780952Y-95061904D01*
X128704761Y-95100000D01*
X128666666Y-95138095D01*
X128590476Y-95252380D01*
X128552380Y-95404761D01*
X128552380Y-95709523D01*
X128590476Y-95785714D01*
X128628571Y-95823809D01*
X128704761Y-95861904D01*
X128857142Y-95861904D01*
X128933333Y-95823809D01*
X128971428Y-95785714D01*
X129009523Y-95709523D01*
X129009523Y-95519047D01*
X128971428Y-95442857D01*
X128933333Y-95404761D01*
X128857142Y-95366666D01*
X128704761Y-95366666D01*
X128628571Y-95404761D01*
X128590476Y-95442857D01*
X128552380Y-95519047D01*
X129985714Y-95785714D02*
X129947619Y-95823809D01*
X129833333Y-95861904D01*
X129757142Y-95861904D01*
X129642857Y-95823809D01*
X129566666Y-95747619D01*
X129528571Y-95671428D01*
X129490476Y-95519047D01*
X129490476Y-95404761D01*
X129528571Y-95252380D01*
X129566666Y-95176190D01*
X129642857Y-95100000D01*
X129757142Y-95061904D01*
X129833333Y-95061904D01*
X129947619Y-95100000D01*
X129985714Y-95138095D01*
X130252380Y-95061904D02*
X130747619Y-95061904D01*
X130480952Y-95366666D01*
X130595238Y-95366666D01*
X130671428Y-95404761D01*
X130709523Y-95442857D01*
X130747619Y-95519047D01*
X130747619Y-95709523D01*
X130709523Y-95785714D01*
X130671428Y-95823809D01*
X130595238Y-95861904D01*
X130366666Y-95861904D01*
X130290476Y-95823809D01*
X130252380Y-95785714D01*
X131471428Y-95061904D02*
X131090476Y-95061904D01*
X131052380Y-95442857D01*
X131090476Y-95404761D01*
X131166666Y-95366666D01*
X131357142Y-95366666D01*
X131433333Y-95404761D01*
X131471428Y-95442857D01*
X131509523Y-95519047D01*
X131509523Y-95709523D01*
X131471428Y-95785714D01*
X131433333Y-95823809D01*
X131357142Y-95861904D01*
X131166666Y-95861904D01*
X131090476Y-95823809D01*
X131052380Y-95785714D01*
X129785714Y-98014285D02*
X129823809Y-98052380D01*
X129861904Y-98166666D01*
X129861904Y-98242857D01*
X129823809Y-98357142D01*
X129747619Y-98433333D01*
X129671428Y-98471428D01*
X129519047Y-98509523D01*
X129404761Y-98509523D01*
X129252380Y-98471428D01*
X129176190Y-98433333D01*
X129100000Y-98357142D01*
X129061904Y-98242857D01*
X129061904Y-98166666D01*
X129100000Y-98052380D01*
X129138095Y-98014285D01*
X129061904Y-97747619D02*
X129061904Y-97252380D01*
X129366666Y-97519047D01*
X129366666Y-97404761D01*
X129404761Y-97328571D01*
X129442857Y-97290476D01*
X129519047Y-97252380D01*
X129709523Y-97252380D01*
X129785714Y-97290476D01*
X129823809Y-97328571D01*
X129861904Y-97404761D01*
X129861904Y-97633333D01*
X129823809Y-97709523D01*
X129785714Y-97747619D01*
X129328571Y-96566666D02*
X129861904Y-96566666D01*
X129023809Y-96757142D02*
X129595238Y-96947619D01*
X129595238Y-96452380D01*
X185485714Y-90285714D02*
X185447619Y-90323809D01*
X185333333Y-90361904D01*
X185257142Y-90361904D01*
X185142857Y-90323809D01*
X185066666Y-90247619D01*
X185028571Y-90171428D01*
X184990476Y-90019047D01*
X184990476Y-89904761D01*
X185028571Y-89752380D01*
X185066666Y-89676190D01*
X185142857Y-89600000D01*
X185257142Y-89561904D01*
X185333333Y-89561904D01*
X185447619Y-89600000D01*
X185485714Y-89638095D01*
X185752380Y-89561904D02*
X186247619Y-89561904D01*
X185980952Y-89866666D01*
X186095238Y-89866666D01*
X186171428Y-89904761D01*
X186209523Y-89942857D01*
X186247619Y-90019047D01*
X186247619Y-90209523D01*
X186209523Y-90285714D01*
X186171428Y-90323809D01*
X186095238Y-90361904D01*
X185866666Y-90361904D01*
X185790476Y-90323809D01*
X185752380Y-90285714D01*
X186514285Y-89561904D02*
X187009523Y-89561904D01*
X186742857Y-89866666D01*
X186857142Y-89866666D01*
X186933333Y-89904761D01*
X186971428Y-89942857D01*
X187009523Y-90019047D01*
X187009523Y-90209523D01*
X186971428Y-90285714D01*
X186933333Y-90323809D01*
X186857142Y-90361904D01*
X186628571Y-90361904D01*
X186552380Y-90323809D01*
X186514285Y-90285714D01*
X164285714Y-92014285D02*
X164323809Y-92052380D01*
X164361904Y-92166666D01*
X164361904Y-92242857D01*
X164323809Y-92357142D01*
X164247619Y-92433333D01*
X164171428Y-92471428D01*
X164019047Y-92509523D01*
X163904761Y-92509523D01*
X163752380Y-92471428D01*
X163676190Y-92433333D01*
X163600000Y-92357142D01*
X163561904Y-92242857D01*
X163561904Y-92166666D01*
X163600000Y-92052380D01*
X163638095Y-92014285D01*
X163561904Y-91747619D02*
X163561904Y-91252380D01*
X163866666Y-91519047D01*
X163866666Y-91404761D01*
X163904761Y-91328571D01*
X163942857Y-91290476D01*
X164019047Y-91252380D01*
X164209523Y-91252380D01*
X164285714Y-91290476D01*
X164323809Y-91328571D01*
X164361904Y-91404761D01*
X164361904Y-91633333D01*
X164323809Y-91709523D01*
X164285714Y-91747619D01*
X163638095Y-90947619D02*
X163600000Y-90909523D01*
X163561904Y-90833333D01*
X163561904Y-90642857D01*
X163600000Y-90566666D01*
X163638095Y-90528571D01*
X163714285Y-90490476D01*
X163790476Y-90490476D01*
X163904761Y-90528571D01*
X164361904Y-90985714D01*
X164361904Y-90490476D01*
X178785714Y-106514285D02*
X178823809Y-106552380D01*
X178861904Y-106666666D01*
X178861904Y-106742857D01*
X178823809Y-106857142D01*
X178747619Y-106933333D01*
X178671428Y-106971428D01*
X178519047Y-107009523D01*
X178404761Y-107009523D01*
X178252380Y-106971428D01*
X178176190Y-106933333D01*
X178100000Y-106857142D01*
X178061904Y-106742857D01*
X178061904Y-106666666D01*
X178100000Y-106552380D01*
X178138095Y-106514285D01*
X178061904Y-106247619D02*
X178061904Y-105752380D01*
X178366666Y-106019047D01*
X178366666Y-105904761D01*
X178404761Y-105828571D01*
X178442857Y-105790476D01*
X178519047Y-105752380D01*
X178709523Y-105752380D01*
X178785714Y-105790476D01*
X178823809Y-105828571D01*
X178861904Y-105904761D01*
X178861904Y-106133333D01*
X178823809Y-106209523D01*
X178785714Y-106247619D01*
X178861904Y-104990476D02*
X178861904Y-105447619D01*
X178861904Y-105219047D02*
X178061904Y-105219047D01*
X178176190Y-105295238D01*
X178252380Y-105371428D01*
X178290476Y-105447619D01*
X178785714Y-104014285D02*
X178823809Y-104052380D01*
X178861904Y-104166666D01*
X178861904Y-104242857D01*
X178823809Y-104357142D01*
X178747619Y-104433333D01*
X178671428Y-104471428D01*
X178519047Y-104509523D01*
X178404761Y-104509523D01*
X178252380Y-104471428D01*
X178176190Y-104433333D01*
X178100000Y-104357142D01*
X178061904Y-104242857D01*
X178061904Y-104166666D01*
X178100000Y-104052380D01*
X178138095Y-104014285D01*
X178061904Y-103747619D02*
X178061904Y-103252380D01*
X178366666Y-103519047D01*
X178366666Y-103404761D01*
X178404761Y-103328571D01*
X178442857Y-103290476D01*
X178519047Y-103252380D01*
X178709523Y-103252380D01*
X178785714Y-103290476D01*
X178823809Y-103328571D01*
X178861904Y-103404761D01*
X178861904Y-103633333D01*
X178823809Y-103709523D01*
X178785714Y-103747619D01*
X178061904Y-102757142D02*
X178061904Y-102680952D01*
X178100000Y-102604761D01*
X178138095Y-102566666D01*
X178214285Y-102528571D01*
X178366666Y-102490476D01*
X178557142Y-102490476D01*
X178709523Y-102528571D01*
X178785714Y-102566666D01*
X178823809Y-102604761D01*
X178861904Y-102680952D01*
X178861904Y-102757142D01*
X178823809Y-102833333D01*
X178785714Y-102871428D01*
X178709523Y-102909523D01*
X178557142Y-102947619D01*
X178366666Y-102947619D01*
X178214285Y-102909523D01*
X178138095Y-102871428D01*
X178100000Y-102833333D01*
X178061904Y-102757142D01*
X159785714Y-111014285D02*
X159823809Y-111052380D01*
X159861904Y-111166666D01*
X159861904Y-111242857D01*
X159823809Y-111357142D01*
X159747619Y-111433333D01*
X159671428Y-111471428D01*
X159519047Y-111509523D01*
X159404761Y-111509523D01*
X159252380Y-111471428D01*
X159176190Y-111433333D01*
X159100000Y-111357142D01*
X159061904Y-111242857D01*
X159061904Y-111166666D01*
X159100000Y-111052380D01*
X159138095Y-111014285D01*
X159138095Y-110709523D02*
X159100000Y-110671428D01*
X159061904Y-110595238D01*
X159061904Y-110404761D01*
X159100000Y-110328571D01*
X159138095Y-110290476D01*
X159214285Y-110252380D01*
X159290476Y-110252380D01*
X159404761Y-110290476D01*
X159861904Y-110747619D01*
X159861904Y-110252380D01*
X159861904Y-109871428D02*
X159861904Y-109719047D01*
X159823809Y-109642857D01*
X159785714Y-109604761D01*
X159671428Y-109528571D01*
X159519047Y-109490476D01*
X159214285Y-109490476D01*
X159138095Y-109528571D01*
X159100000Y-109566666D01*
X159061904Y-109642857D01*
X159061904Y-109795238D01*
X159100000Y-109871428D01*
X159138095Y-109909523D01*
X159214285Y-109947619D01*
X159404761Y-109947619D01*
X159480952Y-109909523D01*
X159519047Y-109871428D01*
X159557142Y-109795238D01*
X159557142Y-109642857D01*
X159519047Y-109566666D01*
X159480952Y-109528571D01*
X159404761Y-109490476D01*
X160785714Y-111014285D02*
X160823809Y-111052380D01*
X160861904Y-111166666D01*
X160861904Y-111242857D01*
X160823809Y-111357142D01*
X160747619Y-111433333D01*
X160671428Y-111471428D01*
X160519047Y-111509523D01*
X160404761Y-111509523D01*
X160252380Y-111471428D01*
X160176190Y-111433333D01*
X160100000Y-111357142D01*
X160061904Y-111242857D01*
X160061904Y-111166666D01*
X160100000Y-111052380D01*
X160138095Y-111014285D01*
X160138095Y-110709523D02*
X160100000Y-110671428D01*
X160061904Y-110595238D01*
X160061904Y-110404761D01*
X160100000Y-110328571D01*
X160138095Y-110290476D01*
X160214285Y-110252380D01*
X160290476Y-110252380D01*
X160404761Y-110290476D01*
X160861904Y-110747619D01*
X160861904Y-110252380D01*
X160404761Y-109795238D02*
X160366666Y-109871428D01*
X160328571Y-109909523D01*
X160252380Y-109947619D01*
X160214285Y-109947619D01*
X160138095Y-109909523D01*
X160100000Y-109871428D01*
X160061904Y-109795238D01*
X160061904Y-109642857D01*
X160100000Y-109566666D01*
X160138095Y-109528571D01*
X160214285Y-109490476D01*
X160252380Y-109490476D01*
X160328571Y-109528571D01*
X160366666Y-109566666D01*
X160404761Y-109642857D01*
X160404761Y-109795238D01*
X160442857Y-109871428D01*
X160480952Y-109909523D01*
X160557142Y-109947619D01*
X160709523Y-109947619D01*
X160785714Y-109909523D01*
X160823809Y-109871428D01*
X160861904Y-109795238D01*
X160861904Y-109642857D01*
X160823809Y-109566666D01*
X160785714Y-109528571D01*
X160709523Y-109490476D01*
X160557142Y-109490476D01*
X160480952Y-109528571D01*
X160442857Y-109566666D01*
X160404761Y-109642857D01*
X157785714Y-111014285D02*
X157823809Y-111052380D01*
X157861904Y-111166666D01*
X157861904Y-111242857D01*
X157823809Y-111357142D01*
X157747619Y-111433333D01*
X157671428Y-111471428D01*
X157519047Y-111509523D01*
X157404761Y-111509523D01*
X157252380Y-111471428D01*
X157176190Y-111433333D01*
X157100000Y-111357142D01*
X157061904Y-111242857D01*
X157061904Y-111166666D01*
X157100000Y-111052380D01*
X157138095Y-111014285D01*
X157138095Y-110709523D02*
X157100000Y-110671428D01*
X157061904Y-110595238D01*
X157061904Y-110404761D01*
X157100000Y-110328571D01*
X157138095Y-110290476D01*
X157214285Y-110252380D01*
X157290476Y-110252380D01*
X157404761Y-110290476D01*
X157861904Y-110747619D01*
X157861904Y-110252380D01*
X157061904Y-109985714D02*
X157061904Y-109452380D01*
X157861904Y-109795238D01*
X158785714Y-111014285D02*
X158823809Y-111052380D01*
X158861904Y-111166666D01*
X158861904Y-111242857D01*
X158823809Y-111357142D01*
X158747619Y-111433333D01*
X158671428Y-111471428D01*
X158519047Y-111509523D01*
X158404761Y-111509523D01*
X158252380Y-111471428D01*
X158176190Y-111433333D01*
X158100000Y-111357142D01*
X158061904Y-111242857D01*
X158061904Y-111166666D01*
X158100000Y-111052380D01*
X158138095Y-111014285D01*
X158138095Y-110709523D02*
X158100000Y-110671428D01*
X158061904Y-110595238D01*
X158061904Y-110404761D01*
X158100000Y-110328571D01*
X158138095Y-110290476D01*
X158214285Y-110252380D01*
X158290476Y-110252380D01*
X158404761Y-110290476D01*
X158861904Y-110747619D01*
X158861904Y-110252380D01*
X158061904Y-109566666D02*
X158061904Y-109719047D01*
X158100000Y-109795238D01*
X158138095Y-109833333D01*
X158252380Y-109909523D01*
X158404761Y-109947619D01*
X158709523Y-109947619D01*
X158785714Y-109909523D01*
X158823809Y-109871428D01*
X158861904Y-109795238D01*
X158861904Y-109642857D01*
X158823809Y-109566666D01*
X158785714Y-109528571D01*
X158709523Y-109490476D01*
X158519047Y-109490476D01*
X158442857Y-109528571D01*
X158404761Y-109566666D01*
X158366666Y-109642857D01*
X158366666Y-109795238D01*
X158404761Y-109871428D01*
X158442857Y-109909523D01*
X158519047Y-109947619D01*
X157285714Y-114014285D02*
X157323809Y-114052380D01*
X157361904Y-114166666D01*
X157361904Y-114242857D01*
X157323809Y-114357142D01*
X157247619Y-114433333D01*
X157171428Y-114471428D01*
X157019047Y-114509523D01*
X156904761Y-114509523D01*
X156752380Y-114471428D01*
X156676190Y-114433333D01*
X156600000Y-114357142D01*
X156561904Y-114242857D01*
X156561904Y-114166666D01*
X156600000Y-114052380D01*
X156638095Y-114014285D01*
X156638095Y-113709523D02*
X156600000Y-113671428D01*
X156561904Y-113595238D01*
X156561904Y-113404761D01*
X156600000Y-113328571D01*
X156638095Y-113290476D01*
X156714285Y-113252380D01*
X156790476Y-113252380D01*
X156904761Y-113290476D01*
X157361904Y-113747619D01*
X157361904Y-113252380D01*
X156561904Y-112528571D02*
X156561904Y-112909523D01*
X156942857Y-112947619D01*
X156904761Y-112909523D01*
X156866666Y-112833333D01*
X156866666Y-112642857D01*
X156904761Y-112566666D01*
X156942857Y-112528571D01*
X157019047Y-112490476D01*
X157209523Y-112490476D01*
X157285714Y-112528571D01*
X157323809Y-112566666D01*
X157361904Y-112642857D01*
X157361904Y-112833333D01*
X157323809Y-112909523D01*
X157285714Y-112947619D01*
X171785714Y-114014285D02*
X171823809Y-114052380D01*
X171861904Y-114166666D01*
X171861904Y-114242857D01*
X171823809Y-114357142D01*
X171747619Y-114433333D01*
X171671428Y-114471428D01*
X171519047Y-114509523D01*
X171404761Y-114509523D01*
X171252380Y-114471428D01*
X171176190Y-114433333D01*
X171100000Y-114357142D01*
X171061904Y-114242857D01*
X171061904Y-114166666D01*
X171100000Y-114052380D01*
X171138095Y-114014285D01*
X171138095Y-113709523D02*
X171100000Y-113671428D01*
X171061904Y-113595238D01*
X171061904Y-113404761D01*
X171100000Y-113328571D01*
X171138095Y-113290476D01*
X171214285Y-113252380D01*
X171290476Y-113252380D01*
X171404761Y-113290476D01*
X171861904Y-113747619D01*
X171861904Y-113252380D01*
X171328571Y-112566666D02*
X171861904Y-112566666D01*
X171023809Y-112757142D02*
X171595238Y-112947619D01*
X171595238Y-112452380D01*
X171785714Y-97514285D02*
X171823809Y-97552380D01*
X171861904Y-97666666D01*
X171861904Y-97742857D01*
X171823809Y-97857142D01*
X171747619Y-97933333D01*
X171671428Y-97971428D01*
X171519047Y-98009523D01*
X171404761Y-98009523D01*
X171252380Y-97971428D01*
X171176190Y-97933333D01*
X171100000Y-97857142D01*
X171061904Y-97742857D01*
X171061904Y-97666666D01*
X171100000Y-97552380D01*
X171138095Y-97514285D01*
X171138095Y-97209523D02*
X171100000Y-97171428D01*
X171061904Y-97095238D01*
X171061904Y-96904761D01*
X171100000Y-96828571D01*
X171138095Y-96790476D01*
X171214285Y-96752380D01*
X171290476Y-96752380D01*
X171404761Y-96790476D01*
X171861904Y-97247619D01*
X171861904Y-96752380D01*
X171061904Y-96485714D02*
X171061904Y-95990476D01*
X171366666Y-96257142D01*
X171366666Y-96142857D01*
X171404761Y-96066666D01*
X171442857Y-96028571D01*
X171519047Y-95990476D01*
X171709523Y-95990476D01*
X171785714Y-96028571D01*
X171823809Y-96066666D01*
X171861904Y-96142857D01*
X171861904Y-96371428D01*
X171823809Y-96447619D01*
X171785714Y-96485714D01*
X175285714Y-99514285D02*
X175323809Y-99552380D01*
X175361904Y-99666666D01*
X175361904Y-99742857D01*
X175323809Y-99857142D01*
X175247619Y-99933333D01*
X175171428Y-99971428D01*
X175019047Y-100009523D01*
X174904761Y-100009523D01*
X174752380Y-99971428D01*
X174676190Y-99933333D01*
X174600000Y-99857142D01*
X174561904Y-99742857D01*
X174561904Y-99666666D01*
X174600000Y-99552380D01*
X174638095Y-99514285D01*
X174638095Y-99209523D02*
X174600000Y-99171428D01*
X174561904Y-99095238D01*
X174561904Y-98904761D01*
X174600000Y-98828571D01*
X174638095Y-98790476D01*
X174714285Y-98752380D01*
X174790476Y-98752380D01*
X174904761Y-98790476D01*
X175361904Y-99247619D01*
X175361904Y-98752380D01*
X174638095Y-98447619D02*
X174600000Y-98409523D01*
X174561904Y-98333333D01*
X174561904Y-98142857D01*
X174600000Y-98066666D01*
X174638095Y-98028571D01*
X174714285Y-97990476D01*
X174790476Y-97990476D01*
X174904761Y-98028571D01*
X175361904Y-98485714D01*
X175361904Y-97990476D01*
X165485714Y-101285714D02*
X165447619Y-101323809D01*
X165333333Y-101361904D01*
X165257142Y-101361904D01*
X165142857Y-101323809D01*
X165066666Y-101247619D01*
X165028571Y-101171428D01*
X164990476Y-101019047D01*
X164990476Y-100904761D01*
X165028571Y-100752380D01*
X165066666Y-100676190D01*
X165142857Y-100600000D01*
X165257142Y-100561904D01*
X165333333Y-100561904D01*
X165447619Y-100600000D01*
X165485714Y-100638095D01*
X165790476Y-100638095D02*
X165828571Y-100600000D01*
X165904761Y-100561904D01*
X166095238Y-100561904D01*
X166171428Y-100600000D01*
X166209523Y-100638095D01*
X166247619Y-100714285D01*
X166247619Y-100790476D01*
X166209523Y-100904761D01*
X165752380Y-101361904D01*
X166247619Y-101361904D01*
X167009523Y-101361904D02*
X166552380Y-101361904D01*
X166780952Y-101361904D02*
X166780952Y-100561904D01*
X166704761Y-100676190D01*
X166628571Y-100752380D01*
X166552380Y-100790476D01*
X165485714Y-96785714D02*
X165447619Y-96823809D01*
X165333333Y-96861904D01*
X165257142Y-96861904D01*
X165142857Y-96823809D01*
X165066666Y-96747619D01*
X165028571Y-96671428D01*
X164990476Y-96519047D01*
X164990476Y-96404761D01*
X165028571Y-96252380D01*
X165066666Y-96176190D01*
X165142857Y-96100000D01*
X165257142Y-96061904D01*
X165333333Y-96061904D01*
X165447619Y-96100000D01*
X165485714Y-96138095D01*
X165790476Y-96138095D02*
X165828571Y-96100000D01*
X165904761Y-96061904D01*
X166095238Y-96061904D01*
X166171428Y-96100000D01*
X166209523Y-96138095D01*
X166247619Y-96214285D01*
X166247619Y-96290476D01*
X166209523Y-96404761D01*
X165752380Y-96861904D01*
X166247619Y-96861904D01*
X166742857Y-96061904D02*
X166819047Y-96061904D01*
X166895238Y-96100000D01*
X166933333Y-96138095D01*
X166971428Y-96214285D01*
X167009523Y-96366666D01*
X167009523Y-96557142D01*
X166971428Y-96709523D01*
X166933333Y-96785714D01*
X166895238Y-96823809D01*
X166819047Y-96861904D01*
X166742857Y-96861904D01*
X166666666Y-96823809D01*
X166628571Y-96785714D01*
X166590476Y-96709523D01*
X166552380Y-96557142D01*
X166552380Y-96366666D01*
X166590476Y-96214285D01*
X166628571Y-96138095D01*
X166666666Y-96100000D01*
X166742857Y-96061904D01*
X163035714Y-111014285D02*
X163073809Y-111052380D01*
X163111904Y-111166666D01*
X163111904Y-111242857D01*
X163073809Y-111357142D01*
X162997619Y-111433333D01*
X162921428Y-111471428D01*
X162769047Y-111509523D01*
X162654761Y-111509523D01*
X162502380Y-111471428D01*
X162426190Y-111433333D01*
X162350000Y-111357142D01*
X162311904Y-111242857D01*
X162311904Y-111166666D01*
X162350000Y-111052380D01*
X162388095Y-111014285D01*
X163111904Y-110252380D02*
X163111904Y-110709523D01*
X163111904Y-110480952D02*
X162311904Y-110480952D01*
X162426190Y-110557142D01*
X162502380Y-110633333D01*
X162540476Y-110709523D01*
X163111904Y-109871428D02*
X163111904Y-109719047D01*
X163073809Y-109642857D01*
X163035714Y-109604761D01*
X162921428Y-109528571D01*
X162769047Y-109490476D01*
X162464285Y-109490476D01*
X162388095Y-109528571D01*
X162350000Y-109566666D01*
X162311904Y-109642857D01*
X162311904Y-109795238D01*
X162350000Y-109871428D01*
X162388095Y-109909523D01*
X162464285Y-109947619D01*
X162654761Y-109947619D01*
X162730952Y-109909523D01*
X162769047Y-109871428D01*
X162807142Y-109795238D01*
X162807142Y-109642857D01*
X162769047Y-109566666D01*
X162730952Y-109528571D01*
X162654761Y-109490476D01*
X162985714Y-108285714D02*
X162947619Y-108323809D01*
X162833333Y-108361904D01*
X162757142Y-108361904D01*
X162642857Y-108323809D01*
X162566666Y-108247619D01*
X162528571Y-108171428D01*
X162490476Y-108019047D01*
X162490476Y-107904761D01*
X162528571Y-107752380D01*
X162566666Y-107676190D01*
X162642857Y-107600000D01*
X162757142Y-107561904D01*
X162833333Y-107561904D01*
X162947619Y-107600000D01*
X162985714Y-107638095D01*
X163747619Y-108361904D02*
X163290476Y-108361904D01*
X163519047Y-108361904D02*
X163519047Y-107561904D01*
X163442857Y-107676190D01*
X163366666Y-107752380D01*
X163290476Y-107790476D01*
X164204761Y-107904761D02*
X164128571Y-107866666D01*
X164090476Y-107828571D01*
X164052380Y-107752380D01*
X164052380Y-107714285D01*
X164090476Y-107638095D01*
X164128571Y-107600000D01*
X164204761Y-107561904D01*
X164357142Y-107561904D01*
X164433333Y-107600000D01*
X164471428Y-107638095D01*
X164509523Y-107714285D01*
X164509523Y-107752380D01*
X164471428Y-107828571D01*
X164433333Y-107866666D01*
X164357142Y-107904761D01*
X164204761Y-107904761D01*
X164128571Y-107942857D01*
X164090476Y-107980952D01*
X164052380Y-108057142D01*
X164052380Y-108209523D01*
X164090476Y-108285714D01*
X164128571Y-108323809D01*
X164204761Y-108361904D01*
X164357142Y-108361904D01*
X164433333Y-108323809D01*
X164471428Y-108285714D01*
X164509523Y-108209523D01*
X164509523Y-108057142D01*
X164471428Y-107980952D01*
X164433333Y-107942857D01*
X164357142Y-107904761D01*
X155485714Y-109785714D02*
X155447619Y-109823809D01*
X155333333Y-109861904D01*
X155257142Y-109861904D01*
X155142857Y-109823809D01*
X155066666Y-109747619D01*
X155028571Y-109671428D01*
X154990476Y-109519047D01*
X154990476Y-109404761D01*
X155028571Y-109252380D01*
X155066666Y-109176190D01*
X155142857Y-109100000D01*
X155257142Y-109061904D01*
X155333333Y-109061904D01*
X155447619Y-109100000D01*
X155485714Y-109138095D01*
X156247619Y-109861904D02*
X155790476Y-109861904D01*
X156019047Y-109861904D02*
X156019047Y-109061904D01*
X155942857Y-109176190D01*
X155866666Y-109252380D01*
X155790476Y-109290476D01*
X156514285Y-109061904D02*
X157047619Y-109061904D01*
X156704761Y-109861904D01*
X200985714Y-124285714D02*
X200947619Y-124323809D01*
X200833333Y-124361904D01*
X200757142Y-124361904D01*
X200642857Y-124323809D01*
X200566666Y-124247619D01*
X200528571Y-124171428D01*
X200490476Y-124019047D01*
X200490476Y-123904761D01*
X200528571Y-123752380D01*
X200566666Y-123676190D01*
X200642857Y-123600000D01*
X200757142Y-123561904D01*
X200833333Y-123561904D01*
X200947619Y-123600000D01*
X200985714Y-123638095D01*
X201747619Y-124361904D02*
X201290476Y-124361904D01*
X201519047Y-124361904D02*
X201519047Y-123561904D01*
X201442857Y-123676190D01*
X201366666Y-123752380D01*
X201290476Y-123790476D01*
X202433333Y-123561904D02*
X202280952Y-123561904D01*
X202204761Y-123600000D01*
X202166666Y-123638095D01*
X202090476Y-123752380D01*
X202052380Y-123904761D01*
X202052380Y-124209523D01*
X202090476Y-124285714D01*
X202128571Y-124323809D01*
X202204761Y-124361904D01*
X202357142Y-124361904D01*
X202433333Y-124323809D01*
X202471428Y-124285714D01*
X202509523Y-124209523D01*
X202509523Y-124019047D01*
X202471428Y-123942857D01*
X202433333Y-123904761D01*
X202357142Y-123866666D01*
X202204761Y-123866666D01*
X202128571Y-123904761D01*
X202090476Y-123942857D01*
X202052380Y-124019047D01*
X204285714Y-124014285D02*
X204323809Y-124052380D01*
X204361904Y-124166666D01*
X204361904Y-124242857D01*
X204323809Y-124357142D01*
X204247619Y-124433333D01*
X204171428Y-124471428D01*
X204019047Y-124509523D01*
X203904761Y-124509523D01*
X203752380Y-124471428D01*
X203676190Y-124433333D01*
X203600000Y-124357142D01*
X203561904Y-124242857D01*
X203561904Y-124166666D01*
X203600000Y-124052380D01*
X203638095Y-124014285D01*
X204361904Y-123252380D02*
X204361904Y-123709523D01*
X204361904Y-123480952D02*
X203561904Y-123480952D01*
X203676190Y-123557142D01*
X203752380Y-123633333D01*
X203790476Y-123709523D01*
X203561904Y-122528571D02*
X203561904Y-122909523D01*
X203942857Y-122947619D01*
X203904761Y-122909523D01*
X203866666Y-122833333D01*
X203866666Y-122642857D01*
X203904761Y-122566666D01*
X203942857Y-122528571D01*
X204019047Y-122490476D01*
X204209523Y-122490476D01*
X204285714Y-122528571D01*
X204323809Y-122566666D01*
X204361904Y-122642857D01*
X204361904Y-122833333D01*
X204323809Y-122909523D01*
X204285714Y-122947619D01*
X194985714Y-124285714D02*
X194947619Y-124323809D01*
X194833333Y-124361904D01*
X194757142Y-124361904D01*
X194642857Y-124323809D01*
X194566666Y-124247619D01*
X194528571Y-124171428D01*
X194490476Y-124019047D01*
X194490476Y-123904761D01*
X194528571Y-123752380D01*
X194566666Y-123676190D01*
X194642857Y-123600000D01*
X194757142Y-123561904D01*
X194833333Y-123561904D01*
X194947619Y-123600000D01*
X194985714Y-123638095D01*
X195747619Y-124361904D02*
X195290476Y-124361904D01*
X195519047Y-124361904D02*
X195519047Y-123561904D01*
X195442857Y-123676190D01*
X195366666Y-123752380D01*
X195290476Y-123790476D01*
X196433333Y-123828571D02*
X196433333Y-124361904D01*
X196242857Y-123523809D02*
X196052380Y-124095238D01*
X196547619Y-124095238D01*
X213085714Y-115614285D02*
X213123809Y-115652380D01*
X213161904Y-115766666D01*
X213161904Y-115842857D01*
X213123809Y-115957142D01*
X213047619Y-116033333D01*
X212971428Y-116071428D01*
X212819047Y-116109523D01*
X212704761Y-116109523D01*
X212552380Y-116071428D01*
X212476190Y-116033333D01*
X212400000Y-115957142D01*
X212361904Y-115842857D01*
X212361904Y-115766666D01*
X212400000Y-115652380D01*
X212438095Y-115614285D01*
X213161904Y-114852380D02*
X213161904Y-115309523D01*
X213161904Y-115080952D02*
X212361904Y-115080952D01*
X212476190Y-115157142D01*
X212552380Y-115233333D01*
X212590476Y-115309523D01*
X212361904Y-114585714D02*
X212361904Y-114090476D01*
X212666666Y-114357142D01*
X212666666Y-114242857D01*
X212704761Y-114166666D01*
X212742857Y-114128571D01*
X212819047Y-114090476D01*
X213009523Y-114090476D01*
X213085714Y-114128571D01*
X213123809Y-114166666D01*
X213161904Y-114242857D01*
X213161904Y-114471428D01*
X213123809Y-114547619D01*
X213085714Y-114585714D01*
X217285714Y-109014285D02*
X217323809Y-109052380D01*
X217361904Y-109166666D01*
X217361904Y-109242857D01*
X217323809Y-109357142D01*
X217247619Y-109433333D01*
X217171428Y-109471428D01*
X217019047Y-109509523D01*
X216904761Y-109509523D01*
X216752380Y-109471428D01*
X216676190Y-109433333D01*
X216600000Y-109357142D01*
X216561904Y-109242857D01*
X216561904Y-109166666D01*
X216600000Y-109052380D01*
X216638095Y-109014285D01*
X217361904Y-108252380D02*
X217361904Y-108709523D01*
X217361904Y-108480952D02*
X216561904Y-108480952D01*
X216676190Y-108557142D01*
X216752380Y-108633333D01*
X216790476Y-108709523D01*
X216638095Y-107947619D02*
X216600000Y-107909523D01*
X216561904Y-107833333D01*
X216561904Y-107642857D01*
X216600000Y-107566666D01*
X216638095Y-107528571D01*
X216714285Y-107490476D01*
X216790476Y-107490476D01*
X216904761Y-107528571D01*
X217361904Y-107985714D01*
X217361904Y-107490476D01*
X187485714Y-114285714D02*
X187447619Y-114323809D01*
X187333333Y-114361904D01*
X187257142Y-114361904D01*
X187142857Y-114323809D01*
X187066666Y-114247619D01*
X187028571Y-114171428D01*
X186990476Y-114019047D01*
X186990476Y-113904761D01*
X187028571Y-113752380D01*
X187066666Y-113676190D01*
X187142857Y-113600000D01*
X187257142Y-113561904D01*
X187333333Y-113561904D01*
X187447619Y-113600000D01*
X187485714Y-113638095D01*
X188247619Y-114361904D02*
X187790476Y-114361904D01*
X188019047Y-114361904D02*
X188019047Y-113561904D01*
X187942857Y-113676190D01*
X187866666Y-113752380D01*
X187790476Y-113790476D01*
X189009523Y-114361904D02*
X188552380Y-114361904D01*
X188780952Y-114361904D02*
X188780952Y-113561904D01*
X188704761Y-113676190D01*
X188628571Y-113752380D01*
X188552380Y-113790476D01*
X189985714Y-114285714D02*
X189947619Y-114323809D01*
X189833333Y-114361904D01*
X189757142Y-114361904D01*
X189642857Y-114323809D01*
X189566666Y-114247619D01*
X189528571Y-114171428D01*
X189490476Y-114019047D01*
X189490476Y-113904761D01*
X189528571Y-113752380D01*
X189566666Y-113676190D01*
X189642857Y-113600000D01*
X189757142Y-113561904D01*
X189833333Y-113561904D01*
X189947619Y-113600000D01*
X189985714Y-113638095D01*
X190747619Y-114361904D02*
X190290476Y-114361904D01*
X190519047Y-114361904D02*
X190519047Y-113561904D01*
X190442857Y-113676190D01*
X190366666Y-113752380D01*
X190290476Y-113790476D01*
X191242857Y-113561904D02*
X191319047Y-113561904D01*
X191395238Y-113600000D01*
X191433333Y-113638095D01*
X191471428Y-113714285D01*
X191509523Y-113866666D01*
X191509523Y-114057142D01*
X191471428Y-114209523D01*
X191433333Y-114285714D01*
X191395238Y-114323809D01*
X191319047Y-114361904D01*
X191242857Y-114361904D01*
X191166666Y-114323809D01*
X191128571Y-114285714D01*
X191090476Y-114209523D01*
X191052380Y-114057142D01*
X191052380Y-113866666D01*
X191090476Y-113714285D01*
X191128571Y-113638095D01*
X191166666Y-113600000D01*
X191242857Y-113561904D01*
X208785714Y-123633333D02*
X208823809Y-123671428D01*
X208861904Y-123785714D01*
X208861904Y-123861904D01*
X208823809Y-123976190D01*
X208747619Y-124052380D01*
X208671428Y-124090476D01*
X208519047Y-124128571D01*
X208404761Y-124128571D01*
X208252380Y-124090476D01*
X208176190Y-124052380D01*
X208100000Y-123976190D01*
X208061904Y-123861904D01*
X208061904Y-123785714D01*
X208100000Y-123671428D01*
X208138095Y-123633333D01*
X208861904Y-123252380D02*
X208861904Y-123100000D01*
X208823809Y-123023809D01*
X208785714Y-122985714D01*
X208671428Y-122909523D01*
X208519047Y-122871428D01*
X208214285Y-122871428D01*
X208138095Y-122909523D01*
X208100000Y-122947619D01*
X208061904Y-123023809D01*
X208061904Y-123176190D01*
X208100000Y-123252380D01*
X208138095Y-123290476D01*
X208214285Y-123328571D01*
X208404761Y-123328571D01*
X208480952Y-123290476D01*
X208519047Y-123252380D01*
X208557142Y-123176190D01*
X208557142Y-123023809D01*
X208519047Y-122947619D01*
X208480952Y-122909523D01*
X208404761Y-122871428D01*
X188866666Y-104285714D02*
X188828571Y-104323809D01*
X188714285Y-104361904D01*
X188638095Y-104361904D01*
X188523809Y-104323809D01*
X188447619Y-104247619D01*
X188409523Y-104171428D01*
X188371428Y-104019047D01*
X188371428Y-103904761D01*
X188409523Y-103752380D01*
X188447619Y-103676190D01*
X188523809Y-103600000D01*
X188638095Y-103561904D01*
X188714285Y-103561904D01*
X188828571Y-103600000D01*
X188866666Y-103638095D01*
X189323809Y-103904761D02*
X189247619Y-103866666D01*
X189209523Y-103828571D01*
X189171428Y-103752380D01*
X189171428Y-103714285D01*
X189209523Y-103638095D01*
X189247619Y-103600000D01*
X189323809Y-103561904D01*
X189476190Y-103561904D01*
X189552380Y-103600000D01*
X189590476Y-103638095D01*
X189628571Y-103714285D01*
X189628571Y-103752380D01*
X189590476Y-103828571D01*
X189552380Y-103866666D01*
X189476190Y-103904761D01*
X189323809Y-103904761D01*
X189247619Y-103942857D01*
X189209523Y-103980952D01*
X189171428Y-104057142D01*
X189171428Y-104209523D01*
X189209523Y-104285714D01*
X189247619Y-104323809D01*
X189323809Y-104361904D01*
X189476190Y-104361904D01*
X189552380Y-104323809D01*
X189590476Y-104285714D01*
X189628571Y-104209523D01*
X189628571Y-104057142D01*
X189590476Y-103980952D01*
X189552380Y-103942857D01*
X189476190Y-103904761D01*
X214585714Y-110983333D02*
X214623809Y-111021428D01*
X214661904Y-111135714D01*
X214661904Y-111211904D01*
X214623809Y-111326190D01*
X214547619Y-111402380D01*
X214471428Y-111440476D01*
X214319047Y-111478571D01*
X214204761Y-111478571D01*
X214052380Y-111440476D01*
X213976190Y-111402380D01*
X213900000Y-111326190D01*
X213861904Y-111211904D01*
X213861904Y-111135714D01*
X213900000Y-111021428D01*
X213938095Y-110983333D01*
X213861904Y-110716666D02*
X213861904Y-110183333D01*
X214661904Y-110526190D01*
X215366666Y-97285714D02*
X215328571Y-97323809D01*
X215214285Y-97361904D01*
X215138095Y-97361904D01*
X215023809Y-97323809D01*
X214947619Y-97247619D01*
X214909523Y-97171428D01*
X214871428Y-97019047D01*
X214871428Y-96904761D01*
X214909523Y-96752380D01*
X214947619Y-96676190D01*
X215023809Y-96600000D01*
X215138095Y-96561904D01*
X215214285Y-96561904D01*
X215328571Y-96600000D01*
X215366666Y-96638095D01*
X216052380Y-96561904D02*
X215900000Y-96561904D01*
X215823809Y-96600000D01*
X215785714Y-96638095D01*
X215709523Y-96752380D01*
X215671428Y-96904761D01*
X215671428Y-97209523D01*
X215709523Y-97285714D01*
X215747619Y-97323809D01*
X215823809Y-97361904D01*
X215976190Y-97361904D01*
X216052380Y-97323809D01*
X216090476Y-97285714D01*
X216128571Y-97209523D01*
X216128571Y-97019047D01*
X216090476Y-96942857D01*
X216052380Y-96904761D01*
X215976190Y-96866666D01*
X215823809Y-96866666D01*
X215747619Y-96904761D01*
X215709523Y-96942857D01*
X215671428Y-97019047D01*
X189166666Y-97285714D02*
X189128571Y-97323809D01*
X189014285Y-97361904D01*
X188938095Y-97361904D01*
X188823809Y-97323809D01*
X188747619Y-97247619D01*
X188709523Y-97171428D01*
X188671428Y-97019047D01*
X188671428Y-96904761D01*
X188709523Y-96752380D01*
X188747619Y-96676190D01*
X188823809Y-96600000D01*
X188938095Y-96561904D01*
X189014285Y-96561904D01*
X189128571Y-96600000D01*
X189166666Y-96638095D01*
X189890476Y-96561904D02*
X189509523Y-96561904D01*
X189471428Y-96942857D01*
X189509523Y-96904761D01*
X189585714Y-96866666D01*
X189776190Y-96866666D01*
X189852380Y-96904761D01*
X189890476Y-96942857D01*
X189928571Y-97019047D01*
X189928571Y-97209523D01*
X189890476Y-97285714D01*
X189852380Y-97323809D01*
X189776190Y-97361904D01*
X189585714Y-97361904D01*
X189509523Y-97323809D01*
X189471428Y-97285714D01*
X215366666Y-103285714D02*
X215328571Y-103323809D01*
X215214285Y-103361904D01*
X215138095Y-103361904D01*
X215023809Y-103323809D01*
X214947619Y-103247619D01*
X214909523Y-103171428D01*
X214871428Y-103019047D01*
X214871428Y-102904761D01*
X214909523Y-102752380D01*
X214947619Y-102676190D01*
X215023809Y-102600000D01*
X215138095Y-102561904D01*
X215214285Y-102561904D01*
X215328571Y-102600000D01*
X215366666Y-102638095D01*
X216052380Y-102828571D02*
X216052380Y-103361904D01*
X215861904Y-102523809D02*
X215671428Y-103095238D01*
X216166666Y-103095238D01*
X194285714Y-111633333D02*
X194323809Y-111671428D01*
X194361904Y-111785714D01*
X194361904Y-111861904D01*
X194323809Y-111976190D01*
X194247619Y-112052380D01*
X194171428Y-112090476D01*
X194019047Y-112128571D01*
X193904761Y-112128571D01*
X193752380Y-112090476D01*
X193676190Y-112052380D01*
X193600000Y-111976190D01*
X193561904Y-111861904D01*
X193561904Y-111785714D01*
X193600000Y-111671428D01*
X193638095Y-111633333D01*
X193561904Y-111366666D02*
X193561904Y-110871428D01*
X193866666Y-111138095D01*
X193866666Y-111023809D01*
X193904761Y-110947619D01*
X193942857Y-110909523D01*
X194019047Y-110871428D01*
X194209523Y-110871428D01*
X194285714Y-110909523D01*
X194323809Y-110947619D01*
X194361904Y-111023809D01*
X194361904Y-111252380D01*
X194323809Y-111328571D01*
X194285714Y-111366666D01*
X218285714Y-99633333D02*
X218323809Y-99671428D01*
X218361904Y-99785714D01*
X218361904Y-99861904D01*
X218323809Y-99976190D01*
X218247619Y-100052380D01*
X218171428Y-100090476D01*
X218019047Y-100128571D01*
X217904761Y-100128571D01*
X217752380Y-100090476D01*
X217676190Y-100052380D01*
X217600000Y-99976190D01*
X217561904Y-99861904D01*
X217561904Y-99785714D01*
X217600000Y-99671428D01*
X217638095Y-99633333D01*
X217638095Y-99328571D02*
X217600000Y-99290476D01*
X217561904Y-99214285D01*
X217561904Y-99023809D01*
X217600000Y-98947619D01*
X217638095Y-98909523D01*
X217714285Y-98871428D01*
X217790476Y-98871428D01*
X217904761Y-98909523D01*
X218361904Y-99366666D01*
X218361904Y-98871428D01*
X218285714Y-97633333D02*
X218323809Y-97671428D01*
X218361904Y-97785714D01*
X218361904Y-97861904D01*
X218323809Y-97976190D01*
X218247619Y-98052380D01*
X218171428Y-98090476D01*
X218019047Y-98128571D01*
X217904761Y-98128571D01*
X217752380Y-98090476D01*
X217676190Y-98052380D01*
X217600000Y-97976190D01*
X217561904Y-97861904D01*
X217561904Y-97785714D01*
X217600000Y-97671428D01*
X217638095Y-97633333D01*
X218361904Y-96871428D02*
X218361904Y-97328571D01*
X218361904Y-97100000D02*
X217561904Y-97100000D01*
X217676190Y-97176190D01*
X217752380Y-97252380D01*
X217790476Y-97328571D01*
X128580952Y-92780952D02*
X128961904Y-92780952D01*
X128161904Y-93047619D02*
X128580952Y-92780952D01*
X128161904Y-92514285D01*
X128428571Y-91904761D02*
X128961904Y-91904761D01*
X128123809Y-92095238D02*
X128695238Y-92285714D01*
X128695238Y-91790476D01*
X179480952Y-104880952D02*
X179861904Y-104880952D01*
X179061904Y-105147619D02*
X179480952Y-104880952D01*
X179061904Y-104614285D01*
X179061904Y-104423809D02*
X179061904Y-103928571D01*
X179366666Y-104195238D01*
X179366666Y-104080952D01*
X179404761Y-104004761D01*
X179442857Y-103966666D01*
X179519047Y-103928571D01*
X179709523Y-103928571D01*
X179785714Y-103966666D01*
X179823809Y-104004761D01*
X179861904Y-104080952D01*
X179861904Y-104309523D01*
X179823809Y-104385714D01*
X179785714Y-104423809D01*
X194480952Y-120880952D02*
X194861904Y-120880952D01*
X194061904Y-121147619D02*
X194480952Y-120880952D01*
X194061904Y-120614285D01*
X194138095Y-120385714D02*
X194100000Y-120347619D01*
X194061904Y-120271428D01*
X194061904Y-120080952D01*
X194100000Y-120004761D01*
X194138095Y-119966666D01*
X194214285Y-119928571D01*
X194290476Y-119928571D01*
X194404761Y-119966666D01*
X194861904Y-120423809D01*
X194861904Y-119928571D01*
X218119047Y-111980952D02*
X218119047Y-112361904D01*
X217852380Y-111561904D02*
X218119047Y-111980952D01*
X218385714Y-111561904D01*
X219071428Y-112361904D02*
X218614285Y-112361904D01*
X218842857Y-112361904D02*
X218842857Y-111561904D01*
X218766666Y-111676190D01*
X218690476Y-111752380D01*
X218614285Y-111790476D01*
X167390476Y-89061904D02*
X167390476Y-89709523D01*
X167428571Y-89785714D01*
X167466666Y-89823809D01*
X167542857Y-89861904D01*
X167695238Y-89861904D01*
X167771428Y-89823809D01*
X167809523Y-89785714D01*
X167847619Y-89709523D01*
X167847619Y-89061904D01*
X168152380Y-89061904D02*
X168647619Y-89061904D01*
X168380952Y-89366666D01*
X168495238Y-89366666D01*
X168571428Y-89404761D01*
X168609523Y-89442857D01*
X168647619Y-89519047D01*
X168647619Y-89709523D01*
X168609523Y-89785714D01*
X168571428Y-89823809D01*
X168495238Y-89861904D01*
X168266666Y-89861904D01*
X168190476Y-89823809D01*
X168152380Y-89785714D01*
X226433333Y-124323809D02*
X226547619Y-124361904D01*
X226738095Y-124361904D01*
X226814285Y-124323809D01*
X226852380Y-124285714D01*
X226890476Y-124209523D01*
X226890476Y-124133333D01*
X226852380Y-124057142D01*
X226814285Y-124019047D01*
X226738095Y-123980952D01*
X226585714Y-123942857D01*
X226509523Y-123904761D01*
X226471428Y-123866666D01*
X226433333Y-123790476D01*
X226433333Y-123714285D01*
X226471428Y-123638095D01*
X226509523Y-123600000D01*
X226585714Y-123561904D01*
X226776190Y-123561904D01*
X226890476Y-123600000D01*
X227157142Y-123561904D02*
X227347619Y-124361904D01*
X227500000Y-123790476D01*
X227652380Y-124361904D01*
X227842857Y-123561904D01*
X228109523Y-123638095D02*
X228147619Y-123600000D01*
X228223809Y-123561904D01*
X228414285Y-123561904D01*
X228490476Y-123600000D01*
X228528571Y-123638095D01*
X228566666Y-123714285D01*
X228566666Y-123790476D01*
X228528571Y-123904761D01*
X228071428Y-124361904D01*
X228566666Y-124361904D01*
X217433333Y-124323809D02*
X217547619Y-124361904D01*
X217738095Y-124361904D01*
X217814285Y-124323809D01*
X217852380Y-124285714D01*
X217890476Y-124209523D01*
X217890476Y-124133333D01*
X217852380Y-124057142D01*
X217814285Y-124019047D01*
X217738095Y-123980952D01*
X217585714Y-123942857D01*
X217509523Y-123904761D01*
X217471428Y-123866666D01*
X217433333Y-123790476D01*
X217433333Y-123714285D01*
X217471428Y-123638095D01*
X217509523Y-123600000D01*
X217585714Y-123561904D01*
X217776190Y-123561904D01*
X217890476Y-123600000D01*
X218157142Y-123561904D02*
X218347619Y-124361904D01*
X218500000Y-123790476D01*
X218652380Y-124361904D01*
X218842857Y-123561904D01*
X219566666Y-124361904D02*
X219109523Y-124361904D01*
X219338095Y-124361904D02*
X219338095Y-123561904D01*
X219261904Y-123676190D01*
X219185714Y-123752380D01*
X219109523Y-123790476D01*
X131938095Y-113076190D02*
X131900000Y-113152380D01*
X131823809Y-113228571D01*
X131709523Y-113342857D01*
X131671428Y-113419047D01*
X131671428Y-113495238D01*
X131861904Y-113457142D02*
X131823809Y-113533333D01*
X131747619Y-113609523D01*
X131595238Y-113647619D01*
X131328571Y-113647619D01*
X131176190Y-113609523D01*
X131100000Y-113533333D01*
X131061904Y-113457142D01*
X131061904Y-113304761D01*
X131100000Y-113228571D01*
X131176190Y-113152380D01*
X131328571Y-113114285D01*
X131595238Y-113114285D01*
X131747619Y-113152380D01*
X131823809Y-113228571D01*
X131861904Y-113304761D01*
X131861904Y-113457142D01*
X131138095Y-112809523D02*
X131100000Y-112771428D01*
X131061904Y-112695238D01*
X131061904Y-112504761D01*
X131100000Y-112428571D01*
X131138095Y-112390476D01*
X131214285Y-112352380D01*
X131290476Y-112352380D01*
X131404761Y-112390476D01*
X131861904Y-112847619D01*
X131861904Y-112352380D01*
X218438095Y-106576190D02*
X218400000Y-106652380D01*
X218323809Y-106728571D01*
X218209523Y-106842857D01*
X218171428Y-106919047D01*
X218171428Y-106995238D01*
X218361904Y-106957142D02*
X218323809Y-107033333D01*
X218247619Y-107109523D01*
X218095238Y-107147619D01*
X217828571Y-107147619D01*
X217676190Y-107109523D01*
X217600000Y-107033333D01*
X217561904Y-106957142D01*
X217561904Y-106804761D01*
X217600000Y-106728571D01*
X217676190Y-106652380D01*
X217828571Y-106614285D01*
X218095238Y-106614285D01*
X218247619Y-106652380D01*
X218323809Y-106728571D01*
X218361904Y-106804761D01*
X218361904Y-106957142D01*
X218361904Y-105852380D02*
X218361904Y-106309523D01*
X218361904Y-106080952D02*
X217561904Y-106080952D01*
X217676190Y-106157142D01*
X217752380Y-106233333D01*
X217790476Y-106309523D01*
X183861904Y-121895238D02*
X183861904Y-122276190D01*
X183061904Y-122276190D01*
X183442857Y-121628571D02*
X183442857Y-121361904D01*
X183861904Y-121247619D02*
X183861904Y-121628571D01*
X183061904Y-121628571D01*
X183061904Y-121247619D01*
X183861904Y-120904761D02*
X183061904Y-120904761D01*
X183061904Y-120714285D01*
X183100000Y-120600000D01*
X183176190Y-120523809D01*
X183252380Y-120485714D01*
X183404761Y-120447619D01*
X183519047Y-120447619D01*
X183671428Y-120485714D01*
X183747619Y-120523809D01*
X183823809Y-120600000D01*
X183861904Y-120714285D01*
X183861904Y-120904761D01*
X183404761Y-119990476D02*
X183366666Y-120066666D01*
X183328571Y-120104761D01*
X183252380Y-120142857D01*
X183214285Y-120142857D01*
X183138095Y-120104761D01*
X183100000Y-120066666D01*
X183061904Y-119990476D01*
X183061904Y-119838095D01*
X183100000Y-119761904D01*
X183138095Y-119723809D01*
X183214285Y-119685714D01*
X183252380Y-119685714D01*
X183328571Y-119723809D01*
X183366666Y-119761904D01*
X183404761Y-119838095D01*
X183404761Y-119990476D01*
X183442857Y-120066666D01*
X183480952Y-120104761D01*
X183557142Y-120142857D01*
X183709523Y-120142857D01*
X183785714Y-120104761D01*
X183823809Y-120066666D01*
X183861904Y-119990476D01*
X183861904Y-119838095D01*
X183823809Y-119761904D01*
X183785714Y-119723809D01*
X183709523Y-119685714D01*
X183557142Y-119685714D01*
X183480952Y-119723809D01*
X183442857Y-119761904D01*
X183404761Y-119838095D01*
X126861904Y-102395238D02*
X126861904Y-102776190D01*
X126061904Y-102776190D01*
X126442857Y-102128571D02*
X126442857Y-101861904D01*
X126861904Y-101747619D02*
X126861904Y-102128571D01*
X126061904Y-102128571D01*
X126061904Y-101747619D01*
X126861904Y-101404761D02*
X126061904Y-101404761D01*
X126061904Y-101214285D01*
X126100000Y-101100000D01*
X126176190Y-101023809D01*
X126252380Y-100985714D01*
X126404761Y-100947619D01*
X126519047Y-100947619D01*
X126671428Y-100985714D01*
X126747619Y-101023809D01*
X126823809Y-101100000D01*
X126861904Y-101214285D01*
X126861904Y-101404761D01*
X126061904Y-100680952D02*
X126061904Y-100147619D01*
X126861904Y-100490476D01*
X124104761Y-95861904D02*
X123723809Y-95861904D01*
X123723809Y-95061904D01*
X124371428Y-95442857D02*
X124638095Y-95442857D01*
X124752380Y-95861904D02*
X124371428Y-95861904D01*
X124371428Y-95061904D01*
X124752380Y-95061904D01*
X125095238Y-95861904D02*
X125095238Y-95061904D01*
X125285714Y-95061904D01*
X125400000Y-95100000D01*
X125476190Y-95176190D01*
X125514285Y-95252380D01*
X125552380Y-95404761D01*
X125552380Y-95519047D01*
X125514285Y-95671428D01*
X125476190Y-95747619D01*
X125400000Y-95823809D01*
X125285714Y-95861904D01*
X125095238Y-95861904D01*
X126238095Y-95061904D02*
X126085714Y-95061904D01*
X126009523Y-95100000D01*
X125971428Y-95138095D01*
X125895238Y-95252380D01*
X125857142Y-95404761D01*
X125857142Y-95709523D01*
X125895238Y-95785714D01*
X125933333Y-95823809D01*
X126009523Y-95861904D01*
X126161904Y-95861904D01*
X126238095Y-95823809D01*
X126276190Y-95785714D01*
X126314285Y-95709523D01*
X126314285Y-95519047D01*
X126276190Y-95442857D01*
X126238095Y-95404761D01*
X126161904Y-95366666D01*
X126009523Y-95366666D01*
X125933333Y-95404761D01*
X125895238Y-95442857D01*
X125857142Y-95519047D01*
X143861904Y-114895238D02*
X143861904Y-115276190D01*
X143061904Y-115276190D01*
X143442857Y-114628571D02*
X143442857Y-114361904D01*
X143861904Y-114247619D02*
X143861904Y-114628571D01*
X143061904Y-114628571D01*
X143061904Y-114247619D01*
X143861904Y-113904761D02*
X143061904Y-113904761D01*
X143061904Y-113714285D01*
X143100000Y-113600000D01*
X143176190Y-113523809D01*
X143252380Y-113485714D01*
X143404761Y-113447619D01*
X143519047Y-113447619D01*
X143671428Y-113485714D01*
X143747619Y-113523809D01*
X143823809Y-113600000D01*
X143861904Y-113714285D01*
X143861904Y-113904761D01*
X143061904Y-112723809D02*
X143061904Y-113104761D01*
X143442857Y-113142857D01*
X143404761Y-113104761D01*
X143366666Y-113028571D01*
X143366666Y-112838095D01*
X143404761Y-112761904D01*
X143442857Y-112723809D01*
X143519047Y-112685714D01*
X143709523Y-112685714D01*
X143785714Y-112723809D01*
X143823809Y-112761904D01*
X143861904Y-112838095D01*
X143861904Y-113028571D01*
X143823809Y-113104761D01*
X143785714Y-113142857D01*
X177861904Y-110395238D02*
X177861904Y-110776190D01*
X177061904Y-110776190D01*
X177442857Y-110128571D02*
X177442857Y-109861904D01*
X177861904Y-109747619D02*
X177861904Y-110128571D01*
X177061904Y-110128571D01*
X177061904Y-109747619D01*
X177861904Y-109404761D02*
X177061904Y-109404761D01*
X177061904Y-109214285D01*
X177100000Y-109100000D01*
X177176190Y-109023809D01*
X177252380Y-108985714D01*
X177404761Y-108947619D01*
X177519047Y-108947619D01*
X177671428Y-108985714D01*
X177747619Y-109023809D01*
X177823809Y-109100000D01*
X177861904Y-109214285D01*
X177861904Y-109404761D01*
X177328571Y-108261904D02*
X177861904Y-108261904D01*
X177023809Y-108452380D02*
X177595238Y-108642857D01*
X177595238Y-108147619D01*
X177861904Y-113395238D02*
X177861904Y-113776190D01*
X177061904Y-113776190D01*
X177442857Y-113128571D02*
X177442857Y-112861904D01*
X177861904Y-112747619D02*
X177861904Y-113128571D01*
X177061904Y-113128571D01*
X177061904Y-112747619D01*
X177861904Y-112404761D02*
X177061904Y-112404761D01*
X177061904Y-112214285D01*
X177100000Y-112100000D01*
X177176190Y-112023809D01*
X177252380Y-111985714D01*
X177404761Y-111947619D01*
X177519047Y-111947619D01*
X177671428Y-111985714D01*
X177747619Y-112023809D01*
X177823809Y-112100000D01*
X177861904Y-112214285D01*
X177861904Y-112404761D01*
X177061904Y-111680952D02*
X177061904Y-111185714D01*
X177366666Y-111452380D01*
X177366666Y-111338095D01*
X177404761Y-111261904D01*
X177442857Y-111223809D01*
X177519047Y-111185714D01*
X177709523Y-111185714D01*
X177785714Y-111223809D01*
X177823809Y-111261904D01*
X177861904Y-111338095D01*
X177861904Y-111566666D01*
X177823809Y-111642857D01*
X177785714Y-111680952D01*
X183604761Y-123861904D02*
X183223809Y-123861904D01*
X183223809Y-123061904D01*
X183871428Y-123442857D02*
X184138095Y-123442857D01*
X184252380Y-123861904D02*
X183871428Y-123861904D01*
X183871428Y-123061904D01*
X184252380Y-123061904D01*
X184595238Y-123861904D02*
X184595238Y-123061904D01*
X184785714Y-123061904D01*
X184900000Y-123100000D01*
X184976190Y-123176190D01*
X185014285Y-123252380D01*
X185052380Y-123404761D01*
X185052380Y-123519047D01*
X185014285Y-123671428D01*
X184976190Y-123747619D01*
X184900000Y-123823809D01*
X184785714Y-123861904D01*
X184595238Y-123861904D01*
X185357142Y-123138095D02*
X185395238Y-123100000D01*
X185471428Y-123061904D01*
X185661904Y-123061904D01*
X185738095Y-123100000D01*
X185776190Y-123138095D01*
X185814285Y-123214285D01*
X185814285Y-123290476D01*
X185776190Y-123404761D01*
X185319047Y-123861904D01*
X185814285Y-123861904D01*
X127366666Y-113361904D02*
X126985714Y-113361904D01*
X126985714Y-112561904D01*
X128014285Y-112561904D02*
X127633333Y-112561904D01*
X127595238Y-112942857D01*
X127633333Y-112904761D01*
X127709523Y-112866666D01*
X127900000Y-112866666D01*
X127976190Y-112904761D01*
X128014285Y-112942857D01*
X128052380Y-113019047D01*
X128052380Y-113209523D01*
X128014285Y-113285714D01*
X127976190Y-113323809D01*
X127900000Y-113361904D01*
X127709523Y-113361904D01*
X127633333Y-113323809D01*
X127595238Y-113285714D01*
X151861904Y-105133333D02*
X151861904Y-105514285D01*
X151061904Y-105514285D01*
X151328571Y-104523809D02*
X151861904Y-104523809D01*
X151023809Y-104714285D02*
X151595238Y-104904761D01*
X151595238Y-104409523D01*
X123361904Y-98133333D02*
X123361904Y-98514285D01*
X122561904Y-98514285D01*
X122561904Y-97942857D02*
X122561904Y-97447619D01*
X122866666Y-97714285D01*
X122866666Y-97600000D01*
X122904761Y-97523809D01*
X122942857Y-97485714D01*
X123019047Y-97447619D01*
X123209523Y-97447619D01*
X123285714Y-97485714D01*
X123323809Y-97523809D01*
X123361904Y-97600000D01*
X123361904Y-97828571D01*
X123323809Y-97904761D01*
X123285714Y-97942857D01*
X156861904Y-103633333D02*
X156861904Y-104014285D01*
X156061904Y-104014285D01*
X156138095Y-103404761D02*
X156100000Y-103366666D01*
X156061904Y-103290476D01*
X156061904Y-103100000D01*
X156100000Y-103023809D01*
X156138095Y-102985714D01*
X156214285Y-102947619D01*
X156290476Y-102947619D01*
X156404761Y-102985714D01*
X156861904Y-103442857D01*
X156861904Y-102947619D01*
X182866666Y-115861904D02*
X182485714Y-115861904D01*
X182485714Y-115061904D01*
X183552380Y-115861904D02*
X183095238Y-115861904D01*
X183323809Y-115861904D02*
X183323809Y-115061904D01*
X183247619Y-115176190D01*
X183171428Y-115252380D01*
X183095238Y-115290476D01*
X144231904Y-92166666D02*
X144803333Y-92166666D01*
X144917619Y-92204761D01*
X144993809Y-92280952D01*
X145031904Y-92395238D01*
X145031904Y-92471428D01*
X145031904Y-91785714D02*
X144231904Y-91785714D01*
X144231904Y-91480952D01*
X144270000Y-91404761D01*
X144308095Y-91366666D01*
X144384285Y-91328571D01*
X144498571Y-91328571D01*
X144574761Y-91366666D01*
X144612857Y-91404761D01*
X144650952Y-91480952D01*
X144650952Y-91785714D01*
X144308095Y-91023809D02*
X144270000Y-90985714D01*
X144231904Y-90909523D01*
X144231904Y-90719047D01*
X144270000Y-90642857D01*
X144308095Y-90604761D01*
X144384285Y-90566666D01*
X144460476Y-90566666D01*
X144574761Y-90604761D01*
X145031904Y-91061904D01*
X145031904Y-90566666D01*
X225333333Y-99561904D02*
X225333333Y-100133333D01*
X225295238Y-100247619D01*
X225219047Y-100323809D01*
X225104761Y-100361904D01*
X225028571Y-100361904D01*
X226095238Y-99561904D02*
X225714285Y-99561904D01*
X225676190Y-99942857D01*
X225714285Y-99904761D01*
X225790476Y-99866666D01*
X225980952Y-99866666D01*
X226057142Y-99904761D01*
X226095238Y-99942857D01*
X226133333Y-100019047D01*
X226133333Y-100209523D01*
X226095238Y-100285714D01*
X226057142Y-100323809D01*
X225980952Y-100361904D01*
X225790476Y-100361904D01*
X225714285Y-100323809D01*
X225676190Y-100285714D01*
X179733333Y-102811904D02*
X179733333Y-103383333D01*
X179695238Y-103497619D01*
X179619047Y-103573809D01*
X179504761Y-103611904D01*
X179428571Y-103611904D01*
X180533333Y-103611904D02*
X180076190Y-103611904D01*
X180304761Y-103611904D02*
X180304761Y-102811904D01*
X180228571Y-102926190D01*
X180152380Y-103002380D01*
X180076190Y-103040476D01*
X159361904Y-121090476D02*
X158561904Y-121090476D01*
X158561904Y-120900000D01*
X158600000Y-120785714D01*
X158676190Y-120709523D01*
X158752380Y-120671428D01*
X158904761Y-120633333D01*
X159019047Y-120633333D01*
X159171428Y-120671428D01*
X159247619Y-120709523D01*
X159323809Y-120785714D01*
X159361904Y-120900000D01*
X159361904Y-121090476D01*
X158561904Y-119909523D02*
X158561904Y-120290476D01*
X158942857Y-120328571D01*
X158904761Y-120290476D01*
X158866666Y-120214285D01*
X158866666Y-120023809D01*
X158904761Y-119947619D01*
X158942857Y-119909523D01*
X159019047Y-119871428D01*
X159209523Y-119871428D01*
X159285714Y-119909523D01*
X159323809Y-119947619D01*
X159361904Y-120023809D01*
X159361904Y-120214285D01*
X159323809Y-120290476D01*
X159285714Y-120328571D01*
X159361904Y-123090476D02*
X158561904Y-123090476D01*
X158561904Y-122900000D01*
X158600000Y-122785714D01*
X158676190Y-122709523D01*
X158752380Y-122671428D01*
X158904761Y-122633333D01*
X159019047Y-122633333D01*
X159171428Y-122671428D01*
X159247619Y-122709523D01*
X159323809Y-122785714D01*
X159361904Y-122900000D01*
X159361904Y-123090476D01*
X158828571Y-121947619D02*
X159361904Y-121947619D01*
X158523809Y-122138095D02*
X159095238Y-122328571D01*
X159095238Y-121833333D01*
X125409523Y-110361904D02*
X125409523Y-109561904D01*
X125600000Y-109561904D01*
X125714285Y-109600000D01*
X125790476Y-109676190D01*
X125828571Y-109752380D01*
X125866666Y-109904761D01*
X125866666Y-110019047D01*
X125828571Y-110171428D01*
X125790476Y-110247619D01*
X125714285Y-110323809D01*
X125600000Y-110361904D01*
X125409523Y-110361904D01*
X126133333Y-109561904D02*
X126628571Y-109561904D01*
X126361904Y-109866666D01*
X126476190Y-109866666D01*
X126552380Y-109904761D01*
X126590476Y-109942857D01*
X126628571Y-110019047D01*
X126628571Y-110209523D01*
X126590476Y-110285714D01*
X126552380Y-110323809D01*
X126476190Y-110361904D01*
X126247619Y-110361904D01*
X126171428Y-110323809D01*
X126133333Y-110285714D01*
X156409523Y-119861904D02*
X156409523Y-119061904D01*
X156600000Y-119061904D01*
X156714285Y-119100000D01*
X156790476Y-119176190D01*
X156828571Y-119252380D01*
X156866666Y-119404761D01*
X156866666Y-119519047D01*
X156828571Y-119671428D01*
X156790476Y-119747619D01*
X156714285Y-119823809D01*
X156600000Y-119861904D01*
X156409523Y-119861904D01*
X157171428Y-119138095D02*
X157209523Y-119100000D01*
X157285714Y-119061904D01*
X157476190Y-119061904D01*
X157552380Y-119100000D01*
X157590476Y-119138095D01*
X157628571Y-119214285D01*
X157628571Y-119290476D01*
X157590476Y-119404761D01*
X157133333Y-119861904D01*
X157628571Y-119861904D01*
X185409523Y-120361904D02*
X185409523Y-119561904D01*
X185600000Y-119561904D01*
X185714285Y-119600000D01*
X185790476Y-119676190D01*
X185828571Y-119752380D01*
X185866666Y-119904761D01*
X185866666Y-120019047D01*
X185828571Y-120171428D01*
X185790476Y-120247619D01*
X185714285Y-120323809D01*
X185600000Y-120361904D01*
X185409523Y-120361904D01*
X186628571Y-120361904D02*
X186171428Y-120361904D01*
X186400000Y-120361904D02*
X186400000Y-119561904D01*
X186323809Y-119676190D01*
X186247619Y-119752380D01*
X186171428Y-119790476D01*
M02*
