G04 #@! TF.GenerationSoftware,KiCad,Pcbnew,(5.1.2)-1*
G04 #@! TF.CreationDate,2019-11-21T17:45:34-03:00*
G04 #@! TF.ProjectId,M_dulo Stick LPC1769,4df36475-6c6f-4205-9374-69636b204c50,v1.0*
G04 #@! TF.SameCoordinates,Original*
G04 #@! TF.FileFunction,Paste,Top*
G04 #@! TF.FilePolarity,Positive*
%FSLAX46Y46*%
G04 Gerber Fmt 4.6, Leading zero omitted, Abs format (unit mm)*
G04 Created by KiCad (PCBNEW (5.1.2)-1) date 2019-11-21 17:45:34*
%MOMM*%
%LPD*%
G04 APERTURE LIST*
%ADD10C,0.100000*%
%ADD11R,3.000000X0.650000*%
%ADD12R,1.350000X0.400000*%
%ADD13R,0.400000X1.500000*%
%ADD14R,0.280000X1.500000*%
%ADD15R,1.500000X0.400000*%
%ADD16R,1.500000X0.280000*%
%ADD17R,0.900000X0.500000*%
%ADD18R,4.700000X4.700000*%
%ADD19R,0.990000X0.310000*%
%ADD20R,0.310000X0.990000*%
%ADD21R,0.609600X0.203200*%
%ADD22R,0.203200X0.609600*%
%ADD23R,2.590800X2.590800*%
%ADD24R,1.117600X0.482600*%
%ADD25R,1.981200X0.558800*%
%ADD26R,0.500000X0.900000*%
%ADD27R,1.500000X1.000000*%
%ADD28R,1.250000X1.000000*%
%ADD29R,0.750000X0.800000*%
%ADD30R,1.000000X1.250000*%
%ADD31R,0.800000X0.750000*%
%ADD32R,4.500000X2.000000*%
%ADD33R,1.200000X1.400000*%
%ADD34R,1.200000X0.600000*%
%ADD35R,1.400000X1.200000*%
%ADD36R,0.650000X0.400000*%
%ADD37R,0.900000X1.000000*%
%ADD38R,0.800000X0.900000*%
%ADD39R,0.900000X0.800000*%
%ADD40R,0.800000X0.800000*%
%ADD41R,0.600000X0.400000*%
%ADD42R,2.400000X0.740000*%
%ADD43R,0.500000X0.500000*%
%ADD44R,1.400000X1.000000*%
%ADD45R,0.450000X0.600000*%
%ADD46R,0.600000X0.450000*%
G04 APERTURE END LIST*
D10*
G36*
X138655000Y-104845158D02*
G01*
X138655000Y-106505000D01*
X136994080Y-106505000D01*
X136994080Y-104845158D01*
X138655000Y-104845158D01*
G37*
G36*
X141005000Y-102491290D02*
G01*
X141005000Y-104155000D01*
X139345638Y-104155000D01*
X139345638Y-102491290D01*
X141005000Y-102491290D01*
G37*
G36*
X138655000Y-102492420D02*
G01*
X138655000Y-104155000D01*
X136992420Y-104155000D01*
X136992420Y-102492420D01*
X138655000Y-102492420D01*
G37*
G36*
X141005000Y-104845333D02*
G01*
X141005000Y-106505000D01*
X139345333Y-106505000D01*
X139345333Y-104845333D01*
X141005000Y-104845333D01*
G37*
D11*
X147000000Y-97135000D03*
X150000000Y-95865000D03*
D12*
X123350000Y-108300000D03*
X123350000Y-107650000D03*
X123350000Y-107000000D03*
X123350000Y-106350000D03*
X123350000Y-105700000D03*
D13*
X197440000Y-114400000D03*
D14*
X198000000Y-114400000D03*
X198500000Y-114400000D03*
X199000000Y-114400000D03*
X199500000Y-114400000D03*
X200000000Y-114400000D03*
X200500000Y-114400000D03*
X201000000Y-114400000D03*
X201500000Y-114400000D03*
X202000000Y-114400000D03*
X202500000Y-114400000D03*
X203000000Y-114400000D03*
X203500000Y-114400000D03*
X204000000Y-114400000D03*
X204500000Y-114400000D03*
X205000000Y-114400000D03*
X205500000Y-114400000D03*
X206000000Y-114400000D03*
X206500000Y-114400000D03*
X207000000Y-114400000D03*
X207500000Y-114400000D03*
X208000000Y-114400000D03*
X208500000Y-114400000D03*
X209000000Y-114400000D03*
D13*
X209560000Y-114400000D03*
D15*
X211400000Y-112560000D03*
D16*
X211400000Y-112000000D03*
X211400000Y-111500000D03*
X211400000Y-111000000D03*
X211400000Y-110500000D03*
X211400000Y-110000000D03*
X211400000Y-109500000D03*
X211400000Y-109000000D03*
X211400000Y-108500000D03*
X211400000Y-108000000D03*
X211400000Y-107500000D03*
X211400000Y-107000000D03*
X211400000Y-106500000D03*
X211400000Y-106000000D03*
X211400000Y-105500000D03*
X211400000Y-105000000D03*
X211400000Y-104500000D03*
X211400000Y-104000000D03*
X211400000Y-103500000D03*
X211400000Y-103000000D03*
X211400000Y-102500000D03*
X211400000Y-102000000D03*
X211400000Y-101500000D03*
X211400000Y-101000000D03*
D15*
X211400000Y-100440000D03*
D13*
X209560000Y-98600000D03*
D14*
X209000000Y-98600000D03*
X208500000Y-98600000D03*
X208000000Y-98600000D03*
X207500000Y-98600000D03*
X207000000Y-98600000D03*
X206500000Y-98600000D03*
X206000000Y-98600000D03*
X205500000Y-98600000D03*
X205000000Y-98600000D03*
X204500000Y-98600000D03*
X204000000Y-98600000D03*
X203500000Y-98600000D03*
X203000000Y-98600000D03*
X202500000Y-98600000D03*
X202000000Y-98600000D03*
X201500000Y-98600000D03*
X201000000Y-98600000D03*
X200500000Y-98600000D03*
X200000000Y-98600000D03*
X199500000Y-98600000D03*
X199000000Y-98600000D03*
X198500000Y-98600000D03*
X198000000Y-98600000D03*
D13*
X197440000Y-98600000D03*
D15*
X195600000Y-100440000D03*
D16*
X195600000Y-101000000D03*
X195600000Y-101500000D03*
X195600000Y-102000000D03*
X195600000Y-102500000D03*
X195600000Y-103000000D03*
X195600000Y-103500000D03*
X195600000Y-104000000D03*
X195600000Y-104500000D03*
X195600000Y-105000000D03*
X195600000Y-105500000D03*
X195600000Y-106000000D03*
X195600000Y-106500000D03*
X195600000Y-107000000D03*
X195600000Y-107500000D03*
X195600000Y-108000000D03*
X195600000Y-108500000D03*
X195600000Y-109000000D03*
X195600000Y-109500000D03*
X195600000Y-110000000D03*
X195600000Y-110500000D03*
X195600000Y-111000000D03*
X195600000Y-111500000D03*
X195600000Y-112000000D03*
D15*
X195600000Y-112560000D03*
D17*
X221000000Y-121750000D03*
X221000000Y-120250000D03*
D18*
X139000000Y-104500000D03*
D19*
X142270000Y-102225000D03*
X142270000Y-102875000D03*
X142270000Y-103525000D03*
X142270000Y-104175000D03*
X142270000Y-104825000D03*
X142270000Y-105475000D03*
X142270000Y-106125000D03*
X142270000Y-106775000D03*
D20*
X141275000Y-107770000D03*
X140625000Y-107770000D03*
X139975000Y-107770000D03*
X139325000Y-107770000D03*
X138675000Y-107770000D03*
X138025000Y-107770000D03*
X137375000Y-107770000D03*
X136725000Y-107770000D03*
D19*
X135730000Y-106775000D03*
X135730000Y-106125000D03*
X135730000Y-105475000D03*
X135730000Y-104825000D03*
X135730000Y-104175000D03*
X135730000Y-103525000D03*
X135730000Y-102875000D03*
X135730000Y-102225000D03*
D20*
X136725000Y-101230000D03*
X137375000Y-101230000D03*
X138025000Y-101230000D03*
X138675000Y-101230000D03*
X139325000Y-101230000D03*
X139975000Y-101230000D03*
X140625000Y-101230000D03*
X141275000Y-101230000D03*
D17*
X189000000Y-110750000D03*
X189000000Y-112250000D03*
D21*
X169006600Y-106250000D03*
X169006600Y-105750001D03*
X169006600Y-105250000D03*
X169006600Y-104750000D03*
X169006600Y-104249999D03*
X169006600Y-103750000D03*
D22*
X168250000Y-102993400D03*
X167750001Y-102993400D03*
X167250000Y-102993400D03*
X166750000Y-102993400D03*
X166249999Y-102993400D03*
X165750000Y-102993400D03*
D21*
X164993400Y-103750000D03*
X164993400Y-104249999D03*
X164993400Y-104750000D03*
X164993400Y-105250000D03*
X164993400Y-105750001D03*
X164993400Y-106250000D03*
D22*
X165750000Y-107006600D03*
X166249999Y-107006600D03*
X166750000Y-107006600D03*
X167250000Y-107006600D03*
X167750001Y-107006600D03*
X168250000Y-107006600D03*
D23*
X167000000Y-105000000D03*
D24*
X169306200Y-120549999D03*
X169306200Y-121500000D03*
X169306200Y-122450001D03*
X171693800Y-122450001D03*
X171693800Y-120549999D03*
D25*
X182862200Y-97095000D03*
X182862200Y-98365000D03*
X182862200Y-99635000D03*
X182862200Y-100905000D03*
X178137800Y-100905000D03*
X178137800Y-99635000D03*
X178137800Y-98365000D03*
X178137800Y-97095000D03*
D17*
X205500000Y-120250000D03*
X205500000Y-121750000D03*
D26*
X174750000Y-110500000D03*
X173250000Y-110500000D03*
D27*
X219250000Y-90550000D03*
X219250000Y-91950000D03*
X222750000Y-90550000D03*
X222750000Y-91950000D03*
D26*
X146250000Y-101000000D03*
X144750000Y-101000000D03*
D17*
X180500000Y-120250000D03*
X180500000Y-121750000D03*
X179000000Y-121750000D03*
X179000000Y-120250000D03*
D26*
X131750000Y-102000000D03*
X133250000Y-102000000D03*
D17*
X134000000Y-97250000D03*
X134000000Y-98750000D03*
X142000000Y-111750000D03*
X142000000Y-110250000D03*
X147500000Y-109250000D03*
X147500000Y-110750000D03*
D26*
X146250000Y-102500000D03*
X144750000Y-102500000D03*
X146250000Y-107500000D03*
X144750000Y-107500000D03*
D17*
X140500000Y-111750000D03*
X140500000Y-110250000D03*
D26*
X130250000Y-106000000D03*
X128750000Y-106000000D03*
D17*
X139000000Y-111750000D03*
X139000000Y-110250000D03*
D26*
X130250000Y-104500000D03*
X128750000Y-104500000D03*
D17*
X137500000Y-111750000D03*
X137500000Y-110250000D03*
D26*
X133250000Y-100500000D03*
X131750000Y-100500000D03*
D17*
X132500000Y-97250000D03*
X132500000Y-98750000D03*
X140500000Y-97250000D03*
X140500000Y-98750000D03*
D26*
X130250000Y-111500000D03*
X128750000Y-111500000D03*
D17*
X136000000Y-110250000D03*
X136000000Y-111750000D03*
X143500000Y-98750000D03*
X143500000Y-97250000D03*
D26*
X132750000Y-114500000D03*
X134250000Y-114500000D03*
D17*
X177500000Y-121750000D03*
X177500000Y-120250000D03*
D26*
X186750000Y-101000000D03*
X185250000Y-101000000D03*
X186750000Y-99500000D03*
X185250000Y-99500000D03*
X174750000Y-112000000D03*
X173250000Y-112000000D03*
X174750000Y-109000000D03*
X173250000Y-109000000D03*
D17*
X171000000Y-105250000D03*
X171000000Y-103750000D03*
X170000000Y-111250000D03*
X170000000Y-109750000D03*
X159000000Y-100250000D03*
X159000000Y-98750000D03*
D26*
X161750000Y-102000000D03*
X160250000Y-102000000D03*
D17*
X157500000Y-98750000D03*
X157500000Y-100250000D03*
X163500000Y-100250000D03*
X163500000Y-98750000D03*
X162000000Y-100250000D03*
X162000000Y-98750000D03*
X170000000Y-100250000D03*
X170000000Y-98750000D03*
X175000000Y-92250000D03*
X175000000Y-90750000D03*
D26*
X161750000Y-103500000D03*
X160250000Y-103500000D03*
X161750000Y-106500000D03*
X160250000Y-106500000D03*
X161750000Y-105000000D03*
X160250000Y-105000000D03*
D17*
X168500000Y-100250000D03*
X168500000Y-98750000D03*
X172000000Y-92250000D03*
X172000000Y-90750000D03*
X160500000Y-98750000D03*
X160500000Y-100250000D03*
X164000000Y-114250000D03*
X164000000Y-112750000D03*
X165500000Y-114250000D03*
X165500000Y-112750000D03*
X167000000Y-114250000D03*
X167000000Y-112750000D03*
X168500000Y-114250000D03*
X168500000Y-112750000D03*
X222500000Y-121750000D03*
X222500000Y-120250000D03*
X213500000Y-121750000D03*
X213500000Y-120250000D03*
D26*
X197750000Y-122500000D03*
X199250000Y-122500000D03*
X190250000Y-120500000D03*
X188750000Y-120500000D03*
X192750000Y-120500000D03*
X191250000Y-120500000D03*
D17*
X207000000Y-121750000D03*
X207000000Y-120250000D03*
D26*
X192250000Y-108500000D03*
X190750000Y-108500000D03*
X192250000Y-107000000D03*
X190750000Y-107000000D03*
X192250000Y-101000000D03*
X190750000Y-101000000D03*
X192250000Y-99500000D03*
X190750000Y-99500000D03*
X192250000Y-105500000D03*
X190750000Y-105500000D03*
X192250000Y-102500000D03*
X190750000Y-102500000D03*
X184750000Y-110250000D03*
X183250000Y-110250000D03*
X219250000Y-101500000D03*
X220750000Y-101500000D03*
X219250000Y-103000000D03*
X220750000Y-103000000D03*
D17*
X211500000Y-121750000D03*
X211500000Y-120250000D03*
X210000000Y-121750000D03*
X210000000Y-120250000D03*
D26*
X219250000Y-105000000D03*
X220750000Y-105000000D03*
D17*
X226500000Y-90250000D03*
X226500000Y-91750000D03*
X225000000Y-90250000D03*
X225000000Y-91750000D03*
D26*
X219250000Y-110500000D03*
X220750000Y-110500000D03*
D17*
X215500000Y-90250000D03*
X215500000Y-91750000D03*
X217000000Y-91750000D03*
X217000000Y-90250000D03*
D28*
X175500000Y-122500000D03*
X175500000Y-120500000D03*
D29*
X173500000Y-120250000D03*
X173500000Y-121750000D03*
X166000000Y-120250000D03*
X166000000Y-121750000D03*
D28*
X164000000Y-122500000D03*
X164000000Y-120500000D03*
D29*
X145000000Y-104250000D03*
X145000000Y-105750000D03*
X146500000Y-104250000D03*
X146500000Y-105750000D03*
X138500000Y-97250000D03*
X138500000Y-98750000D03*
X137000000Y-97250000D03*
X137000000Y-98750000D03*
D30*
X124500000Y-113000000D03*
X122500000Y-113000000D03*
D31*
X131750000Y-106000000D03*
X133250000Y-106000000D03*
X131750000Y-104500000D03*
X133250000Y-104500000D03*
X137250000Y-95500000D03*
X135750000Y-95500000D03*
X140250000Y-95500000D03*
X138750000Y-95500000D03*
D29*
X142000000Y-97250000D03*
X142000000Y-98750000D03*
D31*
X186750000Y-97000000D03*
X185250000Y-97000000D03*
D29*
X165500000Y-90750000D03*
X165500000Y-92250000D03*
X172500000Y-106750000D03*
X172500000Y-105250000D03*
X172500000Y-102250000D03*
X172500000Y-103750000D03*
X167000000Y-111250000D03*
X167000000Y-109750000D03*
X168500000Y-111250000D03*
X168500000Y-109750000D03*
X164000000Y-111250000D03*
X164000000Y-109750000D03*
X165500000Y-111250000D03*
X165500000Y-109750000D03*
X162500000Y-112750000D03*
X162500000Y-114250000D03*
X170000000Y-112750000D03*
X170000000Y-114250000D03*
X171500000Y-98750000D03*
X171500000Y-100250000D03*
D28*
X173500000Y-100000000D03*
X173500000Y-98000000D03*
D31*
X166750000Y-99750000D03*
X165250000Y-99750000D03*
D30*
X165000000Y-98000000D03*
X167000000Y-98000000D03*
D29*
X171750000Y-109750000D03*
X171750000Y-111250000D03*
D31*
X160250000Y-108000000D03*
X161750000Y-108000000D03*
D30*
X158500000Y-108000000D03*
X156500000Y-108000000D03*
D31*
X202250000Y-122500000D03*
X200750000Y-122500000D03*
D29*
X204000000Y-120250000D03*
X204000000Y-121750000D03*
D31*
X196250000Y-122500000D03*
X194750000Y-122500000D03*
D29*
X214000000Y-115250000D03*
X214000000Y-113750000D03*
X217000000Y-111750000D03*
X217000000Y-110250000D03*
D31*
X188750000Y-115500000D03*
X187250000Y-115500000D03*
X190250000Y-115500000D03*
X191750000Y-115500000D03*
D29*
X208500000Y-120250000D03*
X208500000Y-121750000D03*
D31*
X190750000Y-104000000D03*
X192250000Y-104000000D03*
D29*
X215500000Y-111750000D03*
X215500000Y-110250000D03*
D31*
X214750000Y-98500000D03*
X216250000Y-98500000D03*
X190750000Y-97000000D03*
X192250000Y-97000000D03*
X214250000Y-104500000D03*
X215750000Y-104500000D03*
D29*
X192500000Y-112250000D03*
X192500000Y-110750000D03*
X218000000Y-105250000D03*
X218000000Y-103750000D03*
X218000000Y-102250000D03*
X218000000Y-100750000D03*
D32*
X140250000Y-92100000D03*
X131750000Y-92100000D03*
D33*
X174150000Y-103900000D03*
X174150000Y-106100000D03*
X175850000Y-106100000D03*
X175850000Y-103900000D03*
D34*
X195850000Y-120950000D03*
X202150000Y-120950000D03*
X202150000Y-120050000D03*
X195850000Y-120050000D03*
D35*
X218100000Y-113650000D03*
X215900000Y-113650000D03*
X215900000Y-115350000D03*
X218100000Y-115350000D03*
D36*
X167050000Y-90850000D03*
X167050000Y-92150000D03*
X167050000Y-91500000D03*
X168950000Y-92150000D03*
X168950000Y-90850000D03*
D37*
X224450000Y-120700000D03*
X224450000Y-122300000D03*
X228550000Y-120700000D03*
X228550000Y-122300000D03*
X214950000Y-120700000D03*
X214950000Y-122300000D03*
X219050000Y-120700000D03*
X219050000Y-122300000D03*
D38*
X132550000Y-112000000D03*
X134450000Y-112000000D03*
X133500000Y-110000000D03*
D39*
X220500000Y-108950000D03*
X220500000Y-107050000D03*
X218500000Y-108000000D03*
D40*
X182000000Y-121800000D03*
X182000000Y-120200000D03*
X130500000Y-100700000D03*
X130500000Y-102300000D03*
X132700000Y-95500000D03*
X134300000Y-95500000D03*
X143500000Y-110200000D03*
X143500000Y-111800000D03*
X176000000Y-108700000D03*
X176000000Y-110300000D03*
X176000000Y-111700000D03*
X176000000Y-113300000D03*
X189700000Y-123000000D03*
X191300000Y-123000000D03*
D26*
X128750000Y-113000000D03*
X130250000Y-113000000D03*
D41*
X148000000Y-105450000D03*
X148000000Y-104550000D03*
X135500000Y-97550000D03*
X135500000Y-98450000D03*
D17*
X156500000Y-104750000D03*
X156500000Y-106250000D03*
D26*
X184250000Y-115500000D03*
X185750000Y-115500000D03*
D42*
X182050000Y-103460000D03*
X185950000Y-103460000D03*
X182050000Y-104730000D03*
X185950000Y-104730000D03*
X182050000Y-106000000D03*
X185950000Y-106000000D03*
X182050000Y-107270000D03*
X185950000Y-107270000D03*
X182050000Y-108540000D03*
X185950000Y-108540000D03*
D43*
X162100000Y-120500000D03*
X159900000Y-120500000D03*
X162100000Y-122500000D03*
X159900000Y-122500000D03*
D35*
X130100000Y-109770000D03*
D44*
X130100000Y-108050000D03*
X127900000Y-108050000D03*
X127900000Y-109950000D03*
D45*
X157000000Y-123050000D03*
X157000000Y-120950000D03*
D46*
X184950000Y-121500000D03*
X187050000Y-121500000D03*
M02*
