M48
; DRILL file {KiCad (5.1.2)-1} date 11/21/19 17:42:24
; FORMAT={-:-/ absolute / metric / decimal}
; #@! TF.CreationDate,2019-11-21T17:42:24-03:00
; #@! TF.GenerationSoftware,Kicad,Pcbnew,(5.1.2)-1
; #@! TF.FileFunction,Plated,1,2,PTH
FMAT,2
METRIC
T1C0.300
T2C0.500
T3C0.550
T4C1.000
%
G90
G05
T1
X125.0Y-105.7
X125.9Y-108.6
X128.8Y-99.4
X129.25Y-98.95
X132.5Y-105.2
X133.0Y-96.5
X134.0Y-108.4
X134.0Y-109.0
X137.0Y-114.5
X137.6Y-114.5
X137.75Y-97.25
X138.5Y-104.1
X138.5Y-105.0
X139.4Y-104.1
X139.4Y-105.0
X140.5Y-96.5
X141.3Y-109.4
X143.075Y-107.8
X144.1Y-105.5
X144.6Y-113.675
X145.088Y-113.188
X146.8Y-98.82
X146.85Y-95.7
X147.48Y-98.82
X149.9Y-100.9
X150.2Y-113.7
X151.2Y-113.3
X157.5Y-94.2
X157.5Y-95.0
X158.0Y-114.95
X158.3Y-99.5
X158.4Y-94.2
X158.4Y-95.0
X158.9Y-104.2
X159.0Y-105.6
X159.154Y-123.654
X159.6Y-114.8
X159.746Y-123.654
X159.8Y-101.0
X161.224Y-99.476
X161.4Y-112.0
X162.7Y-98.127
X162.8Y-107.2
X163.299Y-104.401
X163.5Y-99.3
X163.9Y-103.5
X164.0Y-110.6
X164.0Y-112.1
X164.4Y-103.0
X165.5Y-110.6
X165.5Y-112.1
X166.1Y-98.0
X166.6Y-105.3
X166.6Y-105.9
X167.0Y-110.554
X167.0Y-112.1
X167.4Y-105.3
X167.4Y-105.9
X167.401Y-100.999
X168.5Y-99.4
X168.5Y-110.554
X168.5Y-112.05
X170.2Y-106.9
X170.6Y-89.8
X170.792Y-94.934
X170.8Y-93.1
X171.4Y-93.1
X171.7Y-119.421
X172.379Y-119.421
X172.4Y-96.9
X173.243Y-118.625
X174.3Y-123.0
X175.498Y-121.275
X175.5Y-93.2
X176.15Y-118.8
X176.3Y-114.4
X176.3Y-115.35
X176.837Y-114.875
X176.9Y-106.4
X176.9Y-107.0
X177.843Y-115.243
X177.9Y-92.6
X178.25Y-101.7
X179.0Y-91.7
X179.35Y-105.3
X179.4Y-121.0
X179.7Y-91.7
X180.0Y-100.9
X180.0Y-100.9
X180.2Y-121.0
X180.7Y-100.9
X181.0Y-111.3
X181.7Y-111.3
X184.6Y-100.2
X184.8Y-98.6
X186.146Y-123.654
X186.754Y-123.654
X187.4Y-111.9
X187.5Y-110.75
X187.7Y-120.2
X188.0Y-111.9
X188.1Y-110.75
X189.3Y-106.2
X189.55Y-109.35
X189.9Y-92.2
X190.6Y-92.2
X191.179Y-110.75
X191.3Y-111.5
X191.75Y-110.75
X192.637Y-109.626
X193.0Y-101.0
X193.194Y-106.008
X193.6Y-105.5
X193.6Y-110.0
X193.607Y-106.509
X193.805Y-108.995
X194.3Y-107.2
X194.3Y-109.5
X194.313Y-108.525
X196.634Y-105.027
X196.8Y-105.7
X196.8Y-106.4
X197.0Y-122.5
X197.05Y-104.5
X197.2Y-103.5
X198.1Y-108.5
X198.3Y-112.7
X198.5Y-122.5
X198.613Y-107.563
X198.774Y-118.937
X198.973Y-99.7
X199.011Y-115.961
X199.025Y-106.45
X199.025Y-112.675
X199.5Y-102.1
X199.869Y-115.969
X200.0Y-105.5
X200.6Y-104.5
X201.0Y-113.1
X201.0Y-120.3
X201.4Y-117.649
X201.5Y-116.62
X201.5Y-116.62
X202.0Y-116.0
X202.4Y-101.2
X203.0Y-111.475
X203.35Y-120.25
X203.628Y-110.669
X204.103Y-109.7
X204.6Y-108.5
X204.7Y-123.0
X205.111Y-100.775
X205.2Y-116.4
X205.45Y-105.0
X205.7Y-110.5
X206.0Y-100.2
X206.2Y-111.0
X206.7Y-110.4
X206.736Y-119.336
X207.25Y-102.35
X207.25Y-111.0
X207.5Y-97.3
X207.687Y-100.461
X207.7Y-122.8
X207.75Y-115.7
X207.9Y-101.5
X208.1Y-107.975
X208.3Y-109.4
X208.3Y-110.1
X208.4Y-101.0
X208.5Y-119.3
X208.8Y-97.3
X209.0Y-109.4
X209.0Y-110.1
X209.1Y-107.0
X209.5Y-97.3
X209.575Y-104.5
X210.0Y-121.0
X210.197Y-105.027
X210.3Y-98.1
X210.9Y-119.5
X211.5Y-121.0
X211.75Y-119.064
X212.383Y-103.975
X212.467Y-103.007
X212.65Y-112.0
X212.7Y-110.0
X212.8Y-113.7
X212.864Y-103.522
X213.1Y-100.925
X213.4Y-99.7
X213.4Y-110.7
X213.875Y-105.5
X213.875Y-106.5
X213.9Y-112.51
X214.3Y-106.0
X215.325Y-108.047
X215.625Y-120.7
X215.775Y-107.574
X216.3Y-108.25
X216.33Y-105.724
X216.775Y-105.25
X216.775Y-106.25
X217.3Y-121.2
X217.4Y-98.5
X217.9Y-120.7
X218.1Y-98.5
X219.0Y-96.1
X219.5Y-111.9
X219.5Y-112.7
X219.61Y-96.325
X220.0Y-122.2
X220.1Y-121.2
X221.3Y-99.7
X222.35Y-100.45
X226.6Y-100.0
X228.5Y-110.999
X229.1Y-123.6
T4
X162.0Y-118.0
X164.54Y-118.0
X167.08Y-118.0
X169.62Y-118.0
X172.16Y-118.0
X174.7Y-118.0
X177.24Y-118.0
X179.78Y-118.0
X182.32Y-118.0
X184.86Y-118.0
X187.4Y-118.0
X189.94Y-118.0
X192.48Y-118.0
X195.02Y-118.0
X197.56Y-118.0
X200.1Y-118.0
X202.64Y-118.0
X205.18Y-118.0
X207.72Y-118.0
X210.26Y-118.0
X212.8Y-118.0
X215.34Y-118.0
X217.88Y-118.0
X220.42Y-118.0
X222.96Y-118.0
X225.5Y-118.0
X228.04Y-118.0
X183.0Y-112.75
X185.54Y-112.75
X147.0Y-91.5
X149.54Y-91.5
X220.5Y-114.73
X223.04Y-102.03
X223.04Y-104.57
X223.04Y-107.11
X223.04Y-109.65
X223.04Y-112.19
X223.04Y-114.73
X225.58Y-102.03
X225.58Y-104.57
X225.58Y-107.11
X225.58Y-109.65
X225.58Y-112.19
X225.58Y-114.73
X228.12Y-102.03
X228.12Y-104.57
X228.12Y-107.11
X228.12Y-109.65
X228.12Y-112.19
X228.12Y-114.73
X162.0Y-94.5
X164.54Y-94.5
X167.08Y-94.5
X169.62Y-94.5
X172.16Y-94.5
X174.7Y-94.5
X177.24Y-94.5
X179.78Y-94.5
X182.32Y-94.5
X184.86Y-94.5
X187.4Y-94.5
X189.94Y-94.5
X192.48Y-94.5
X195.02Y-94.5
X197.56Y-94.5
X200.1Y-94.5
X202.64Y-94.5
X205.18Y-94.5
X207.72Y-94.5
X210.26Y-94.5
X212.8Y-94.5
X215.34Y-94.5
X217.88Y-94.5
X220.42Y-94.5
X222.96Y-94.5
X225.5Y-94.5
X228.04Y-94.5
T2
G00X120.325Y-103.5
M15
G01X120.975Y-103.5
M16
G05
G00X120.325Y-110.5
M15
G01X120.975Y-110.5
M16
G05
T3
G00X123.35Y-104.35
M15
G01X123.35Y-104.65
M16
G05
G00X123.35Y-109.35
M15
G01X123.35Y-109.65
M16
G05
T0
M30
